<svg xmlns="http://www.w3.org/2000/svg" viewBox="0 0 395.04 85.95"><defs><style>.cls-1{fill:#20abad;}.cls-2{fill:#f16122;}</style></defs><title>Asset 1</title><g id="Layer_2" data-name="Layer 2"><g id="Layer_1-2" data-name="Layer 1"><path class="cls-1" d="M112.47,59.76c4,0,7.06,1.15,9.15,3.47s3.12,5.53,3.12,9.62-1,7.28-3.12,9.59S116.49,86,112.47,86s-7-1.16-9.11-3.51-3.15-5.5-3.15-9.59,1.05-7.27,3.15-9.62,5.09-3.47,9.11-3.47m0,4.92a5.7,5.7,0,0,0-4.85,2.17,10,10,0,0,0-1.63,6,9.76,9.76,0,0,0,1.63,6,6.43,6.43,0,0,0,9.7,0,9.69,9.69,0,0,0,1.63-6,9.89,9.89,0,0,0-1.63-6,5.69,5.69,0,0,0-4.85-2.17"/><path class="cls-1" d="M143.15,75.86H138v9.69h-5.79V60.16h11c6.33,0,9.52,2.93,9.52,7.85,0,3.25-1.31,5.53-3.95,6.8l4.45,10.74h-2.89a4.12,4.12,0,0,1-4.2-2.64ZM137.9,65.08v5.86h5.29c2.49,0,3.76-1.2,3.76-2.93s-1.27-2.93-3.76-2.93Z"/><path class="cls-1" d="M159.9,85.55V60.16h9.55c8.07,0,12.66,4.66,12.66,12.51,0,4-1.05,7.09-3.11,9.41s-5.14,3.47-9.11,3.47Zm5.79-4.92h4.2c4.19,0,6.43-3,6.43-8s-2.49-7.59-6.87-7.59h-3.76Z"/><path class="cls-1" d="M195.21,75v5.64h12.52v4.92H189.57V60.16H207.4v4.91H195.21v5.07h11.18V72c0,2-.94,3-2.86,3Z"/><path class="cls-1" d="M225.56,75.86h-5.17v9.69H214.6V60.16h11c6.33,0,9.52,2.93,9.52,7.85,0,3.25-1.3,5.53-4,6.8l4.45,10.74h-2.89a4.13,4.13,0,0,1-4.2-2.64Zm-5.24-10.78v5.86h5.28c2.5,0,3.76-1.2,3.76-2.93s-1.26-2.93-3.76-2.93Z"/><path class="cls-1" d="M260.76,78.71a6.13,6.13,0,0,1,1.05,3.15,2.72,2.72,0,0,1-1.26,2.57A14,14,0,0,1,253.78,86c-8,0-12.41-5-12.41-13.1s4.42-13.09,12.41-13.09a13.29,13.29,0,0,1,6.48,1.44,2.8,2.8,0,0,1,1.26,2.64,5.87,5.87,0,0,1-1,3,10.79,10.79,0,0,0-6.69-2.17c-4.34,0-6.62,3.14-6.62,8.17S249.44,81,253.78,81a11.21,11.21,0,0,0,7-2.32"/><path class="cls-1" d="M268.9,85.55V60.15h2.35c2.36,0,3.44,1.05,3.44,3.26V80.63H287v4.92Z"/><path class="cls-1" d="M304.18,59.76c4,0,7.05,1.15,9.15,3.47s3.11,5.53,3.11,9.62-1.05,7.28-3.11,9.59S308.19,86,304.18,86s-7.06-1.16-9.12-3.51-3.15-5.5-3.15-9.59,1-7.27,3.15-9.62,5.1-3.47,9.12-3.47m0,4.92a5.67,5.67,0,0,0-4.85,2.17,9.89,9.89,0,0,0-1.63,6,9.69,9.69,0,0,0,1.63,6,6.42,6.42,0,0,0,9.69,0,9.69,9.69,0,0,0,1.63-6,9.89,9.89,0,0,0-1.63-6,5.67,5.67,0,0,0-4.84-2.17"/><path class="cls-1" d="M345.89,75q0,11-11.07,11T323.75,75V60.16h2.35c2.35,0,3.44,1,3.44,3.25V74.7c0,4.23,1.73,6.33,5.28,6.33s5.32-2.1,5.28-6.33V60.16h5.79Z"/><path class="cls-1" d="M354.14,85.55V60.16h9.55c8.07,0,12.66,4.66,12.66,12.51,0,4-1.05,7.09-3.11,9.41s-5.14,3.47-9.12,3.47Zm5.79-4.92h4.19c4.2,0,6.44-3,6.44-8s-2.49-7.59-6.87-7.59h-3.76Z"/><path class="cls-1" d="M387.58,60.17l-1.86,0V65h-1.79V60.15l-1.88,0V58.7h5.53Zm4.55,3.27h-1L390,61.63c0,.38.06.63.06.74V65h-1.79V58.7h1.56l1.84,2.72,1.81-2.72H395V65h-1.75V62.37a6.65,6.65,0,0,1,.07-.78Z"/><path class="cls-2" d="M15.11,85.34a37.33,37.33,0,0,0-5.3-16.48.57.57,0,0,0-1,.16,35.7,35.7,0,0,1-2,5.86A38.76,38.76,0,0,1,.15,85a.57.57,0,0,0,.42,1h14a.57.57,0,0,0,.57-.61"/><path class="cls-2" d="M76.13,86a.56.56,0,0,0,.52-.8h0L64.09,54.65l-1.34-3.23a.56.56,0,0,0-.92-.2,26.37,26.37,0,0,0-3.66,3.89,7.47,7.47,0,0,0-1.31,3.42.57.57,0,0,1-1.11.13,8.62,8.62,0,0,1-.13-4.51,24.16,24.16,0,0,1,3.24-6.85l0,0a5,5,0,0,0,.32-4.48l-.79-1.91-5-12.26a.58.58,0,0,0-.94-.19c-3,3-6.34,5.71-8.73,9.21-2.09,3-3.37,6.93-2.75,10.47a.57.57,0,0,1-1,.41c-2.34-3.69-2.75-8.61-1.75-13,1.22-5.39,4.23-10.17,7.06-14.92L46,19.27A8.21,8.21,0,0,0,46.5,12L41.71.35a.57.57,0,0,0-1.05,0C36.41,9.83,28.41,16.74,22.6,25.18a34.15,34.15,0,0,0-4.75,8.76A39.44,39.44,0,0,0,16,44.49c-.19,5.63,1,10.93,1.92,16.43,0,.23.07.46.11.69A20.66,20.66,0,0,1,17.82,71a.57.57,0,0,0,.91.6,27.06,27.06,0,0,0,9.16-14.54A.57.57,0,0,1,29,56.93a32.21,32.21,0,0,1,1.71,3.55c2.34,5.86,1.44,12.94-.9,18.67a28.81,28.81,0,0,1-1.49,3.06c-.48.86-1.05,1.87-1.69,2.85a.57.57,0,0,0,.47.89H51.77a.57.57,0,0,0,.52-.33c.06-.13.11-.26.17-.38a19.09,19.09,0,0,0,.41-13.4.57.57,0,0,1,.89-.63A16.89,16.89,0,0,1,60.5,85.36a.56.56,0,0,0,.57.59Z"/><polygon class="cls-1" points="110.44 43.32 103.65 43.32 103.65 49.68 100.11 49.68 100.11 33.96 110.93 33.96 110.93 37.01 103.61 37.01 103.61 40.32 110.44 40.32 110.44 43.32"/><path class="cls-1" d="M124.11,33.71a7.26,7.26,0,0,1,5.67,2.15,8.7,8.7,0,0,1,1.93,6,8.59,8.59,0,0,1-1.93,5.94,7.2,7.2,0,0,1-5.67,2.17,7.11,7.11,0,0,1-5.64-2.17,8.51,8.51,0,0,1-2-5.94,8.61,8.61,0,0,1,2-6,7.17,7.17,0,0,1,5.64-2.15m0,3a3.53,3.53,0,0,0-3,1.34,6.17,6.17,0,0,0-1,3.72,6.07,6.07,0,0,0,1,3.7,4,4,0,0,0,6,0,6,6,0,0,0,1-3.7,6.1,6.1,0,0,0-1-3.72,3.53,3.53,0,0,0-3-1.34"/><path class="cls-1" d="M152,43.14q0,6.8-6.86,6.79t-6.86-6.79V34h1.46c1.46,0,2.13.65,2.13,2v7c0,2.63,1.07,3.92,3.27,3.92s3.29-1.29,3.27-3.92V34H152Z"/><path class="cls-1" d="M166,43.68h-3.2v6h-3.59V34H166c3.92,0,5.89,1.81,5.89,4.86A4.26,4.26,0,0,1,169.45,43l2.75,6.65h-1.79a2.55,2.55,0,0,1-2.6-1.63ZM162.75,37v3.63H166c1.55,0,2.33-.74,2.33-1.82S167.57,37,166,37Z"/><path class="cls-1" d="M186.51,44.49c0-1.55-.87-2.24-3.18-2.24h-4.77l.69-8.29h9.82v3l-6.9-.07L182,39.6h1.52c4.41,0,6.61,1.64,6.61,4.89,0,3.65-2.58,5.44-6.59,5.44a9.66,9.66,0,0,1-4.93-1,1.31,1.31,0,0,1-.58-1.19,3.24,3.24,0,0,1,.85-2.08,7.61,7.61,0,0,0,4.48,1.27c2.13,0,3.18-.8,3.18-2.39"/><polygon class="cls-1" points="200.68 38.1 198.14 39.76 196.55 37.45 200.9 33.91 204.26 33.91 204.26 46.75 207.8 46.68 207.8 49.69 196.96 49.69 196.96 46.68 200.68 46.75 200.68 38.1"/><path class="cls-2" d="M209.56,36.7a2.86,2.86,0,0,1,.81-2.13,3.33,3.33,0,0,1,4.35,0,3.18,3.18,0,0,1,0,4.26,3.29,3.29,0,0,1-4.35,0,2.86,2.86,0,0,1-.81-2.13m2,1a1.44,1.44,0,0,0,2,0,1.58,1.58,0,0,0,0-2.08,1.48,1.48,0,0,0-2,0,1.56,1.56,0,0,0,0,2.08"/></g></g></svg>