<svg xmlns="http://www.w3.org/2000/svg" viewBox="0 0 94.94 106.38"><defs><style>.cls-1{fill:#f0f2f4;}</style></defs><title>Asset 1</title><g id="Layer_2" data-name="Layer 2"><g id="Layer_1-2" data-name="Layer 1"><path class="cls-1" d="M18.7,105.62a46.24,46.24,0,0,0-6.55-20.39.71.71,0,0,0-1.29.2,43.39,43.39,0,0,1-2.54,7.26,48.11,48.11,0,0,1-8.13,12.5.71.71,0,0,0,.52,1.19H18a.7.7,0,0,0,.7-.76"/><path class="cls-1" d="M94.23,106.38a.7.7,0,0,0,.65-1h0L79.32,67.65l-1.65-4a.7.7,0,0,0-1.14-.24A32.17,32.17,0,0,0,72,68.21a9.27,9.27,0,0,0-1.62,4.24A.71.71,0,0,1,69,72.6,10.77,10.77,0,0,1,68.84,67c.7-3.06,2.41-5.78,4-8.48,0,0,0,0,0,0a6.18,6.18,0,0,0,.4-5.55l-1-2.36L66,35.42a.7.7,0,0,0-1.15-.23C61.14,38.88,57,42.25,54.07,46.58c-2.58,3.77-4.16,8.59-3.4,13a.71.71,0,0,1-1.29.51C46.47,55.49,46,49.4,47.2,44c1.52-6.67,5.24-12.59,8.74-18.46l1-1.7a10.16,10.16,0,0,0,.62-9L51.62.44a.71.71,0,0,0-1.3,0C45.07,12.17,35.17,20.72,28,31.17c-2.29,3.32-4.66,7-5.87,10.84a48,48,0,0,0-2.26,13.06c-.23,7,1.21,13.53,2.37,20.34.05.28.1.56.14.84.64,4,.86,7.76-.29,11.63a.71.71,0,0,0,1.13.75,33.54,33.54,0,0,0,11.33-18,.71.71,0,0,1,1.32-.17A44.25,44.25,0,0,1,38,74.85c2.89,7.26,1.78,16-1.12,23.11a35.86,35.86,0,0,1-1.83,3.8c-.6,1.06-1.31,2.3-2.1,3.52a.71.71,0,0,0,.58,1.1h30.6a.7.7,0,0,0,.64-.4l.21-.48a23.61,23.61,0,0,0,.51-16.58.71.71,0,0,1,1.1-.79,20.88,20.88,0,0,1,8.34,17.52.7.7,0,0,0,.7.73Z"/></g></g></svg>