<?xml version="1.0" encoding="utf-8"?>
<!-- Generator: Adobe Illustrator 23.0.3, SVG Export Plug-In . SVG Version: 6.00 Build 0)  -->
<svg version="1.1" id="Layer_1" xmlns="http://www.w3.org/2000/svg" xmlns:xlink="http://www.w3.org/1999/xlink" x="0px" y="0px"
	 viewBox="0 0 424 85.9" style="enable-background:new 0 0 424 85.9;" xml:space="preserve">
<style type="text/css">
	.st0{fill:#20ABAD;}
	.st1{fill:#F16122;}
</style>
<title>Asset 1</title>
<g>
	<g id="Layer_1-2">
		<path class="st0" d="M141.5,59.8c4,0,7.1,1.2,9.1,3.5c2.1,2.3,3.1,5.5,3.1,9.6s-1,7.3-3.1,9.6c-2.1,2.3-5.1,3.6-9.1,3.6
			s-7-1.2-9.1-3.5s-3.2-5.5-3.2-9.6s1.1-7.3,3.2-9.6S137.4,59.8,141.5,59.8 M141.5,64.7c-1.9-0.1-3.7,0.7-4.9,2.2
			c-1.2,1.8-1.7,3.9-1.6,6c-0.1,2.1,0.4,4.2,1.6,6c2.3,2.7,6.4,3,9.1,0.6c0.2-0.2,0.4-0.4,0.6-0.6c1.2-1.8,1.8-3.9,1.6-6
			c0.1-2.1-0.5-4.2-1.6-6C145.2,65.4,143.3,64.6,141.5,64.7"/>
		<path class="st0" d="M172.1,75.9H167v9.7h-5.8V60.2h11c6.3,0,9.5,2.9,9.5,7.9c0,3.3-1.3,5.5-3.9,6.8l4.4,10.7h-2.9
			c-1.8,0.2-3.5-0.9-4.2-2.6L172.1,75.9z M166.9,65.1v5.9h5.3c2.5,0,3.8-1.2,3.8-2.9s-1.3-2.9-3.8-2.9H166.9z"/>
		<path class="st0" d="M188.9,85.6V60.2h9.6c8.1,0,12.7,4.7,12.7,12.5c0,4-1.1,7.1-3.1,9.4s-5.1,3.5-9.1,3.5H188.9z M194.7,80.6h4.2
			c4.2,0,6.4-3,6.4-8s-2.5-7.6-6.9-7.6h-3.8V80.6z"/>
		<path class="st0" d="M224.2,75v5.6h12.5v4.9h-18.2V60.2h17.8v4.9h-12.2v5.1h11.2V72c0,2-0.9,3-2.9,3H224.2z"/>
		<path class="st0" d="M254.6,75.9h-5.2v9.7h-5.8V60.2h11c6.3,0,9.5,2.9,9.5,7.9c0,3.3-1.3,5.5-4,6.8l4.5,10.7h-2.9
			c-1.8,0.2-3.5-0.9-4.2-2.6L254.6,75.9z M249.3,65.1v5.9h5.3c2.5,0,3.8-1.2,3.8-2.9s-1.3-2.9-3.8-2.9H249.3z"/>
		<path class="st0" d="M289.8,78.7c0.6,0.9,1,2,1,3.2c0.1,1-0.4,2-1.3,2.6c-2.1,1.1-4.4,1.6-6.8,1.6c-8,0-12.4-5-12.4-13.1
			s4.4-13.1,12.4-13.1c2.2-0.1,4.5,0.4,6.5,1.4c0.9,0.6,1.4,1.6,1.3,2.6c-0.1,1.1-0.4,2.1-1,3c-1.9-1.5-4.3-2.2-6.7-2.2
			c-4.3,0-6.6,3.1-6.6,8.2s2.2,8.1,6.6,8.1C285.3,81,287.8,80.2,289.8,78.7"/>
		<path class="st0" d="M297.9,85.6V60.2h2.4c2.4,0,3.4,1,3.4,3.3v17.2H316v4.9L297.9,85.6z"/>
		<path class="st0" d="M333.2,59.8c4,0,7,1.2,9.1,3.5c2.1,2.3,3.1,5.5,3.1,9.6s-1,7.3-3.1,9.6s-5.1,3.6-9.1,3.6s-7.1-1.2-9.1-3.5
			s-3.1-5.5-3.1-9.6s1-7.3,3.1-9.6S329.2,59.8,333.2,59.8 M333.2,64.7c-1.9-0.1-3.7,0.7-4.9,2.2c-1.2,1.8-1.7,3.9-1.6,6
			c-0.1,2.1,0.4,4.2,1.6,6c2.3,2.7,6.4,3,9.1,0.6c0.2-0.2,0.4-0.4,0.6-0.6c1.2-1.8,1.8-3.9,1.6-6c0.1-2.1-0.5-4.2-1.6-6
			C336.9,65.4,335.1,64.6,333.2,64.7"/>
		<path class="st0" d="M374.9,75c0,7.3-3.7,11-11.1,11c-7.4,0-11.1-3.7-11.1-11V60.2h2.4c2.4,0,3.4,1,3.4,3.3v11.3
			c0,4.2,1.7,6.3,5.3,6.3s5.3-2.1,5.3-6.3V60.2h5.8V75z"/>
		<path class="st0" d="M383.1,85.6V60.2h9.5c8.1,0,12.7,4.7,12.7,12.5c0,4-1,7.1-3.1,9.4s-5.1,3.5-9.1,3.5H383.1z M388.9,80.6h4.2
			c4.2,0,6.4-3,6.4-8s-2.5-7.6-6.9-7.6h-3.8V80.6z"/>
		<path class="st0" d="M416.6,60.2h-1.9V65h-1.8v-4.8H411v-1.5h5.5V60.2z M421.1,63.4h-1l-1.1-1.8c0,0.4,0.1,0.6,0.1,0.7V65h-1.8
			v-6.3h1.6l1.8,2.7l1.8-2.7h1.5V65h-1.8v-2.6c0-0.3,0-0.5,0.1-0.8L421.1,63.4z"/>
		<path class="st1" d="M15.1,85.3c-0.5-5.8-2.3-11.5-5.3-16.5c-0.2-0.3-0.5-0.3-0.8-0.1c-0.1,0.1-0.2,0.2-0.2,0.3
			c-0.5,2-1.2,4-2,5.9C5.1,78.6,2.9,82,0.2,85c-0.2,0.2-0.3,0.6-0.1,0.8C0.2,85.9,0.4,86,0.6,86h14C14.9,86,15.1,85.7,15.1,85.3
			C15.1,85.4,15.1,85.4,15.1,85.3"/>
		<path class="st1" d="M76.1,86c0.3,0,0.6-0.2,0.6-0.5c0-0.1,0-0.2-0.1-0.3l0,0L64.1,54.7l-1.3-3.2c-0.1-0.3-0.4-0.4-0.7-0.3
			c-0.1,0-0.1,0.1-0.2,0.1c-1.3,1.2-2.6,2.5-3.7,3.9c-0.7,1-1.2,2.2-1.3,3.4c0,0.3-0.3,0.5-0.6,0.5c-0.2,0-0.4-0.2-0.5-0.4
			c-0.4-1.5-0.5-3-0.1-4.5c0.7-2.4,1.8-4.8,3.2-6.8l0,0c0.8-1.4,0.9-3,0.3-4.5l-0.8-1.9l-5-12.3c-0.1-0.3-0.5-0.4-0.8-0.3
			c-0.1,0-0.1,0.1-0.2,0.1c-3,3-6.3,5.7-8.7,9.2c-2.1,3-3.4,6.9-2.8,10.5c0,0.3-0.2,0.6-0.5,0.6c-0.2,0-0.4-0.1-0.5-0.2
			c-2.3-3.7-2.8-8.6-1.8-13c1.2-5.4,4.2-10.2,7.1-14.9l0.7-1.4c1.3-2.2,1.5-4.9,0.5-7.3L41.7,0.3C41.6,0.1,41.3-0.1,41,0
			c-0.1,0.1-0.2,0.2-0.3,0.3c-4.3,9.5-12.3,16.4-18.1,24.8c-2,2.7-3.6,5.6-4.8,8.8c-1.1,3.4-1.7,7-1.9,10.5
			c-0.2,5.6,1,10.9,1.9,16.4c0,0.2,0.1,0.5,0.1,0.7c0.7,3.1,0.6,6.3-0.2,9.4c-0.1,0.3,0.1,0.6,0.4,0.7c0.2,0.1,0.4,0,0.5-0.1
			c4.6-3.7,7.8-8.8,9.2-14.5c0-0.3,0.3-0.5,0.6-0.5c0.2,0,0.4,0.2,0.5,0.4c0.6,1.1,1.2,2.3,1.7,3.5c2.3,5.9,1.4,12.9-0.9,18.7
			c-0.4,1-0.9,2.1-1.5,3.1c-0.5,0.9-1,1.9-1.7,2.8c-0.2,0.3-0.1,0.6,0.2,0.8c0.1,0.1,0.2,0.1,0.3,0.1h24.7c0.2,0,0.4-0.1,0.5-0.3
			c0.1-0.1,0.1-0.3,0.2-0.4c1.8-4.3,1.9-9,0.4-13.4c-0.1-0.3,0.1-0.6,0.4-0.7c0.2-0.1,0.4,0,0.5,0.1c4.4,3.3,7,8.6,6.7,14.2
			c0,0.3,0.2,0.6,0.5,0.6c0,0,0,0,0,0L76.1,86z"/>
		<polygon class="st0" points="139.4,43.3 132.6,43.3 132.6,49.7 129.1,49.7 129.1,34 139.9,34 139.9,37 132.6,37 132.6,40.3 
			139.4,40.3 		"/>
		<path class="st0" d="M153.1,33.7c2.1-0.1,4.2,0.6,5.7,2.2c1.4,1.7,2.1,3.8,1.9,6c0.1,2.2-0.6,4.3-1.9,5.9
			c-1.5,1.5-3.6,2.3-5.7,2.2c-2.1,0.2-4.2-0.6-5.6-2.2c-1.4-1.7-2.1-3.8-2-5.9c-0.1-2.2,0.6-4.3,2-6C148.9,34.3,151,33.6,153.1,33.7
			 M153.1,36.7c-1.2-0.1-2.3,0.4-3,1.3c-0.7,1.1-1.1,2.4-1,3.7c-0.1,1.3,0.3,2.6,1,3.7c1.5,1.7,4,1.8,5.6,0.4
			c0.1-0.1,0.2-0.2,0.4-0.4c0.7-1.1,1.1-2.4,1-3.7c0.1-1.3-0.3-2.6-1-3.7C155.4,37.1,154.3,36.6,153.1,36.7"/>
		<path class="st0" d="M181,43.1c0,4.5-2.3,6.8-6.9,6.8s-6.9-2.3-6.9-6.8V34h1.5c1.5,0,2.1,0.7,2.1,2v7c0,2.6,1.1,3.9,3.3,3.9
			s3.3-1.3,3.3-3.9v-9h3.6V43.1z"/>
		<path class="st0" d="M195,43.7h-3.2v6h-3.6V34h6.8c3.9,0,5.9,1.8,5.9,4.9c0.1,1.8-0.9,3.4-2.4,4.1l2.8,6.7h-1.8
			c-1.1,0.1-2.2-0.6-2.6-1.6L195,43.7z M191.8,37v3.6h3.3c1.6,0,2.3-0.7,2.3-1.8S196.6,37,195,37H191.8z"/>
		<path class="st0" d="M215.5,44.5c0-1.5-0.9-2.2-3.2-2.2h-4.8l0.7-8.3h9.8v3l-6.9-0.1l-0.2,2.7h1.5c4.4,0,6.6,1.6,6.6,4.9
			c0,3.7-2.6,5.4-6.6,5.4c-1.7,0.1-3.4-0.2-4.9-1c-0.4-0.3-0.6-0.7-0.6-1.2c0-0.8,0.3-1.5,0.9-2.1c1.3,0.9,2.9,1.3,4.5,1.3
			C214.5,46.9,215.5,46.1,215.5,44.5"/>
		<polygon class="st0" points="229.7,38.1 227.1,39.8 225.6,37.5 229.9,33.9 233.3,33.9 233.3,46.8 236.8,46.7 236.8,49.7 226,49.7 
			226,46.7 229.7,46.8 		"/>
		<path class="st1" d="M238.6,36.7c0-0.8,0.3-1.6,0.8-2.1c1.2-1.1,3.1-1.1,4.4,0c1.1,1.2,1.1,3,0,4.3c-1.2,1.1-3.1,1.1-4.4,0
			C238.8,38.3,238.5,37.5,238.6,36.7 M240.6,37.7c0.6,0.5,1.4,0.5,2,0c0.5-0.6,0.5-1.5,0-2.1c-0.6-0.5-1.4-0.5-2,0
			C240,36.2,240,37.1,240.6,37.7"/>
	</g>
</g>
</svg>
