<?xml version="1.0" encoding="utf-8"?>
<!-- Generator: Adobe Illustrator 23.0.3, SVG Export Plug-In . SVG Version: 6.00 Build 0)  -->
<svg version="1.1" id="Layer_1" xmlns="http://www.w3.org/2000/svg" xmlns:xlink="http://www.w3.org/1999/xlink" x="0px" y="0px"
	 viewBox="0 0 144.27 25.97" style="enable-background:new 0 0 144.27 25.97;" xml:space="preserve">
<style type="text/css">
	.st0{fill:#FFFFFF;}
	.st1{fill:#1C2129;}
	.st2{fill:#ADADAD;}
	.st3{fill:#6F6F6F;}
	.st4{fill:#F16122;}
	.st5{fill:#20ABAD;}
</style>
<path class="st0" d="M6.13,12.98c1.99,0,3.5,0.57,4.54,1.72c1.02,1.17,1.54,2.75,1.54,4.77c0,2.03-0.52,3.61-1.54,4.75
	c-1.04,1.17-2.55,1.74-4.54,1.74s-3.5-0.57-4.52-1.74c-1.04-1.15-1.56-2.73-1.56-4.75c0-2.03,0.52-3.61,1.56-4.77
	C2.63,13.55,4.14,12.98,6.13,12.98z M6.13,15.42c-1.06,0-1.87,0.36-2.4,1.08c-0.54,0.74-0.81,1.72-0.81,2.98s0.27,2.24,0.81,2.96
	c0.54,0.74,1.35,1.09,2.4,1.09c1.06,0,1.87-0.36,2.4-1.09c0.54-0.72,0.81-1.7,0.81-2.96s-0.27-2.24-0.81-2.98
	C8,15.78,7.19,15.42,6.13,15.42z"/>
<path class="st0" d="M21.34,20.96h-2.57v4.81h-2.87v-12.6h5.44c3.14,0,4.72,1.45,4.72,3.89c0,1.61-0.65,2.75-1.96,3.37l2.21,5.33
	h-1.44c-1.02,0-1.72-0.43-2.08-1.31L21.34,20.96z M18.74,15.62v2.91h2.62c1.24,0,1.87-0.59,1.87-1.45c0-0.86-0.63-1.45-1.87-1.45
	H18.74z"/>
<path class="st0" d="M29.65,25.77v-12.6h4.74c4,0,6.28,2.31,6.28,6.21c0,1.96-0.52,3.52-1.54,4.67c-1.04,1.15-2.55,1.72-4.52,1.72
	H29.65z M32.52,23.33h2.08c2.08,0,3.19-1.51,3.19-3.95c0-2.39-1.24-3.77-3.41-3.77h-1.87V23.33z"/>
<path class="st0" d="M47.16,20.53v2.8h6.21v2.44h-9.01v-12.6h8.85v2.44h-6.05v2.51h5.54v0.9c0,1-0.47,1.51-1.42,1.51H47.16z"/>
<path class="st0" d="M62.22,20.96h-2.57v4.81h-2.87v-12.6h5.44c3.14,0,4.72,1.45,4.72,3.89c0,1.61-0.65,2.75-1.96,3.37l2.21,5.33
	h-1.44c-1.02,0-1.72-0.43-2.08-1.31L62.22,20.96z M59.62,15.62v2.91h2.62c1.24,0,1.87-0.59,1.87-1.45c0-0.86-0.63-1.45-1.87-1.45
	H59.62z"/>
<path class="st0" d="M79.67,22.38c0.34,0.56,0.52,1.08,0.52,1.56c0,0.61-0.22,1.04-0.63,1.27c-0.92,0.5-2.05,0.75-3.36,0.75
	c-3.97,0-6.15-2.46-6.15-6.5c0-4.04,2.19-6.5,6.15-6.5c1.27,0,2.33,0.23,3.21,0.72c0.41,0.23,0.63,0.68,0.63,1.31
	c0,0.45-0.18,0.93-0.52,1.49c-0.95-0.72-2.06-1.08-3.32-1.08c-2.15,0-3.28,1.56-3.28,4.06c0,2.49,1.13,4.05,3.28,4.05
	C77.5,23.53,78.65,23.15,79.67,22.38z"/>
<path class="st0" d="M83.71,25.77v-12.6h1.17c1.17,0,1.7,0.52,1.7,1.61v8.54h6.1v2.44H83.71z"/>
<path class="st0" d="M101.21,12.98c1.99,0,3.5,0.57,4.54,1.72c1.02,1.17,1.54,2.75,1.54,4.77c0,2.03-0.52,3.61-1.54,4.75
	c-1.04,1.17-2.55,1.74-4.54,1.74c-1.99,0-3.5-0.57-4.52-1.74c-1.04-1.15-1.56-2.73-1.56-4.75c0-2.03,0.52-3.61,1.56-4.77
	C97.71,13.55,99.21,12.98,101.21,12.98z M101.21,15.42c-1.06,0-1.87,0.36-2.4,1.08c-0.54,0.74-0.81,1.72-0.81,2.98
	s0.27,2.24,0.81,2.96c0.54,0.74,1.35,1.09,2.4,1.09c1.06,0,1.87-0.36,2.4-1.09c0.54-0.72,0.81-1.7,0.81-2.96s-0.27-2.24-0.81-2.98
	C103.07,15.78,102.26,15.42,101.21,15.42z"/>
<path class="st0" d="M121.89,20.53c0,3.62-1.83,5.44-5.49,5.44c-3.66,0-5.49-1.81-5.49-5.44v-7.36h1.17c1.17,0,1.7,0.52,1.7,1.61
	v5.6c-0.02,2.1,0.86,3.14,2.62,3.14c1.76,0,2.64-1.04,2.62-3.14v-7.21h2.87V20.53z"/>
<path class="st0" d="M125.98,25.77v-12.6h4.74c4,0,6.28,2.31,6.28,6.21c0,1.96-0.52,3.52-1.54,4.67c-1.04,1.15-2.55,1.72-4.52,1.72
	H125.98z M128.86,23.33h2.08c2.08,0,3.19-1.51,3.19-3.95c0-2.39-1.24-3.77-3.41-3.77h-1.87V23.33z"/>
<path class="st0" d="M140.57,13.18l-0.92-0.01v2.43h-0.89v-2.43l-0.93,0.01v-0.73h2.74V13.18z M142.83,14.81h-0.5l-0.56-0.9
	c0.02,0.19,0.03,0.31,0.03,0.37v1.33h-0.89v-3.15h0.77l0.91,1.35l0.9-1.35h0.78v3.15h-0.87v-1.33c0-0.07,0.01-0.2,0.03-0.39
	L142.83,14.81z"/>
<path class="st0" d="M5.12,4.77H1.76v3.16H0v-7.8h5.37v1.51H1.73v1.64h3.39V4.77z"/>
<path class="st0" d="M11.9,0c1.23,0,2.17,0.36,2.81,1.07c0.63,0.72,0.96,1.7,0.96,2.96s-0.32,2.23-0.96,2.94
	c-0.64,0.72-1.58,1.08-2.81,1.08c-1.23,0-2.17-0.36-2.8-1.08C8.46,6.26,8.14,5.28,8.14,4.02S8.46,1.79,9.1,1.07
	C9.74,0.36,10.67,0,11.9,0z M11.9,1.51c-0.66,0-1.16,0.22-1.49,0.67c-0.33,0.46-0.5,1.07-0.5,1.84c0,0.78,0.17,1.39,0.5,1.83
	c0.33,0.46,0.83,0.68,1.49,0.68c0.66,0,1.16-0.22,1.49-0.68c0.33-0.44,0.5-1.06,0.5-1.83c0-0.78-0.17-1.39-0.5-1.84
	C13.06,1.73,12.56,1.51,11.9,1.51z"/>
<path class="st0" d="M25.72,4.68c0,2.24-1.13,3.37-3.4,3.37s-3.4-1.12-3.4-3.37V0.12h0.72c0.72,0,1.06,0.32,1.06,1v3.47
	c-0.01,1.3,0.53,1.94,1.62,1.94c1.09,0,1.63-0.64,1.62-1.94V0.12h1.78V4.68z"/>
<path class="st0" d="M32.68,4.94h-1.59v2.98h-1.78v-7.8h3.37c1.94,0,2.92,0.9,2.92,2.41c0,1-0.4,1.7-1.21,2.09l1.37,3.3h-0.89
	c-0.63,0-1.07-0.27-1.29-0.81L32.68,4.94z M31.07,1.63v1.8h1.62c0.77,0,1.16-0.37,1.16-0.9c0-0.53-0.39-0.9-1.16-0.9H31.07z"/>
<path class="st0" d="M42.85,5.34c0-0.77-0.43-1.11-1.58-1.11h-2.37l0.34-4.11h4.87v1.51L40.7,1.6l-0.1,1.32h0.76
	c2.19,0,3.28,0.81,3.28,2.42c0,1.81-1.28,2.7-3.27,2.7c-1.06,0-1.88-0.18-2.44-0.52c-0.19-0.12-0.29-0.31-0.29-0.59
	c0-0.3,0.14-0.76,0.42-1.03c0.6,0.42,1.34,0.63,2.22,0.63C42.33,6.53,42.85,6.13,42.85,5.34z"/>
<path class="st0" d="M49.87,2.18L48.62,3l-0.79-1.14l2.16-1.76h1.67v6.37l1.76-0.03v1.49h-5.38V6.43l1.84,0.03V2.18z"/>
<path class="st0" d="M54.28,1.48c0-0.44,0.13-0.78,0.4-1.06c0.27-0.27,0.63-0.4,1.08-0.4s0.81,0.13,1.08,0.4
	c0.27,0.27,0.4,0.62,0.4,1.06s-0.13,0.78-0.4,1.06c-0.27,0.27-0.63,0.4-1.08,0.4s-0.81-0.13-1.08-0.4
	C54.41,2.27,54.28,1.92,54.28,1.48z M55.26,1.99c0.26,0.27,0.74,0.27,1,0c0.26-0.26,0.26-0.76,0-1.04c-0.26-0.26-0.74-0.26-1,0
	C55,1.23,55,1.73,55.26,1.99z"/>
</svg>
