<?xml version="1.0" encoding="utf-8"?>
<!-- Generator: Adobe Illustrator 23.0.3, SVG Export Plug-In . SVG Version: 6.00 Build 0)  -->
<svg version="1.1" id="Layer_1" xmlns="http://www.w3.org/2000/svg" xmlns:xlink="http://www.w3.org/1999/xlink" x="0px" y="0px"
	 viewBox="0 0 250.32 72.14" style="enable-background:new 0 0 250.32 72.14;" xml:space="preserve">
<style type="text/css">
	.st0{fill:#F16122;}
	.st1{fill:#FFFFFF;}
	.st2{fill:#1C2129;}
	.st3{fill:#6F6F6F;}
</style>
<g>
	<g>
		<g>
			<path class="st0" d="M12.5,70.61c-0.37-4.8-1.88-9.52-4.39-13.64c-0.22-0.36-0.76-0.27-0.86,0.14c-0.42,1.66-0.99,3.29-1.69,4.85
				c-1.29,2.86-3.14,5.85-5.44,8.36c-0.28,0.31-0.07,0.8,0.35,0.8h11.56C12.31,71.12,12.53,70.89,12.5,70.61z"/>
			<path class="st0" d="M63,71.12c0.34,0,0.58-0.36,0.43-0.67c0,0,0-0.01,0-0.01l-10.4-25.22l-1.1-2.68
				c-0.13-0.31-0.52-0.39-0.77-0.16c-1.07,1.03-2.19,2-3.03,3.22c-0.57,0.83-0.98,1.84-1.08,2.83c-0.05,0.51-0.76,0.59-0.92,0.1
				c-0.38-1.18-0.39-2.51-0.11-3.73c0.47-2.05,1.61-3.87,2.69-5.67c0-0.01,0.01-0.01,0.01-0.02c0.67-1.12,0.76-2.5,0.26-3.71
				l-0.65-1.58l-4.18-10.15c-0.13-0.31-0.53-0.39-0.77-0.15c-2.5,2.47-5.25,4.72-7.23,7.62c-1.73,2.52-2.78,5.74-2.27,8.67
				c0.09,0.51-0.59,0.78-0.86,0.34c-1.94-3.06-2.28-7.13-1.46-10.73c1.01-4.46,3.5-8.41,5.84-12.34c0.22-0.38,0.45-0.76,0.67-1.14
				c1.07-1.83,1.22-4.06,0.41-6.02l-3.97-9.63c-0.16-0.39-0.7-0.39-0.87-0.01C30.13,8.13,23.51,13.86,18.7,20.84
				c-1.53,2.22-3.11,4.66-3.93,7.25c-0.9,2.85-1.41,5.74-1.51,8.73c-0.15,4.65,0.81,9.04,1.59,13.59c0.03,0.19,0.06,0.38,0.09,0.57
				c0.43,2.69,0.57,5.19-0.19,7.77c-0.13,0.45,0.39,0.8,0.75,0.5c3.74-3.05,6.45-7.34,7.58-12.03c0.1-0.42,0.67-0.49,0.88-0.11
				c0.51,0.96,1.01,1.93,1.42,2.94c1.93,4.85,1.19,10.71-0.75,15.45c-0.36,0.87-0.76,1.72-1.23,2.54c-0.4,0.71-0.87,1.54-1.4,2.36
				c-0.21,0.32,0.02,0.74,0.39,0.74h20.45c0.18,0,0.35-0.11,0.43-0.27c0.05-0.11,0.09-0.21,0.14-0.32
				c1.46-3.49,1.57-7.51,0.34-11.08c-0.15-0.44,0.36-0.81,0.74-0.53c2.02,1.53,3.63,3.61,4.58,5.96c0.73,1.82,1.07,3.79,0.99,5.75
				c-0.01,0.27,0.21,0.49,0.47,0.49H63z"/>
		</g>
	</g>
	<g>
		<g>
			<path class="st2" d="M94.38,41.96H84.3v9.44h-5.25V28.07h16.06v4.52H84.24v4.92h10.14V41.96z"/>
			<path class="st2" d="M114.66,27.7c3.69,0,6.48,1.06,8.41,3.19c1.89,2.16,2.86,5.09,2.86,8.84s-0.96,6.68-2.86,8.81
				c-1.93,2.16-4.72,3.22-8.41,3.22c-3.69,0-6.48-1.06-8.38-3.22c-1.93-2.13-2.89-5.05-2.89-8.81s0.96-6.68,2.89-8.84
				C108.18,28.76,110.97,27.7,114.66,27.7z M114.66,32.22c-1.96,0-3.46,0.66-4.45,1.99c-1,1.36-1.5,3.19-1.5,5.52
				c0,2.33,0.5,4.16,1.5,5.48c1,1.36,2.49,2.03,4.45,2.03s3.46-0.66,4.45-2.03c1-1.33,1.5-3.16,1.5-5.48c0-2.33-0.5-4.15-1.5-5.52
				C118.12,32.89,116.62,32.22,114.66,32.22z"/>
			<path class="st2" d="M156.01,41.69c0,6.71-3.39,10.07-10.17,10.07s-10.17-3.36-10.17-10.07V28.07h2.16
				c2.16,0,3.16,0.96,3.16,2.99v10.37c-0.03,3.89,1.6,5.82,4.85,5.82c3.26,0,4.89-1.93,4.85-5.82V28.07h5.32V41.69z"/>
			<path class="st2" d="M176.82,42.49h-4.75v8.91h-5.32V28.07h10.07c5.82,0,8.74,2.69,8.74,7.21c0,2.99-1.2,5.09-3.62,6.25
				l4.09,9.87h-2.66c-1.89,0-3.19-0.8-3.86-2.43L176.82,42.49z M172,32.59v5.39h4.85c2.29,0,3.46-1.1,3.46-2.69
				c0-1.6-1.16-2.69-3.46-2.69H172z"/>
			<path class="st2" d="M207.26,43.69c0-2.29-1.3-3.32-4.72-3.32h-7.08l1.03-12.3h14.56v4.52l-10.24-0.1l-0.3,3.96h2.26
				c6.55,0,9.81,2.43,9.81,7.25c0,5.42-3.82,8.08-9.77,8.08c-3.16,0-5.62-0.53-7.31-1.56c-0.57-0.37-0.86-0.93-0.86-1.76
				c0-0.9,0.43-2.26,1.26-3.09c1.8,1.26,4.02,1.89,6.65,1.89C205.7,47.25,207.26,46.05,207.26,43.69z"/>
			<path class="st2" d="M228.27,34.22l-3.76,2.46l-2.36-3.42l6.45-5.25h4.99v19.05l5.25-0.1v4.45h-16.09v-4.45l5.52,0.1V34.22z"/>
		</g>
		<g>
			<path class="st0" d="M241.45,32.13c0-1.3,0.39-2.35,1.21-3.16c0.82-0.82,1.89-1.21,3.23-1.21s2.41,0.39,3.23,1.21
				c0.82,0.82,1.21,1.86,1.21,3.16c0,1.3-0.39,2.35-1.21,3.16c-0.82,0.82-1.89,1.21-3.23,1.21s-2.41-0.39-3.23-1.21
				C241.84,34.48,241.45,33.44,241.45,32.13z M244.39,33.67c0.78,0.82,2.22,0.82,3,0c0.78-0.78,0.78-2.28,0-3.1
				c-0.78-0.78-2.22-0.78-3,0C243.61,31.38,243.61,32.88,244.39,33.67z"/>
		</g>
	</g>
</g>
<g>
	<g>
		<path class="st0" d="M119.19,71.12v-6.44h1.65l1.63,2.48l1.64-2.48h1.64v6.44h-1.65v-3.93l-1.15,1.73h-0.91l-1.19-1.73v3.93
			H119.19z"/>
		<path class="st0" d="M128.82,71.12v-6.44h2.87c0.72,0,1.29,0.18,1.71,0.56c0.42,0.38,0.63,0.86,0.63,1.45
			c0,0.6-0.21,1.09-0.63,1.46c-0.42,0.38-0.99,0.56-1.71,0.56h-1.21v2.4H128.82z M130.47,67.36h1.09c0.48,0,0.79-0.24,0.79-0.64
			c0-0.4-0.3-0.63-0.79-0.63h-1.09V67.36z"/>
		<path class="st0" d="M136.7,71.12v-6.44h1.66v4.99h3.09v1.45H136.7z"/>
		<path class="st0" d="M143.93,70.56v-1.69c0.27,0.25,0.64,0.45,1.1,0.63c0.47,0.17,0.91,0.26,1.32,0.26c0.65,0,0.98-0.17,0.98-0.51
			c0-0.19-0.1-0.28-0.25-0.38c-0.07-0.06-0.3-0.13-0.41-0.17l-0.58-0.18l-0.47-0.14l-0.42-0.17c-0.18-0.07-0.32-0.14-0.42-0.2
			c-0.18-0.14-0.49-0.36-0.63-0.59c-0.12-0.23-0.23-0.57-0.23-0.95c0-1.24,0.98-1.93,2.53-1.93c0.78,0,1.51,0.18,2.18,0.53v1.59
			c-0.28-0.17-0.63-0.32-1.02-0.44c-0.4-0.12-0.77-0.18-1.14-0.18c-0.56,0-0.85,0.14-0.85,0.42c0,0.12,0.07,0.21,0.27,0.29l0.29,0.1
			c0.19,0.06,0.62,0.17,0.88,0.26c0.62,0.2,1.1,0.46,1.45,0.76c0.35,0.3,0.52,0.74,0.52,1.29c0,0.64-0.25,1.13-0.74,1.51
			c-0.49,0.38-1.12,0.56-1.9,0.56C145.43,71.25,144.6,71.02,143.93,70.56z"/>
		<path class="st0" d="M160.51,72.14v-8.01h1.4v8.01H160.51z"/>
		<path class="st0" d="M169.5,71.12v-6.44h1.65l1.63,2.48l1.64-2.48h1.64v6.44h-1.65v-3.93l-1.15,1.73h-0.91l-1.19-1.73v3.93H169.5z
			"/>
		<path class="st0" d="M179.16,71.12v-6.44h1.66v6.44H179.16z"/>
		<path class="st0" d="M183.93,71.12v-6.44h1.42l2.82,3.54v-3.54h1.62v6.44h-1.37l-2.85-3.56v3.56H183.93z"/>
		<path class="st0" d="M192.85,71.12v-6.44h1.42l2.82,3.54v-3.54h1.62v6.44h-1.37l-2.85-3.56v3.56H192.85z"/>
	</g>
</g>
</svg>
