<svg xmlns="http://www.w3.org/2000/svg" viewBox="0 0 399 94">
  <path fill="#fff" d="M114.4 63.8c4 0 7.1 1.2 9.2 3.5 2.1 2.4 3.1 5.5 3.1 9.6s-1.1 7.3-3.1 9.6c-2.1 2.4-5.1 3.5-9.2 3.5-4 0-7.1-1.2-9.1-3.5-2.1-2.3-3.1-5.5-3.1-9.6s1.1-7.3 3.1-9.6c2.1-2.4 5.1-3.5 9.1-3.5m0 4.9c-2.1 0-3.8.7-4.8 2.2-1.1 1.5-1.6 3.5-1.6 6s.5 4.5 1.6 6 2.7 2.2 4.8 2.2c2.1 0 3.8-.7 4.8-2.2 1.1-1.4 1.6-3.4 1.6-6 0-2.5-.5-4.5-1.6-6-1-1.5-2.6-2.2-4.8-2.2m30.7 11.2H140v9.7h-5.8V64.2h11c6.3 0 9.5 2.9 9.5 7.9 0 3.3-1.3 5.5-3.9 6.8l4.5 10.7h-2.9c-2.1 0-3.5-.9-4.2-2.6l-3.1-7.1zm-5.2-10.8V75h5.3c2.5 0 3.8-1.2 3.8-2.9s-1.3-2.9-3.8-2.9h-5.3zm22 20.5V64.2h9.6c8.1 0 12.7 4.7 12.7 12.5 0 3.9-1 7.1-3.1 9.4-2.1 2.3-5.1 3.5-9.1 3.5h-10.1zm5.8-4.9h4.2c4.2 0 6.4-3 6.4-8 0-4.8-2.5-7.6-6.9-7.6h-3.8v15.6zm37.8-5.7c1.9 0 2.9-1 2.9-3v-1.8h-11.2v-5.1h12.2v-4.9h-17.8v25.4h18.2v-4.9h-12.5V79h8.2zm22 .9h-5.2v9.7h-5.8V64.2h11c6.3 0 9.5 2.9 9.5 7.9 0 3.3-1.3 5.5-3.9 6.8l4.5 10.7h-2.9c-2.1 0-3.5-.9-4.2-2.6l-3-7.1zm-5.2-10.8V75h5.3c2.5 0 3.8-1.2 3.8-2.9s-1.3-2.9-3.8-2.9h-5.3zm40.4 13.6c-2.1 1.6-4.4 2.3-7 2.3-4.3 0-6.6-3.1-6.6-8.2s2.3-8.2 6.6-8.2c2.5 0 4.8.7 6.7 2.2.7-1.1 1.1-2.1 1.1-3 0-1.3-.4-2.2-1.3-2.6-1.8-1-3.9-1.4-6.5-1.4-8 0-12.4 5-12.4 13.1S247.8 90 255.8 90c2.6 0 4.9-.5 6.8-1.5.8-.5 1.3-1.3 1.3-2.6-.1-1-.5-2-1.2-3.2m26.3 6.9v-4.9h-12.3V67.4c0-2.2-1.1-3.3-3.4-3.3h-2.4v25.4H289zm17.2-25.8c4 0 7.1 1.2 9.2 3.5 2.1 2.4 3.1 5.5 3.1 9.6s-1.1 7.3-3.1 9.6c-2.1 2.4-5.1 3.5-9.2 3.5-4 0-7.1-1.2-9.1-3.5-2.1-2.3-3.1-5.5-3.1-9.6s1.1-7.3 3.1-9.6c2-2.4 5-3.5 9.1-3.5m0 4.9c-2.1 0-3.8.7-4.8 2.2-1.1 1.5-1.6 3.5-1.6 6s.5 4.5 1.6 6 2.7 2.2 4.8 2.2c2.1 0 3.8-.7 4.8-2.2 1.1-1.4 1.6-3.4 1.6-6 0-2.5-.5-4.5-1.6-6s-2.7-2.2-4.8-2.2m41.7-4.5h-5.8v14.5c0 4.2-1.7 6.3-5.3 6.3-3.5 0-5.3-2.1-5.3-6.3V67.4c0-2.2-1.1-3.3-3.4-3.3h-2.4V79c0 7.3 3.7 11 11.1 11 7.4 0 11.1-3.7 11.1-11V64.2zm8.2 25.4V64.2h9.6c8.1 0 12.7 4.7 12.7 12.5 0 3.9-1.1 7.1-3.1 9.4-2.1 2.3-5.1 3.5-9.1 3.5h-10.1zm5.8-4.9h4.2c4.2 0 6.4-3 6.4-8 0-4.8-2.5-7.6-6.9-7.6h-3.8v15.6zm27.7-20.5h-1.9v4.9h-1.8v-4.9H384v-1.5h5.5v1.5zm4.5 3.3h-1l-1.1-1.8c0 .4.1.6.1.7v2.7h-1.8v-6.3h1.6l1.8 2.7 1.8-2.7h1.6v6.3h-1.8v-2.7c0-.1 0-.4.1-.8l-1.3 1.9zm-377 21.9c-.5-5.8-2.3-11.5-5.3-16.5-.3-.4-.9-.3-1 .2-.5 2-1.2 4-2 5.9-1.7 3.4-3.9 7-6.7 10-.3.4-.1 1 .4 1h14c.4 0 .6-.3.6-.6m61 .6c.4 0 .7-.4.5-.8L66.1 58.7l-1.3-3.2c-.2-.4-.6-.5-.9-.2-1.3 1.2-2.7 2.4-3.7 3.9-.7 1-1.2 2.2-1.3 3.4-.1.6-.9.7-1.1.1-.5-1.4-.5-3-.1-4.5.6-2.5 1.9-4.7 3.2-6.9.8-1.4.9-3 .3-4.5l-.8-1.9-5.1-12.3c-.2-.4-.6-.5-.9-.2-3 3-6.3 5.7-8.7 9.2-2.1 3-3.4 6.9-2.7 10.5.1.6-.7.9-1 .4-2.3-3.7-2.8-8.6-1.8-13 1.2-5.4 4.2-10.2 7.1-14.9.3-.5.5-.9.8-1.4 1.3-2.2 1.5-4.9.5-7.3L43.7 4.4c-.2-.5-.8-.5-1.1 0-4.2 9.5-12.2 16.4-18.1 24.8-1.9 2.7-3.8 5.6-4.7 8.8-1.1 3.4-1.7 6.9-1.8 10.6-.2 5.6 1 10.9 1.9 16.4 0 .2.1.5.1.7.5 3.3.7 6.3-.2 9.4-.2.5.5 1 .9.6 4.5-3.7 7.8-8.9 9.2-14.5.1-.5.8-.6 1.1-.1.6 1.2 1.2 2.3 1.7 3.6 2.3 5.9 1.4 12.9-.9 18.7-.4 1.1-.9 2.1-1.5 3.1-.5.9-1.1 1.9-1.7 2.8-.3.4 0 .9.5.9h24.7c.2 0 .4-.1.5-.3.1-.1.1-.3.2-.4 1.8-4.2 1.9-9.1.4-13.4-.2-.5.4-1 .9-.6 2.4 1.8 4.4 4.4 5.5 7.2.9 2.2 1.3 4.6 1.2 7 0 .3.2.6.6.6h15zm34.3-45.7h-6.8V41h7.3v-3h-10.8v15.7h3.5v-6.4h6.8v-3zm13.7-6.6c2.5 0 4.4.7 5.7 2.1 1.3 1.5 1.9 3.4 1.9 6 0 2.5-.6 4.5-1.9 5.9-1.3 1.5-3.2 2.2-5.7 2.2s-4.4-.7-5.6-2.2c-1.3-1.4-1.9-3.4-1.9-5.9 0-2.5.6-4.5 1.9-6 1.2-1.3 3.1-2.1 5.6-2.1m0 3.1c-1.3 0-2.3.4-3 1.3-.7.9-1 2.1-1 3.7s.3 2.8 1 3.7c.7.9 1.7 1.4 3 1.4s2.3-.4 3-1.4c.7-.9 1-2.1 1-3.7s-.3-2.8-1-3.7c-.7-.9-1.7-1.3-3-1.3M154 38h-3.6v9c0 2.6-1.1 3.9-3.3 3.9-2.2 0-3.3-1.3-3.3-3.9v-7c0-1.4-.7-2-2.1-2h-1.5v9.2c0 4.5 2.3 6.8 6.9 6.8 4.6 0 6.9-2.3 6.9-6.8V38zm14 9.7h-3.2v6h-3.6V38h6.8c3.9 0 5.9 1.8 5.9 4.9 0 2-.8 3.4-2.4 4.2l2.8 6.7h-1.8c-1.3 0-2.2-.5-2.6-1.6l-1.9-4.5zm-3.3-6.7v3.6h3.3c1.5 0 2.3-.7 2.3-1.8s-.8-1.8-2.3-1.8h-3.3zm23.8 7.5c0 1.6-1.1 2.4-3.2 2.4-1.8 0-3.3-.4-4.5-1.3-.6.6-.9 1.5-.9 2.1 0 .6.2.9.6 1.2 1.1.7 2.8 1.1 4.9 1.1 4 0 6.6-1.8 6.6-5.4 0-3.2-2.2-4.9-6.6-4.9h-1.5l.2-2.7h6.9v-3h-9.8l-.7 8.3h4.8c2.3 0 3.2.7 3.2 2.2m14.2 2.3l-3.7-.1v3h10.8v-3l-3.5.1V37.9h-3.4l-4.3 3.5 1.6 2.3 2.5-1.7v8.8zm8.8-10.1c0-.9.3-1.6.8-2.1.6-.6 1.3-.8 2.2-.8.9 0 1.6.3 2.2.8.6.5.8 1.3.8 2.1s-.3 1.6-.8 2.1-1.3.8-2.2.8c-.9 0-1.6-.3-2.2-.8-.5-.5-.8-1.2-.8-2.1m2 1.1c.5.5 1.5.5 2 0s.5-1.5 0-2.1c-.5-.5-1.5-.5-2 0s-.5 1.5 0 2.1"/>
</svg>
