<svg id="Layer_1" data-name="Layer 1" xmlns="http://www.w3.org/2000/svg" xmlns:xlink="http://www.w3.org/1999/xlink" viewBox="0 0 1386 595.78"><defs><style>.cls-1,.cls-10,.cls-11,.cls-12,.cls-14,.cls-15,.cls-16,.cls-3,.cls-4,.cls-5,.cls-6,.cls-7,.cls-9{fill:none;}.cls-2{clip-path:url(#clip-path);}.cls-10,.cls-11,.cls-12,.cls-14,.cls-15,.cls-16,.cls-3,.cls-4,.cls-5,.cls-6,.cls-7,.cls-9{stroke-miterlimit:10;}.cls-10,.cls-11,.cls-14,.cls-15,.cls-16,.cls-3,.cls-4,.cls-5,.cls-6,.cls-9{stroke-width:1.3px;}.cls-3{stroke:url(#linear-gradient);}.cls-4{stroke:url(#linear-gradient-2);}.cls-5{stroke:url(#linear-gradient-3);}.cls-6{stroke:url(#linear-gradient-4);}.cls-12,.cls-7{stroke-width:1.68px;}.cls-7{stroke:url(#linear-gradient-5);}.cls-8{clip-path:url(#clip-path-2);}.cls-9{stroke:url(#linear-gradient-6);}.cls-10{stroke:url(#linear-gradient-7);}.cls-11{stroke:url(#linear-gradient-8);}.cls-12{stroke:url(#linear-gradient-9);}.cls-13{clip-path:url(#clip-path-3);}.cls-14{stroke:url(#linear-gradient-10);}.cls-15{stroke:url(#linear-gradient-11);}.cls-16{stroke:url(#linear-gradient-12);}</style><clipPath id="clip-path"><rect class="cls-1" width="1386" height="595.78"/></clipPath><linearGradient id="linear-gradient" x1="-2952.22" y1="-524.9" x2="-1950.73" y2="-524.9" gradientTransform="translate(-2544.34 -563.93) rotate(180)" gradientUnits="userSpaceOnUse"><stop offset="0" stop-color="#f16122"/><stop offset="0.96" stop-color="#de541f"/></linearGradient><linearGradient id="linear-gradient-2" x1="-3013.95" y1="-1858.46" x2="-1026.19" y2="-1858.46" gradientTransform="translate(-2274 -1763.85) rotate(180)" xlink:href="#linear-gradient"/><linearGradient id="linear-gradient-3" x1="-3919.11" y1="-1378.36" x2="-1931.35" y2="-1378.36" gradientTransform="translate(-2274 -1763.85) rotate(180)" xlink:href="#linear-gradient"/><linearGradient id="linear-gradient-4" x1="-3733.58" y1="-2379.35" x2="-1745.82" y2="-2379.35" gradientTransform="translate(-2274 -1763.85) rotate(180)" xlink:href="#linear-gradient"/><linearGradient id="linear-gradient-5" x1="-4545.13" y1="-1212.83" x2="-3330.32" y2="-1212.83" gradientTransform="translate(-4011.42 -873.29) rotate(180)" xlink:href="#linear-gradient"/><clipPath id="clip-path-2"><rect class="cls-1" y="-666.58" width="1386" height="595.78"/></clipPath><linearGradient id="linear-gradient-6" x1="124.56" y1="-157.86" x2="776.7" y2="-157.86" gradientTransform="matrix(1, 0, 0, 1, 0, 0)" xlink:href="#linear-gradient"/><linearGradient id="linear-gradient-7" x1="-3013.95" y1="-1191.88" x2="-1026.19" y2="-1191.88" gradientTransform="translate(-2274 -1763.85) rotate(180)" xlink:href="#linear-gradient"/><linearGradient id="linear-gradient-8" x1="-3919.11" y1="-711.78" x2="-1931.35" y2="-711.78" gradientTransform="translate(-2274 -1763.85) rotate(180)" xlink:href="#linear-gradient"/><linearGradient id="linear-gradient-9" x1="-4545.13" y1="-546.24" x2="-3330.32" y2="-546.24" gradientTransform="translate(-4011.42 -873.29) rotate(180)" xlink:href="#linear-gradient"/><clipPath id="clip-path-3"><rect class="cls-1" x="-24.82" y="1541.34" width="1491.5" height="648.31"/></clipPath><linearGradient id="linear-gradient-10" x1="-2989.14" y1="-3399.8" x2="-1001.38" y2="-3399.8" gradientTransform="translate(-2274 -1763.85) rotate(180)" xlink:href="#linear-gradient"/><linearGradient id="linear-gradient-11" x1="-3373.49" y1="-3406.99" x2="-1385.73" y2="-3406.99" gradientTransform="translate(-2274 -1763.85) rotate(180)" xlink:href="#linear-gradient"/><linearGradient id="linear-gradient-12" x1="-2416.16" y1="-3308.1" x2="-428.4" y2="-3308.1" gradientTransform="translate(-2274 -1763.85) rotate(180)" xlink:href="#linear-gradient"/></defs><title>Navy Line Pattern with Orange Large A</title><g class="cls-2"><path class="cls-3" d="M292.86-378.66a462.29,462.29,0,0,1,26.71-76.42c20.33-45.13,49.45-92.13,85.66-131.75a7.46,7.46,0,0,0-5.45-12.54H217.64a7.46,7.46,0,0,0-7.46,8A488.25,488.25,0,0,0,279.29-376.5,7.45,7.45,0,0,0,292.86-378.66ZM-592.27-588.87c0,.06,0,.09,0,.09L-428.4-191.3l17.4,42.22a7.45,7.45,0,0,0,12.06,2.53c16.81-16.15,34.56-31.48,47.7-50.66,9-13.14,15.5-28.92,17.05-44.65.79-8,12-9.27,14.5-1.61,5.95,18.57,6.1,39.55,1.73,58.73-7.35,32.29-25.38,60.94-42.33,89.4l-.17.29a65.55,65.55,0,0,0-4.16,58.49l10.23,24.83,65.92,159.93a7.46,7.46,0,0,0,12.16,2.44c39.44-38.86,82.67-74.45,113.91-120,27.19-39.68,43.85-90.43,35.85-136.6-1.4-8.06,9.24-12.28,13.62-5.38C-82.35-63.19-77.07.91-90,57.72c-16,70.25-55.22,132.57-92.09,194.47q-5.31,8.91-10.56,17.92a107.29,107.29,0,0,0-6.5,94.81l62.56,151.8a7.46,7.46,0,0,0,13.72.15C-67.52,393.17,36.75,303,112.58,193c24.15-35,49.07-73.43,61.89-114.23A510.76,510.76,0,0,0,198.26-58.82c2.4-73.3-12.79-142.52-25-214.21q-.76-4.49-1.47-8.91c-6.72-42.4-9-81.73,3.05-122.47a7.46,7.46,0,0,0-11.88-7.9A353.54,353.54,0,0,0,43.52-222.68a7.45,7.45,0,0,1-13.8,1.77c-8.1-15.11-16-30.36-22.31-46.29C-23-343.68-11.28-436,19.26-510.65a361.67,361.67,0,0,1,19.32-40c6.26-11.16,13.7-24.27,22.11-37.13a7.46,7.46,0,0,0-6.2-11.59H-267.82a7.42,7.42,0,0,0-6.76,4.29q-1.14,2.51-2.19,5c-23,54.95-24.69,118.38-5.39,174.66,2.4,7-5.73,12.73-11.62,8.28A222.62,222.62,0,0,1-365.89-501a221.83,221.83,0,0,1-15.67-90.66,7.43,7.43,0,0,0-7.45-7.68H-585.46A7.44,7.44,0,0,0-592.27-588.87Z"/><path class="cls-4" d="M512.14-579.93a918.54,918.54,0,0,1,53.05-151.78c40.39-89.63,98.23-183,170.14-261.66,8.74-9.56,2.12-24.92-10.84-24.92H362.75a14.81,14.81,0,0,0-14.81,15.87c11.71,150.33,58.89,297.93,137.25,426.77C492-564.44,508.93-567.21,512.14-579.93ZM-1245.8-997.43a.73.73,0,0,0,.1.19l325.36,789.42L-885.78-124a14.79,14.79,0,0,0,23.94,5c33.39-32.08,68.65-62.53,94.76-100.62,17.88-26.09,30.77-57.44,33.85-88.68,1.57-15.89,23.92-18.4,28.8-3.2,11.82,36.88,12.12,78.56,3.44,116.64-14.6,64.14-50.41,121.05-84.07,177.56l-.34.57a130.2,130.2,0,0,0-8.27,116.18l20.32,49.3,130.92,317.65a14.83,14.83,0,0,0,24.16,4.84C-539.95,394.11-454.09,323.45-392,232.89c54-78.8,87.08-179.61,71.19-271.29-2.77-16,18.35-24.4,27-10.69,60.75,95.71,71.23,223,45.54,335.84C-280,426.27-357.91,550.05-431.14,673q-10.55,17.7-21,35.58A213,213,0,0,0-465,896.88l124.25,301.48c5,12.08,21.91,12.23,27.25.31C-203.6,953,3.49,773.89,154.09,555.42c48-69.58,97.46-145.85,122.93-226.87,28.05-89.24,44.18-179.64,47.24-273.26,4.77-145.58-25.4-283-49.68-425.44q-1.51-8.89-2.91-17.69c-13.35-84.21-17.94-162.32,6.07-243.23,4.15-14-12.28-24.92-23.61-15.69-117,95.32-201.85,229.84-237.19,376.61-3.18,13.21-21,15.48-27.4,3.51-16.09-30-31.71-60.28-44.31-91.93-60.5-151.9-37.13-335.3,23.53-483.51A716,716,0,0,1,7.12-921.53C19.56-943.68,34.34-969.71,51-995.26a14.82,14.82,0,0,0-12.31-23H-601.4a14.71,14.71,0,0,0-13.43,8.52q-2.26,5-4.36,10c-45.66,109.13-49,235.1-10.69,346.89,4.75,13.86-11.38,25.26-23.08,16.43C-716.29-684.25-766.55-749.35-796.19-823A440.79,440.79,0,0,1-827.31-1003a14.75,14.75,0,0,0-14.79-15.24h-390.16C-1243-1018.28-1250.32-1007.16-1245.8-997.43Z"/><path class="cls-5" d="M1417.3-1060a917.34,917.34,0,0,1,53-151.78c40.38-89.63,98.22-183,170.13-261.65,8.74-9.57,2.12-24.92-10.83-24.92H1267.9a14.8,14.8,0,0,0-14.8,15.87c11.71,150.32,58.89,297.93,137.24,426.77C1397.16-1044.54,1414.08-1047.32,1417.3-1060ZM-340.65-1477.53a.76.76,0,0,0,.1.18L-15.18-687.92l34.56,83.84a14.8,14.8,0,0,0,23.94,5C76.7-631.13,112-661.57,138.07-699.67c17.88-26.09,30.77-57.43,33.86-88.68,1.56-15.89,23.92-18.4,28.79-3.19,11.83,36.88,12.12,78.55,3.45,116.64-14.6,64.14-50.41,121-84.08,177.55-.11.19-.22.39-.34.58a130.18,130.18,0,0,0-8.26,116.17l20.32,49.31L262.73-13.64a14.82,14.82,0,0,0,24.15,4.83C365.2-86,451.06-156.66,513.12-247.22c54-78.79,87.08-179.61,71.19-271.29-2.77-16,18.35-24.4,27.06-10.68,60.74,95.7,71.22,223,45.54,335.84C625.14-53.83,547.24,70,474,192.88q-10.54,17.7-21,35.58a213,213,0,0,0-12.92,188.32L564.39,718.26c5,12.07,21.91,12.23,27.24.3,109.93-245.68,317-424.77,467.62-643.25,48-69.57,97.45-145.84,122.92-226.87,28.06-89.24,44.18-179.63,47.25-273.26,4.76-145.58-25.4-283-49.68-425.44q-1.52-8.9-2.92-17.69c-13.34-84.2-17.94-162.32,6.07-243.23,4.16-14-12.28-24.91-23.6-15.69-117,95.33-201.86,229.85-237.19,376.62-3.18,13.2-21,15.48-27.41,3.51-16.09-30-31.7-60.28-44.31-91.94-60.5-151.9-37.12-335.29,23.54-483.5a716,716,0,0,1,38.35-79.45c12.44-22.16,27.22-48.19,43.93-73.74a14.82,14.82,0,0,0-12.32-23H303.75a14.72,14.72,0,0,0-13.43,8.52q-2.25,5-4.35,10c-45.66,109.14-49.05,235.1-10.7,346.89,4.76,13.86-11.38,25.26-23.08,16.44-63.32-47.79-113.59-112.9-143.22-186.52a440.58,440.58,0,0,1-31.12-180.06,14.77,14.77,0,0,0-14.79-15.25H-327.11C-337.85-1498.39-345.17-1487.27-340.65-1477.53Z"/><path class="cls-6" d="M1231.77-59a919.18,919.18,0,0,1,53-151.78c40.38-89.63,98.22-183,170.14-261.65,8.74-9.57,2.12-24.92-10.84-24.92H1082.38a14.81,14.81,0,0,0-14.81,15.87c11.71,150.32,58.89,297.93,137.25,426.77C1211.64-43.55,1228.55-46.33,1231.77-59ZM-526.17-476.54a1.16,1.16,0,0,0,.09.18l325.37,789.42,34.56,83.85a14.8,14.8,0,0,0,23.94,5c33.39-32.09,68.65-62.53,94.75-100.63,17.88-26.09,30.77-57.43,33.86-88.68,1.57-15.89,23.92-18.4,28.8-3.19C27,246.32,27.32,288,18.64,326.09,4,390.23-31.77,447.13-65.43,503.64c-.11.19-.23.38-.34.58A130.18,130.18,0,0,0-74,620.39l20.32,49.31L77.2,987.35a14.83,14.83,0,0,0,24.16,4.83C179.68,915,265.54,844.33,327.6,753.77c54-78.79,87.08-179.61,71.19-271.29-2.78-16,18.34-24.4,27-10.68,60.74,95.7,71.22,223,45.54,335.84-31.76,139.52-109.67,263.3-182.89,386.23q-10.55,17.7-21,35.58a213.1,213.1,0,0,0-12.92,188.32l124.26,301.47c5,12.08,21.91,12.24,27.24.31,109.93-245.68,317-424.77,467.62-643.25,48-69.57,97.45-145.84,122.93-226.87,28.05-89.24,44.18-179.63,47.24-273.26,4.77-145.58-25.4-283-49.68-425.44q-1.51-8.89-2.91-17.69C978,48.84,973.36-29.28,997.37-110.19c4.15-14-12.29-24.91-23.61-15.69C856.72-30.55,771.91,104,736.57,250.74c-3.18,13.2-21,15.48-27.41,3.51-16.08-30-31.7-60.28-44.3-91.94-60.5-151.9-37.13-335.29,23.53-483.5a716,716,0,0,1,38.35-79.45c12.45-22.16,27.23-48.19,43.93-73.74a14.82,14.82,0,0,0-12.32-23H118.23a14.72,14.72,0,0,0-13.44,8.52q-2.25,5-4.35,10C54.78-369.77,51.4-243.8,89.75-132c4.75,13.86-11.39,25.26-23.09,16.44C3.34-163.36-46.92-228.47-76.56-302.09a440.74,440.74,0,0,1-31.12-180.06,14.75,14.75,0,0,0-14.79-15.25H-512.64C-523.37-497.4-530.69-486.28-526.17-476.54Z"/><path class="cls-7" d="M394.14-72.41a560,560,0,0,1,32.4-92.69c24.66-54.73,60-111.74,103.9-159.79a9.06,9.06,0,0,0-6.62-15.22H302.9a9,9,0,0,0-9,9.69A592.24,592.24,0,0,0,377.68-69.79C381.84-62.94,392.18-64.64,394.14-72.41Zm-1073.57-255q0,.12.06.12l198.7,482.09,21.1,51.21a9,9,0,0,0,14.62,3.07c20.39-19.59,41.93-38.18,57.87-61.45,10.92-15.93,18.79-35.07,20.67-54.15,1-9.71,14.61-11.24,17.59-2,7.22,22.52,7.4,48,2.1,71.23-8.91,39.17-30.78,73.92-51.34,108.43l-.21.35a79.49,79.49,0,0,0-5,70.95l12.4,30.11,80,194a9.05,9.05,0,0,0,14.75,3C-248.37,522.44-195.94,479.29-158,424c33-48.12,53.18-109.68,43.48-165.67-1.7-9.78,11.2-14.9,16.52-6.53,37.1,58.45,43.5,136.19,27.81,205.1-19.4,85.2-67,160.79-111.69,235.87q-6.44,10.82-12.81,21.73a130.1,130.1,0,0,0-7.88,115l75.88,184.12a9,9,0,0,0,16.64.18C-43,863.74,83.51,754.37,175.48,621c29.29-42.49,59.51-89.07,75.07-138.55,17.13-54.5,27-109.7,28.85-166.88,2.91-88.9-15.51-172.86-30.34-259.81q-.92-5.43-1.78-10.81C239.13-6.52,236.33-54.23,251-103.64a9.05,9.05,0,0,0-14.41-9.58C165.1-55,113.3,27.15,91.72,116.78A9,9,0,0,1,75,118.92C65.16,100.6,55.62,82.11,47.93,62.78,11-30,25.25-142,62.3-232.5A438.33,438.33,0,0,1,85.72-281c7.6-13.53,16.63-29.42,26.83-45A9.05,9.05,0,0,0,105-340.11H-285.9a9,9,0,0,0-8.2,5.21q-1.38,3-2.66,6.09c-27.89,66.65-29.95,143.58-6.53,211.85,2.9,8.46-6.95,15.43-14.1,10a270.12,270.12,0,0,1-87.47-113.91,269.16,269.16,0,0,1-19-110,9,9,0,0,0-9-9.32H-671.17A9,9,0,0,0-679.43-327.37Z"/></g><g class="cls-8"><path class="cls-9" d="M199.64,63.15a301.7,301.7,0,0,1-17.38,49.72c-13.23,29.37-32.18,59.95-55.75,85.73a4.86,4.86,0,0,0,3.55,8.17H248.59a4.86,4.86,0,0,0,4.85-5.2,317.79,317.79,0,0,0-45-139.83A4.85,4.85,0,0,0,199.64,63.15Zm576,136.78s0-.06,0-.06L669-58.77,657.65-86.24a4.85,4.85,0,0,0-7.85-1.65c-10.93,10.51-22.49,20.48-31,33-5.86,8.55-10.08,18.82-11.09,29.06-.51,5.2-7.84,6-9.44,1.05-3.87-12.09-4-25.74-1.13-38.22,4.79-21,16.52-39.66,27.55-58.17l.11-.19a42.64,42.64,0,0,0,2.71-38.07l-6.66-16.15L577.92-279.69a4.86,4.86,0,0,0-7.92-1.59c-25.66,25.29-53.79,48.44-74.12,78.11-17.69,25.82-28.53,58.85-23.33,88.89.91,5.24-6,8-8.86,3.5-19.9-31.36-23.34-73.07-14.92-110,10.41-45.72,35.93-86.27,59.92-126.55q3.45-5.79,6.87-11.66a69.79,69.79,0,0,0,4.23-61.7l-40.71-98.77a4.85,4.85,0,0,0-8.92-.1C434.14-439.1,366.29-380.42,317-308.84,301.24-286,285-261,276.67-234.51A332.93,332.93,0,0,0,261.19-145c-1.56,47.7,8.33,92.74,16.28,139.39q.5,2.93,1,5.8c4.37,27.59,5.87,53.18-2,79.69A4.86,4.86,0,0,0,284.17,85,230,230,0,0,0,361.88-38.35a4.84,4.84,0,0,1,9-1.15A295.69,295.69,0,0,1,385.38-9.38C405.2,40.39,397.54,100.47,377.67,149a231.75,231.75,0,0,1-12.57,26c-4.07,7.26-8.92,15.79-14.39,24.16a4.86,4.86,0,0,0,4,7.55H564.48a4.82,4.82,0,0,0,4.4-2.8c.49-1.08,1-2.17,1.42-3.27,15-35.75,16.07-77,3.51-113.65a4.85,4.85,0,0,1,7.56-5.39,142.95,142.95,0,0,1,57.12,120.11,4.84,4.84,0,0,0,4.85,5H771.17A4.85,4.85,0,0,0,775.61,199.93Z"/><path class="cls-10" d="M512.14-1246.51a918.54,918.54,0,0,1,53.05-151.78c40.39-89.63,98.23-183,170.14-261.66,8.74-9.56,2.12-24.92-10.84-24.92H362.75A14.81,14.81,0,0,0,347.94-1669c11.71,150.33,58.89,297.93,137.25,426.77C492-1231,508.93-1233.79,512.14-1246.51ZM-1245.8-1664a1.05,1.05,0,0,0,.1.19L-920.34-874.4l34.56,83.85a14.79,14.79,0,0,0,23.94,5c33.39-32.08,68.65-62.53,94.76-100.62,17.88-26.09,30.77-57.44,33.85-88.68,1.57-15.89,23.92-18.4,28.8-3.2,11.82,36.88,12.12,78.56,3.44,116.64-14.6,64.14-50.41,121-84.07,177.56l-.34.57a130.2,130.2,0,0,0-8.27,116.18l20.32,49.3,130.92,317.65a14.83,14.83,0,0,0,24.16,4.84C-539.95-272.47-454.09-343.13-392-433.69c54-78.8,87.08-179.61,71.19-271.29-2.77-16,18.35-24.4,27-10.69,60.75,95.71,71.23,223,45.54,335.84C-280-240.31-357.91-116.53-431.14,6.41q-10.55,17.7-21,35.58A213,213,0,0,0-465,230.3l124.25,301.48c5,12.08,21.91,12.23,27.25.31C-203.6,286.4,3.49,107.31,154.09-111.16,202.05-180.74,251.55-257,277-338c28.05-89.24,44.18-179.64,47.24-273.26,4.77-145.58-25.4-283.05-49.68-425.44q-1.51-8.89-2.91-17.7c-13.35-84.2-17.94-162.31,6.07-243.22,4.15-14-12.28-24.92-23.61-15.7C137.09-1218,52.28-1083.5,16.94-936.73c-3.18,13.21-21,15.48-27.4,3.51-16.09-30-31.71-60.28-44.31-91.93-60.5-151.9-37.13-335.3,23.53-483.51a716,716,0,0,1,38.36-79.45c12.44-22.15,27.22-48.18,43.92-73.73a14.82,14.82,0,0,0-12.31-23H-601.4a14.71,14.71,0,0,0-13.43,8.52q-2.26,5-4.36,10c-45.66,109.13-49,235.1-10.69,346.89,4.75,13.86-11.38,25.26-23.08,16.43-63.33-47.79-113.59-112.89-143.23-186.51a440.82,440.82,0,0,1-31.12-180.07,14.75,14.75,0,0,0-14.79-15.24h-390.16C-1243-1684.86-1250.32-1673.74-1245.8-1664Z"/><path class="cls-11" d="M1417.3-1726.62a917.34,917.34,0,0,1,53-151.78c40.38-89.63,98.22-183,170.13-261.65,8.74-9.57,2.12-24.92-10.83-24.92H1267.9a14.8,14.8,0,0,0-14.8,15.87c11.71,150.32,58.89,297.93,137.24,426.77C1397.16-1711.12,1414.08-1713.9,1417.3-1726.62ZM-340.65-2144.11a.76.76,0,0,0,.1.18l325.37,789.42,34.56,83.85a14.8,14.8,0,0,0,23.94,5c33.38-32.09,68.64-62.53,94.75-100.63,17.88-26.09,30.77-57.43,33.86-88.68,1.56-15.89,23.92-18.4,28.79-3.19,11.83,36.87,12.12,78.55,3.45,116.64-14.6,64.14-50.41,121-84.08,177.55l-.34.58a130.18,130.18,0,0,0-8.26,116.17l20.32,49.3L262.73-680.22a14.82,14.82,0,0,0,24.15,4.83C365.2-752.57,451.06-823.24,513.12-913.8c54-78.79,87.08-179.61,71.19-271.29-2.77-16,18.35-24.4,27.06-10.68,60.74,95.7,71.22,223,45.54,335.84C625.14-720.41,547.24-596.63,474-473.7q-10.54,17.7-21,35.58A213,213,0,0,0,440.13-249.8L564.39,51.67c5,12.08,21.91,12.24,27.24.31,109.93-245.68,317-424.77,467.62-643.25,48-69.57,97.45-145.84,122.92-226.87,28.06-89.24,44.18-179.63,47.25-273.26,4.76-145.58-25.4-283-49.68-425.44q-1.52-8.9-2.92-17.69c-13.34-84.2-17.94-162.32,6.07-243.23,4.16-14-12.28-24.91-23.6-15.69-117,95.33-201.86,229.85-237.19,376.62-3.18,13.2-21,15.48-27.41,3.51-16.09-30-31.7-60.28-44.31-91.94-60.5-151.9-37.12-335.29,23.54-483.5a716,716,0,0,1,38.35-79.45c12.44-22.16,27.22-48.19,43.93-73.74a14.82,14.82,0,0,0-12.32-23H303.75a14.72,14.72,0,0,0-13.43,8.52q-2.25,5-4.35,10c-45.66,109.13-49.05,235.1-10.7,346.89,4.76,13.86-11.38,25.26-23.08,16.44C188.87-1830.93,138.6-1896,109-1969.66a440.58,440.58,0,0,1-31.12-180.06A14.77,14.77,0,0,0,63.06-2165H-327.11C-337.85-2165-345.17-2153.85-340.65-2144.11Z"/><path class="cls-12" d="M394.14-739a560,560,0,0,1,32.4-92.69c24.66-54.73,60-111.74,103.9-159.79a9.06,9.06,0,0,0-6.62-15.22H302.9a9,9,0,0,0-9,9.69,592.24,592.24,0,0,0,83.82,260.63C381.84-729.52,392.18-731.22,394.14-739Zm-1073.57-255q0,.12.06.12l198.7,482.09,21.1,51.21a9,9,0,0,0,14.62,3.07c20.39-19.59,41.93-38.18,57.87-61.45,10.92-15.93,18.79-35.07,20.67-54.15,1-9.71,14.61-11.24,17.59-2,7.22,22.53,7.4,48,2.1,71.24-8.91,39.17-30.78,73.92-51.34,108.43l-.21.35a79.49,79.49,0,0,0-5,70.95l12.4,30.11,80,194a9.05,9.05,0,0,0,14.75,3c47.83-47.14,100.26-90.29,138.16-145.6,33-48.12,53.18-109.68,43.48-165.68-1.7-9.77,11.2-14.9,16.52-6.52,37.1,58.45,43.5,136.19,27.81,205.1-19.4,85.2-67,160.79-111.69,235.87Q-188.35,37-194.73,47.9a130.1,130.1,0,0,0-7.88,115L-126.73,347a9,9,0,0,0,16.64.19C-43,197.16,83.51,87.79,175.48-45.63,204.77-88.12,235-134.7,250.55-184.18c17.13-54.5,27-109.7,28.85-166.88,2.91-88.9-15.51-172.86-30.34-259.81q-.92-5.43-1.78-10.81c-8.15-51.42-10.95-99.13,3.71-148.54a9.05,9.05,0,0,0-14.41-9.58C165.1-721.58,113.3-639.43,91.72-549.8A9,9,0,0,1,75-547.66C65.16-566,55.62-584.47,47.93-603.8,11-696.56,25.25-808.57,62.3-899.08A438.33,438.33,0,0,1,85.72-947.6c7.6-13.53,16.63-29.42,26.83-45a9.05,9.05,0,0,0-7.52-14.06H-285.9a9,9,0,0,0-8.2,5.21q-1.38,3-2.66,6.09c-27.89,66.65-29.95,143.58-6.53,211.85,2.9,8.46-6.95,15.43-14.1,10a270,270,0,0,1-87.47-113.9,269.18,269.18,0,0,1-19-110,9,9,0,0,0-9-9.31H-671.17A9,9,0,0,0-679.43-993.95Z"/></g><g class="cls-13"><path class="cls-14" d="M487.33,961.4a917.8,917.8,0,0,1,53-151.77C580.76,720,638.6,626.65,710.51,548c8.74-9.56,2.12-24.92-10.83-24.92H337.93a14.8,14.8,0,0,0-14.8,15.87C334.83,689.25,382,836.85,460.37,965.69,467.19,976.9,484.11,974.13,487.33,961.4ZM-1270.62,543.91a1.05,1.05,0,0,0,.1.19l325.36,789.42,34.56,83.84a14.8,14.8,0,0,0,24,5c33.38-32.08,68.64-62.53,94.75-100.62,17.88-26.1,30.77-57.44,33.85-88.68,1.57-15.89,23.92-18.4,28.8-3.2,11.83,36.88,12.12,78.55,3.45,116.64-14.6,64.14-50.42,121-84.08,177.56-.11.19-.22.38-.34.57a130.17,130.17,0,0,0-8.26,116.18l20.32,49.3,130.92,317.65a14.82,14.82,0,0,0,24.15,4.84c78.32-77.19,164.18-147.86,226.24-238.41,54-78.8,87.08-179.61,71.19-271.3-2.77-16,18.35-24.39,27.05-10.68,60.75,95.71,71.23,223,45.55,335.84-31.77,139.52-109.67,263.3-182.89,386.23q-10.55,17.7-21,35.59a213,213,0,0,0-12.92,188.31l124.25,301.48c5,12.08,21.92,12.23,27.25.31,109.92-245.69,317-424.78,467.61-643.25,48-69.58,97.46-145.85,122.93-226.87,28.05-89.24,44.18-179.64,47.24-273.26,4.77-145.58-25.39-283.06-49.68-425.44q-1.51-8.89-2.91-17.7c-13.34-84.2-17.94-162.32,6.07-243.23,4.16-14-12.28-24.91-23.6-15.69-117,95.33-201.86,229.85-237.2,376.62-3.17,13.2-21,15.48-27.4,3.51-16.09-30-31.7-60.28-44.31-91.93-60.5-151.9-37.13-335.3,23.53-483.51A717.74,717.74,0,0,1-17.7,619.81c12.44-22.16,27.22-48.19,43.93-73.73a14.83,14.83,0,0,0-12.32-23H-626.22a14.71,14.71,0,0,0-13.43,8.53q-2.26,5-4.35,10c-45.66,109.13-49,235.09-10.7,346.88,4.76,13.87-11.38,25.27-23.08,16.44C-741.11,857.09-791.37,792-821,718.36A440.57,440.57,0,0,1-852.12,538.3a14.77,14.77,0,0,0-14.79-15.25h-390.17C-1267.82,523.05-1275.14,534.17-1270.62,543.91Z"/><path class="cls-15" d="M871.68,968.59a918.86,918.86,0,0,1,53.05-151.78c40.39-89.63,98.22-183,170.14-261.66,8.74-9.56,2.12-24.91-10.84-24.91H722.29a14.81,14.81,0,0,0-14.81,15.86C719.19,696.43,766.37,844,844.73,972.87,851.55,984.09,868.47,981.31,871.68,968.59ZM-886.26,551.09a.73.73,0,0,0,.1.19L-560.8,1340.7l34.56,83.85a14.8,14.8,0,0,0,23.94,5c33.39-32.09,68.65-62.53,94.76-100.63,17.88-26.09,30.77-57.43,33.85-88.68,1.57-15.89,23.92-18.4,28.8-3.19,11.82,36.87,12.12,78.55,3.44,116.64-14.6,64.14-50.41,121-84.07,177.55l-.34.57A130.2,130.2,0,0,0-434.13,1648l20.32,49.3L-282.89,2015a14.83,14.83,0,0,0,24.16,4.84c78.32-77.19,164.18-147.85,226.24-238.41,54-78.8,87.08-179.61,71.19-271.29-2.77-16,18.35-24.4,27.05-10.69,60.75,95.71,71.23,223,45.54,335.85C79.53,1974.79,1.63,2098.57-71.6,2221.51q-10.55,17.7-21,35.58a213.06,213.06,0,0,0-12.91,188.32L18.77,2746.88c5,12.08,21.91,12.24,27.25.31,109.92-245.68,317-424.77,467.61-643.25,48-69.57,97.46-145.84,122.93-226.87,28.05-89.24,44.18-179.63,47.24-273.26,4.77-145.58-25.4-283-49.68-425.44q-1.51-8.89-2.91-17.69c-13.35-84.2-17.94-162.32,6.07-243.23,4.15-14-12.28-24.91-23.61-15.69-117,95.33-201.85,229.85-237.19,376.62-3.18,13.2-21,15.47-27.41,3.51-16.08-30-31.7-60.29-44.3-91.94-60.5-151.9-37.13-335.3,23.53-483.5A714.26,714.26,0,0,1,366.66,627c12.44-22.16,27.22-48.19,43.92-73.74a14.82,14.82,0,0,0-12.31-23H-241.86a14.71,14.71,0,0,0-13.43,8.52q-2.27,5-4.36,10c-45.66,109.13-49,235.1-10.69,346.89,4.75,13.86-11.39,25.26-23.08,16.43C-356.75,864.28-407,799.17-436.65,725.55a440.79,440.79,0,0,1-31.12-180.07,14.75,14.75,0,0,0-14.79-15.24H-872.72C-883.46,530.24-890.78,541.36-886.26,551.09Z"/><path class="cls-16" d="M-85.65,869.7a917.9,917.9,0,0,1,53-151.78C7.78,628.29,65.62,535,137.53,456.27c8.74-9.57,2.12-24.92-10.83-24.92H-235a14.8,14.8,0,0,0-14.8,15.87C-238.15,597.54-191,745.15-112.61,874-105.79,885.2-88.87,882.42-85.65,869.7ZM-1843.6,452.21a.76.76,0,0,0,.1.18l325.36,789.42,34.56,83.85a14.81,14.81,0,0,0,23.95,5c33.38-32.09,68.64-62.53,94.75-100.63,17.88-26.09,30.77-57.43,33.85-88.68,1.57-15.89,23.93-18.4,28.8-3.19,11.83,36.87,12.12,78.55,3.45,116.64-14.6,64.14-50.42,121-84.08,177.55-.11.19-.22.38-.34.57a130.2,130.2,0,0,0-8.26,116.18l20.32,49.3,130.92,317.66a14.82,14.82,0,0,0,24.15,4.83c78.32-77.18,164.18-147.85,226.24-238.41,54-78.79,87.08-179.61,71.19-271.29-2.77-16,18.35-24.4,27-10.69,60.75,95.71,71.23,223,45.55,335.85-31.77,139.51-109.67,263.3-182.89,386.23q-10.54,17.7-21,35.58a213,213,0,0,0-12.92,188.32L-938.57,2648c5,12.08,21.92,12.24,27.25.31,109.93-245.68,317-424.77,467.61-643.25,48-69.57,97.46-145.84,122.93-226.87,28-89.24,44.18-179.63,47.24-273.26,4.77-145.58-25.39-283.05-49.67-425.44q-1.53-8.89-2.92-17.69c-13.34-84.2-17.94-162.32,6.07-243.23,4.16-14-12.28-24.91-23.6-15.69-117,95.33-201.86,229.85-237.2,376.62-3.17,13.2-21,15.48-27.4,3.51-16.09-30-31.7-60.28-44.31-91.94-60.5-151.9-37.13-335.29,23.53-483.5a716,716,0,0,1,38.36-79.45c12.44-22.16,27.22-48.19,43.93-73.74a14.83,14.83,0,0,0-12.32-23H-1199.2a14.72,14.72,0,0,0-13.43,8.52c-1.5,3.31-3,6.64-4.35,10-45.66,109.13-49,235.1-10.7,346.89,4.76,13.86-11.38,25.26-23.08,16.44-63.33-47.79-113.59-112.9-143.23-186.52A440.6,440.6,0,0,1-1425.1,446.6a14.77,14.77,0,0,0-14.79-15.25h-390.17C-1840.8,431.35-1848.12,442.47-1843.6,452.21Z"/></g></svg>