<svg id="ec16f1a7-6162-4648-9d10-380c89c40baf" xmlns="http://www.w3.org/2000/svg" xmlns:xlink="http://www.w3.org/1999/xlink" viewBox="0 0 1035.18 669.75"><defs><style>.cls-1{fill:#f06022;}.cls-2{fill:#fff;}.cls-3{fill:#20abad;}.cls-11,.cls-3{opacity:0.2;}.cls-15,.cls-3,.cls-6{isolation:isolate;}.cls-4{fill:url(#linear-gradient);}.cls-5{fill:#65617d;}.cls-21,.cls-6{opacity:0.1;}.cls-7{fill:#fbbebe;}.cls-13,.cls-8{fill:#032a43;}.cls-9{fill:#3f3d56;}.cls-10{fill:#e7effd;}.cls-12,.cls-22{fill:#1c2129;}.cls-12,.cls-13{opacity:0.1;}.cls-14{fill:url(#linear-gradient-2);}.cls-15{opacity:0.05;}.cls-16{fill:#ee8e9e;}.cls-17{fill:#eff2f4;}.cls-18{fill:#21abad;}.cls-19{fill:#e6e8ec;}.cls-20{fill:#565387;}.cls-23{fill:url(#linear-gradient-3);}.cls-24{fill:#be6f72;}.cls-25{fill:#444053;}.cls-26{fill:#67647e;}.cls-27{fill:none;}</style><linearGradient id="linear-gradient" x1="158.36" y1="-61.36" x2="158.36" y2="194.36" gradientTransform="matrix(1, 0, 0, -1, -28, 713.36)" gradientUnits="userSpaceOnUse"><stop offset="0" stop-color="gray" stop-opacity="0.25"/><stop offset="0.54" stop-color="gray" stop-opacity="0.12"/><stop offset="1" stop-color="gray" stop-opacity="0.1"/></linearGradient><linearGradient id="linear-gradient-2" x1="980.32" y1="-48.83" x2="980.32" y2="219" xlink:href="#linear-gradient"/><linearGradient id="linear-gradient-3" x1="-471.13" y1="306.51" x2="-471.13" y2="608.39" gradientTransform="translate(-69.82 713.36) rotate(180)" xlink:href="#linear-gradient"/></defs><title>JoinTheCommunity</title><path class="cls-1" d="M647.4,657.14A188.82,188.82,0,0,0,620.67,574a2.88,2.88,0,0,0-5.25.84,177.5,177.5,0,0,1-10.33,29.55,196.06,196.06,0,0,1-33.13,51,2.89,2.89,0,0,0,2.11,4.85h70.45a2.88,2.88,0,0,0,2.88-3.09" transform="translate(-29.64 -104.96)"/><path class="cls-2" d="M629.68,302.12V679.9c0,11.24-10.84,20.37-24.22,20.37H92.89c-13.38,0-24.22-9.13-24.22-20.37V302.12c0-11.26,10.84-22.73,24.22-22.73H605.46C618.84,279.39,629.68,290.86,629.68,302.12Z" transform="translate(-29.64 -104.96)"/><path class="cls-3" d="M629.68,303.61V363h-561V303.61a24.23,24.23,0,0,1,24.21-24.22H605.46a24.23,24.23,0,0,1,24.22,24.21Z" transform="translate(-29.64 -104.96)"/><circle class="cls-2" cx="69.8" cy="216.23" r="16.19"/><circle class="cls-2" cx="116.91" cy="216.23" r="16.19"/><circle class="cls-2" cx="164.03" cy="216.23" r="16.19"/><path class="cls-4" d="M204.78,699.58s-15.65,3.79-21.85,10.87a21,21,0,0,1-8.34,5.3V705c3.58-6,7.2-12.71,7.2-12.71.16-.33,1.46-4.94,1.46-4.94,2.94-2.3-.16-10.38-.16-10.38s1.79-5.1.82-6.09-.17-3.62.65-4.78a6,6,0,0,0,.65-3.62c0-1-1.3-2.47-3.42-3.3s.16-2.14,1.46-2.47,1.63-3.46.17-5.1.16-2.64,1-4.45-2.6-1.48-2.6-1.48V629.08h0s-1-5.44-2-15-4.73-10.54-4.73-10.54a43.62,43.62,0,0,1-5.87-2.31,39.48,39.48,0,0,0-6.2-2.3,31.69,31.69,0,0,1-8-1.11,24.3,24.3,0,0,0-5.46-1.18l-.59-.29a21.44,21.44,0,0,1-9.9-10.49l-.28-.67a23.77,23.77,0,0,0,2.61-3.46v0c0,.17,0,.34,0,.5v.22c0,.4,0,.81,0,1.21h0v0c2.61-4.6,10.15-5.65,10.87-10.9a5.81,5.81,0,0,0,.05-.72v0c0-.18,0-.35,0-.53-.1-1.46-.6-2.92-.7-4.4a10.73,10.73,0,0,1,0-1.27v0c.33-4.08,3.41-7.62,4.81-11.58a13.76,13.76,0,0,0,.74-3.29v0c0-.34.06-.68.07-1a2.26,2.26,0,0,1,0-.26c0-.23,0-.47,0-.71a15.43,15.43,0,0,0-5.09-11.13c-2.6-2.26-6-3.68-7.84-6.63-.84-1.38-1.25-3-2.17-4.32-1.72-2.5-4.89-3.52-7.88-3.88s-6.08-.24-8.95-1.18c-2-.67-3.88-1.85-5.93-2.44a11.34,11.34,0,0,0-12.19,4.39c-1.08,1.58-1.79,3.47-3.25,4.7-3,2.53-8.06,1.43-10.68,4.35-1.44,1.6-1.6,3.78-1.43,6v.08c0,.17,0,.34,0,.52s0,.16,0,.24l0,.26c.09.8.21,1.59.31,2.36,0,.11,0,.23,0,.35s.06.47.08.71,0,.35,0,.53,0,.43,0,.64,0,.34,0,.51a35.08,35.08,0,0,1-3.74,17.57c-2.46,4.85-6.13,9.31-6.77,14.72a14.76,14.76,0,0,0-.07,2.66c0,.11,0,.21,0,.32s0,.32,0,.48l.06.55c0,.1,0,.21,0,.31s.07.49.11.73l0,.16c.65,3.69,2.12,7.33,2.9,11a29.45,29.45,0,0,1,.58,4.17v0c0,.44,0,.89.06,1.34s0,1.2,0,1.81A29.39,29.39,0,0,1,82,602.06c-2.28.34-9,6.27-8.48,7.75s-3,11.87-3.09,12.18h0l-5.5,37.88s-2.91,2.8-2,4.62-.17,4.94-.17,4.94-4.91,2.14-3.82,3.46.59,3.79-.16,5.43-2,4.62,0,5.11.34,6.92.34,6.92,6.88-.79,6.38,3.29c-.16,1.31,4.81,4.88,6.89,6.31v19.68a60.24,60.24,0,0,1-8.16-2.76c-4.24-2-28.05-5.77-33.27,5.6S38.09,749,41.19,750.65c0,0,2.93,2.3,3.58,3.46s4.41,1.48,4.41,1.48,3.91,1.81,4.89,2.8c.72.73,6.68,2.62,13.76,4.1h0s-5.7,13.14,3.61,12.06,13.85-5.67,20.42-5.67c2.62,0,7.49-.37,12.4-.81a35.16,35.16,0,0,1,3.65.86,45.41,45.41,0,0,0,8.48,1.81s7.34,4,11.25,3a2.48,2.48,0,0,0,.89-.48h.09a5.24,5.24,0,0,0,2.36-2c4.9.5,10.48,1.22,12.58,2,4.06,1.57,33.07-.6,33.07-.6s18.75.36,24.12,2S204.2,758,194.29,756a40.42,40.42,0,0,0-8.06-.72A18.49,18.49,0,0,0,188.1,753c3.57-.33,5.92-.53,5.92-.53s9.46-4.61,14.84-7.41A34,34,0,0,0,218,737.8s4.73-3,6.68-4.12,2.94-4.94,2.94-4.94C242.46,695.13,204.78,699.58,204.78,699.58Zm-42.47-42.15v-1.66c.52.37.45,1,0,1.66Zm.15,11.65c.4.52.78,1,1.06,1.35,1,1.35-.86,2-.72,4.27,0,.51.08,1.22.12,2h0c-.2-3.25-.36-5.94-.46-7.62Z" transform="translate(-29.64 -104.96)"/><path class="cls-5" d="M77.56,721.07s-9.13-2.13-13.38-4.08-28.05-5.71-33.27,5.54,7.18,26.26,10.28,27.89,33.27-20.71,33.27-20.71l23.81,10,4.57-15.58Z" transform="translate(-29.64 -104.96)"/><rect class="cls-5" x="57.99" y="619.2" width="103.62" height="36.05" rx="16.59"/><path class="cls-6" d="M191.25,742.19a18,18,0,0,1-18,18H105.65a18,18,0,0,1,0-36.05h67.57a18,18,0,0,1,18,18Z" transform="translate(-29.64 -104.96)"/><path class="cls-7" d="M134.83,743.24s-10.39,2.67-18.87,2.55-48.14,16.36-48.14,16.36-5.7,13,3.61,11.94,13.85-5.61,20.42-5.61,27.22-2.27,27.22-2.27L139,751.52Z" transform="translate(-29.64 -104.96)"/><path class="cls-7" d="M141.33,620.43,122.7,624.1l-1.21.24s-14.74-3.91-15.23-4.24S92.4,601.75,92.4,601.75s6.76.07,12.08-3c.19-.11.38-.22.56-.34a11.73,11.73,0,0,0,5-6.16c.09-.27.18-.55.26-.83a16.66,16.66,0,0,0-.16-8c-1.8-7.6,2.37-9.7,7.94-9.52,8,.27,19,5.28,19,5.28a22.18,22.18,0,0,0,1.72,7.44c.09.22.19.44.28.67a21.3,21.3,0,0,0,9.9,10.38l.59.29c.59.28,1.22.55,1.87.8C165.64,604.12,141.33,620.43,141.33,620.43Z" transform="translate(-29.64 -104.96)"/><path class="cls-6" d="M139.09,587.27a23.49,23.49,0,0,1-29,5,15.8,15.8,0,0,0,.1-8.86c-4.4-18.59,26.91-4.24,26.91-4.24A22.81,22.81,0,0,0,139.09,587.27Z" transform="translate(-29.64 -104.96)"/><path class="cls-7" d="M145,570.75a23.49,23.49,0,0,1-22.06,23.44c-.47,0-1,0-1.42,0A23.49,23.49,0,1,1,145,570.75Z" transform="translate(-29.64 -104.96)"/><path class="cls-6" d="M141.33,620.43,122.7,624.1l-1.21.24s-14.74-3.91-15.23-4.24S92.4,601.75,92.4,601.75s6.76.07,12.08-3c.19-.11.38-.22.56-.34a21.9,21.9,0,0,0,15.9,7,23.09,23.09,0,0,0,3.32-.26c2.62-.4,5.26-.66,7.9-.94,5.05-.53,12.78-2.06,16.83-6.52l.59.29c.59.28,1.22.55,1.87.8C165.64,604.12,141.33,620.43,141.33,620.43Z" transform="translate(-29.64 -104.96)"/><path class="cls-8" d="M162.38,668.05c.16,3.6,2.77,44,2.77,44H83.76l.55-25.46.44-20.37.15-6.69.65-23.16-2.35-2.07L70.38,623h0c.1-.3,3.57-10.61,3.09-12.06s6.2-7.34,8.48-7.67a29.67,29.67,0,0,0,3.83-1.16c3.85-1.35,9-3.34,9.55-3,.8.43,8.8-.32,9.14-.35h0a21.83,21.83,0,0,0,16.45,7.59,24.62,24.62,0,0,0,3.32-.26c2.62-.41,5.26-.67,7.9-.94,5.3-.55,13.55-2.22,17.42-7.21a24.28,24.28,0,0,1,5.46,1.17,31.67,31.67,0,0,0,8,1.09,41.9,41.9,0,0,1,6.2,2.28,42.23,42.23,0,0,0,5.87,2.29s3.75,1,4.73,10.44,2,14.84,2,14.84l-19.41,16.8S162.21,664.47,162.38,668.05Z" transform="translate(-29.64 -104.96)"/><polygon class="cls-7" points="40.74 591.31 43.59 595.88 54.28 599.64 61.62 586.25 54.85 581.69 44 577.45 37.8 581.03 40.74 591.31"/><path class="cls-5" d="M161.56,718.78s15.17-1.14,21.37-8.15,21.85-10.77,21.85-10.77,37.68-4.4,22.84,28.87c0,0-1,3.75-2.94,4.89S218,737.7,218,737.7l-57.9-5.05Z" transform="translate(-29.64 -104.96)"/><path class="cls-6" d="M191.25,742.19a18,18,0,0,1-3,10c-9.74.86-31.31,2.89-35.82,4.15-5.55,1.53-16.77-1.14-18-1.45l-.11,0s-2.16-6.56-3.19-10.76c-.47-1.91-.7-3.33-.4-3.43,1-.33,10-2.77,9.79-1.39s26.91-10.52,26.91-10.52l.83,10.44C171,742.34,191.25,737.66,191.25,742.19Z" transform="translate(-29.64 -104.96)"/><path class="cls-5" d="M219.14,733.46,218,737.7a33.9,33.9,0,0,1-9.14,7.18c-5.38,2.77-14.84,7.34-14.84,7.34s-34.74,2.93-40.62,4.57-18.1-1.47-18.1-1.47-4.57-13.87-3.59-14.19,9.95-2.78,9.79-1.39,26.91-10.52,26.91-10.52Z" transform="translate(-29.64 -104.96)"/><path class="cls-7" d="M122.41,770s17.08,1.19,21.14,2.74,33.07-.59,33.07-.59,18.75.36,24.12,2,3.46-16.42-6.45-18.45-23.88.95-23.88.95l-17.67-2.26c-1.91-.24-14.5.11-14.5.11Z" transform="translate(-29.64 -104.96)"/><path class="cls-6" d="M55.31,725s22.57,2,28.77,5.74Z" transform="translate(-29.64 -104.96)"/><path class="cls-6" d="M196.08,710.21s-17.67,4.3-24.59,10.62Z" transform="translate(-29.64 -104.96)"/><path class="cls-6" d="M56.62,719.88c.36.12,10.39,1.43,10.15,2.39S56.62,719.88,56.62,719.88Z" transform="translate(-29.64 -104.96)"/><path class="cls-6" d="M40.86,745l1.3,4.9a20.4,20.4,0,0,1,3.59,3.42c.66,1.14,4.41,1.47,4.41,1.47s3.91,1.79,4.89,2.77,11.58,4.08,21.53,5.38,28.38,3.76,32.3,5.06a46.18,46.18,0,0,0,8.48,1.79s7.34,3.92,11.25,2.94S139.21,754,139.21,754s-25.77-6-26.58-8S87,734.93,87,734.93l-14.68.35Z" transform="translate(-29.64 -104.96)"/><path class="cls-5" d="M39.88,745.53l1.31,4.89a21.14,21.14,0,0,1,3.58,3.43c.66,1.14,4.41,1.47,4.41,1.47s3.91,1.79,4.89,2.77,11.58,4.08,21.53,5.38,28.38,3.75,32.3,5.06a46.18,46.18,0,0,0,8.48,1.79s7.34,3.92,11.25,2.94,10.61-18.76,10.61-18.76-25.78-6-26.59-8-37.19-16.8-37.19-16.8L63,727.1Z" transform="translate(-29.64 -104.96)"/><path class="cls-8" d="M73.23,621.41,70.38,623l-5.5,37.51s-2.91,2.77-2,4.57-.17,4.89-.17,4.89-4.91,2.12-3.82,3.43.59,3.75-.16,5.38-2,4.57,0,5.06.34,6.85.34,6.85,6.88-.79,6.38,3.26c-.21,1.63,7.78,6.85,7.78,6.85s-9.08-16.47,11.26-14.19l1.75-9.29s1.75-5.23,0-6.86.4-9.38.4-9.38L87,627.44Z" transform="translate(-29.64 -104.96)"/><path class="cls-6" d="M68.8,669.85c.36.6,11.34,1.82,12.06,3.77S68.8,669.85,68.8,669.85Z" transform="translate(-29.64 -104.96)"/><path class="cls-6" d="M65.34,679.16s1.49-4.65,5-3.82S65.34,679.16,65.34,679.16Z" transform="translate(-29.64 -104.96)"/><path class="cls-6" d="M63.43,686s2.63-6.21,6.21-5.73S63.43,686,63.43,686Z" transform="translate(-29.64 -104.96)"/><path class="cls-7" d="M182.93,685.83l-1.14,6.85S170,714.21,167.92,714.54s-13.7-14.35-13.7-14.35l-3.1-14.36,12.2-2.31,5.42-5.35S182.44,679.47,182.93,685.83Z" transform="translate(-29.64 -104.96)"/><path class="cls-8" d="M177.38,627l4.41,3.1v16.47s3.42-.32,2.6,1.47-2.44,2.78-1,4.41,1.14,4.73-.17,5.05-3.59,1.63-1.46,2.45,3.42,2.28,3.42,3.26a5.89,5.89,0,0,1-.65,3.59c-.82,1.14-1.63,3.75-.65,4.73s-.82,6-.82,6,3.1,8,.16,10.27c0,0-1.3,4.57-1.46,4.89,0,0,2.05-15.87-18.47-9.16l-.52-8.29c-.14-2.25,1.77-2.9.72-4.24s-3.7-4.4-2.45-5.22.82-2.28.33-3.42-2.22-1.15-.66-2.53,2.49-2.69,1.57-3.34-2.51-2.78-1.24-3.76,1.31-15.17,1.31-15.17S167.59,616.68,177.38,627Z" transform="translate(-29.64 -104.96)"/><path class="cls-6" d="M175.31,655s6.27-1.7,6.48,0S175.31,655,175.31,655Z" transform="translate(-29.64 -104.96)"/><path class="cls-6" d="M168.26,659.7s8.6-2.15,9.67-.48S168.26,659.7,168.26,659.7Z" transform="translate(-29.64 -104.96)"/><path class="cls-6" d="M166.35,664.24s12.9-1.79,13.73.84S166.35,664.24,166.35,664.24Z" transform="translate(-29.64 -104.96)"/><path class="cls-6" d="M168.26,669.85c.48.12,12.42,1,12.66,3.22S168.26,669.85,168.26,669.85Z" transform="translate(-29.64 -104.96)"/><rect class="cls-9" x="42.7" y="572.24" width="102.25" height="58.08" rx="10.47"/><circle class="cls-10" cx="93.82" cy="601.28" r="3.77"/><path class="cls-6" d="M89.47,641.61s9.8,7.49,17.37,1.78C106.84,643.39,94,644.56,89.47,641.61Z" transform="translate(-29.64 -104.96)"/><path class="cls-6" d="M139.09,643.62s9.8,7.49,17.38,1.78C156.47,645.4,143.66,646.57,139.09,643.62Z" transform="translate(-29.64 -104.96)"/><path class="cls-6" d="M145,570.75a23.37,23.37,0,0,1-3.55,12.43c-.2-6.55-1.74-13.09-5.3-18.55-3.26-5-13.16-13.78-20-11.34a4.83,4.83,0,0,0-3,3.2c-.67,2.57,1.31,3.63,2.57,5.67a17.35,17.35,0,0,1,2.38,11.72c-.09.55-.21,1.09-.35,1.63-1.07,4-3.52,8.62-1,11.93,1.77,2.3,5.56,3.09,6.08,5.94a3.68,3.68,0,0,1,0,.81c-.12,1.92-1.76,3.61-2.47,5.5-.85,2.22-.37,4.43.5,6.66,1.13,2.91,2.94,5.86,3.38,8.93s-.51,5.93-1.62,8.82a39.76,39.76,0,0,0-2.7,8.31c-.78,5.42,1.2,11.69-2.21,16a2.37,2.37,0,0,1-1.49,1c-2.19.23-1.81-3.7-3.57-5,.18,2.29.36,4.66-.47,6.8s-3,4-5.25,3.59c-.26-1.7-.52-3.41-.77-5.12a15.07,15.07,0,0,1-5.44,3.4,39.5,39.5,0,0,1,5.67-15.35c-5.74,2.76-9.09,8.75-12.08,14.38-1.87,3.52-3.79,7.36-3.14,11.29.26,1.6,1,3.12,1.1,4.74s-.43,3.49-1.93,4.11A3.5,3.5,0,0,1,86.63,671l-.16-.19c-.09-.12-.18-.24-.26-.37a5.81,5.81,0,0,1-.43-.77,15.07,15.07,0,0,1-.92-3l-.11-.44C83.24,659.59,81.87,652.71,83,646c.41-2.49,1.16-5,1.07-7.47a14.07,14.07,0,0,0-.85-4.16c-1.33-3.73-3.9-7.16-5.36-10.92a.19.19,0,0,1,0-.08c-.77-2-1.15-4.48.27-6.07a12.21,12.21,0,0,1,2.72-1.85c2.84-1.85,4.12-5.36,4.63-8.7a29.35,29.35,0,0,0,.36-4.58c3.85-1.35,9-3.34,9.55-3,.8.43,8.8-.32,9.14-.35a11.93,11.93,0,0,0,5.6-6.5c.09-.27.18-.55.26-.83A23.49,23.49,0,1,1,145,570.75Z" transform="translate(-29.64 -104.96)"/><path class="cls-9" d="M117.77,574.53c-1.07,4-3.52,8.63-1,11.93,1.77,2.3,5.56,3.09,6.08,5.95.4,2.26-1.61,4.16-2.42,6.3-1.94,5.13,3.11,10.17,3.87,15.59.84,5.88-3.45,11.25-4.31,17.13-.78,5.42,1.2,11.69-2.21,16a2.37,2.37,0,0,1-1.49,1c-2.19.23-1.82-3.69-3.57-5,.19,2.29.36,4.67-.47,6.8s-3,3.95-5.25,3.6l-.77-5.13a15.07,15.07,0,0,1-5.44,3.4,39.5,39.5,0,0,1,5.67-15.35c-5.74,2.76-9.09,8.75-12.08,14.38-1.87,3.52-3.79,7.36-3.14,11.29.26,1.6,1,3.12,1.1,4.74s-.43,3.49-1.93,4.11a3.57,3.57,0,0,1-4-1.37,10.36,10.36,0,0,1-1.61-4.14c-1.56-6.81-3-13.84-1.88-20.73.41-2.49,1.16-5,1.07-7.47-.2-5.5-4.26-10-6.25-15.16-.77-2-1.14-4.48.28-6.07a12,12,0,0,1,2.73-1.85c2.83-1.85,4.11-5.35,4.63-8.7a30.27,30.27,0,0,0-.31-10.9c-1.15-5.36-3.77-10.6-3.12-16s4.31-9.78,6.77-14.57a34.46,34.46,0,0,0,3.5-20.15c-.43-3.22-1.17-6.94,1-9.34,2.62-2.89,7.69-1.8,10.68-4.3,1.46-1.22,2.17-3.1,3.25-4.66a11.4,11.4,0,0,1,12.19-4.35c2,.59,3.9,1.76,5.93,2.42,2.87.93,5.95.81,8.95,1.17s6.16,1.36,7.88,3.84c.92,1.31,1.33,2.91,2.17,4.27,1.8,2.92,5.24,4.33,7.84,6.57A15.2,15.2,0,0,1,156.46,556c-1.55,4.32-5.14,8.14-4.84,12.73.13,1.88.93,3.73.67,5.6-.72,5.19-8.26,6.23-10.87,10.78.21-7.46-1.22-15.15-5.3-21.41-3.26-5-13.16-13.78-20-11.34a4.86,4.86,0,0,0-3,3.2c-.67,2.57,1.3,3.63,2.57,5.68A17.21,17.21,0,0,1,117.77,574.53Z" transform="translate(-29.64 -104.96)"/><g class="cls-11"><path d="M85.78,600.39a29.76,29.76,0,0,0-.65-7c-1-4.56-3-9-3.2-13.62-.26,5.11,2.12,10,3.2,15.09A30,30,0,0,1,85.78,600.39Z" transform="translate(-29.64 -104.96)"/><path d="M105.22,637.42c.4-.73.81-1.45,1.25-2.15-5.74,2.77-9.09,8.75-12.08,14.38-1.73,3.26-3.5,6.8-3.24,10.42.22-3.11,1.75-6.13,3.24-9C97.16,645.92,100.23,640.41,105.22,637.42Z" transform="translate(-29.64 -104.96)"/><path d="M92.33,666.93a3.47,3.47,0,0,1-1.91,2.86,3.58,3.58,0,0,1-4-1.36,10.4,10.4,0,0,1-1.61-4.15,73.37,73.37,0,0,1-2.27-14.81c-.11,5.45,1,10.93,2.27,16.28a10.3,10.3,0,0,0,1.61,4.14,3.58,3.58,0,0,0,4,1.37c1.5-.62,2.09-2.49,1.94-4.11Z" transform="translate(-29.64 -104.96)"/><path d="M118.3,569.62a16.17,16.17,0,0,1-.53,3.47c-.79,3-2.34,6.29-2.06,9.14.22-2.48,1.4-5.19,2.06-7.67A16.12,16.12,0,0,0,118.3,569.62Z" transform="translate(-29.64 -104.96)"/><path d="M92.56,547.85a33.64,33.64,0,0,0-.28-5.21c-.17-1.27-.38-2.62-.45-3.93a28.74,28.74,0,0,0,.45,5.4A33.43,33.43,0,0,1,92.56,547.85Z" transform="translate(-29.64 -104.96)"/><path d="M122.86,592.44l0-.12c-.35,1.7-1.75,3.25-2.39,5a6.94,6.94,0,0,0-.4,3.19,6.49,6.49,0,0,1,.4-1.73C121.25,596.6,123.26,594.7,122.86,592.44Z" transform="translate(-29.64 -104.96)"/><path d="M84.05,636.09c-.2-5.51-4.26-10-6.24-15.17a9.78,9.78,0,0,1-.64-2.5,8.44,8.44,0,0,0,.64,4c2,5.06,5.9,9.51,6.22,14.89C84.05,636.89,84.06,636.49,84.05,636.09Z" transform="translate(-29.64 -104.96)"/><path d="M136.13,562.22c-3.26-5-13.17-13.79-20-11.34a4.82,4.82,0,0,0-3,3.2,3.54,3.54,0,0,0-.06,1.71,2.1,2.1,0,0,1,.06-.24,4.86,4.86,0,0,1,3-3.21c6.81-2.44,16.72,6.34,20,11.34,3.69,5.67,5.2,12.51,5.3,19.3C141.54,575.72,140.08,568.29,136.13,562.22Z" transform="translate(-29.64 -104.96)"/><path d="M152.29,572.84c-.71,5.18-8.23,6.23-10.85,10.76,0,.5,0,1,0,1.49,2.61-4.55,10.15-5.59,10.87-10.78a6.11,6.11,0,0,0,0-1.54S152.3,572.82,152.29,572.84Z" transform="translate(-29.64 -104.96)"/><path d="M156.46,554.51c-1.55,4.33-5.14,8.15-4.84,12.73l0,.2c.33-4,3.41-7.54,4.81-11.46a14.16,14.16,0,0,0,.8-5.59A14.07,14.07,0,0,1,156.46,554.51Z" transform="translate(-29.64 -104.96)"/><path d="M117.79,646a2.37,2.37,0,0,1-1.49,1c-2.19.23-1.81-3.7-3.57-5,0,.52.08,1,.11,1.57,1.62,1.4,1.33,5.14,3.46,4.91a2.33,2.33,0,0,0,1.49-1c1.95-2.44,2.14-5.53,2.09-8.74C119.83,641.36,119.44,643.9,117.79,646Z" transform="translate(-29.64 -104.96)"/><path d="M112.26,648.76c-.82,2.14-3,4-5.24,3.59l-.78-5.13a14.89,14.89,0,0,1-5.16,3.3c-.1.52-.2,1-.28,1.57a15,15,0,0,0,5.44-3.4l.78,5.13c2.26.36,4.42-1.46,5.24-3.59a11.62,11.62,0,0,0,.61-4.64A9.85,9.85,0,0,1,112.26,648.76Z" transform="translate(-29.64 -104.96)"/><path d="M120,630a25.16,25.16,0,0,0-.2,4.16,20.16,20.16,0,0,1,.2-2.69c.81-5.6,4.74-10.74,4.39-16.3C124.08,620.16,120.75,624.88,120,630Z" transform="translate(-29.64 -104.96)"/></g><path class="cls-2" d="M739,205.84V304c0,5.18-5,9.39-11.17,9.39H491.42c-6.17,0-11.17-4.21-11.17-9.39V205.84c0-5.19,5-10.48,11.17-10.48H727.83C734,195.36,739,200.65,739,205.84Z" transform="translate(-29.64 -104.96)"/><path class="cls-3" d="M739,206.53v27.39H480.25V206.53a11.17,11.17,0,0,1,11.16-11.17H727.83A11.18,11.18,0,0,1,739,206.52Z" transform="translate(-29.64 -104.96)"/><circle class="cls-2" cx="464.8" cy="109.68" r="7.47"/><circle class="cls-2" cx="516.17" cy="214.64" r="7.47" transform="translate(90.7 504.42) rotate(-67.5)"/><circle class="cls-2" cx="508.26" cy="109.68" r="7.47"/><circle class="cls-12" cx="658.39" cy="168.08" r="29.2"/><rect class="cls-13" x="472.96" y="148.43" width="123.14" height="4.35"/><rect class="cls-3" x="472.96" y="159.02" width="123.14" height="4.35"/><rect class="cls-3" x="472.96" y="169.62" width="123.14" height="4.35"/><rect class="cls-3" x="472.96" y="180.21" width="123.14" height="4.35"/><path class="cls-1" d="M955.12,660.23a2.88,2.88,0,0,0,2.64-4.06l0,0L894.38,502.4l-6.73-16.33a2.88,2.88,0,0,0-4.66-1c-6.5,6.25-13.37,12.18-18.45,19.6a37.81,37.81,0,0,0-6.6,17.27,2.89,2.89,0,0,1-5.61.62,43.92,43.92,0,0,1-.67-22.71c2.85-12.49,9.82-23.57,16.38-34.58l.06-.11a25.37,25.37,0,0,0,1.61-22.63l-4-9.6-25.5-61.85a2.88,2.88,0,0,0-4.7-.94c-15.26,15-32,28.79-44.06,46.42-10.51,15.34-17,35-13.87,52.83a2.88,2.88,0,0,1-5.26,2.08c-11.83-18.64-13.87-43.43-8.87-65.4,6.18-27.17,21.35-51.27,35.62-75.21,1.36-2.3,2.73-4.61,4.08-6.93a41.51,41.51,0,0,0,2.51-36.68l-24.19-58.7a2.89,2.89,0,0,0-5.31-.06c-21.41,47.84-61.73,82.72-91.06,125.26-9.34,13.55-19,28.4-23.94,44.18a197.94,197.94,0,0,0-9.2,53.22c-.93,28.35,5,55.12,9.67,82.84q.3,1.74.57,3.45c2.6,16.4,3.5,31.61-1.18,47.37a2.89,2.89,0,0,0,4.6,3,136.74,136.74,0,0,0,46.19-73.34,2.87,2.87,0,0,1,5.33-.68,173.22,173.22,0,0,1,8.63,17.9c11.78,29.58,7.23,65.29-4.58,94.16a139.32,139.32,0,0,1-7.47,15.47c-2.42,4.31-5.3,9.38-8.56,14.36a2.89,2.89,0,0,0,2.41,4.48H832.27a2.88,2.88,0,0,0,2.62-1.66c.29-.65.57-1.29.85-1.94a96.11,96.11,0,0,0,2.08-67.56,2.88,2.88,0,0,1,4.49-3.2,85,85,0,0,1,34,71.39,2.88,2.88,0,0,0,2.88,3Z" transform="translate(-29.64 -104.96)"/><path class="cls-14" d="M1064.82,716.34l-27.67-40.11s-.51-9.94-2.32-12.26-.39-7.48-.39-7.48,1.94-2.84.26-3.1-.26-6.58-.26-6.58l-.13-10.06s1.55-9.67.26-12a3.78,3.78,0,0,1,.13-4.13s1.55-5.55,0-7-1.17-10.06-.78-16.9-2.72-10.7-2.72-11.73S1021,573.93,1021,573s-6.47-4.65-10.35-5.68-5.81-1.8-5.68-2.32-6.08-2.58-6.08-2.58-5.43-.39-7.5-3.1-8.4-3.49-8.58-3.51l-.12-.54c0-.2-.08-.39-.11-.59.48-.81.94-1.66,1.35-2.52.12-.26.24-.53.35-.79a11,11,0,0,0,6.37-2,8.72,8.72,0,0,0,3.1-6.19,13.65,13.65,0,0,0-1.52-6.87c-1.13-2.33-2.8-4.73-2.22-7.25.25-1.09.9-2,1.23-3.11a8.16,8.16,0,0,0-.92-6.11c-1-1.88-2.35-3.52-3.44-5.34a21.17,21.17,0,0,1-2.73-7.54,11.49,11.49,0,0,0-1-4.11,7.48,7.48,0,0,0-2.26-2.29A22.74,22.74,0,0,0,967,496.4c-3.52.13-7,1.07-10.53.65a39.62,39.62,0,0,1-6.14-1.61c-4.34-1.29-9.34-1.81-13.12.67s-5.28,7.36-7.83,11.18c-2.27,3.38-5.58,6.21-7.31,9.79l.06-.21a11.51,11.51,0,0,0-1,2.61c-.66,2.81-.11,5.75.57,8.55.35,1.45.83,3,2.09,3.82s3,.62,4.52.89c-.06.24-.12.49-.17.74a29.53,29.53,0,0,0,20.5,34.45c0,.26,0,.52,0,.78a20.67,20.67,0,0,1-.14,2.22h0s-13-2.67-16.49-.87-10.35,3.23-11.38,4.26-3.62.26-5.95,6.32-2.59,12.25-5.56,15.09-4.53,4.77-4.66,6.84.39,2.58-.77,3.22-2.85,3.36-2.33,4.39c0,0,.65,2.58-1.42,3.87a4.28,4.28,0,0,0-1.81,3.87s-.78,2.84-2.59,3.48-3,4.9-3,4.9l-5.87,6.75L875.1,620.19a4.9,4.9,0,0,0-6.91-.35L862.48,625a11.27,11.27,0,0,0-5.71,3.4,14.88,14.88,0,0,0-3,4.4l-3.13,2.81a8,8,0,0,0-.8,8.77l7.45,8.24,0,.06a13.1,13.1,0,0,0-7.2,2.94c-11.11,9.8-11.25,18.83-9.56,23s15.77,20,15.77,20,8.19,10.65,20,16.31h0l-.09.09q-.35.38-.69.81c-.06.08-.13.16-.19.25l-.18.25-.21.31-.17.25-.22.37-.14.25-.27.5a1.3,1.3,0,0,1-.08.17c-.11.22-.22.46-.32.7,0,.08-.07.17-.11.26s-.13.34-.2.51a3.38,3.38,0,0,0-.11.34c-.06.16-.12.33-.17.5s-.08.24-.11.37-.11.37-.16.56l-.09.35c-.07.3-.14.61-.2.93l-.06.36-.12.67-.06.46c0,.22-.06.43-.08.65s0,.32-.05.49l-.06.73,0,.46c0,.4,0,.82,0,1.24-.26,15.1.62,17.29.62,17.29s1.83,4.81,6.86,5.15a9.17,9.17,0,0,0,2.22-.12c6.72-1.16,22.49-3.87,28-2.83,3.35.61,9.53-.3,13.94-1.13l1.16-.23.81,2.57,2.56-.7,2.17,1.25,1.37.79c2.55,8.65,12.91,5.7,12.91,5.7l2.46,1.42,25,.64s5.36,3.23,8.83,4.24a7.66,7.66,0,0,0,1.26.28,57.55,57.55,0,0,0,6.95.13c1.91,0,3.39-.13,3.39-.13s-.25-6.78-.61-14.36c9.53-.4,18-1,23.11-1.89,13.32-2.35,18.89-14.47,20.93-20.94a60.68,60.68,0,0,1,1.31,8,58.49,58.49,0,0,0,2.07,7,23.58,23.58,0,0,0,2.84,5.16c9.83-3.35,3.88-8.38,1.82-10.58s1.42-4,1.42-4,2.71-1.8,2.45-3.48-.38-3.48,8.41-3.35S1064.82,716.34,1064.82,716.34ZM928.29,634c.11.73,1.33,8.68,2.44,10.77A14.11,14.11,0,0,1,931,649c-5.2-.42-10.63-.64-10.63-.64a1.34,1.34,0,0,1,.28.67l-.82-.19-1.19-.29,9.6-14.6Zm-19,30.25,9,1.43.76.12a28.93,28.93,0,0,0-.47,4.25c0,.14.2.3.49.49a11.7,11.7,0,0,0-.17,2.13c.14.71,4.36,2.26,9.19,3.54-.06.26-.13.5-.2.74h0c-4.27-2.25-11-3.3-11.77-5s-23.66-9.67-23.66-9.67-.84-.44-2.28-1.14l6,1.14,1.65-.16a92.3,92.3,0,0,0,11.41,2.1Z" transform="translate(-29.64 -104.96)"/><path class="cls-5" d="M1035.39,722s-3.59,21.66-21.78,24.87-79,2.56-79,2.56-34.73-5-47.28-34.35-20.64-41-9.87-41.52,68.82,19.61,72.15,19.87S1038.6,648.78,1035.39,722Z" transform="translate(-29.64 -104.96)"/><path class="cls-15" d="M1035.39,722s-3.59,21.66-21.78,24.87-79,2.56-79,2.56-34.73-5-47.28-34.35-20.64-41-9.87-41.52,68.82,19.61,72.15,19.87S1038.6,648.78,1035.39,722Z" transform="translate(-29.64 -104.96)"/><path class="cls-9" d="M872.49,746.05s1.81,4.77,6.8,5.11a8.46,8.46,0,0,0,2.19-.11c6.66-1.16,22.3-3.85,27.81-2.82,3.31.61,9.44-.3,13.81-1.13,2.9-.54,5-1.05,5-1.05s-5.13-17-5.77-17.56-23.07-14-23.07-14l-17.76-1.28h0a9.36,9.36,0,0,0-6,3.54c-1.88,2.27-3.48,6-3.59,12.09C871.61,743.87,872.49,746.05,872.49,746.05Z" transform="translate(-29.64 -104.96)"/><path class="cls-15" d="M872.49,746.05s1.81,4.77,6.8,5.11a73.66,73.66,0,0,1-4.83-7l.1-12.42a21.93,21.93,0,0,1,7-18.46h0s-9.35.64-9.61,15.63S872.49,746.05,872.49,746.05Z" transform="translate(-29.64 -104.96)"/><path class="cls-6" d="M949.53,718.88l16.53-12.94,26-25.64L985,680c-1.06.67-4,2.78-4.12,5.35-.13,3.13-7,.22-10.62,2s-21.14,24.26-24.22,24.12-5.51-1.56-6.79.62l-.1.14Z" transform="translate(-29.64 -104.96)"/><path class="cls-6" d="M875.46,716.78c.59.28,1.19.56,1.79.82,12.56,5.38,28.07,16.66,29.22,18.71.7,1.24,9.69,6.7,16.63,10.79,2.9-.54,5-1.05,5-1.05s-5.13-17-5.77-17.56-23.07-14-23.07-14l-17.76-1.28h0A9.36,9.36,0,0,0,875.46,716.78Z" transform="translate(-29.64 -104.96)"/><path class="cls-5" d="M840.6,680.05c1.67,4.1,15.63,19.86,15.63,19.86s8.85,11.54,21.41,16.92,28.06,16.66,29.21,18.71c.75,1.32,10.75,7.35,17.81,11.49l1.58.92,3.5,2,1.85,1.07s4.29-3.45,8.56-6.92,8.42-6.86,8.48-7c.13-.39,1.8-4.75,1.41-5-.2-.13-1.08-1.91-2.7-4a18.09,18.09,0,0,0-6.53-5.4c-5.89-2.69-8.45-8.82-8.45-8.82s-.57-.41-1.41-.94a17,17,0,0,0-5.77-2.57c-2.82-.36-8.07-6.12-8.07-6.12s-3.59-2.31-5-5.25-21.22-16.47-23.06-17.73l48.18,31,11.53,7.41,16.53-12.94,26-25.64s-3.5-.17-8.59-.38c-12.64-.55-35.1-1.41-37.93-.77a21.43,21.43,0,0,1-7,.46s-6.4.29-10.63-1.94-10.9-3.28-11.67-4.94S892,663.9,892,663.9s-30.89-16.4-41.91-6.66S838.93,676,840.6,680.05Z" transform="translate(-29.64 -104.96)"/><path class="cls-16" d="M940.18,586l4,13.2,5.12,29.73,18.84,1.29,5.46-9.05,5.44-9s3.39-12,5.83-23.64c2.15-10.28,3.56-20.26,1.21-21.34-2.08-1-3.44-4.43-4.33-8.15-.11-.46-.22-.93-.31-1.4a71.3,71.3,0,0,1-1.25-9.55s-39.47-2-34,14.22a26.05,26.05,0,0,1,1.48,8.66,20.14,20.14,0,0,1-.13,2.2A18.43,18.43,0,0,1,940.18,586Z" transform="translate(-29.64 -104.96)"/><path class="cls-17" d="M932,583.8l1.41,22.43,3.21,19.1,3.59,8.84,3.2,48.38s30.9,3.57,38.41-.07a3.22,3.22,0,0,0,1.36-1.06c9.08-13.7,6.11-53.4,6.11-53.4l3.46-25.63-2.31-13.31-5.58-.59-4.29-.46s-1,1.2-2.36,3c-3.8,5-10.79,14.89-10.32,19,.64,5.64-.77,11.41-3,12.31s-4,2.44-4.36.9-.77-1.93-.38-4.1-1.67-8.85-1.67-8.85-3.46-7.81-3.2-11.15-.39-7.17-1.41-8.07-2.44-1.8-1.28-5.89-5.06-12.09-5.06-12.09Z" transform="translate(-29.64 -104.96)"/><path class="cls-6" d="M972.79,639.81l1.28,38.32,7.4,4.11a3.32,3.32,0,0,0,1.36-1.07c9.08-13.7,6.11-53.4,6.11-53.4l3.46-25.63-2.31-13.31-5.58-.59c2.16-10.28,3.57-20.26,1.22-21.34-2.08-1-3.45-4.43-4.33-8.15h0l-4,27.11s.34,2.44.46,5a14.19,14.19,0,0,1-.33,4.77c-.9,2.31-.25,6.41-.25,6.41-2.32,4.07-3.47,11.61-4,18.89C972.5,630.59,972.79,639.81,972.79,639.81Z" transform="translate(-29.64 -104.96)"/><path class="cls-9" d="M981.52,558.14s6.46.8,8.51,3.49,7.43,3.08,7.43,3.08,6.15,2,6,2.56,1.8,1.28,5.64,2.31,10.25,4.74,10.25,5.64,10.13,10.89,10.13,11.92,3.07,4.87,2.69,11.66-.77,15.38.77,16.79,0,6.92,0,6.92a3.76,3.76,0,0,0-.13,4.1c1.28,2.3-.26,11.92-.26,11.92l.13,10s-1.41,6.28.26,6.54-.26,3.07-.26,3.07-1.41,5.13.39,7.44,2.3,12.17,2.3,12.17l27.43,39.86s.38,7.3-8.33,7.17-8.59,1.67-8.33,3.34-2.44,3.46-2.44,3.46-3.46,1.79-1.41,4,8,7.17-1.79,10.51a23.52,23.52,0,0,1-2.82-5.13,57.24,57.24,0,0,1-2-6.92s-.9-9.74-2.69-11-1.54-7.43-1.54-7.43,2.56-5-1-7-55.62-30.89-55.62-30.89l-1.29-38.31S972.6,611,978,601.49c0,0-.64-4.1.26-6.41s-.13-9.74-.13-9.74Z" transform="translate(-29.64 -104.96)"/><path class="cls-6" d="M947.93,573.52s-12.88-2.66-16.34-.86-10.25,3.2-11.28,4.22-3.59.26-5.89,6.28-2.57,12.18-5.51,15-4.49,4.74-4.62,6.79.39,2.56-.77,3.2-2.82,3.34-2.3,4.36,26.65,23.58,26.65,23.58,1.28,8.59,2.44,10.77S929,679,926.46,681.07s17.3,1.86,17.3,1.86.9-19.67,1.67-20.7-.51-22-.51-22-.13-17.94,1.53-22.68S947.93,597,947.93,597s1.48-9.46,3.27-11.66S947.93,573.52,947.93,573.52Z" transform="translate(-29.64 -104.96)"/><path class="cls-9" d="M947.55,573.13s-12.89-2.65-16.35-.86-10.25,3.2-11.27,4.23-3.59.26-5.9,6.28-2.56,12.17-5.51,15-4.48,4.75-4.61,6.8.38,2.56-.77,3.2-2.82,3.33-2.31,4.36,26.66,23.58,26.66,23.58,1.28,8.58,2.43,10.76-1.28,32.17-3.84,34.22,17.3,1.86,17.3,1.86.9-19.67,1.66-20.7-.51-22-.51-22-.13-17.94,1.54-22.69,1.48-20.5,1.48-20.5,1.47-9.46,3.26-11.66S947.55,573.13,947.55,573.13Z" transform="translate(-29.64 -104.96)"/><path class="cls-6" d="M946.2,562.27a26.05,26.05,0,0,1,1.48,8.66,29.39,29.39,0,0,0,33.73-13.33,71.3,71.3,0,0,1-1.25-9.55S940.69,546,946.2,562.27Z" transform="translate(-29.64 -104.96)"/><path class="cls-16" d="M926.72,542a29.33,29.33,0,1,0,.64-6.11A29.33,29.33,0,0,0,926.72,542Z" transform="translate(-29.64 -104.96)"/><path class="cls-9" d="M907.88,610l-7,2.18s.64,2.56-1.41,3.84a4.31,4.31,0,0,0-1.79,3.85s-.77,2.82-2.57,3.46-2.94,4.87-2.94,4.87l-5.9,6.79s-2.18,1.79-1.79,2.69-2.31,1.15-2.31,1.15l1.41,22.81,12.18,2.31,7.56-.77,6.15-2.31,5.38-3.2,2.44-6.28L928,634.94Z" transform="translate(-29.64 -104.96)"/><path class="cls-16" d="M883.92,640.58S868.28,618,856.62,630.2s4.74,31.91,8.58,31.27,22.18-1.67,22.18-1.67Z" transform="translate(-29.64 -104.96)"/><rect class="cls-9" x="840.05" y="600.57" width="63.54" height="81.83" rx="1.54" transform="translate(-125.49 1021.49) rotate(-62.96)"/><rect class="cls-18" x="846.02" y="607.02" width="51.83" height="68.78" transform="translate(-125.36 1021.54) rotate(-62.96)"/><circle class="cls-19" cx="809.26" cy="519.59" r="1.13"/><circle class="cls-19" cx="875.58" cy="553.57" r="1.86"/><path class="cls-16" d="M873.79,645.32c-.13,16.91,34.86,20.5,34.86,20.5l8.94,1.42,4,.63,1.67-16.53s-1.83-.27-4.13-.8c-3.38-.79-7.77-2.16-8.69-4.07C908.9,643.27,873.92,628.4,873.79,645.32Z" transform="translate(-29.64 -104.96)"/><path class="cls-6" d="M927.36,535.92a3.53,3.53,0,0,1,2.14,1c1,1,1,2.91,2.34,3.55a2.59,2.59,0,0,0,1.53.18c3.4-.48,5.38-4.33,8.65-5.39a8.69,8.69,0,0,1,5.73.49,4.27,4.27,0,0,1,1.9,1.22c1.09,1.42.33,3.51.83,5.22.71,2.38,3.55,3.33,6,3.64s5.23.48,6.87,2.34a6.23,6.23,0,0,1,1.23,5,3.78,3.78,0,0,0,0,1.83c.68,1.92,4,1.64,4.87.12.64-1.1.44-2,1.94-2.33a6.42,6.42,0,0,1,3.14.55,23,23,0,0,0,8.11,1.24,29.35,29.35,0,0,0-53.13-25,29.66,29.66,0,0,0-2.14,6.37Z" transform="translate(-29.64 -104.96)"/><path class="cls-9" d="M964.57,554.16a3.9,3.9,0,0,1,0-1.83,6.22,6.22,0,0,0-1.22-5c-1.64-1.86-4.41-2-6.87-2.34s-5.3-1.26-6-3.64c-.5-1.71.26-3.8-.83-5.21a4.19,4.19,0,0,0-1.9-1.22,8.7,8.7,0,0,0-5.73-.5c-3.27,1.06-5.25,4.91-8.65,5.39a2.59,2.59,0,0,1-1.53-.18c-1.29-.64-1.35-2.5-2.34-3.55-1.55-1.65-4.5-.59-6.41-1.81-1.24-.8-1.72-2.36-2.07-3.79-.68-2.79-1.22-5.71-.57-8.5,1.12-4.77,5.38-8,8.1-12.11,2.53-3.79,4-8.6,7.77-11.11s8.7-1.94,13-.67a37.92,37.92,0,0,0,6.09,1.6c3.47.43,7-.51,10.43-.63a22.42,22.42,0,0,1,13.78,4.18,7.64,7.64,0,0,1,2.25,2.28,12,12,0,0,1,1,4.08,20.87,20.87,0,0,0,2.7,7.49c1.08,1.81,2.43,3.44,3.4,5.3a8.12,8.12,0,0,1,.92,6.07c-.33,1.06-1,2-1.22,3.09-.57,2.51,1.08,4.9,2.2,7.2a13.53,13.53,0,0,1,1.5,6.83,8.59,8.59,0,0,1-3.07,6.15,11.07,11.07,0,0,1-6.5,2,23.24,23.24,0,0,1-8.27-1.24,6.54,6.54,0,0,0-3.14-.55c-1.5.31-1.3,1.23-1.94,2.33C968.57,555.8,965.25,556.09,964.57,554.16Z" transform="translate(-29.64 -104.96)"/><path class="cls-6" d="M948.76,719.65l16.53-12.94,26-25.64s-3.5-.17-8.59-.39a5.66,5.66,0,0,0-1.81,3.51c-.13,3.13-7,.22-10.62,2s-21.14,24.26-24.22,24.12-5.51-1.57-6.79.61l-.1.15a3.66,3.66,0,0,1-1.95,1.16Z" transform="translate(-29.64 -104.96)"/><path class="cls-5" d="M915.44,718.75l8.31,26.52,1.3,4.16,4-1.08,8.73-2.4,38.84-10.67a33.66,33.66,0,0,0,14-3.73,42.41,42.41,0,0,1,24.14-5.26c5.13.48,10.84-1.74,15.58-10.49,0,0,10.76-31.78-16.41-40.88s-28.46,4.84-28.46,4.84L985,680c-1.06.67-4,2.78-4.12,5.35-.13,3.13-7,.22-10.62,2s-21.14,24.26-24.22,24.12-5.51-1.56-6.79.62l-.1.14c-.95,1.31-3.8,1.61-5.69,1.66-1,0-1.77,0-1.77,0l-.24.07-2,.59Z" transform="translate(-29.64 -104.96)"/><path class="cls-6" d="M917.59,667.24l4,.63,1.67-16.53s-1.83-.27-4.13-.8C919.74,652.84,918.37,661.76,917.59,667.24Z" transform="translate(-29.64 -104.96)"/><path class="cls-6" d="M1022.38,590s11.92-3.46,9,30.37-25,55.24-25,55.24S981,686.75,969.58,685s-19.74-2.17-19.74-2.17a28.76,28.76,0,0,0-11.53-3.08c-6.41-.26-19.86-4.23-20.12-5.51s3.33-20.12,1.8-21.53c0,0,17.94.73,19.73,2s4.36.37,6.28,0,7.82-5.49,19.48-1c0,0,4,.39,5.51-.64s4-.25,4-.25a11.55,11.55,0,0,0,2.78-1.41c.39-.51,3.46,0,3.46,0a1.37,1.37,0,0,0,1.83-.63,1.22,1.22,0,0,0,.09-.27,8.54,8.54,0,0,1,1.8-2.82s3.46-19.48,10-26.78c0,0,1.93-1.67,1.41-3.72S1007,585.89,1022.38,590Z" transform="translate(-29.64 -104.96)"/><path class="cls-9" d="M1022.06,587.39s11.92-3.46,9,30.38-25,55.23-25,55.23-25.38,11.15-36.78,9.35-19.74-2.17-19.74-2.17A28.85,28.85,0,0,0,938,677.1c-6.41-.26-19.87-4.23-20.12-5.51s3.33-20.12,1.79-21.53c0,0,17.94.74,19.74,2s4.35.37,6.28,0,7.81-5.49,19.47-1c0,0,4,.38,5.52-.65s4-.25,4-.25a11.26,11.26,0,0,0,2.79-1.41c.38-.51,3.46,0,3.46,0a1.36,1.36,0,0,0,1.82-.63,1.08,1.08,0,0,0,.1-.27,8.36,8.36,0,0,1,1.79-2.82s3.46-19.48,10-26.78c0,0,1.92-1.67,1.41-3.72S1006.69,583.29,1022.06,587.39Z" transform="translate(-29.64 -104.96)"/><path class="cls-6" d="M929.5,714.54,946.43,735a.43.43,0,0,0,.11-.12c.13-.38,1.79-4.74,1.41-5s-3.33-6.66-9.23-9.35a17.54,17.54,0,0,1-7.24-6.6Z" transform="translate(-29.64 -104.96)"/><path class="cls-6" d="M929.74,750l1.85,1.07s4.29-3.45,8.56-6.92,8.42-6.86,8.48-7c.13-.39,1.8-4.75,1.41-5-.2-.13-1.08-1.91-2.7-4-11.47-3.22-4.17,4.75-3.19,5.11,0,0-14-3.2-14.74,12A18,18,0,0,0,929.74,750Z" transform="translate(-29.64 -104.96)"/><path class="cls-9" d="M943.89,756.43l2.44,1.41,24.73.64a50.67,50.67,0,0,0,8.75,4.21,6.8,6.8,0,0,0,1.25.27,54.61,54.61,0,0,0,6.89.13c1.89-.05,3.36-.13,3.36-.13s-1.17-31.19-2-34.47c-.43-1.57-2.5-1.22-4.54-.44a29.21,29.21,0,0,0-4.43,2.24s-10.51,1-12.18,1.92-6.4-.51-9.35,0-8.2-3.46-8.2-3.46c-14.36-4.74-6.29,4.1-5.26,4.48,0,0-14-3.2-14.74,12S943.89,756.43,943.89,756.43Z" transform="translate(-29.64 -104.96)"/><path class="cls-20" d="M979.64,744.38c.27,6.46,5.31,14.47,8.31,18.71,1.89-.05,3.36-.13,3.36-.13s-1.17-31.19-2-34.47c-.43-1.57-2.5-1.22-4.54-.44C982.23,732.7,979.43,739.18,979.64,744.38Z" transform="translate(-29.64 -104.96)"/><path class="cls-6" d="M979.64,744.38c.27,6.46,5.31,14.47,8.31,18.71,1.89-.05,3.36-.13,3.36-.13s-1.17-31.19-2-34.47c-.43-1.57-2.5-1.22-4.54-.44C982.23,732.7,979.43,739.18,979.64,744.38Z" transform="translate(-29.64 -104.96)"/><path class="cls-15" d="M975.42,745.24c1.7,6.23,1.68,13.22,4.39,17.45a6.8,6.8,0,0,0,1.25.27,54.61,54.61,0,0,0,6.89.13c1.89-.05,3.36-.13,3.36-.13s-1.17-31.19-2-34.47c-.43-1.57-2.5-1.22-4.54-.44a29.21,29.21,0,0,0-4.43,2.24S973.24,737.26,975.42,745.24Z" transform="translate(-29.64 -104.96)"/><path class="cls-6" d="M890.09,682s12.28,4,22.69,18.16Z" transform="translate(-29.64 -104.96)"/><g class="cls-21"><path d="M989.92,528.23c0,.09,0,.18-.08.27a9.15,9.15,0,0,1-.42,1.07A7.21,7.21,0,0,1,989.92,528.23Z" transform="translate(-29.64 -104.96)"/><path d="M920.41,522a11.85,11.85,0,0,1,1-2.59c-.07.22-.14.44-.19.66-.65,2.79-.11,5.72.57,8.5.35,1.44.82,3,2.07,3.8,1.9,1.22,4.86.16,6.41,1.81,1,1,1,2.9,2.34,3.55a2.67,2.67,0,0,0,1.53.18c3.4-.48,5.37-4.33,8.65-5.39a8.69,8.69,0,0,1,5.73.49,4.27,4.27,0,0,1,1.9,1.22c1.09,1.42.32,3.51.83,5.22.71,2.38,3.54,3.32,6,3.63s5.23.49,6.87,2.35a6.22,6.22,0,0,1,1.22,5,3.9,3.9,0,0,0,0,1.83c.68,1.92,4,1.64,4.87.12.63-1.1.44-2,1.94-2.33a6.53,6.53,0,0,1,3.14.54,23,23,0,0,0,8.27,1.25,11.09,11.09,0,0,0,6.5-2,7.75,7.75,0,0,0,2-2.42,8.21,8.21,0,0,1-2.76,4.34,11.07,11.07,0,0,1-6.5,2,23.24,23.24,0,0,1-8.27-1.24,6.54,6.54,0,0,0-3.14-.55c-1.5.31-1.31,1.23-1.94,2.33-.87,1.52-4.19,1.81-4.87-.12a3.9,3.9,0,0,1,0-1.83,6.22,6.22,0,0,0-1.22-5c-1.64-1.86-4.41-2-6.87-2.34s-5.3-1.26-6-3.64c-.51-1.71.26-3.8-.83-5.21a4.19,4.19,0,0,0-1.9-1.22,8.7,8.7,0,0,0-5.73-.5c-3.27,1.06-5.25,4.91-8.65,5.39a2.59,2.59,0,0,1-1.53-.18c-1.29-.64-1.35-2.5-2.34-3.55-1.55-1.65-4.5-.59-6.41-1.81-1.24-.8-1.72-2.36-2.07-3.79C920.3,527.73,919.76,524.81,920.41,522Z" transform="translate(-29.64 -104.96)"/></g><path class="cls-6" d="M991.9,624.59c-2.34,3.17-5,6.1-7.1,9.45s-3.55,7.27-3.12,11.19c2.15-2.21,3.14-5.25,4.49-8,2.3-4.68,5.73-8.65,8.63-13,.55-.82,4.09-5.57,2.3-5.8C995.62,618.26,992.7,623.51,991.9,624.59Z" transform="translate(-29.64 -104.96)"/><ellipse class="cls-17" cx="281.86" cy="418.89" rx="121" ry="114"/><path class="cls-22" d="M495.12,663.57,395,633.73a152.89,152.89,0,0,1-66.52,15.13c-78.3,0-142-58.32-142-130s63.7-130,142-130,142,58.31,142,130c0,36.18-16.61,70.91-45.62,95.47Zm-100.28-32,.38.11,88.66,26.44-62.29-43.67,1-.84c29.17-24.22,45.9-58.77,45.9-94.77,0-70.58-62.8-128-140-128s-140,57.42-140,128,62.8,128,140,128a150.83,150.83,0,0,0,66-15.1Z" transform="translate(-29.64 -104.96)"/><circle class="cls-22" cx="251.36" cy="421.39" r="11"/><circle class="cls-22" cx="283.36" cy="421.39" r="11"/><circle class="cls-22" cx="315.36" cy="421.39" r="11"/><path class="cls-23" d="M263.73,403.91c6.89,4.61,17.34,2.42,17.34,2.42s15.77-7.48,20.44-7.48,16-4.61,16-4.61l-.38-3.12L316,381.75c7.19,5.6,15.17,3.66,19.1,3.26,4.22-.44,26.78-13.85,28.94-14.73a5.66,5.66,0,0,0,2-2h0a50.09,50.09,0,0,0,3.81-7h0c1.42-1.24,2.45-2.24,2.37-2.46a15.82,15.82,0,0,1,1.39-3.69,18.2,18.2,0,0,0,6.84-2.46,6.56,6.56,0,0,0,.94-1,6.12,6.12,0,0,0,1.28-3.88s22-22.2,19.11-31.43,7.11-9.45,7.11-9.45,15.34-6.6,17.47-10.55c1.32-2.44,12.82-7.78,21.47-11.53l1.07-.46c3.36,7.36,20.42,1.7,23.78-1.42,3.55-3.3,14-4.84,14-4.84s.44-43.08,3.78-48.57c1.58-2.61,2-11.11,1.92-19.33,0-.29,0-.58,0-.87,4.67-.91,15.78-3,20.94-3.54,3.27-.32,6.67-2.36,9.29-4.34l.3.39a6.32,6.32,0,0,0,2.85.46,4.4,4.4,0,0,0,2.49-.46c2-1.1,9.33-3.3,12-4.4s-.45-9-2.45-10.55-3.33-3.52-2.22-4.4-2.67-3.07-4.89-3.51-8.89-3.52-8.89-3.52-2.44-5-6.44-5-9.34-4-9.34-4c-.22-1.76-4.44-2-4.44-2s-16-12.31-18.67-10.77-10-2.42-10-2.42-9,1-11.11-.65h0a2.54,2.54,0,0,0-.54-1.49c-.48-1.48-2.8-3.52-5-5.22a19.86,19.86,0,0,0,.25-3.18c0-.46,0-.92-.05-1.37a1.79,1.79,0,0,0,0-.23c.11-1,.21-2.06.32-3.1a6.48,6.48,0,0,1,.77-2.91c.38-.58.93-1,1.35-1.58a3.74,3.74,0,0,0,.27-.42l.07-.11c.06-.11.11-.22.16-.33a.61.61,0,0,0,.05-.12,4.36,4.36,0,0,0,.29-.93s0-.05,0-.08.05-.29.06-.44v-.06a9.53,9.53,0,0,0-.5-3.78c-.67-2.07-1.71-4.08-1.82-6.24a20.48,20.48,0,0,0-.11-3.23c-.54-2.4-3-3.93-5.39-4.92-3.28-1.38-4.94-2.89-7.58-4.93-2.24-1.74-5.94-.87-8.77-.69-6.44.42-12.81,2.36-18.87,4.37a18.57,18.57,0,0,0-6.6,3.27,7.19,7.19,0,0,0-2.41,4.07h0a5.1,5.1,0,0,0-.08,1.11s0,.06,0,.09,0,.29.05.43,0,.09,0,.14a4.05,4.05,0,0,0,.12.5h0c.25.81.73,1.55,1,2.35a4.94,4.94,0,0,1,.15.55s0,0,0,.06l.09.52h0c.24,2-.5,4.09-.82,6.13a8.27,8.27,0,0,0-.1.87h0a10.37,10.37,0,0,0,.3,3.51v0c0,.14.09.28.13.42l.06.18.13.34c0,.08.07.16.1.23a2.92,2.92,0,0,0,.14.31l.13.25c.05.09.1.18.16.27s.1.17.16.25a2.5,2.5,0,0,0,.16.24l.2.26c.06.07.11.14.18.21a2.73,2.73,0,0,0,.23.25l.18.18.28.24.19.15.34.24.17.11.56.29c1.28.58,2.88.79,3.66,1.91a2.54,2.54,0,0,1,.37.88V141a17.37,17.37,0,0,0,.11,1.92,7.18,7.18,0,0,0,.05,1,3.31,3.31,0,0,0,.22.76,20,20,0,0,0,6.74,11.32c.07.34.14.74.23,1.18a22,22,0,0,1-6.47,3.39c-5.33,1.56-12.89,8.77-12.89,8.77s-3.75,27-4.65,30.33-1.57,16-1.57,16-.89,5.28-2.22,7.92c-.94,1.86-.77,9.84,1.86,14.7a12.38,12.38,0,0,1-1.64,2.66c-5.33,6.15-21.33,5.93-26.67,5.93-4.91,0-6.43,3-6.64,3.45-9.76,2.78-41.39,11.8-45.14,13.44-4.44,1.95-6.89,21.14-6.89,21.14s-9.33,31.87-8.89,36.06-3.11,15.81-3.11,15.81,0,13.15-1.51,14l-.05,0c-1.55.66-1.33,7-1.33,7s1.14.33,2.93.78c-.47,3.23-2.22,7.73-3.6,10.93-.69-.87-1.37-1.24-1.77-.22-1.11,2.8-17.78,22.58-22,22.58-2,0-5.33,1.65-7.52,3.87C261.14,398.36,260.13,401.49,263.73,403.91Zm76.45-114.52c18.89,1.76,39.12-1.34,39.12-1.34s-1.56,5.52-2.89,7.72-5.11,14.72-5.11,17.36-6,25.28-7.78,26.38a6.57,6.57,0,0,0-1.94,2.79,25.72,25.72,0,0,0-1.17,3.36,13.5,13.5,0,0,0,.15,1.63c-1.33,1.22-2.73,2.49-4,3.62h0s-7.94,4.42-10.61,6.84-15.11,5.38-15.11,5.38a78.41,78.41,0,0,0-9,4.56c-3.85,2.33-7.71,5.28-8.72,8.2.44-4.91,1.15-10.83,1.62-14.59l.71,0c6.23-.39,5.3-6.33,5-7.81a2.29,2.29,0,0,0-.08-.32c4.45-4.84,14.45-40.89,13.11-44.84s1.12-7.48,1.64-7.48,1.25-4.39.14-6.81,4.89-4.62,4.89-4.62Zm152.76-97-1.18.29c0-.17,0-.26,0-.26s.44,0,1.19,0Zm-64.57-33.17c-.18.22-.36.44-.55.64l-.23.24v-1.22l.78.34Zm-22.26,42.65.08,1.23s-.12.76-.35,2.05Zm102.13-12.29-3.88.67c.55-.21,1.09-.43,1.62-.68a3.47,3.47,0,0,1,1.23-.34,6.58,6.58,0,0,1,1.45.31,3,3,0,0,0-.42,0Z" transform="translate(-29.64 -104.96)"/><path class="cls-24" d="M377.08,348.31s-4.46,9.24-4.24,9.9-9.6,8.5-9.6,8.5l-10.69-7.63,1.09-5.24s12-10.81,12.87-12S377.08,348.31,377.08,348.31Z" transform="translate(-29.64 -104.96)"/><path class="cls-9" d="M316.12,379.58c7.42,7.2,16.15,5,20.29,4.58s26.28-13.74,28.41-14.61a5.66,5.66,0,0,0,1.94-2h0a50.81,50.81,0,0,0,3.75-6.92c-.15,0-7.4,2.11-9.23,0,0,0-3.06-3.74-3.71-3.74s-.05-6.57-.05-6.57-7.8,4.39-10.42,6.79-14.83,5.34-14.83,5.34a73.48,73.48,0,0,0-8.78,4.52C317.7,370.51,311.91,375.49,316.12,379.58Z" transform="translate(-29.64 -104.96)"/><path class="cls-6" d="M316.12,379.58c7.42,7.2,16.15,5,20.29,4.58s26.28-13.74,28.41-14.61a5.66,5.66,0,0,0,1.94-2c-2.58-1.54-19.44,9.18-24.16,11.14s-16.66.87-23.42-2c-3.38-1.42,0-5.77,4.31-9.77C317.7,370.51,311.91,375.49,316.12,379.58Z" transform="translate(-29.64 -104.96)"/><path class="cls-24" d="M317,356.9s-3.11,23.34-2.32,26.39-19.5-10.47-19.5-10.47,7.1-14.62,5-18S317,356.9,317,356.9Z" transform="translate(-29.64 -104.96)"/><path class="cls-5" d="M297.58,357.33s12.65,3.71,19.63,3.28c6.12-.39,5.2-6.29,4.88-7.75a2.29,2.29,0,0,0-.08-.32c4.37-4.8,14.18-40.58,12.87-44.5s1.09-7.42,1.61-7.42,1.23-4.36.14-6.76,4.8-4.58,4.8-4.58C360,291,379.82,288,379.82,288s-1.53,5.47-2.84,7.65-5,14.62-5,17.24-5.89,25.08-7.63,26.17a6.54,6.54,0,0,0-1.9,2.78,25.67,25.67,0,0,0-1.15,3.33c.65,14.61,17.23,8.94,19.63,7a6,6,0,0,0,2.18-4.8s21.59-22,18.76-31.19,7-9.38,7-9.38,15.05-6.54,17.14-10.47c1.29-2.42,12.58-7.72,21.08-11.44,5.32-2.34,9.55-4.05,9.55-4.05l-3.54-12.68-2.79-10-5.25-2-16.78-6.32-30.13-4.15-2.76.36-29.28,3.79S323.32,262,319,263.94s-6.76,21-6.76,21-9.16,31.62-8.73,35.79-3.05,15.68-3.05,15.68,0,13.05-1.48,13.94l-.05,0C297.37,351,297.58,357.33,297.58,357.33Z" transform="translate(-29.64 -104.96)"/><path class="cls-6" d="M341.43,289.28C360,291,379.82,288,379.82,288c1.31-4.12,19.64-15.47,19.64-15.47C384.42,268.77,341.43,289.28,341.43,289.28Z" transform="translate(-29.64 -104.96)"/><path class="cls-25" d="M361.28,345.12c.65,14.61,17.23,8.94,19.63,7a6.43,6.43,0,0,0,.93-1c-5.8,2.13-16.07,3.78-19.41-9.36A25.67,25.67,0,0,0,361.28,345.12Z" transform="translate(-29.64 -104.96)"/><path class="cls-25" d="M297.58,357.33s12.65,3.71,19.63,3.28c6.12-.39,5.2-6.29,4.88-7.75-6.4-.2-17.43-.8-23.15-2.53l-.05,0C297.37,351,297.58,357.33,297.58,357.33Z" transform="translate(-29.64 -104.96)"/><path class="cls-6" d="M361.28,345.12c.65,14.61,17.23,8.94,19.63,7a6.43,6.43,0,0,0,.93-1c-5.8,2.13-16.07,3.78-19.41-9.36A25.67,25.67,0,0,0,361.28,345.12Z" transform="translate(-29.64 -104.96)"/><path class="cls-6" d="M297.58,357.33s12.65,3.71,19.63,3.28c6.12-.39,5.2-6.29,4.88-7.75-6.4-.2-17.43-.8-23.15-2.53l-.05,0C297.37,351,297.58,357.33,297.58,357.33Z" transform="translate(-29.64 -104.96)"/><path class="cls-9" d="M266.39,402.92c6.76,4.58,17,2.4,17,2.4s15.48-7.41,20.06-7.41,15.71-4.59,15.71-4.59l-.38-3.08-1.8-14.8s-17-.44-17.67-2c0,0-3.06-7.52-4.15-4.74s-17.45,22.4-21.59,22.4c-2,0-5.24,1.64-7.39,3.85C263.85,397.41,262.85,400.53,266.39,402.92Z" transform="translate(-29.64 -104.96)"/><path class="cls-6" d="M325.07,274s14.18,8.94,10.25,10.91S325.07,274,325.07,274Z" transform="translate(-29.64 -104.96)"/><path class="cls-6" d="M319.18,291.24s12.21,11.6,7.63,11.91S319.18,291.24,319.18,291.24Z" transform="translate(-29.64 -104.96)"/><path class="cls-6" d="M306.09,328.11s6.2,11.65,3.86,13.68S306.09,328.11,306.09,328.11Z" transform="translate(-29.64 -104.96)"/><path class="cls-6" d="M374.36,339.88c-2.18,2.19,20.73-7.19,15.49-7.63S374.36,339.88,374.36,339.88Z" transform="translate(-29.64 -104.96)"/><path class="cls-24" d="M420.17,176.29l.73-.11c2.71-.41,12.55-2,21.37-3.87,2.15-.47,4.23-1,6.14-1.46,6.76-1.77,11.29-3.68,8.41-5.25-3.83-2.08-5.85-5.85-6.91-9.09-.1-.32-.2-.63-.28-.94a23.81,23.81,0,0,1-.89-5s-24.64-8.72-19.84,0c2.35,4.28.77,7.77-1.46,10.22a19,19,0,0,1-5.31,4Z" transform="translate(-29.64 -104.96)"/><path class="cls-6" d="M446.56,169.53s-8.81,6.32-17.82,1.09S408,216.86,408,216.86L395.74,247s-7.91,6.55,1.93,9.38,31.7-2.83,37.24,5.45,16,9.6,17.12,9.6,5.23-31.19,5.23-31.19l1.08-45.15Z" transform="translate(-29.64 -104.96)"/><path class="cls-17" d="M398.11,254.6c9.85,2.83,31.69-2.84,37.24,5.45a21.22,21.22,0,0,0,9.38,7.55,24.77,24.77,0,0,0,7.74,2c.14,0,.35-.57.59-1.56,1.53-6.32,4.64-29.63,4.64-29.63l1.08-45.16-10.37-22.45L447,167.78a18.87,18.87,0,0,1-4.49,2.19,15.85,15.85,0,0,1-13.34-1.1c-2.64-1.53-5.52,1.81-8.27,7.31-6.63,13.24-12.51,38.94-12.51,38.94l-12.21,30.1a10.33,10.33,0,0,0-.83.79C393.61,247.84,390.36,252.37,398.11,254.6Z" transform="translate(-29.64 -104.96)"/><path class="cls-6" d="M445,256.11a57.31,57.31,0,0,0-.29,11.49,136.33,136.33,0,0,0,2,16.23,6.07,6.07,0,0,0,.27,1c5.32-2.34,9.55-4.05,9.55-4.05l-3.54-12.68c1.53-6.32,4.64-29.63,4.64-29.63l1.08-45.16-10.37-22.45c6.76-1.77,11.29-3.68,8.41-5.25-4.2-2.28-6.22-6.6-7.19-10a36.34,36.34,0,0,1-6.2,6.67l-.14.12-.78,7.61-.24,2.34-.51,4.85s2.4,57.37,4.15,60.64.87,9.6-.66,17C445.17,255.23,445.09,255.67,445,256.11Z" transform="translate(-29.64 -104.96)"/><path class="cls-22" d="M446.13,253.94c-1.53,7.42-.22,19.63,1.52,29s20.29,3.28,23.78,0,13.74-4.8,13.74-4.8.44-42.75,3.71-48.2c1.55-2.59,1.93-11,1.89-19.18,0-7.33-.39-14.42-.53-16.82,0-.56-.05-.86-.05-.86s14.18-24,14-25.74-4.36-2-4.36-2-15.71-12.21-18.33-10.68-9.81-2.4-9.81-2.4-9.12,1-11-.73a1,1,0,0,1-.33-.8c.21-2.79-9.3-8.76-9.59-8.94,8,7.21-5,18.32-6.42,19.54l-.14.11-1.52,14.81s2.4,57.37,4.14,60.64S447.65,246.53,446.13,253.94Z" transform="translate(-29.64 -104.96)"/><circle class="cls-25" cx="417.33" cy="86.66" r="1.09"/><path class="cls-6" d="M444.74,162.24l6.62,6.42,9.72-16.22a.93.93,0,0,1-.34-.8c.22-2.79-9.29-8.75-9.59-8.94C459.17,149.91,446.21,161,444.74,162.24Z" transform="translate(-29.64 -104.96)"/><circle class="cls-6" cx="419.51" cy="121.56" r="1.09"/><circle class="cls-25" cx="419.51" cy="121.13" r="1.09"/><path class="cls-22" d="M444.3,161.37l6.63,6.41,9.71-16.21a1,1,0,0,1-.33-.8c.21-2.79-9.3-8.76-9.59-8.94C458.73,149,445.77,160.15,444.3,161.37Z" transform="translate(-29.64 -104.96)"/><rect class="cls-9" x="429.33" y="199" width="32.08" height="15.18" rx="1.7" transform="translate(199.04 542.17) rotate(-88.69)"/><rect class="cls-6" x="429.33" y="199" width="32.08" height="15.18" rx="1.7" transform="translate(199.04 542.17) rotate(-88.69)"/><rect class="cls-9" x="429.41" y="199.71" width="32.08" height="15.18" rx="1.7" transform="translate(198.41 542.95) rotate(-88.69)"/><circle class="cls-26" cx="416.21" cy="95.68" r="2.39"/><path class="cls-6" d="M363.68,252c5.45,2.4,41.22-3.93,46.46-5.45s12.87-13.31,9.16-21.82,1.31-16.79,1.31-16.79,7.85-16.8,9.59-20.07a152.41,152.41,0,0,0,5.89-14.4,1.31,1.31,0,0,0-.31-1c-1.41-2.15-6.88-6-6.88-6-1.54.56-1.74-3.85-1.68-7.09,0-1.81.15-3.26.15-3.26s-.73.73-1.91,1.74c-.43.36-.92.76-1.47,1.18a22.54,22.54,0,0,1-6.87,3.75c-5.24,1.55-12.65,8.7-12.65,8.7l2.18,33.5s-5,31.5-10.26,37.61-20.94,5.89-26.17,5.89S363.68,252,363.68,252Z" transform="translate(-29.64 -104.96)"/><path class="cls-22" d="M363.24,250.67c5.45,2.4,41.23-3.93,46.46-5.45s12.87-13.31,9.16-21.82,1.31-16.79,1.31-16.79,7.85-16.8,9.6-20.07,5.38-12.8,5.89-14.39a1.29,1.29,0,0,0-.31-1c-1.42-2.16-6.89-6-6.89-6-1.54.55-1.73-3.86-1.67-7.1,0-1.81.14-3.26.14-3.26s-.72.74-1.9,1.74c-.44.36-.93.76-1.47,1.18a22.7,22.7,0,0,1-6.88,3.75c-5.23,1.55-12.65,8.7-12.65,8.7l2.18,33.5s-5,31.5-10.25,37.61-20.94,5.89-26.18,5.89S363.24,250.67,363.24,250.67Z" transform="translate(-29.64 -104.96)"/><path class="cls-6" d="M422.57,155.68s.2,1.15.55,2.92c1.17,6,4,19.07,6,18.56,1.45-.36,3.9-2.93,5.8-5.14-1.42-2.16-6.89-6-6.89-6-1.54.56-1.73-3.85-1.67-7.1l-1.76-1.52Z" transform="translate(-29.64 -104.96)"/><path class="cls-22" d="M423,154.81s.2,1.15.55,2.92c1.17,6,4,19.07,6,18.56,1.45-.36,3.9-2.93,5.8-5.14-1.42-2.16-6.89-6-6.89-6-1.54.55-1.73-3.86-1.67-7.1L425,156.55Z" transform="translate(-29.64 -104.96)"/><path class="cls-24" d="M409.05,219s10.9-2.18,14-7,23.82-8.94,21.29-3.92S423,229.57,423,229.57l-8.13,11.64L404,238.46l-4.57-8.89Z" transform="translate(-29.64 -104.96)"/><path class="cls-6" d="M434.85,231.49s-10.56,3.92-12.15,9.16S434.85,231.49,434.85,231.49Z" transform="translate(-29.64 -104.96)"/><path class="cls-6" d="M441.33,237.58s1,5.45-12.28,5Z" transform="translate(-29.64 -104.96)"/><path class="cls-6" d="M498.48,167.78l4.8-.43s5.23,3.92,9.16,3.92,6.32,5,6.32,5,6.55,3.05,8.73,3.49,5.89,2.62,4.8,3.49.21,2.84,2.18,4.36,5,9.38,2.4,10.47-9.82,3.27-11.78,4.36a5.34,5.34,0,0,1-4.36,0s-11.56-15.05-17.45-12.21-14,2.84-14,2.84L483,179.78Z" transform="translate(-29.64 -104.96)"/><path class="cls-22" d="M398.11,239.55a5.84,5.84,0,0,0,4.06,2.83,30.89,30.89,0,0,0,12.71-1.17s-22-7-.82-24h-5.67l-1.89-.71.87-4.52,1.24-40.75L404,170.18s-3.69,26.83-4.57,30.1-1.54,15.93-1.54,15.93-.87,5.23-2.18,7.85C394.75,226,395,234.9,398.11,239.55Z" transform="translate(-29.64 -104.96)"/><path class="cls-6" d="M399,239.55a5.84,5.84,0,0,0,4.07,2.83,30.84,30.84,0,0,0,12.7-1.17s-22-7-.81-24h-5.68l-1.89-.71C404.27,222,399.38,231.83,399,239.55Z" transform="translate(-29.64 -104.96)"/><path class="cls-27" d="M398.11,239.55a5.84,5.84,0,0,0,4.06,2.83,30.89,30.89,0,0,0,12.71-1.17s-22-7-.82-24h-5.67l-1.89-.71C403.4,222,398.51,231.83,398.11,239.55Z" transform="translate(-29.64 -104.96)"/><path class="cls-22" d="M398.11,239.55a5.84,5.84,0,0,0,4.06,2.83,30.89,30.89,0,0,0,12.71-1.17s-22-7-.82-24h-5.67l-1.89-.71C403.4,222,398.51,231.83,398.11,239.55Z" transform="translate(-29.64 -104.96)"/><path class="cls-6" d="M427.44,160.77a19.86,19.86,0,0,0,22.47-4.26c-.1-.32-.2-.63-.28-.94a23.81,23.81,0,0,1-.89-5s-24.64-8.72-19.84,0C431.25,154.83,429.67,158.32,427.44,160.77Z" transform="translate(-29.64 -104.96)"/><path class="cls-24" d="M415.81,141.83V142c0,.64,0,1.28.11,1.91a17.35,17.35,0,0,0,.27,1.78,19.85,19.85,0,0,0,38.24,2.57c.13-.39.26-.77.36-1.17a19.66,19.66,0,0,0,.72-5.28c0-.46,0-.92-.05-1.37a19.85,19.85,0,0,0-39.65,1.37Z" transform="translate(-29.64 -104.96)"/><path class="cls-6" d="M415.81,142a9.38,9.38,0,0,1,.11,1.91,7.11,7.11,0,0,0,.05,1,2.81,2.81,0,0,0,.22.75c.8,1.89,3.42,3.1,5.14,1.89a5.51,5.51,0,0,0,1.55-2c1.84-3.4,4.39-7.33,8.4-7.39,1.71,0,3.32.69,5,1.11s3.62.47,4.86-.65c.94-.87,1.39-2.35,2.67-2.65s2.44.86,3,2,1.05,2.48,2.23,3.07c.53.26,1.14.34,1.66.62,2.37,1.3,1.28,5.85,3.74,6.59l.24.05.12-1.22c.22-2.21.45-4.43.67-6.65a19.85,19.85,0,0,0-39.65,1.37Z" transform="translate(-29.64 -104.96)"/><path class="cls-9" d="M451.07,112.2c2.33,1,4.76,2.5,5.28,4.89a17.92,17.92,0,0,1,.11,3.19c.11,2.15,1.14,4.15,1.79,6.21s.89,4.46-.42,6.21c-.41.55-.95,1-1.32,1.57a6.35,6.35,0,0,0-.76,2.89l-1.08,10.74c-2.77-.52-1.54-5.31-4-6.65-.51-.28-1.12-.36-1.65-.62-1.18-.59-1.64-1.93-2.23-3.07s-1.73-2.32-3-2-1.72,1.79-2.66,2.65c-1.24,1.13-3.21,1.08-4.86.65s-3.26-1.14-5-1.11c-4,.07-6.57,4-8.4,7.4a5.59,5.59,0,0,1-1.55,2c-1.94,1.37-5-.36-5.36-2.65-.18-1.27.21-2.71-.52-3.79s-2.34-1.32-3.59-1.89c-3.19-1.47-4.18-5.45-3.65-8.79.38-2.41,1.34-4.88.56-7.2-.27-.8-.74-1.53-1-2.33-.7-2.24.44-4.72,2.24-6.32A18.48,18.48,0,0,1,416.5,111c5.95-2,12.19-3.91,18.52-4.33,2.77-.18,6.41-1,8.61.68C446.22,109.34,447.84,110.83,451.07,112.2Z" transform="translate(-29.64 -104.96)"/><circle class="cls-6" cx="416.24" cy="69.43" r="1.09"/><circle class="cls-25" cx="416.24" cy="68.99" r="1.09"/><circle class="cls-6" cx="423.22" cy="137.92" r="1.09"/><circle class="cls-25" cx="423.22" cy="137.49" r="1.09"/><circle class="cls-6" cx="419.51" cy="156.03" r="1.09"/><circle class="cls-25" cx="419.51" cy="155.59" r="1.09"/><path class="cls-6" d="M411.66,191.63s-2.4,16.29,0,19.12S411.66,191.63,411.66,191.63Z" transform="translate(-29.64 -104.96)"/><path class="cls-6" d="M483,221.88s4.58,9.87,0,19.33-7.42,13.3-5.89,19.34S483,221.88,483,221.88Z" transform="translate(-29.64 -104.96)"/><path class="cls-6" d="M266.39,402.92c6.76,4.58,17,2.4,17,2.4s15.48-7.41,20.06-7.41,15.71-4.59,15.71-4.59l-.38-3.08c-4.52.87-14.79,2.94-16,4-1.53,1.31-20.29,7.63-20.29,7.63s-12.77-1.59-16.33-6.84C263.85,397.41,262.85,400.53,266.39,402.92Z" transform="translate(-29.64 -104.96)"/><g class="cls-21"><path d="M456.46,118.54c0-.24,0-.47,0-.71,0,.27,0,.54,0,.81A.34.34,0,0,0,456.46,118.54Z" transform="translate(-29.64 -104.96)"/><path d="M411.86,137.09c1.25.58,2.83.78,3.59,1.9s.34,2.51.52,3.79c.34,2.29,3.42,4,5.36,2.64a5.51,5.51,0,0,0,1.55-2c1.83-3.41,4.39-7.33,8.4-7.39,1.71,0,3.32.69,5,1.11s3.62.47,4.86-.65c.94-.87,1.39-2.35,2.66-2.65s2.45.86,3,2,1.05,2.49,2.23,3.08c.53.26,1.14.33,1.65.62,2.45,1.33,1.22,6.13,4,6.64l1.08-10.73a6.35,6.35,0,0,1,.76-2.89c.37-.58.91-1,1.32-1.58a4.78,4.78,0,0,0,.89-2.31,5.56,5.56,0,0,1-.89,4.06c-.41.55-.95,1-1.32,1.57a6.35,6.35,0,0,0-.76,2.89l-1.08,10.74c-2.77-.52-1.54-5.31-4-6.65-.51-.28-1.12-.36-1.65-.62-1.18-.59-1.64-1.93-2.23-3.07s-1.73-2.32-3-2-1.72,1.79-2.66,2.65c-1.24,1.13-3.21,1.08-4.86.65s-3.26-1.14-5-1.11c-4,.07-6.57,4-8.4,7.39a5.55,5.55,0,0,1-1.55,2c-1.94,1.37-5-.36-5.36-2.65-.18-1.28.21-2.71-.52-3.79s-2.34-1.32-3.59-1.89c-2.92-1.35-4-4.79-3.75-7.92C408.33,133.5,409.48,136,411.86,137.09Z" transform="translate(-29.64 -104.96)"/><path d="M407.78,118.78c.25.8.72,1.53,1,2.33A6.75,6.75,0,0,1,409,124a6.24,6.24,0,0,0-.25-1.12c-.27-.8-.74-1.53-1-2.33a4.89,4.89,0,0,1-.13-2.28A5.29,5.29,0,0,0,407.78,118.78Z" transform="translate(-29.64 -104.96)"/></g><path class="cls-6" d="M471.87,215.76c5-1.1,16.79-4.57,16.79-4.57l2.11-.42c0-7.33-.39-14.42-.53-16.82h-.05s-10,3.27-12.43,5-9.82,1.31-9.82,1.31-11.56.66-21.16,11.35S466.85,216.86,471.87,215.76Z" transform="translate(-29.64 -104.96)"/><path class="cls-24" d="M520.89,196.3a2.89,2.89,0,0,1,1.45,3.85,3,3,0,0,1-.79,1c-2.66,2.2-6.54,4.83-10.24,5.2-6.18.62-21.05,3.61-22.53,3.9l-.23.06c-1.23.36-12,3.5-16.68,4.54-5,1.1-34.69,6.55-25.09-4.14a34,34,0,0,1,21-11.32,2.38,2.38,0,0,1,.38,0c1.12.05,7.46.27,9.65-1.32a21.23,21.23,0,0,1,3.6-1.8,70.11,70.11,0,0,1,14.75-4.25l10.26-1.79a3,3,0,0,1,1.73.22Z" transform="translate(-29.64 -104.96)"/><path class="cls-22" d="M499.35,167.78l4.8-.43s5.23,3.92,9.16,3.92,6.33,5,6.33,5,6.54,3.05,8.72,3.49,5.89,2.62,4.8,3.49.22,2.84,2.18,4.36,5,9.38,2.4,10.47-9.82,3.27-11.78,4.36a5.34,5.34,0,0,1-4.36,0S510,187.41,504.15,190.25s-14,2.84-14,2.84l-6.33-13.31Z" transform="translate(-29.64 -104.96)"/><path class="cls-22" d="M876.43,274.85a29.45,29.45,0,0,1-40.23,0,25.95,25.95,0,0,1,0-38,29.45,29.45,0,0,1,40.23,0,26,26,0,0,1,0,38Zm-30.23-8.58a14.39,14.39,0,0,0,20.24,0,15.34,15.34,0,0,0,0-20.81,14.44,14.44,0,0,0-20.24,0,15.28,15.28,0,0,0,0,20.81Z" transform="translate(-29.64 -104.96)"/></svg>