<svg id="Layer_1" data-name="Layer 1" xmlns="http://www.w3.org/2000/svg" xmlns:xlink="http://www.w3.org/1999/xlink" viewBox="0 0 693 595.78"><defs><style>.cls-1,.cls-10,.cls-11,.cls-12,.cls-14,.cls-15,.cls-16,.cls-17,.cls-3,.cls-5,.cls-8,.cls-9{fill:none;}.cls-2{clip-path:url(#clip-path);}.cls-10,.cls-11,.cls-12,.cls-14,.cls-15,.cls-16,.cls-17,.cls-3,.cls-5,.cls-8,.cls-9{stroke-miterlimit:10;}.cls-10,.cls-11,.cls-14,.cls-15,.cls-16,.cls-3,.cls-5,.cls-8,.cls-9{stroke-width:1.3px;}.cls-3{stroke:url(#linear-gradient);}.cls-4{clip-path:url(#clip-path-2);}.cls-5{stroke:url(#linear-gradient-2);}.cls-6{fill:#032a43;}.cls-7{clip-path:url(#clip-path-3);}.cls-8{stroke:url(#linear-gradient-3);}.cls-9{stroke:url(#linear-gradient-4);}.cls-10{stroke:url(#linear-gradient-5);}.cls-11{stroke:url(#linear-gradient-6);}.cls-12,.cls-17{stroke-width:1.68px;}.cls-12{stroke:url(#linear-gradient-7);}.cls-13{clip-path:url(#clip-path-4);}.cls-14{stroke:url(#linear-gradient-8);}.cls-15{stroke:url(#linear-gradient-9);}.cls-16{stroke:url(#linear-gradient-10);}.cls-17{stroke:url(#linear-gradient-11);}</style><clipPath id="clip-path"><rect class="cls-1" x="1861.16" y="666.58" width="1386" height="595.78"/></clipPath><linearGradient id="linear-gradient" x1="-1152.79" y1="-1191.88" x2="834.97" y2="-1191.88" gradientTransform="translate(1448.32 -430.69) rotate(180)" gradientUnits="userSpaceOnUse"><stop offset="0" stop-color="#f16122"/><stop offset="0.96" stop-color="#de541f"/></linearGradient><clipPath id="clip-path-2"><rect class="cls-1" x="1861.16" width="1386" height="595.78"/></clipPath><linearGradient id="linear-gradient-2" x1="-1152.79" y1="-525.3" x2="834.97" y2="-525.3" xlink:href="#linear-gradient"/><clipPath id="clip-path-3"><rect class="cls-1" width="693" height="595.78"/></clipPath><linearGradient id="linear-gradient-3" x1="349.69" y1="676.72" x2="1001.83" y2="676.72" gradientTransform="matrix(1, 0, 0, 1, 0, 0)" xlink:href="#linear-gradient"/><linearGradient id="linear-gradient-4" x1="834.01" y1="808.26" x2="1835.5" y2="808.26" gradientTransform="translate(1177.98 769.23) rotate(180)" xlink:href="#linear-gradient"/><linearGradient id="linear-gradient-5" x1="873.67" y1="-525.3" x2="2861.43" y2="-525.3" xlink:href="#linear-gradient"/><linearGradient id="linear-gradient-6" x1="-439.41" y1="186.83" x2="1548.35" y2="186.83" xlink:href="#linear-gradient"/><linearGradient id="linear-gradient-7" x1="-672.83" y1="24.34" x2="541.98" y2="24.34" gradientTransform="translate(-289.1 459.88) rotate(180)" xlink:href="#linear-gradient"/><clipPath id="clip-path-4"><rect class="cls-1" x="812.51" width="693" height="595.78"/></clipPath><linearGradient id="linear-gradient-8" x1="-42.41" y1="808.26" x2="959.08" y2="808.26" gradientTransform="translate(1177.98 769.23) rotate(180)" gradientUnits="userSpaceOnUse"><stop offset="0" stop-color="#032a43"/><stop offset="0.96" stop-color="#de541f"/></linearGradient><linearGradient id="linear-gradient-9" x1="-104.14" y1="-525.3" x2="1883.62" y2="-525.3" gradientTransform="translate(1448.32 -430.69) rotate(180)" xlink:href="#linear-gradient-8"/><linearGradient id="linear-gradient-10" x1="-1186.18" y1="186.83" x2="801.58" y2="186.83" gradientTransform="translate(1448.32 -430.69) rotate(180)" xlink:href="#linear-gradient-8"/><linearGradient id="linear-gradient-11" x1="-1635.32" y1="120.34" x2="-420.51" y2="120.34" gradientTransform="translate(-289.1 459.88) rotate(180)" xlink:href="#linear-gradient-8"/></defs><title>Navy Line Pattern A</title><g class="cls-2"><path class="cls-3" d="M2373.31,86.65a917.9,917.9,0,0,1,53-151.78c40.39-89.63,98.23-183,170.14-261.66,8.74-9.56,2.12-24.91-10.83-24.91H2223.91a14.79,14.79,0,0,0-14.8,15.86c11.7,150.33,58.89,297.93,137.24,426.77C2353.17,102.14,2370.09,99.37,2373.31,86.65ZM615.36-330.85a.73.73,0,0,0,.1.19L940.82,458.76l34.56,83.85a14.8,14.8,0,0,0,24,5c33.38-32.08,68.64-62.53,94.75-100.62,17.88-26.09,30.77-57.44,33.85-88.68,1.57-15.89,23.92-18.4,28.8-3.2,11.83,36.88,12.12,78.56,3.45,116.64-14.6,64.14-50.42,121.05-84.08,177.56-.11.19-.22.38-.34.57a130.17,130.17,0,0,0-8.26,116.18l20.32,49.3L1218.74,1133a14.82,14.82,0,0,0,24.15,4.84c78.32-77.19,164.18-147.85,226.24-238.41,54-78.8,87.08-179.61,71.19-271.29-2.77-16,18.35-24.4,27-10.69,60.75,95.71,71.23,223,45.54,335.84-31.76,139.52-109.66,263.3-182.88,386.24q-10.54,17.7-21,35.58a213.06,213.06,0,0,0-12.91,188.32l124.25,301.47c5,12.08,21.91,12.23,27.25.31,109.92-245.68,317-424.78,467.61-643.25,48-69.58,97.46-145.85,122.93-226.87,28.05-89.24,44.18-179.64,47.24-273.26,4.77-145.58-25.4-283-49.68-425.44q-1.51-8.9-2.91-17.69c-13.34-84.21-17.94-162.32,6.07-243.23,4.15-14-12.28-24.92-23.6-15.69-117,95.32-201.86,229.84-237.2,376.61-3.18,13.21-21,15.48-27.4,3.51-16.09-30-31.71-60.28-44.31-91.93-60.5-151.9-37.13-335.3,23.53-483.51a717.74,717.74,0,0,1,38.36-79.45c12.44-22.15,27.22-48.18,43.93-73.73a14.83,14.83,0,0,0-12.32-23H1259.76a14.72,14.72,0,0,0-13.43,8.52q-2.26,5-4.36,10c-45.66,109.13-49,235.1-10.69,346.89C1236,27.55,1219.9,39,1208.2,30.12,1144.87-17.67,1094.61-82.77,1065-156.39a440.61,440.61,0,0,1-31.11-180.07,14.76,14.76,0,0,0-14.79-15.24H628.9C618.16-351.7,610.84-340.58,615.36-330.85Z"/></g><g class="cls-4"><path class="cls-5" d="M2373.31-579.93a917.58,917.58,0,0,1,53-151.78c40.39-89.63,98.23-183,170.14-261.66,8.74-9.56,2.12-24.92-10.83-24.92H2223.91a14.8,14.8,0,0,0-14.8,15.87c11.7,150.33,58.89,297.93,137.24,426.77C2353.17-564.44,2370.09-567.21,2373.31-579.93ZM615.36-997.43a.73.73,0,0,0,.1.19L940.82-207.82,975.38-124a14.8,14.8,0,0,0,24,5c33.38-32.08,68.64-62.53,94.75-100.62,17.88-26.09,30.77-57.44,33.85-88.68,1.57-15.89,23.92-18.4,28.8-3.2,11.83,36.88,12.12,78.56,3.45,116.64-14.6,64.14-50.42,121.05-84.08,177.56-.11.19-.22.38-.34.57a130.17,130.17,0,0,0-8.26,116.18l20.32,49.3,130.92,317.65a14.82,14.82,0,0,0,24.15,4.84c78.32-77.19,164.18-147.85,226.24-238.41,54-78.8,87.08-179.61,71.19-271.29-2.77-16,18.35-24.4,27-10.69,60.75,95.71,71.23,223,45.54,335.84C1581.15,426.27,1503.25,550.05,1430,673q-10.54,17.7-21,35.58a213,213,0,0,0-12.91,188.31l124.25,301.48c5,12.08,21.91,12.23,27.25.31,109.92-245.69,317-424.78,467.61-643.25,48-69.58,97.46-145.85,122.93-226.87,28.05-89.24,44.18-179.64,47.24-273.26,4.77-145.58-25.4-283-49.68-425.44q-1.51-8.89-2.91-17.69c-13.34-84.21-17.94-162.32,6.07-243.23,4.15-14-12.28-24.92-23.6-15.69-117,95.32-201.86,229.84-237.2,376.61-3.18,13.21-21,15.48-27.4,3.51-16.09-30-31.71-60.28-44.31-91.93-60.5-151.9-37.13-335.3,23.53-483.51a717.74,717.74,0,0,1,38.36-79.45c12.44-22.15,27.22-48.18,43.93-73.73a14.83,14.83,0,0,0-12.32-23H1259.76a14.72,14.72,0,0,0-13.43,8.52q-2.26,5-4.36,10c-45.66,109.13-49,235.1-10.69,346.89,4.76,13.86-11.38,25.26-23.08,16.43C1144.87-684.25,1094.61-749.35,1065-823A440.61,440.61,0,0,1,1033.86-1003a14.76,14.76,0,0,0-14.79-15.24H628.9C618.16-1018.28,610.84-1007.16,615.36-997.43Z"/></g><rect class="cls-6" width="693" height="595.78"/><g class="cls-7"><path class="cls-8" d="M424.77,897.73a300.57,300.57,0,0,1-17.38,49.73c-13.23,29.37-32.18,59.95-55.75,85.73a4.86,4.86,0,0,0,3.55,8.16H473.72a4.86,4.86,0,0,0,4.85-5.2,317.79,317.79,0,0,0-45-139.82A4.84,4.84,0,0,0,424.77,897.73Zm576,136.79s0-.06,0-.06L894.1,775.81l-11.32-27.47a4.85,4.85,0,0,0-7.84-1.65c-10.94,10.51-22.5,20.49-31.05,33-5.86,8.55-10.08,18.82-11.09,29.05-.51,5.21-7.84,6-9.44,1-3.87-12.08-4-25.73-1.13-38.21,4.79-21,16.52-39.66,27.55-58.18l.11-.18a42.64,42.64,0,0,0,2.71-38.07L845.94,659,803.05,554.89a4.86,4.86,0,0,0-7.92-1.58c-25.66,25.29-53.79,48.44-74.12,78.11-17.69,25.82-28.53,58.85-23.33,88.89.91,5.24-6,8-8.86,3.5-19.9-31.36-23.33-73.07-14.92-110,10.41-45.71,35.93-86.26,59.92-126.54q3.46-5.81,6.87-11.66a69.79,69.79,0,0,0,4.23-61.7L704.21,315.1a4.85,4.85,0,0,0-8.92-.1c-36,80.49-103.87,139.17-153.21,210.75-15.71,22.79-31.93,47.78-40.28,74.33a332.46,332.46,0,0,0-15.47,89.53c-1.57,47.7,8.32,92.74,16.27,139.39q.5,2.91,1,5.8c4.37,27.58,5.87,53.18-2,79.69a4.86,4.86,0,0,0,7.73,5.14A229.94,229.94,0,0,0,587,796.23a4.85,4.85,0,0,1,9-1.15,295.85,295.85,0,0,1,14.52,30.13c19.82,49.76,12.17,109.85-7.71,158.41a233.43,233.43,0,0,1-12.57,26c-4.07,7.26-8.91,15.79-14.39,24.16a4.86,4.86,0,0,0,4,7.54H789.61a4.83,4.83,0,0,0,4.4-2.79c.49-1.09,1-2.18,1.42-3.27,15-35.76,16.07-77,3.51-113.65a4.85,4.85,0,0,1,7.56-5.39,142.95,142.95,0,0,1,57.12,120.11,4.84,4.84,0,0,0,4.85,5H996.3A4.84,4.84,0,0,0,1000.74,1034.52Z"/><path class="cls-9" d="M229-378.66a462.29,462.29,0,0,1,26.71-76.42c20.33-45.13,49.45-92.13,85.66-131.75a7.46,7.46,0,0,0-5.45-12.54H153.73a7.46,7.46,0,0,0-7.46,8A488.25,488.25,0,0,0,215.38-376.5,7.45,7.45,0,0,0,229-378.66ZM-656.18-588.87c0,.06,0,.09,0,.09L-492.31-191.3l17.4,42.22a7.44,7.44,0,0,0,12.05,2.53C-446-162.7-428.29-178-415.15-197.21c9-13.14,15.49-28.92,17-44.65.79-8,12-9.27,14.5-1.61,6,18.57,6.1,39.55,1.73,58.73-7.35,32.29-25.38,60.94-42.33,89.4l-.17.29a65.55,65.55,0,0,0-4.16,58.49l10.23,24.83,65.92,159.93a7.46,7.46,0,0,0,12.16,2.44c39.43-38.86,82.67-74.45,113.91-120,27.19-39.68,43.85-90.43,35.85-136.6-1.4-8.06,9.24-12.28,13.62-5.38C-146.26-63.19-141,.91-153.91,57.72-169.9,128-209.13,190.29-246,252.19q-5.31,8.91-10.56,17.92a107.29,107.29,0,0,0-6.5,94.81l62.56,151.8a7.46,7.46,0,0,0,13.72.15C-131.43,393.17-27.16,303,48.67,193c24.15-35,49.07-73.43,61.89-114.23A510.76,510.76,0,0,0,134.35-58.82c2.4-73.3-12.79-142.52-25-214.21q-.75-4.49-1.46-8.91c-6.72-42.4-9-81.73,3-122.47A7.46,7.46,0,0,0,99-412.31,353.48,353.48,0,0,0-20.39-222.68a7.45,7.45,0,0,1-13.8,1.77c-8.1-15.11-16-30.36-22.31-46.29C-87-343.68-75.19-436-44.65-510.65a363.4,363.4,0,0,1,19.31-40c6.27-11.16,13.71-24.27,22.12-37.13a7.46,7.46,0,0,0-6.2-11.59H-331.73a7.42,7.42,0,0,0-6.76,4.29q-1.14,2.51-2.19,5c-23,54.95-24.7,118.38-5.39,174.66,2.4,7-5.73,12.73-11.62,8.28A222.62,222.62,0,0,1-429.8-501a221.83,221.83,0,0,1-15.67-90.66,7.43,7.43,0,0,0-7.45-7.68H-649.37A7.44,7.44,0,0,0-656.18-588.87Z"/><path class="cls-10" d="M346.85-579.93a917.58,917.58,0,0,1,53-151.78c40.39-89.63,98.23-183,170.14-261.66,8.74-9.56,2.12-24.92-10.83-24.92H197.45a14.8,14.8,0,0,0-14.8,15.87c11.71,150.33,58.89,297.93,137.24,426.77C326.71-564.44,343.63-567.21,346.85-579.93ZM-1411.1-997.43a.73.73,0,0,0,.1.19l325.37,789.42,34.55,83.85a14.8,14.8,0,0,0,23.95,5c33.38-32.08,68.64-62.53,94.75-100.62,17.88-26.09,30.77-57.44,33.85-88.68,1.57-15.89,23.93-18.4,28.8-3.2,11.83,36.88,12.12,78.56,3.45,116.64-14.6,64.14-50.42,121.05-84.08,177.56-.11.19-.22.38-.34.57A130.2,130.2,0,0,0-959,99.51l20.32,49.3,130.92,317.65a14.82,14.82,0,0,0,24.15,4.84c78.32-77.19,164.18-147.85,226.24-238.41,54-78.8,87.08-179.61,71.19-271.29-2.77-16,18.35-24.4,27.05-10.69,60.75,95.71,71.23,223,45.55,335.84C-445.31,426.27-523.21,550.05-596.43,673q-10.55,17.7-21,35.58a213,213,0,0,0-12.92,188.31l124.25,301.48c5,12.08,21.92,12.23,27.25.31C-368.89,953-161.8,773.89-11.21,555.42c48-69.58,97.46-145.85,122.93-226.87C139.77,239.31,155.9,148.91,159,55.29c4.77-145.58-25.39-283-49.67-425.44q-1.53-8.89-2.92-17.69C93-472,88.43-550.16,112.44-631.07c4.16-14-12.28-24.92-23.6-15.69C-28.2-551.44-113-416.92-148.36-270.15c-3.17,13.21-21,15.48-27.4,3.51-16.09-30-31.7-60.28-44.31-91.93-60.5-151.9-37.13-335.3,23.53-483.51a717.74,717.74,0,0,1,38.36-79.45c12.44-22.15,27.22-48.18,43.93-73.73a14.82,14.82,0,0,0-12.32-23H-766.7a14.72,14.72,0,0,0-13.43,8.52c-1.5,3.31-3,6.64-4.35,10-45.66,109.13-49,235.1-10.7,346.89,4.76,13.86-11.38,25.26-23.08,16.43C-881.59-684.25-931.85-749.35-961.49-823A440.61,440.61,0,0,1-992.6-1003a14.76,14.76,0,0,0-14.79-15.24h-390.17C-1408.3-1018.28-1415.62-1007.16-1411.1-997.43Z"/><path class="cls-11" d="M1659.92-1292.06a918.54,918.54,0,0,1,53-151.78c40.39-89.63,98.22-183,170.14-261.66,8.74-9.56,2.12-24.92-10.84-24.92H1510.53a14.81,14.81,0,0,0-14.81,15.87c11.71,150.33,58.89,297.93,137.25,426.77C1639.79-1276.57,1656.71-1279.34,1659.92-1292.06ZM-98-1709.56a1.87,1.87,0,0,0,.09.19L227.44-919.95,262-836.11a14.79,14.79,0,0,0,23.94,5c33.39-32.08,68.65-62.53,94.75-100.62,17.88-26.09,30.77-57.44,33.86-88.68,1.57-15.89,23.92-18.4,28.8-3.2,11.82,36.88,12.12,78.55,3.44,116.64-14.6,64.14-50.41,121-84.07,177.56l-.34.57a130.2,130.2,0,0,0-8.27,116.18l20.32,49.3L505.35-245.67a14.83,14.83,0,0,0,24.16,4.84C607.83-318,693.69-388.69,755.75-479.24c54-78.8,87.08-179.61,71.19-271.3-2.78-16,18.34-24.39,27-10.68,60.74,95.71,71.23,223,45.54,335.84C867.77-285.86,789.86-162.08,716.64-39.15q-10.54,17.7-21,35.59a213,213,0,0,0-12.91,188.31L807,486.23c5,12.08,21.91,12.23,27.24.31,109.93-245.69,317-424.78,467.62-643.25,48-69.58,97.45-145.85,122.93-226.87,28-89.24,44.18-179.64,47.24-273.26,4.77-145.58-25.4-283-49.68-425.44q-1.52-8.9-2.91-17.7c-13.35-84.2-17.94-162.31,6.07-243.22,4.15-14-12.29-24.92-23.61-15.7-117,95.33-201.85,229.85-237.19,376.62-3.18,13.21-21,15.48-27.41,3.51-16.08-30-31.7-60.28-44.3-91.93-60.5-151.9-37.13-335.3,23.53-483.51a717.67,717.67,0,0,1,38.35-79.45c12.45-22.16,27.23-48.19,43.93-73.73a14.83,14.83,0,0,0-12.32-23H546.38a14.73,14.73,0,0,0-13.44,8.53q-2.25,5-4.35,10c-45.66,109.13-49,235.09-10.69,346.89,4.75,13.86-11.39,25.26-23.09,16.43-63.32-47.79-113.58-112.89-143.22-186.51a440.82,440.82,0,0,1-31.12-180.07,14.75,14.75,0,0,0-14.79-15.25H-84.49C-95.22-1730.42-102.54-1719.3-98-1709.56Z"/><path class="cls-12" d="M244.16,23.59a561,561,0,0,1,32.4-92.69c24.66-54.74,60-111.74,103.9-159.79a9.05,9.05,0,0,0-6.61-15.22H152.93a9,9,0,0,0-9,9.69A592.27,592.27,0,0,0,227.7,26.21,9,9,0,0,0,244.16,23.59Zm-1073.57-255c0,.07,0,.11.06.11l198.7,482.1,21.11,51.2a9,9,0,0,0,14.62,3.08c20.39-19.59,41.92-38.19,57.86-61.45,10.92-15.94,18.79-35.08,20.68-54.16,1-9.7,14.61-11.24,17.58-1.95,7.23,22.52,7.4,48,2.11,71.23C-505.61,298-527.48,332.71-548,367.23l-.2.34a79.49,79.49,0,0,0-5,70.95l12.41,30.11,79.95,194a9.05,9.05,0,0,0,14.75,3C-398.35,618.44-345.91,575.28-308,520c33-48.12,53.17-109.69,43.47-165.68-1.69-9.77,11.21-14.9,16.52-6.52,37.1,58.44,43.5,136.19,27.81,205.09-19.39,85.21-67,160.8-111.69,235.88q-6.44,10.8-12.8,21.73a130.1,130.1,0,0,0-7.89,115l75.88,184.11a9,9,0,0,0,16.64.19C-192.94,959.74-66.47,850.37,25.5,717,54.79,674.46,85,627.88,100.57,578.4c17.13-54.5,27-109.7,28.85-166.88,2.91-88.91-15.51-172.86-30.33-259.82q-.93-5.43-1.78-10.8c-8.15-51.42-11-99.13,3.7-148.54A9.05,9.05,0,0,0,86.6-17.22C15.12,41-36.67,123.14-58.26,212.78A9,9,0,0,1-75,214.92c-9.83-18.33-19.36-36.81-27.06-56.15C-139,66-124.72-46-87.68-136.5A438.33,438.33,0,0,1-64.26-185c7.6-13.53,16.63-29.43,26.83-45a9.05,9.05,0,0,0-7.52-14.06H-435.88a9,9,0,0,0-8.2,5.21c-.92,2-1.8,4.05-2.66,6.09C-474.62-166.16-476.69-89.24-453.27-21c2.9,8.47-7,15.43-14.1,10a270,270,0,0,1-87.46-113.9,269,269,0,0,1-19-110,9,9,0,0,0-9-9.31H-821.14A9,9,0,0,0-829.41-231.37Z"/></g><g class="cls-13"><path class="cls-14" d="M1105.37-378.66a462.29,462.29,0,0,1,26.71-76.42c20.33-45.13,49.45-92.13,85.66-131.75a7.46,7.46,0,0,0-5.45-12.54H1030.15a7.46,7.46,0,0,0-7.46,8A488.25,488.25,0,0,0,1091.8-376.5,7.45,7.45,0,0,0,1105.37-378.66ZM220.24-588.87c0,.06,0,.09,0,.09L384.11-191.3l17.4,42.22a7.45,7.45,0,0,0,12.06,2.53c16.81-16.15,34.56-31.48,47.7-50.66,9-13.14,15.5-28.92,17.05-44.65.79-8,12-9.27,14.5-1.61,5.95,18.57,6.1,39.55,1.73,58.73-7.35,32.29-25.38,60.94-42.33,89.4l-.17.29a65.55,65.55,0,0,0-4.16,58.49l10.23,24.83L524,148.2a7.46,7.46,0,0,0,12.16,2.44c39.44-38.86,82.67-74.45,113.91-120C677.3-9.08,694-59.83,686-106c-1.4-8.06,9.24-12.28,13.62-5.38C730.16-63.19,735.44.91,722.51,57.72c-16,70.25-55.22,132.57-92.09,194.47q-5.31,8.91-10.56,17.92a107.29,107.29,0,0,0-6.5,94.81l62.56,151.8a7.46,7.46,0,0,0,13.72.15C745,393.17,849.26,303,925.09,193c24.15-35,49.07-73.43,61.89-114.23a510.76,510.76,0,0,0,23.79-137.58c2.4-73.3-12.79-142.52-25-214.21q-.76-4.49-1.47-8.91c-6.72-42.4-9-81.73,3.05-122.47a7.46,7.46,0,0,0-11.88-7.9A353.54,353.54,0,0,0,856-222.68a7.45,7.45,0,0,1-13.8,1.77c-8.1-15.11-16-30.36-22.31-46.29C789.46-343.68,801.23-436,831.77-510.65a361.67,361.67,0,0,1,19.32-40c6.26-11.16,13.7-24.27,22.11-37.13a7.46,7.46,0,0,0-6.2-11.59H544.69a7.42,7.42,0,0,0-6.76,4.29q-1.14,2.51-2.19,5c-23,54.95-24.7,118.38-5.39,174.66,2.4,7-5.73,12.73-11.62,8.28A222.62,222.62,0,0,1,446.62-501,221.83,221.83,0,0,1,431-591.69a7.43,7.43,0,0,0-7.45-7.68H227.05A7.44,7.44,0,0,0,220.24-588.87Z"/><path class="cls-15" d="M1324.65-579.93a918.54,918.54,0,0,1,53-151.78c40.39-89.63,98.23-183,170.14-261.66,8.74-9.56,2.12-24.92-10.84-24.92H1175.26a14.81,14.81,0,0,0-14.81,15.87c11.71,150.33,58.89,297.93,137.25,426.77C1304.52-564.44,1321.44-567.21,1324.65-579.93ZM-433.29-997.43a.73.73,0,0,0,.1.19l325.36,789.42L-73.27-124a14.79,14.79,0,0,0,23.94,5C-15.94-151,19.32-181.47,45.43-219.56,63.31-245.65,76.2-277,79.28-308.24c1.57-15.89,23.92-18.4,28.8-3.2,11.82,36.88,12.12,78.56,3.44,116.64C96.92-130.66,61.11-73.75,27.45-17.24l-.34.57A130.2,130.2,0,0,0,18.84,99.51l20.32,49.3L170.08,466.46a14.83,14.83,0,0,0,24.16,4.84c78.32-77.19,164.18-147.85,226.24-238.41,54-78.8,87.08-179.61,71.19-271.29-2.77-16,18.35-24.4,27.05-10.69,60.75,95.71,71.23,223,45.54,335.84C532.5,426.27,454.6,550.05,381.37,673q-10.55,17.7-21,35.58a213,213,0,0,0-12.91,188.31l124.25,301.48c5,12.08,21.91,12.23,27.25.31C608.91,953,816,773.89,966.6,555.42c48-69.58,97.46-145.85,122.93-226.87,28-89.24,44.18-179.64,47.24-273.26,4.77-145.58-25.4-283-49.68-425.44q-1.52-8.89-2.91-17.69c-13.35-84.21-17.94-162.32,6.07-243.23,4.15-14-12.28-24.92-23.61-15.69-117,95.32-201.85,229.84-237.19,376.61-3.18,13.21-21,15.48-27.4,3.51-16.09-30-31.71-60.28-44.31-91.93-60.5-151.9-37.13-335.3,23.53-483.51a716,716,0,0,1,38.36-79.45c12.44-22.15,27.22-48.18,43.92-73.73a14.82,14.82,0,0,0-12.31-23H211.11a14.71,14.71,0,0,0-13.43,8.52q-2.27,5-4.36,10c-45.66,109.13-49,235.1-10.69,346.89,4.75,13.86-11.38,25.26-23.08,16.43C96.22-684.25,46-749.35,16.32-823A440.79,440.79,0,0,1-14.8-1003a14.75,14.75,0,0,0-14.79-15.24H-419.75C-430.49-1018.28-437.81-1007.16-433.29-997.43Z"/><path class="cls-16" d="M2406.69-1292.06a918.54,918.54,0,0,1,53-151.78c40.39-89.63,98.22-183,170.14-261.66,8.74-9.56,2.12-24.92-10.84-24.92H2257.3a14.81,14.81,0,0,0-14.81,15.87c11.71,150.33,58.89,297.93,137.25,426.77C2386.56-1276.57,2403.48-1279.34,2406.69-1292.06ZM648.75-1709.56a1.05,1.05,0,0,0,.1.19L974.21-919.95l34.56,83.84a14.79,14.79,0,0,0,23.94,5c33.39-32.08,68.65-62.53,94.75-100.62,17.88-26.09,30.77-57.44,33.86-88.68,1.57-15.89,23.92-18.4,28.8-3.2,11.82,36.88,12.12,78.55,3.44,116.64-14.6,64.14-50.41,121-84.07,177.56l-.34.57a130.2,130.2,0,0,0-8.27,116.18l20.32,49.3,130.92,317.65a14.83,14.83,0,0,0,24.16,4.84c78.32-77.19,164.18-147.86,226.24-238.41,54-78.8,87.08-179.61,71.19-271.3-2.77-16,18.35-24.39,27-10.68,60.74,95.71,71.23,223,45.54,335.84-31.76,139.52-109.67,263.3-182.89,386.23q-10.54,17.7-21,35.59a213,213,0,0,0-12.91,188.31l124.25,301.48c5,12.08,21.91,12.23,27.25.31C1691,240.85,1898,61.76,2048.64-156.71c48-69.58,97.45-145.85,122.93-226.87,28-89.24,44.18-179.64,47.24-273.26,4.77-145.58-25.4-283-49.68-425.44q-1.52-8.9-2.91-17.7c-13.35-84.2-17.94-162.31,6.07-243.22,4.15-14-12.29-24.92-23.61-15.7-117,95.33-201.85,229.85-237.19,376.62-3.18,13.21-21,15.48-27.41,3.51-16.08-30-31.7-60.28-44.3-91.93-60.5-151.9-37.13-335.3,23.53-483.51a716,716,0,0,1,38.36-79.45c12.44-22.16,27.22-48.19,43.92-73.73a14.83,14.83,0,0,0-12.31-23H1293.15a14.7,14.7,0,0,0-13.43,8.53q-2.27,5-4.36,10c-45.66,109.13-49,235.09-10.69,346.89,4.75,13.86-11.39,25.26-23.08,16.43-63.33-47.79-113.59-112.89-143.23-186.51a440.82,440.82,0,0,1-31.12-180.07,14.75,14.75,0,0,0-14.79-15.25H662.28C651.55-1730.42,644.23-1719.3,648.75-1709.56Z"/><path class="cls-17" d="M1206.65-72.41a560,560,0,0,1,32.4-92.69c24.66-54.73,60-111.74,103.9-159.79a9.06,9.06,0,0,0-6.62-15.22H1115.41a9,9,0,0,0-9,9.69,592.24,592.24,0,0,0,83.82,260.63C1194.35-62.94,1204.69-64.64,1206.65-72.41Zm-1073.57-255q0,.12.06.12l198.7,482.09,21.1,51.21a9,9,0,0,0,14.62,3.07c20.39-19.59,41.93-38.18,57.87-61.45,10.92-15.93,18.79-35.07,20.67-54.15,1-9.71,14.61-11.24,17.59-2,7.22,22.52,7.4,48,2.1,71.23C456.88,202,435,236.72,414.45,271.23l-.21.35a79.49,79.49,0,0,0-5,70.95l12.4,30.11,80,194a9.05,9.05,0,0,0,14.75,3c47.83-47.14,100.26-90.29,138.16-145.6,33-48.12,53.18-109.68,43.48-165.67-1.7-9.78,11.2-14.9,16.52-6.53,37.1,58.45,43.5,136.19,27.81,205.1-19.4,85.2-67,160.79-111.69,235.87q-6.44,10.82-12.81,21.73a130.1,130.1,0,0,0-7.88,115l75.88,184.12a9,9,0,0,0,16.64.18C769.55,863.74,896,754.37,988,621c29.29-42.49,59.51-89.07,75.07-138.55,17.13-54.5,27-109.7,28.85-166.88,2.91-88.9-15.51-172.86-30.34-259.81q-.93-5.43-1.78-10.81c-8.15-51.42-11-99.13,3.71-148.54a9.05,9.05,0,0,0-14.41-9.58C977.61-55,925.81,27.15,904.23,116.78a9,9,0,0,1-16.74,2.14c-9.82-18.32-19.36-36.81-27-56.14C823.49-30,837.76-142,874.81-232.5A438.33,438.33,0,0,1,898.23-281c7.6-13.53,16.63-29.42,26.83-45a9.05,9.05,0,0,0-7.52-14.06H526.61a9,9,0,0,0-8.2,5.21q-1.38,3-2.66,6.09C487.86-262.16,485.8-185.23,509.22-117c2.9,8.46-7,15.43-14.1,10a270.12,270.12,0,0,1-87.47-113.91,269.16,269.16,0,0,1-19-110,9,9,0,0,0-9-9.32H141.34A9,9,0,0,0,133.08-327.37Z"/></g></svg>