<svg xmlns="http://www.w3.org/2000/svg" viewBox="0 0 252.52 54.94"><defs><style>.cls-1{fill:#fbd0bd;}.cls-2{fill:#f16122;}</style></defs><title>oc-orange</title><g id="Layer_2" data-name="Layer 2"><g id="Layer_1-2" data-name="Layer 1"><path class="cls-1" d="M71.89,38.2a7.47,7.47,0,0,1,5.85,2.22,9,9,0,0,1,2,6.15,8.88,8.88,0,0,1-2,6.13,7.42,7.42,0,0,1-5.85,2.24,7.32,7.32,0,0,1-5.82-2.24,8.8,8.8,0,0,1-2-6.13,8.88,8.88,0,0,1,2-6.15,7.38,7.38,0,0,1,5.82-2.22m0,3.14a3.64,3.64,0,0,0-3.09,1.39,6.32,6.32,0,0,0-1,3.84,6.21,6.21,0,0,0,1,3.82,4.1,4.1,0,0,0,6.19,0,6.21,6.21,0,0,0,1-3.82,6.32,6.32,0,0,0-1-3.84,3.64,3.64,0,0,0-3.1-1.39"/><path class="cls-1" d="M91.51,48.49H88.2v6.2H84.5V38.45h7c4,0,6.08,1.88,6.08,5a4.42,4.42,0,0,1-2.52,4.35l2.84,6.87H96.06A2.63,2.63,0,0,1,93.38,53ZM88.15,41.6v3.74h3.38c1.59,0,2.4-.76,2.4-1.87s-.81-1.87-2.4-1.87Z"/><path class="cls-1" d="M102.21,54.69V38.45h6.11c5.15,0,8.09,3,8.09,8a8.74,8.74,0,0,1-2,6,7.45,7.45,0,0,1-5.82,2.22Zm3.7-3.15h2.69c2.68,0,4.11-1.94,4.11-5.09s-1.59-4.85-4.39-4.85h-2.41Z"/><path class="cls-1" d="M124.78,47.93v3.61h8v3.15H121.17V38.45h11.41V41.6h-7.8v3.24h7.15V46c0,1.3-.6,1.94-1.83,1.94Z"/><path class="cls-1" d="M144.19,48.49h-3.31v6.2h-3.7V38.45h7c4,0,6.08,1.88,6.08,5a4.4,4.4,0,0,1-2.52,4.35l2.84,6.87h-1.85A2.63,2.63,0,0,1,146.06,53Zm-3.36-6.89v3.74h3.38c1.59,0,2.4-.76,2.4-1.87s-.81-1.87-2.4-1.87Z"/><path class="cls-1" d="M166.69,50.32a3.87,3.87,0,0,1,.67,2,1.74,1.74,0,0,1-.81,1.64,8.91,8.91,0,0,1-4.33,1c-5.11,0-7.93-3.17-7.93-8.37s2.82-8.37,7.93-8.37a8.48,8.48,0,0,1,4.14.92,1.8,1.8,0,0,1,.81,1.69,3.76,3.76,0,0,1-.67,1.92,7,7,0,0,0-4.28-1.39c-2.77,0-4.23,2-4.23,5.23s1.46,5.23,4.23,5.23a7.24,7.24,0,0,0,4.47-1.48"/><path class="cls-1" d="M171.89,54.69V38.45h1.5c1.51,0,2.2.67,2.2,2.08v11h7.86v3.15Z"/><path class="cls-1" d="M194.44,38.2a7.49,7.49,0,0,1,5.85,2.22,9,9,0,0,1,2,6.15,8.88,8.88,0,0,1-2,6.13,7.43,7.43,0,0,1-5.85,2.24,7.34,7.34,0,0,1-5.83-2.24,8.79,8.79,0,0,1-2-6.13,8.88,8.88,0,0,1,2-6.15,7.4,7.4,0,0,1,5.83-2.22m0,3.14a3.64,3.64,0,0,0-3.1,1.39,6.32,6.32,0,0,0-1,3.84,6.21,6.21,0,0,0,1,3.82,4.11,4.11,0,0,0,6.2,0,6.28,6.28,0,0,0,1-3.82,6.38,6.38,0,0,0-1-3.84,3.67,3.67,0,0,0-3.1-1.39"/><path class="cls-1" d="M221.1,47.93q0,7-7.07,7t-7.08-7V38.45h1.5c1.5,0,2.2.67,2.2,2.08v7.22c0,2.71,1.11,4,3.38,4s3.39-1.34,3.37-4v-9.3h3.7Z"/><path class="cls-1" d="M226.37,54.69V38.45h6.11c5.16,0,8.09,3,8.09,8a8.74,8.74,0,0,1-2,6,7.45,7.45,0,0,1-5.82,2.22Zm3.7-3.15h2.69c2.68,0,4.11-1.94,4.11-5.09s-1.59-4.85-4.39-4.85h-2.41Z"/><path class="cls-1" d="M247.75,38.46h-1.19v3.13h-1.15V38.45h-1.2v-.94h3.54Zm2.91,2.09H250l-.72-1.16c0,.25,0,.41,0,.48v1.71h-1.15V37.52h1l1.17,1.74,1.16-1.74h1v4.06H251.4V39.87c0-.1,0-.26,0-.5Z"/><path class="cls-2" d="M9.66,54.55A23.86,23.86,0,0,0,6.27,44a.36.36,0,0,0-.66.1A23.46,23.46,0,0,1,4.3,47.87,25.28,25.28,0,0,1,.1,54.33a.36.36,0,0,0,.26.61H9.3a.36.36,0,0,0,.36-.39"/><path class="cls-2" d="M48.67,54.94a.36.36,0,0,0,.33-.51h0L41,34.94l-.86-2.07a.36.36,0,0,0-.59-.13,17.22,17.22,0,0,0-2.34,2.49,4.7,4.7,0,0,0-.83,2.19.36.36,0,0,1-.71.07,5.62,5.62,0,0,1-.09-2.88,15.71,15.71,0,0,1,2.08-4.38h0a3.26,3.26,0,0,0,.2-2.87l-.5-1.22-3.23-7.84a.37.37,0,0,0-.6-.12,42.51,42.51,0,0,0-5.58,5.89,9.42,9.42,0,0,0-1.76,6.69.37.37,0,0,1-.67.27,11.13,11.13,0,0,1-1.12-8.29c.78-3.45,2.7-6.5,4.51-9.54l.52-.87a5.29,5.29,0,0,0,.32-4.65L26.66.23a.36.36,0,0,0-.67,0C23.27,6.28,18.16,10.7,14.44,16.1a21.85,21.85,0,0,0-3,5.6,25.28,25.28,0,0,0-1.17,6.74,52.19,52.19,0,0,0,1.23,10.5c0,.15,0,.3.07.44a13.06,13.06,0,0,1-.15,6,.37.37,0,0,0,.59.39,17.33,17.33,0,0,0,5.85-9.3.37.37,0,0,1,.68-.08,23.65,23.65,0,0,1,1.09,2.27c1.49,3.75.92,8.27-.58,11.93a17.7,17.7,0,0,1-.95,2c-.3.55-.67,1.19-1.08,1.82a.37.37,0,0,0,.3.57h15.8a.34.34,0,0,0,.33-.21,2.56,2.56,0,0,0,.11-.24,12.22,12.22,0,0,0,.27-8.57.36.36,0,0,1,.57-.4,10.78,10.78,0,0,1,4.3,9,.36.36,0,0,0,.37.37Z"/><polygon class="cls-2" points="70.6 27.69 66.26 27.69 66.26 31.76 63.99 31.76 63.99 21.71 70.91 21.71 70.91 23.66 66.23 23.66 66.23 25.77 70.6 25.77 70.6 27.69"/><path class="cls-2" d="M79.34,21.55A4.66,4.66,0,0,1,83,22.92a5.61,5.61,0,0,1,1.23,3.81A5.55,5.55,0,0,1,83,30.53a4.6,4.6,0,0,1-3.62,1.39,4.54,4.54,0,0,1-3.61-1.39,5.46,5.46,0,0,1-1.25-3.8,5.52,5.52,0,0,1,1.25-3.81,4.59,4.59,0,0,1,3.61-1.37m0,1.95a2.23,2.23,0,0,0-1.92.86,3.9,3.9,0,0,0-.65,2.37,3.88,3.88,0,0,0,.65,2.37,2.54,2.54,0,0,0,3.83,0,3.88,3.88,0,0,0,.65-2.37,3.9,3.9,0,0,0-.65-2.37,2.22,2.22,0,0,0-1.91-.86"/><path class="cls-2" d="M97.15,27.58q0,4.34-4.39,4.34t-4.38-4.34V21.71h.93c.93,0,1.36.41,1.36,1.29v4.46c0,1.68.69,2.51,2.09,2.51s2.11-.83,2.1-2.51V21.71h2.29Z"/><path class="cls-2" d="M106.11,27.92h-2v3.84h-2.29v-10h4.34c2.51,0,3.77,1.16,3.77,3.11a2.74,2.74,0,0,1-1.56,2.69l1.76,4.25h-1.15a1.63,1.63,0,0,1-1.66-1.05ZM104,23.66V26h2.1c1,0,1.49-.48,1.49-1.16s-.51-1.16-1.49-1.16Z"/><path class="cls-2" d="M119.22,28.44c0-1-.55-1.43-2-1.43h-3l.44-5.3h6.28v1.95l-4.41-.05-.13,1.71h1q4.23,0,4.23,3.12c0,2.33-1.65,3.48-4.22,3.48a6.11,6.11,0,0,1-3.15-.68.83.83,0,0,1-.37-.76,2.09,2.09,0,0,1,.55-1.33,4.81,4.81,0,0,0,2.86.82c1.36,0,2-.51,2-1.53"/><polygon class="cls-2" points="128.28 24.36 126.66 25.42 125.64 23.94 128.42 21.68 130.57 21.68 130.57 29.89 132.83 29.84 132.83 31.76 125.9 31.76 125.9 29.84 128.28 29.89 128.28 24.36"/><path class="cls-2" d="M134,23.46a1.83,1.83,0,0,1,.52-1.36,2.13,2.13,0,0,1,2.79,0,2,2,0,0,1,0,2.72,2.13,2.13,0,0,1-2.79,0,1.83,1.83,0,0,1-.52-1.36m1.27.66a.92.92,0,0,0,1.29,0,1,1,0,0,0,0-1.33.94.94,0,0,0-1.29,0,1,1,0,0,0,0,1.33"/></g></g></svg>