<?xml version="1.0" encoding="utf-8"?>
<!-- Generator: Adobe Illustrator 23.0.3, SVG Export Plug-In . SVG Version: 6.00 Build 0)  -->
<svg version="1.1" id="Layer_1" xmlns="http://www.w3.org/2000/svg" xmlns:xlink="http://www.w3.org/1999/xlink" x="0px" y="0px"
	 viewBox="0 0 252.5 54.9" style="enable-background:new 0 0 252.5 54.9;" xml:space="preserve">
<style type="text/css">
	.st0{fill:#FFFFFF;}
</style>
<title>oc-white</title>
<g>
	<g id="Layer_1-2">
		<path class="st0" d="M71.9,38.2c2.2-0.2,4.3,0.7,5.8,2.2c1.4,1.7,2.1,3.9,2,6.2c0.1,2.2-0.6,4.4-2,6.1c-1.5,1.6-3.7,2.4-5.8,2.2
			c-2.2,0.2-4.3-0.7-5.8-2.2c-1.4-1.7-2.1-3.9-2-6.1c-0.1-2.2,0.6-4.4,2-6.2C67.6,38.9,69.7,38,71.9,38.2 M71.9,41.3
			c-1.2-0.1-2.4,0.4-3.1,1.4c-0.7,1.1-1.1,2.5-1,3.8c-0.1,1.3,0.3,2.7,1,3.8c1.5,1.7,4.1,1.9,5.8,0.4c0.1-0.1,0.3-0.3,0.4-0.4
			c0.7-1.1,1.1-2.5,1-3.8c0.1-1.4-0.3-2.7-1-3.8C74.2,41.8,73.1,41.3,71.9,41.3"/>
		<path class="st0" d="M91.5,48.5h-3.3v6.2h-3.7V38.5h7c4,0,6.1,1.9,6.1,5c0.1,1.8-0.9,3.6-2.5,4.3l2.8,6.9h-1.8
			c-1.2,0.1-2.3-0.6-2.7-1.7L91.5,48.5z M88.2,41.6v3.7h3.4c1.6,0,2.4-0.8,2.4-1.9s-0.8-1.9-2.4-1.9L88.2,41.6z"/>
		<path class="st0" d="M102.2,54.7V38.5h6.1c5.2,0,8.1,3,8.1,8c0.1,2.2-0.6,4.3-2,6c-1.5,1.6-3.6,2.4-5.8,2.2L102.2,54.7z
			 M105.9,51.5h2.7c2.7,0,4.1-1.9,4.1-5.1s-1.6-4.8-4.4-4.8h-2.4V51.5z"/>
		<path class="st0" d="M124.8,47.9v3.6h8v3.2h-11.6V38.5h11.4v3.1h-7.8v3.2h7.1V46c0,1.3-0.6,1.9-1.8,1.9L124.8,47.9z"/>
		<path class="st0" d="M144.2,48.5h-3.3v6.2h-3.7V38.5h7c4,0,6.1,1.9,6.1,5c0.2,1.8-0.9,3.6-2.5,4.3l2.8,6.9h-1.9
			c-1.2,0.1-2.2-0.6-2.7-1.7L144.2,48.5z M140.8,41.6v3.7h3.4c1.6,0,2.4-0.8,2.4-1.9s-0.8-1.9-2.4-1.9L140.8,41.6z"/>
		<path class="st0" d="M166.7,50.3c0.4,0.6,0.6,1.3,0.7,2c0.1,0.7-0.3,1.3-0.8,1.6c-1.3,0.7-2.8,1-4.3,1c-5.1,0-7.9-3.2-7.9-8.4
			s2.8-8.4,7.9-8.4c1.4,0,2.9,0.3,4.1,0.9c0.6,0.4,0.9,1,0.8,1.7c0,0.7-0.3,1.4-0.7,1.9c-1.2-0.9-2.7-1.4-4.3-1.4
			c-2.8,0-4.2,2-4.2,5.2s1.5,5.2,4.2,5.2C163.8,51.8,165.4,51.3,166.7,50.3"/>
		<path class="st0" d="M171.9,54.7V38.5h1.5c1.5,0,2.2,0.7,2.2,2.1v11h7.9v3.2L171.9,54.7z"/>
		<path class="st0" d="M194.4,38.2c2.2-0.1,4.3,0.7,5.9,2.2c1.4,1.7,2.1,3.9,2,6.2c0.1,2.2-0.6,4.4-2,6.1c-1.5,1.6-3.7,2.4-5.9,2.2
			c-2.2,0.2-4.3-0.7-5.8-2.2c-1.4-1.7-2.1-3.9-2-6.1c-0.1-2.2,0.6-4.4,2-6.2C190.1,38.9,192.3,38,194.4,38.2 M194.4,41.3
			c-1.2-0.1-2.4,0.4-3.1,1.4c-0.7,1.1-1.1,2.5-1,3.8c-0.1,1.3,0.3,2.7,1,3.8c1.5,1.7,4.1,1.9,5.8,0.4c0.1-0.1,0.3-0.3,0.4-0.4
			c0.7-1.1,1.1-2.5,1-3.8c0.1-1.4-0.3-2.7-1-3.8C196.8,41.8,195.6,41.3,194.4,41.3"/>
		<path class="st0" d="M221.1,47.9c0,4.7-2.4,7-7.1,7c-4.7,0-7.1-2.3-7.1-7v-9.5h1.5c1.5,0,2.2,0.7,2.2,2.1v7.2c0,2.7,1.1,4,3.4,4
			s3.4-1.3,3.4-4v-9.3h3.7L221.1,47.9z"/>
		<path class="st0" d="M226.4,54.7V38.5h6.1c5.2,0,8.1,3,8.1,8c0.1,2.2-0.6,4.3-2,6c-1.5,1.6-3.6,2.4-5.8,2.2L226.4,54.7z
			 M230.1,51.5h2.7c2.7,0,4.1-1.9,4.1-5.1s-1.6-4.8-4.4-4.8h-2.4V51.5z"/>
		<path class="st0" d="M247.8,38.5h-1.2v3.1h-1.1v-3.1h-1.2v-0.9h3.5V38.5z M250.7,40.5H250l-0.7-1.2c0,0.3,0,0.4,0,0.5v1.7h-1.1
			v-4.1h1l1.2,1.7l1.2-1.7h1v4.1h-1.1v-1.7c0-0.1,0-0.3,0-0.5L250.7,40.5z"/>
		<path class="st0" d="M9.7,54.5C9.4,50.8,8.2,47.2,6.3,44c-0.1-0.2-0.3-0.2-0.5-0.1c-0.1,0-0.1,0.1-0.2,0.2
			c-0.3,1.3-0.8,2.6-1.3,3.8c-1.1,2.4-2.5,4.5-4.2,6.5c-0.1,0.1-0.1,0.4,0,0.5c0.1,0.1,0.2,0.1,0.3,0.1h8.9
			C9.5,54.9,9.7,54.8,9.7,54.5C9.7,54.6,9.7,54.6,9.7,54.5"/>
		<path class="st0" d="M48.7,54.9c0.2,0,0.4-0.2,0.4-0.4c0-0.1,0-0.1,0-0.2l0,0l-8-19.5l-0.9-2.1c-0.1-0.2-0.3-0.3-0.5-0.2
			c0,0-0.1,0-0.1,0.1c-0.9,0.8-1.6,1.6-2.3,2.5c-0.5,0.6-0.7,1.4-0.8,2.2c0,0.2-0.2,0.4-0.4,0.3c-0.2,0-0.3-0.1-0.3-0.3
			c-0.3-0.9-0.3-1.9-0.1-2.9c0.5-1.6,1.2-3,2.1-4.4l0,0c0.5-0.9,0.6-1.9,0.2-2.9l-0.5-1.2l-3.2-7.8c-0.1-0.2-0.3-0.3-0.5-0.2
			c0,0-0.1,0-0.1,0.1c-2,1.8-3.9,3.8-5.6,5.9c-1.4,1.9-2,4.3-1.8,6.7c0,0.2-0.1,0.4-0.3,0.4c-0.1,0-0.3,0-0.4-0.2
			c-1.4-2.5-1.8-5.5-1.1-8.3c0.8-3.5,2.7-6.5,4.5-9.5l0.5-0.9c0.8-1.4,0.9-3.1,0.3-4.7l-3.1-7.4C26.6,0,26.4,0,26.2,0
			c-0.1,0-0.2,0.1-0.2,0.2c-2.7,6.1-7.8,10.5-11.6,15.9c-1.3,1.7-2.3,3.6-3,5.6c-0.7,2.2-1.1,4.5-1.2,6.7c0.1,3.5,0.5,7.1,1.2,10.5
			c0,0.2,0,0.3,0.1,0.4c0.4,2,0.4,4-0.1,6c-0.1,0.2,0.1,0.4,0.3,0.5c0.1,0,0.2,0,0.3-0.1c2.9-2.4,5-5.6,5.9-9.3
			c0.1-0.2,0.3-0.3,0.5-0.3c0.1,0,0.2,0.1,0.2,0.2c0.4,0.7,0.8,1.5,1.1,2.3c1.5,3.8,0.9,8.3-0.6,11.9c-0.3,0.7-0.6,1.4-1,2
			c-0.3,0.5-0.7,1.2-1.1,1.8c-0.1,0.2-0.1,0.4,0.1,0.5c0.1,0,0.1,0.1,0.2,0.1h15.8c0.1,0,0.3-0.1,0.3-0.2c0-0.1,0.1-0.2,0.1-0.2
			c1.1-2.7,1.2-5.8,0.3-8.6c-0.1-0.2,0-0.4,0.2-0.5c0.1,0,0.3,0,0.4,0.1c2.8,2.1,4.4,5.5,4.3,9c0,0.2,0.2,0.4,0.3,0.4c0,0,0,0,0,0
			L48.7,54.9z"/>
		<polygon class="st0" points="70.6,27.7 66.3,27.7 66.3,31.8 64,31.8 64,21.7 70.9,21.7 70.9,23.7 66.2,23.7 66.2,25.8 70.6,25.8 
					"/>
		<path class="st0" d="M79.3,21.5c1.4-0.1,2.7,0.4,3.7,1.4c0.9,1.1,1.3,2.4,1.2,3.8c0.1,1.4-0.4,2.7-1.2,3.8c-0.9,1-2.3,1.5-3.6,1.4
			c-1.4,0.1-2.7-0.4-3.6-1.4c-0.9-1.1-1.3-2.4-1.3-3.8c-0.1-1.4,0.4-2.7,1.3-3.8C76.7,22,78,21.5,79.3,21.5 M79.4,23.5
			c-0.7-0.1-1.5,0.3-1.9,0.9c-0.5,0.7-0.7,1.5-0.7,2.4c0,0.8,0.2,1.7,0.7,2.4c0.9,1.1,2.5,1.2,3.6,0.2c0.1-0.1,0.2-0.2,0.2-0.2
			c0.5-0.7,0.7-1.5,0.7-2.4c0-0.8-0.2-1.7-0.7-2.4C80.8,23.8,80.1,23.4,79.4,23.5"/>
		<path class="st0" d="M97.2,27.6c0,2.9-1.5,4.3-4.4,4.3s-4.4-1.4-4.4-4.3v-5.9h0.9c0.9,0,1.4,0.4,1.4,1.3v4.5
			c0,1.7,0.7,2.5,2.1,2.5s2.1-0.8,2.1-2.5v-5.8h2.3V27.6z"/>
		<path class="st0" d="M106.1,27.9h-2v3.8h-2.3v-10h4.3c2.5,0,3.8,1.2,3.8,3.1c0.1,1.1-0.5,2.2-1.6,2.7l1.8,4.3H109
			c-0.7,0.1-1.4-0.4-1.7-1L106.1,27.9z M104,23.7V26h2.1c1,0,1.5-0.5,1.5-1.2s-0.5-1.2-1.5-1.2L104,23.7z"/>
		<path class="st0" d="M119.2,28.4c0-1-0.6-1.4-2-1.4h-3l0.4-5.3h6.3v2l-4.4,0l-0.1,1.7h1c2.8,0,4.2,1,4.2,3.1
			c0,2.3-1.7,3.5-4.2,3.5c-1.1,0.1-2.2-0.2-3.2-0.7c-0.3-0.2-0.4-0.5-0.4-0.8c0-0.5,0.2-1,0.6-1.3c0.8,0.6,1.8,0.9,2.9,0.8
			C118.7,30,119.3,29.5,119.2,28.4"/>
		<polygon class="st0" points="128.3,24.4 126.7,25.4 125.6,23.9 128.4,21.7 130.6,21.7 130.6,29.9 132.8,29.8 132.8,31.8 
			125.9,31.8 125.9,29.8 128.3,29.9 		"/>
		<path class="st0" d="M134,23.5c0-0.5,0.2-1,0.5-1.4c0.8-0.7,2-0.7,2.8,0c0.7,0.8,0.7,2,0,2.7c-0.8,0.7-2,0.7-2.8,0
			C134.2,24.5,134,24,134,23.5 M135.3,24.1c0.4,0.4,0.9,0.4,1.3,0c0.3-0.4,0.3-1,0-1.3c-0.4-0.3-0.9-0.3-1.3,0
			C134.9,23.2,134.9,23.7,135.3,24.1"/>
	</g>
</g>
</svg>
