<!-- Generated by IcoMoon.io -->
<svg version="1.1" xmlns="http://www.w3.org/2000/svg" width="16" height="16" viewBox="0 0 16 16">
<title>sitecore_logo</title>
<path fill="#dc291e" d="M10.101 10.419c0.866-0.787 1.343-1.796 1.342-2.842v-0.295l1.979-0.001c-0.095-0.677-0.318-1.349-0.682-1.976-0.117-0.201-0.245-0.39-0.382-0.571l-1.958 1.127c1.236 2.135-0.105 4.024-1.744 4.971-0.655 0.378-1.496 0.661-2.343 0.738 0.249 0.036 0.503 0.055 0.765 0.055 1.078-0.001 2.18-0.44 3.024-1.206z"></path>
<path fill="#dc291e" d="M11.478 9.829l0.147-0.255 1.211 0.698c0.353-0.739 0.54-1.553 0.54-2.375 0-0.153-0.007-0.305-0.021-0.459l-1.716 0.001c0.001 2.375-2.286 4.347-4.659 4.348-1.045 0.001-2.082-0.299-2.917-0.873 0.269 0.255 0.569 0.481 0.895 0.668 2.28 1.316 5.205 0.529 6.52-1.752z"></path>
<path fill="#dc291e" d="M11.861 10.059c-1.395 2.416-4.499 3.248-6.92 1.855-1.083-0.622-1.847-1.587-2.238-2.68 0.122 0.518 0.32 1.021 0.594 1.493 1.511 2.606 4.864 3.501 7.475 1.993 0.898-0.518 1.592-1.256 2.056-2.105l-0.967-0.556z"></path>
<path fill="#dc291e" d="M14.926 3.994c-2.208-3.819-7.113-5.129-10.932-2.92s-5.129 7.113-2.921 10.932c2.21 3.82 7.114 5.129 10.934 2.921 3.819-2.209 5.129-7.114 2.92-10.933zM2.954 10.93c-1.609-2.786-0.654-6.363 2.128-7.975s6.356-0.656 7.965 2.13c1.609 2.786 0.655 6.363-2.127 7.976-2.783 1.611-6.356 0.655-7.965-2.131v0z"></path>
</svg>
