<svg id="Layer_1" data-name="Layer 1" xmlns="http://www.w3.org/2000/svg" viewBox="0 0 847 1118"><defs><style>.cls-1,.cls-2{fill:#fff;}.cls-2{fill-rule:evenodd;}</style></defs><path class="cls-1" d="M91.1,2.2A5.8,5.8,0,1,1,85.3,8a5.8,5.8,0,0,1,5.8-5.8m0-2.2a8,8,0,1,0,8,8,8,8,0,0,0-8-8Z"/><path class="cls-1" d="M257.3,2.2A5.8,5.8,0,1,1,251.5,8a5.8,5.8,0,0,1,5.8-5.8m0-2.2a8,8,0,1,0,8,8,8,8,0,0,0-8-8Z"/><path class="cls-1" d="M423.5,2.2A5.8,5.8,0,1,1,417.7,8a5.8,5.8,0,0,1,5.8-5.8m0-2.2a8,8,0,1,0,8,8,8,8,0,0,0-8-8Z"/><path class="cls-1" d="M589.7,2.2A5.8,5.8,0,1,1,583.9,8a5.8,5.8,0,0,1,5.8-5.8m0-2.2a8,8,0,1,0,8,8,8,8,0,0,0-8-8Z"/><path class="cls-1" d="M755.9,2.2A5.8,5.8,0,1,1,750.1,8a5.8,5.8,0,0,1,5.8-5.8m0-2.2a8,8,0,1,0,8,8,8,8,0,0,0-8-8Z"/><path class="cls-1" d="M839,88.2a5.8,5.8,0,1,1-5.8,5.8,5.8,5.8,0,0,1,5.8-5.8m0-2.2a8,8,0,1,0,8,8,8,8,0,0,0-8-8Z"/><path class="cls-1" d="M672.8,88.2A5.8,5.8,0,1,1,667,94a5.8,5.8,0,0,1,5.8-5.8m0-2.2a8,8,0,1,0,8,8,8,8,0,0,0-8-8Z"/><path class="cls-1" d="M506.6,88.2a5.8,5.8,0,1,1-5.8,5.8,5.8,5.8,0,0,1,5.8-5.8m0-2.2a8,8,0,1,0,8,8,8,8,0,0,0-8-8Z"/><path class="cls-1" d="M340.4,88.2a5.8,5.8,0,1,1-5.8,5.8,5.8,5.8,0,0,1,5.8-5.8m0-2.2a8,8,0,1,0,8,8,8,8,0,0,0-8-8Z"/><path class="cls-1" d="M174.2,88.2a5.8,5.8,0,1,1-5.8,5.8,5.8,5.8,0,0,1,5.8-5.8m0-2.2a8,8,0,1,0,8,8,8,8,0,0,0-8-8Z"/><path class="cls-1" d="M8,88.2A5.8,5.8,0,1,1,2.2,94,5.8,5.8,0,0,1,8,88.2M8,86a8,8,0,1,0,8,8,8,8,0,0,0-8-8Z"/><g id="Icon_Plus" data-name="Icon/Plus"><path id="Icon-Plus" class="cls-2" d="M8.67,16A.33.33,0,0,0,9,15.67V9h6.67A.33.33,0,0,0,16,8.67V7.33A.33.33,0,0,0,15.67,7H9V.33A.33.33,0,0,0,8.67,0H7.33A.33.33,0,0,0,7,.33V7H.33A.33.33,0,0,0,0,7.33V8.67A.33.33,0,0,0,.33,9H7v6.67a.33.33,0,0,0,.33.33Z"/></g><g id="Icon_Plus-2" data-name="Icon/Plus"><path id="Icon-Plus-2" data-name="Icon-Plus" class="cls-2" d="M174.87,16a.33.33,0,0,0,.33-.33V9h6.67a.33.33,0,0,0,.33-.33V7.33a.33.33,0,0,0-.33-.33H175.2V.33a.33.33,0,0,0-.33-.33h-1.34a.33.33,0,0,0-.33.33V7h-6.67a.33.33,0,0,0-.33.33V8.67a.33.33,0,0,0,.33.33h6.67v6.67a.33.33,0,0,0,.33.33Z"/></g><g id="Icon_Plus-3" data-name="Icon/Plus"><path id="Icon-Plus-3" data-name="Icon-Plus" class="cls-2" d="M341.07,16a.33.33,0,0,0,.33-.33V9h6.67a.33.33,0,0,0,.33-.33V7.33a.33.33,0,0,0-.33-.33H341.4V.33a.33.33,0,0,0-.33-.33h-1.34a.33.33,0,0,0-.33.33V7h-6.67a.33.33,0,0,0-.33.33V8.67a.33.33,0,0,0,.33.33h6.67v6.67a.33.33,0,0,0,.33.33Z"/></g><g id="Icon_Plus-4" data-name="Icon/Plus"><path id="Icon-Plus-4" data-name="Icon-Plus" class="cls-2" d="M507.27,16a.33.33,0,0,0,.33-.33V9h6.67a.33.33,0,0,0,.33-.33V7.33a.33.33,0,0,0-.33-.33H507.6V.33a.33.33,0,0,0-.33-.33h-1.34a.33.33,0,0,0-.33.33V7h-6.67a.33.33,0,0,0-.33.33V8.67a.33.33,0,0,0,.33.33h6.67v6.67a.33.33,0,0,0,.33.33Z"/></g><g id="Icon_Plus-5" data-name="Icon/Plus"><path id="Icon-Plus-5" data-name="Icon-Plus" class="cls-2" d="M673.47,16a.33.33,0,0,0,.33-.33V9h6.67a.33.33,0,0,0,.33-.33V7.33a.33.33,0,0,0-.33-.33H673.8V.33a.33.33,0,0,0-.33-.33h-1.34a.33.33,0,0,0-.33.33V7h-6.67a.33.33,0,0,0-.33.33V8.67a.33.33,0,0,0,.33.33h6.67v6.67a.33.33,0,0,0,.33.33Z"/></g><g id="Icon_Plus-6" data-name="Icon/Plus"><path id="Icon-Plus-6" data-name="Icon-Plus" class="cls-2" d="M839.67,16a.33.33,0,0,0,.33-.33V9h6.67a.33.33,0,0,0,.33-.33V7.33a.33.33,0,0,0-.33-.33H840V.33a.33.33,0,0,0-.33-.33h-1.34a.33.33,0,0,0-.33.33V7h-6.67a.33.33,0,0,0-.33.33V8.67a.33.33,0,0,0,.33.33H838v6.67a.33.33,0,0,0,.33.33Z"/></g><g id="Icon_Plus-7" data-name="Icon/Plus"><path id="Icon-Plus-7" data-name="Icon-Plus" class="cls-2" d="M91.77,102a.33.33,0,0,0,.33-.33V95h6.67a.33.33,0,0,0,.33-.33V93.33a.33.33,0,0,0-.33-.33H92.1V86.33a.33.33,0,0,0-.33-.33H90.43a.33.33,0,0,0-.33.33V93H83.43a.33.33,0,0,0-.33.33v1.34a.33.33,0,0,0,.33.33H90.1v6.67a.33.33,0,0,0,.33.33Z"/></g><g id="Icon_Plus-8" data-name="Icon/Plus"><path id="Icon-Plus-8" data-name="Icon-Plus" class="cls-2" d="M258,102a.33.33,0,0,0,.33-.33V95H265a.33.33,0,0,0,.33-.33V93.33A.33.33,0,0,0,265,93H258.3V86.33A.33.33,0,0,0,258,86h-1.34a.33.33,0,0,0-.33.33V93h-6.67a.33.33,0,0,0-.33.33v1.34a.33.33,0,0,0,.33.33h6.67v6.67a.33.33,0,0,0,.33.33Z"/></g><g id="Icon_Plus-9" data-name="Icon/Plus"><path id="Icon-Plus-9" data-name="Icon-Plus" class="cls-2" d="M424.17,102a.33.33,0,0,0,.33-.33V95h6.67a.33.33,0,0,0,.33-.33V93.33a.33.33,0,0,0-.33-.33H424.5V86.33a.33.33,0,0,0-.33-.33h-1.34a.33.33,0,0,0-.33.33V93h-6.67a.33.33,0,0,0-.33.33v1.34a.33.33,0,0,0,.33.33h6.67v6.67a.33.33,0,0,0,.33.33Z"/></g><g id="Icon_Plus-10" data-name="Icon/Plus"><path id="Icon-Plus-10" data-name="Icon-Plus" class="cls-2" d="M590.37,102a.33.33,0,0,0,.33-.33V95h6.67a.33.33,0,0,0,.33-.33V93.33a.33.33,0,0,0-.33-.33H590.7V86.33a.33.33,0,0,0-.33-.33H589a.33.33,0,0,0-.33.33V93H582a.33.33,0,0,0-.33.33v1.34A.33.33,0,0,0,582,95h6.67v6.67a.33.33,0,0,0,.33.33Z"/></g><g id="Icon_Plus-11" data-name="Icon/Plus"><path id="Icon-Plus-11" data-name="Icon-Plus" class="cls-2" d="M756.57,102a.33.33,0,0,0,.33-.33V95h6.67a.33.33,0,0,0,.33-.33V93.33a.33.33,0,0,0-.33-.33H756.9V86.33a.33.33,0,0,0-.33-.33h-1.34a.33.33,0,0,0-.33.33V93h-6.67a.33.33,0,0,0-.33.33v1.34a.33.33,0,0,0,.33.33h6.67v6.67a.33.33,0,0,0,.33.33Z"/></g><path class="cls-1" d="M91.1,174.2a5.8,5.8,0,1,1-5.8,5.8,5.8,5.8,0,0,1,5.8-5.8m0-2.2a8,8,0,1,0,8,8,8,8,0,0,0-8-8Z"/><path class="cls-1" d="M257.3,174.2a5.8,5.8,0,1,1-5.8,5.8,5.8,5.8,0,0,1,5.8-5.8m0-2.2a8,8,0,1,0,8,8,8,8,0,0,0-8-8Z"/><path class="cls-1" d="M423.5,174.2a5.8,5.8,0,1,1-5.8,5.8,5.8,5.8,0,0,1,5.8-5.8m0-2.2a8,8,0,1,0,8,8,8,8,0,0,0-8-8Z"/><path class="cls-1" d="M589.7,174.2a5.8,5.8,0,1,1-5.8,5.8,5.8,5.8,0,0,1,5.8-5.8m0-2.2a8,8,0,1,0,8,8,8,8,0,0,0-8-8Z"/><path class="cls-1" d="M755.9,174.2a5.8,5.8,0,1,1-5.8,5.8,5.8,5.8,0,0,1,5.8-5.8m0-2.2a8,8,0,1,0,8,8,8,8,0,0,0-8-8Z"/><path class="cls-1" d="M839,260.2a5.8,5.8,0,1,1-5.8,5.8,5.8,5.8,0,0,1,5.8-5.8m0-2.2a8,8,0,1,0,8,8,8,8,0,0,0-8-8Z"/><path class="cls-1" d="M672.8,260.2A5.8,5.8,0,1,1,667,266a5.8,5.8,0,0,1,5.8-5.8m0-2.2a8,8,0,1,0,8,8,8,8,0,0,0-8-8Z"/><path class="cls-1" d="M506.6,260.2a5.8,5.8,0,1,1-5.8,5.8,5.8,5.8,0,0,1,5.8-5.8m0-2.2a8,8,0,1,0,8,8,8,8,0,0,0-8-8Z"/><path class="cls-1" d="M340.4,260.2a5.8,5.8,0,1,1-5.8,5.8,5.8,5.8,0,0,1,5.8-5.8m0-2.2a8,8,0,1,0,8,8,8,8,0,0,0-8-8Z"/><path class="cls-1" d="M174.2,260.2a5.8,5.8,0,1,1-5.8,5.8,5.8,5.8,0,0,1,5.8-5.8m0-2.2a8,8,0,1,0,8,8,8,8,0,0,0-8-8Z"/><path class="cls-1" d="M8,260.2A5.8,5.8,0,1,1,2.2,266,5.8,5.8,0,0,1,8,260.2M8,258a8,8,0,1,0,8,8,8,8,0,0,0-8-8Z"/><g id="Icon_Plus-12" data-name="Icon/Plus"><path id="Icon-Plus-12" data-name="Icon-Plus" class="cls-2" d="M8.67,188a.33.33,0,0,0,.33-.33V181h6.67a.33.33,0,0,0,.33-.33v-1.34a.33.33,0,0,0-.33-.33H9v-6.67a.33.33,0,0,0-.33-.33H7.33a.33.33,0,0,0-.33.33V179H.33a.33.33,0,0,0-.33.33v1.34a.33.33,0,0,0,.33.33H7v6.67a.33.33,0,0,0,.33.33Z"/></g><g id="Icon_Plus-13" data-name="Icon/Plus"><path id="Icon-Plus-13" data-name="Icon-Plus" class="cls-2" d="M174.87,188a.33.33,0,0,0,.33-.33V181h6.67a.33.33,0,0,0,.33-.33v-1.34a.33.33,0,0,0-.33-.33H175.2v-6.67a.33.33,0,0,0-.33-.33h-1.34a.33.33,0,0,0-.33.33V179h-6.67a.33.33,0,0,0-.33.33v1.34a.33.33,0,0,0,.33.33h6.67v6.67a.33.33,0,0,0,.33.33Z"/></g><g id="Icon_Plus-14" data-name="Icon/Plus"><path id="Icon-Plus-14" data-name="Icon-Plus" class="cls-2" d="M341.07,188a.33.33,0,0,0,.33-.33V181h6.67a.33.33,0,0,0,.33-.33v-1.34a.33.33,0,0,0-.33-.33H341.4v-6.67a.33.33,0,0,0-.33-.33h-1.34a.33.33,0,0,0-.33.33V179h-6.67a.33.33,0,0,0-.33.33v1.34a.33.33,0,0,0,.33.33h6.67v6.67a.33.33,0,0,0,.33.33Z"/></g><g id="Icon_Plus-15" data-name="Icon/Plus"><path id="Icon-Plus-15" data-name="Icon-Plus" class="cls-2" d="M507.27,188a.33.33,0,0,0,.33-.33V181h6.67a.33.33,0,0,0,.33-.33v-1.34a.33.33,0,0,0-.33-.33H507.6v-6.67a.33.33,0,0,0-.33-.33h-1.34a.33.33,0,0,0-.33.33V179h-6.67a.33.33,0,0,0-.33.33v1.34a.33.33,0,0,0,.33.33h6.67v6.67a.33.33,0,0,0,.33.33Z"/></g><g id="Icon_Plus-16" data-name="Icon/Plus"><path id="Icon-Plus-16" data-name="Icon-Plus" class="cls-2" d="M673.47,188a.33.33,0,0,0,.33-.33V181h6.67a.33.33,0,0,0,.33-.33v-1.34a.33.33,0,0,0-.33-.33H673.8v-6.67a.33.33,0,0,0-.33-.33h-1.34a.33.33,0,0,0-.33.33V179h-6.67a.33.33,0,0,0-.33.33v1.34a.33.33,0,0,0,.33.33h6.67v6.67a.33.33,0,0,0,.33.33Z"/></g><g id="Icon_Plus-17" data-name="Icon/Plus"><path id="Icon-Plus-17" data-name="Icon-Plus" class="cls-2" d="M839.67,188a.33.33,0,0,0,.33-.33V181h6.67a.33.33,0,0,0,.33-.33v-1.34a.33.33,0,0,0-.33-.33H840v-6.67a.33.33,0,0,0-.33-.33h-1.34a.33.33,0,0,0-.33.33V179h-6.67a.33.33,0,0,0-.33.33v1.34a.33.33,0,0,0,.33.33H838v6.67a.33.33,0,0,0,.33.33Z"/></g><g id="Icon_Plus-18" data-name="Icon/Plus"><path id="Icon-Plus-18" data-name="Icon-Plus" class="cls-2" d="M91.77,274a.33.33,0,0,0,.33-.33V267h6.67a.33.33,0,0,0,.33-.33v-1.34a.33.33,0,0,0-.33-.33H92.1v-6.67a.33.33,0,0,0-.33-.33H90.43a.33.33,0,0,0-.33.33V265H83.43a.33.33,0,0,0-.33.33v1.34a.33.33,0,0,0,.33.33H90.1v6.67a.33.33,0,0,0,.33.33Z"/></g><g id="Icon_Plus-19" data-name="Icon/Plus"><path id="Icon-Plus-19" data-name="Icon-Plus" class="cls-2" d="M258,274a.33.33,0,0,0,.33-.33V267H265a.33.33,0,0,0,.33-.33v-1.34A.33.33,0,0,0,265,265H258.3v-6.67A.33.33,0,0,0,258,258h-1.34a.33.33,0,0,0-.33.33V265h-6.67a.33.33,0,0,0-.33.33v1.34a.33.33,0,0,0,.33.33h6.67v6.67a.33.33,0,0,0,.33.33Z"/></g><g id="Icon_Plus-20" data-name="Icon/Plus"><path id="Icon-Plus-20" data-name="Icon-Plus" class="cls-2" d="M424.17,274a.33.33,0,0,0,.33-.33V267h6.67a.33.33,0,0,0,.33-.33v-1.34a.33.33,0,0,0-.33-.33H424.5v-6.67a.33.33,0,0,0-.33-.33h-1.34a.33.33,0,0,0-.33.33V265h-6.67a.33.33,0,0,0-.33.33v1.34a.33.33,0,0,0,.33.33h6.67v6.67a.33.33,0,0,0,.33.33Z"/></g><g id="Icon_Plus-21" data-name="Icon/Plus"><path id="Icon-Plus-21" data-name="Icon-Plus" class="cls-2" d="M590.37,274a.33.33,0,0,0,.33-.33V267h6.67a.33.33,0,0,0,.33-.33v-1.34a.33.33,0,0,0-.33-.33H590.7v-6.67a.33.33,0,0,0-.33-.33H589a.33.33,0,0,0-.33.33V265H582a.33.33,0,0,0-.33.33v1.34a.33.33,0,0,0,.33.33h6.67v6.67a.33.33,0,0,0,.33.33Z"/></g><g id="Icon_Plus-22" data-name="Icon/Plus"><path id="Icon-Plus-22" data-name="Icon-Plus" class="cls-2" d="M756.57,274a.33.33,0,0,0,.33-.33V267h6.67a.33.33,0,0,0,.33-.33v-1.34a.33.33,0,0,0-.33-.33H756.9v-6.67a.33.33,0,0,0-.33-.33h-1.34a.33.33,0,0,0-.33.33V265h-6.67a.33.33,0,0,0-.33.33v1.34a.33.33,0,0,0,.33.33h6.67v6.67a.33.33,0,0,0,.33.33Z"/></g><path class="cls-1" d="M91.1,346.2a5.8,5.8,0,1,1-5.8,5.8,5.8,5.8,0,0,1,5.8-5.8m0-2.2a8,8,0,1,0,8,8,8,8,0,0,0-8-8Z"/><path class="cls-1" d="M257.3,346.2a5.8,5.8,0,1,1-5.8,5.8,5.8,5.8,0,0,1,5.8-5.8m0-2.2a8,8,0,1,0,8,8,8,8,0,0,0-8-8Z"/><path class="cls-1" d="M423.5,346.2a5.8,5.8,0,1,1-5.8,5.8,5.8,5.8,0,0,1,5.8-5.8m0-2.2a8,8,0,1,0,8,8,8,8,0,0,0-8-8Z"/><path class="cls-1" d="M589.7,346.2a5.8,5.8,0,1,1-5.8,5.8,5.8,5.8,0,0,1,5.8-5.8m0-2.2a8,8,0,1,0,8,8,8,8,0,0,0-8-8Z"/><path class="cls-1" d="M755.9,346.2a5.8,5.8,0,1,1-5.8,5.8,5.8,5.8,0,0,1,5.8-5.8m0-2.2a8,8,0,1,0,8,8,8,8,0,0,0-8-8Z"/><path class="cls-1" d="M839,432.2a5.8,5.8,0,1,1-5.8,5.8,5.8,5.8,0,0,1,5.8-5.8m0-2.2a8,8,0,1,0,8,8,8,8,0,0,0-8-8Z"/><path class="cls-1" d="M672.8,432.2A5.8,5.8,0,1,1,667,438a5.8,5.8,0,0,1,5.8-5.8m0-2.2a8,8,0,1,0,8,8,8,8,0,0,0-8-8Z"/><path class="cls-1" d="M506.6,432.2a5.8,5.8,0,1,1-5.8,5.8,5.8,5.8,0,0,1,5.8-5.8m0-2.2a8,8,0,1,0,8,8,8,8,0,0,0-8-8Z"/><path class="cls-1" d="M340.4,432.2a5.8,5.8,0,1,1-5.8,5.8,5.8,5.8,0,0,1,5.8-5.8m0-2.2a8,8,0,1,0,8,8,8,8,0,0,0-8-8Z"/><path class="cls-1" d="M174.2,432.2a5.8,5.8,0,1,1-5.8,5.8,5.8,5.8,0,0,1,5.8-5.8m0-2.2a8,8,0,1,0,8,8,8,8,0,0,0-8-8Z"/><path class="cls-1" d="M8,432.2A5.8,5.8,0,1,1,2.2,438,5.8,5.8,0,0,1,8,432.2M8,430a8,8,0,1,0,8,8,8,8,0,0,0-8-8Z"/><g id="Icon_Plus-23" data-name="Icon/Plus"><path id="Icon-Plus-23" data-name="Icon-Plus" class="cls-2" d="M8.67,360a.33.33,0,0,0,.33-.33V353h6.67a.33.33,0,0,0,.33-.33v-1.34a.33.33,0,0,0-.33-.33H9v-6.67a.33.33,0,0,0-.33-.33H7.33a.33.33,0,0,0-.33.33V351H.33a.33.33,0,0,0-.33.33v1.34a.33.33,0,0,0,.33.33H7v6.67a.33.33,0,0,0,.33.33Z"/></g><g id="Icon_Plus-24" data-name="Icon/Plus"><path id="Icon-Plus-24" data-name="Icon-Plus" class="cls-2" d="M174.87,360a.33.33,0,0,0,.33-.33V353h6.67a.33.33,0,0,0,.33-.33v-1.34a.33.33,0,0,0-.33-.33H175.2v-6.67a.33.33,0,0,0-.33-.33h-1.34a.33.33,0,0,0-.33.33V351h-6.67a.33.33,0,0,0-.33.33v1.34a.33.33,0,0,0,.33.33h6.67v6.67a.33.33,0,0,0,.33.33Z"/></g><g id="Icon_Plus-25" data-name="Icon/Plus"><path id="Icon-Plus-25" data-name="Icon-Plus" class="cls-2" d="M341.07,360a.33.33,0,0,0,.33-.33V353h6.67a.33.33,0,0,0,.33-.33v-1.34a.33.33,0,0,0-.33-.33H341.4v-6.67a.33.33,0,0,0-.33-.33h-1.34a.33.33,0,0,0-.33.33V351h-6.67a.33.33,0,0,0-.33.33v1.34a.33.33,0,0,0,.33.33h6.67v6.67a.33.33,0,0,0,.33.33Z"/></g><g id="Icon_Plus-26" data-name="Icon/Plus"><path id="Icon-Plus-26" data-name="Icon-Plus" class="cls-2" d="M507.27,360a.33.33,0,0,0,.33-.33V353h6.67a.33.33,0,0,0,.33-.33v-1.34a.33.33,0,0,0-.33-.33H507.6v-6.67a.33.33,0,0,0-.33-.33h-1.34a.33.33,0,0,0-.33.33V351h-6.67a.33.33,0,0,0-.33.33v1.34a.33.33,0,0,0,.33.33h6.67v6.67a.33.33,0,0,0,.33.33Z"/></g><g id="Icon_Plus-27" data-name="Icon/Plus"><path id="Icon-Plus-27" data-name="Icon-Plus" class="cls-2" d="M673.47,360a.33.33,0,0,0,.33-.33V353h6.67a.33.33,0,0,0,.33-.33v-1.34a.33.33,0,0,0-.33-.33H673.8v-6.67a.33.33,0,0,0-.33-.33h-1.34a.33.33,0,0,0-.33.33V351h-6.67a.33.33,0,0,0-.33.33v1.34a.33.33,0,0,0,.33.33h6.67v6.67a.33.33,0,0,0,.33.33Z"/></g><g id="Icon_Plus-28" data-name="Icon/Plus"><path id="Icon-Plus-28" data-name="Icon-Plus" class="cls-2" d="M839.67,360a.33.33,0,0,0,.33-.33V353h6.67a.33.33,0,0,0,.33-.33v-1.34a.33.33,0,0,0-.33-.33H840v-6.67a.33.33,0,0,0-.33-.33h-1.34a.33.33,0,0,0-.33.33V351h-6.67a.33.33,0,0,0-.33.33v1.34a.33.33,0,0,0,.33.33H838v6.67a.33.33,0,0,0,.33.33Z"/></g><g id="Icon_Plus-29" data-name="Icon/Plus"><path id="Icon-Plus-29" data-name="Icon-Plus" class="cls-2" d="M91.77,446a.33.33,0,0,0,.33-.33V439h6.67a.33.33,0,0,0,.33-.33v-1.34a.33.33,0,0,0-.33-.33H92.1v-6.67a.33.33,0,0,0-.33-.33H90.43a.33.33,0,0,0-.33.33V437H83.43a.33.33,0,0,0-.33.33v1.34a.33.33,0,0,0,.33.33H90.1v6.67a.33.33,0,0,0,.33.33Z"/></g><g id="Icon_Plus-30" data-name="Icon/Plus"><path id="Icon-Plus-30" data-name="Icon-Plus" class="cls-2" d="M258,446a.33.33,0,0,0,.33-.33V439H265a.33.33,0,0,0,.33-.33v-1.34A.33.33,0,0,0,265,437H258.3v-6.67A.33.33,0,0,0,258,430h-1.34a.33.33,0,0,0-.33.33V437h-6.67a.33.33,0,0,0-.33.33v1.34a.33.33,0,0,0,.33.33h6.67v6.67a.33.33,0,0,0,.33.33Z"/></g><g id="Icon_Plus-31" data-name="Icon/Plus"><path id="Icon-Plus-31" data-name="Icon-Plus" class="cls-2" d="M424.17,446a.33.33,0,0,0,.33-.33V439h6.67a.33.33,0,0,0,.33-.33v-1.34a.33.33,0,0,0-.33-.33H424.5v-6.67a.33.33,0,0,0-.33-.33h-1.34a.33.33,0,0,0-.33.33V437h-6.67a.33.33,0,0,0-.33.33v1.34a.33.33,0,0,0,.33.33h6.67v6.67a.33.33,0,0,0,.33.33Z"/></g><g id="Icon_Plus-32" data-name="Icon/Plus"><path id="Icon-Plus-32" data-name="Icon-Plus" class="cls-2" d="M590.37,446a.33.33,0,0,0,.33-.33V439h6.67a.33.33,0,0,0,.33-.33v-1.34a.33.33,0,0,0-.33-.33H590.7v-6.67a.33.33,0,0,0-.33-.33H589a.33.33,0,0,0-.33.33V437H582a.33.33,0,0,0-.33.33v1.34a.33.33,0,0,0,.33.33h6.67v6.67a.33.33,0,0,0,.33.33Z"/></g><g id="Icon_Plus-33" data-name="Icon/Plus"><path id="Icon-Plus-33" data-name="Icon-Plus" class="cls-2" d="M756.57,446a.33.33,0,0,0,.33-.33V439h6.67a.33.33,0,0,0,.33-.33v-1.34a.33.33,0,0,0-.33-.33H756.9v-6.67a.33.33,0,0,0-.33-.33h-1.34a.33.33,0,0,0-.33.33V437h-6.67a.33.33,0,0,0-.33.33v1.34a.33.33,0,0,0,.33.33h6.67v6.67a.33.33,0,0,0,.33.33Z"/></g><path class="cls-1" d="M91.1,518.2a5.8,5.8,0,1,1-5.8,5.8,5.8,5.8,0,0,1,5.8-5.8m0-2.2a8,8,0,1,0,8,8,8,8,0,0,0-8-8Z"/><path class="cls-1" d="M257.3,518.2a5.8,5.8,0,1,1-5.8,5.8,5.8,5.8,0,0,1,5.8-5.8m0-2.2a8,8,0,1,0,8,8,8,8,0,0,0-8-8Z"/><path class="cls-1" d="M423.5,518.2a5.8,5.8,0,1,1-5.8,5.8,5.8,5.8,0,0,1,5.8-5.8m0-2.2a8,8,0,1,0,8,8,8,8,0,0,0-8-8Z"/><path class="cls-1" d="M589.7,518.2a5.8,5.8,0,1,1-5.8,5.8,5.8,5.8,0,0,1,5.8-5.8m0-2.2a8,8,0,1,0,8,8,8,8,0,0,0-8-8Z"/><path class="cls-1" d="M755.9,518.2a5.8,5.8,0,1,1-5.8,5.8,5.8,5.8,0,0,1,5.8-5.8m0-2.2a8,8,0,1,0,8,8,8,8,0,0,0-8-8Z"/><g id="Icon_Plus-34" data-name="Icon/Plus"><path id="Icon-Plus-34" data-name="Icon-Plus" class="cls-2" d="M8.67,532a.33.33,0,0,0,.33-.33V525h6.67a.33.33,0,0,0,.33-.33v-1.34a.33.33,0,0,0-.33-.33H9v-6.67a.33.33,0,0,0-.33-.33H7.33a.33.33,0,0,0-.33.33V523H.33a.33.33,0,0,0-.33.33v1.34a.33.33,0,0,0,.33.33H7v6.67a.33.33,0,0,0,.33.33Z"/></g><g id="Icon_Plus-35" data-name="Icon/Plus"><path id="Icon-Plus-35" data-name="Icon-Plus" class="cls-2" d="M174.87,532a.33.33,0,0,0,.33-.33V525h6.67a.33.33,0,0,0,.33-.33v-1.34a.33.33,0,0,0-.33-.33H175.2v-6.67a.33.33,0,0,0-.33-.33h-1.34a.33.33,0,0,0-.33.33V523h-6.67a.33.33,0,0,0-.33.33v1.34a.33.33,0,0,0,.33.33h6.67v6.67a.33.33,0,0,0,.33.33Z"/></g><g id="Icon_Plus-36" data-name="Icon/Plus"><path id="Icon-Plus-36" data-name="Icon-Plus" class="cls-2" d="M341.07,532a.33.33,0,0,0,.33-.33V525h6.67a.33.33,0,0,0,.33-.33v-1.34a.33.33,0,0,0-.33-.33H341.4v-6.67a.33.33,0,0,0-.33-.33h-1.34a.33.33,0,0,0-.33.33V523h-6.67a.33.33,0,0,0-.33.33v1.34a.33.33,0,0,0,.33.33h6.67v6.67a.33.33,0,0,0,.33.33Z"/></g><g id="Icon_Plus-37" data-name="Icon/Plus"><path id="Icon-Plus-37" data-name="Icon-Plus" class="cls-2" d="M507.27,532a.33.33,0,0,0,.33-.33V525h6.67a.33.33,0,0,0,.33-.33v-1.34a.33.33,0,0,0-.33-.33H507.6v-6.67a.33.33,0,0,0-.33-.33h-1.34a.33.33,0,0,0-.33.33V523h-6.67a.33.33,0,0,0-.33.33v1.34a.33.33,0,0,0,.33.33h6.67v6.67a.33.33,0,0,0,.33.33Z"/></g><g id="Icon_Plus-38" data-name="Icon/Plus"><path id="Icon-Plus-38" data-name="Icon-Plus" class="cls-2" d="M673.47,532a.33.33,0,0,0,.33-.33V525h6.67a.33.33,0,0,0,.33-.33v-1.34a.33.33,0,0,0-.33-.33H673.8v-6.67a.33.33,0,0,0-.33-.33h-1.34a.33.33,0,0,0-.33.33V523h-6.67a.33.33,0,0,0-.33.33v1.34a.33.33,0,0,0,.33.33h6.67v6.67a.33.33,0,0,0,.33.33Z"/></g><g id="Icon_Plus-39" data-name="Icon/Plus"><path id="Icon-Plus-39" data-name="Icon-Plus" class="cls-2" d="M839.67,532a.33.33,0,0,0,.33-.33V525h6.67a.33.33,0,0,0,.33-.33v-1.34a.33.33,0,0,0-.33-.33H840v-6.67a.33.33,0,0,0-.33-.33h-1.34a.33.33,0,0,0-.33.33V523h-6.67a.33.33,0,0,0-.33.33v1.34a.33.33,0,0,0,.33.33H838v6.67a.33.33,0,0,0,.33.33Z"/></g><path class="cls-1" d="M839,604.2a5.8,5.8,0,1,1-5.8,5.8,5.8,5.8,0,0,1,5.8-5.8m0-2.2a8,8,0,1,0,8,8,8,8,0,0,0-8-8Z"/><path class="cls-1" d="M672.8,604.2A5.8,5.8,0,1,1,667,610a5.8,5.8,0,0,1,5.8-5.8m0-2.2a8,8,0,1,0,8,8,8,8,0,0,0-8-8Z"/><path class="cls-1" d="M506.6,604.2a5.8,5.8,0,1,1-5.8,5.8,5.8,5.8,0,0,1,5.8-5.8m0-2.2a8,8,0,1,0,8,8,8,8,0,0,0-8-8Z"/><path class="cls-1" d="M340.4,604.2a5.8,5.8,0,1,1-5.8,5.8,5.8,5.8,0,0,1,5.8-5.8m0-2.2a8,8,0,1,0,8,8,8,8,0,0,0-8-8Z"/><path class="cls-1" d="M174.2,604.2a5.8,5.8,0,1,1-5.8,5.8,5.8,5.8,0,0,1,5.8-5.8m0-2.2a8,8,0,1,0,8,8,8,8,0,0,0-8-8Z"/><path class="cls-1" d="M8,604.2A5.8,5.8,0,1,1,2.2,610,5.8,5.8,0,0,1,8,604.2M8,602a8,8,0,1,0,8,8,8,8,0,0,0-8-8Z"/><g id="Icon_Plus-40" data-name="Icon/Plus"><path id="Icon-Plus-40" data-name="Icon-Plus" class="cls-2" d="M91.77,618a.33.33,0,0,0,.33-.33V611h6.67a.33.33,0,0,0,.33-.33v-1.34a.33.33,0,0,0-.33-.33H92.1v-6.67a.33.33,0,0,0-.33-.33H90.43a.33.33,0,0,0-.33.33V609H83.43a.33.33,0,0,0-.33.33v1.34a.33.33,0,0,0,.33.33H90.1v6.67a.33.33,0,0,0,.33.33Z"/></g><g id="Icon_Plus-41" data-name="Icon/Plus"><path id="Icon-Plus-41" data-name="Icon-Plus" class="cls-2" d="M258,618a.33.33,0,0,0,.33-.33V611H265a.33.33,0,0,0,.33-.33v-1.34A.33.33,0,0,0,265,609H258.3v-6.67A.33.33,0,0,0,258,602h-1.34a.33.33,0,0,0-.33.33V609h-6.67a.33.33,0,0,0-.33.33v1.34a.33.33,0,0,0,.33.33h6.67v6.67a.33.33,0,0,0,.33.33Z"/></g><g id="Icon_Plus-42" data-name="Icon/Plus"><path id="Icon-Plus-42" data-name="Icon-Plus" class="cls-2" d="M424.17,618a.33.33,0,0,0,.33-.33V611h6.67a.33.33,0,0,0,.33-.33v-1.34a.33.33,0,0,0-.33-.33H424.5v-6.67a.33.33,0,0,0-.33-.33h-1.34a.33.33,0,0,0-.33.33V609h-6.67a.33.33,0,0,0-.33.33v1.34a.33.33,0,0,0,.33.33h6.67v6.67a.33.33,0,0,0,.33.33Z"/></g><g id="Icon_Plus-43" data-name="Icon/Plus"><path id="Icon-Plus-43" data-name="Icon-Plus" class="cls-2" d="M590.37,618a.33.33,0,0,0,.33-.33V611h6.67a.33.33,0,0,0,.33-.33v-1.34a.33.33,0,0,0-.33-.33H590.7v-6.67a.33.33,0,0,0-.33-.33H589a.33.33,0,0,0-.33.33V609H582a.33.33,0,0,0-.33.33v1.34a.33.33,0,0,0,.33.33h6.67v6.67a.33.33,0,0,0,.33.33Z"/></g><g id="Icon_Plus-44" data-name="Icon/Plus"><path id="Icon-Plus-44" data-name="Icon-Plus" class="cls-2" d="M756.57,618a.33.33,0,0,0,.33-.33V611h6.67a.33.33,0,0,0,.33-.33v-1.34a.33.33,0,0,0-.33-.33H756.9v-6.67a.33.33,0,0,0-.33-.33h-1.34a.33.33,0,0,0-.33.33V609h-6.67a.33.33,0,0,0-.33.33v1.34a.33.33,0,0,0,.33.33h6.67v6.67a.33.33,0,0,0,.33.33Z"/></g><path class="cls-1" d="M91.1,690.2a5.8,5.8,0,1,1-5.8,5.8,5.8,5.8,0,0,1,5.8-5.8m0-2.2a8,8,0,1,0,8,8,8,8,0,0,0-8-8Z"/><path class="cls-1" d="M257.3,690.2a5.8,5.8,0,1,1-5.8,5.8,5.8,5.8,0,0,1,5.8-5.8m0-2.2a8,8,0,1,0,8,8,8,8,0,0,0-8-8Z"/><path class="cls-1" d="M423.5,690.2a5.8,5.8,0,1,1-5.8,5.8,5.8,5.8,0,0,1,5.8-5.8m0-2.2a8,8,0,1,0,8,8,8,8,0,0,0-8-8Z"/><path class="cls-1" d="M589.7,690.2a5.8,5.8,0,1,1-5.8,5.8,5.8,5.8,0,0,1,5.8-5.8m0-2.2a8,8,0,1,0,8,8,8,8,0,0,0-8-8Z"/><path class="cls-1" d="M755.9,690.2a5.8,5.8,0,1,1-5.8,5.8,5.8,5.8,0,0,1,5.8-5.8m0-2.2a8,8,0,1,0,8,8,8,8,0,0,0-8-8Z"/><g id="Icon_Plus-45" data-name="Icon/Plus"><path id="Icon-Plus-45" data-name="Icon-Plus" class="cls-2" d="M8.67,704a.33.33,0,0,0,.33-.33V697h6.67a.33.33,0,0,0,.33-.33v-1.34a.33.33,0,0,0-.33-.33H9v-6.67a.33.33,0,0,0-.33-.33H7.33a.33.33,0,0,0-.33.33V695H.33a.33.33,0,0,0-.33.33v1.34a.33.33,0,0,0,.33.33H7v6.67a.33.33,0,0,0,.33.33Z"/></g><g id="Icon_Plus-46" data-name="Icon/Plus"><path id="Icon-Plus-46" data-name="Icon-Plus" class="cls-2" d="M174.87,704a.33.33,0,0,0,.33-.33V697h6.67a.33.33,0,0,0,.33-.33v-1.34a.33.33,0,0,0-.33-.33H175.2v-6.67a.33.33,0,0,0-.33-.33h-1.34a.33.33,0,0,0-.33.33V695h-6.67a.33.33,0,0,0-.33.33v1.34a.33.33,0,0,0,.33.33h6.67v6.67a.33.33,0,0,0,.33.33Z"/></g><g id="Icon_Plus-47" data-name="Icon/Plus"><path id="Icon-Plus-47" data-name="Icon-Plus" class="cls-2" d="M341.07,704a.33.33,0,0,0,.33-.33V697h6.67a.33.33,0,0,0,.33-.33v-1.34a.33.33,0,0,0-.33-.33H341.4v-6.67a.33.33,0,0,0-.33-.33h-1.34a.33.33,0,0,0-.33.33V695h-6.67a.33.33,0,0,0-.33.33v1.34a.33.33,0,0,0,.33.33h6.67v6.67a.33.33,0,0,0,.33.33Z"/></g><g id="Icon_Plus-48" data-name="Icon/Plus"><path id="Icon-Plus-48" data-name="Icon-Plus" class="cls-2" d="M507.27,704a.33.33,0,0,0,.33-.33V697h6.67a.33.33,0,0,0,.33-.33v-1.34a.33.33,0,0,0-.33-.33H507.6v-6.67a.33.33,0,0,0-.33-.33h-1.34a.33.33,0,0,0-.33.33V695h-6.67a.33.33,0,0,0-.33.33v1.34a.33.33,0,0,0,.33.33h6.67v6.67a.33.33,0,0,0,.33.33Z"/></g><g id="Icon_Plus-49" data-name="Icon/Plus"><path id="Icon-Plus-49" data-name="Icon-Plus" class="cls-2" d="M673.47,704a.33.33,0,0,0,.33-.33V697h6.67a.33.33,0,0,0,.33-.33v-1.34a.33.33,0,0,0-.33-.33H673.8v-6.67a.33.33,0,0,0-.33-.33h-1.34a.33.33,0,0,0-.33.33V695h-6.67a.33.33,0,0,0-.33.33v1.34a.33.33,0,0,0,.33.33h6.67v6.67a.33.33,0,0,0,.33.33Z"/></g><g id="Icon_Plus-50" data-name="Icon/Plus"><path id="Icon-Plus-50" data-name="Icon-Plus" class="cls-2" d="M839.67,704a.33.33,0,0,0,.33-.33V697h6.67a.33.33,0,0,0,.33-.33v-1.34a.33.33,0,0,0-.33-.33H840v-6.67a.33.33,0,0,0-.33-.33h-1.34a.33.33,0,0,0-.33.33V695h-6.67a.33.33,0,0,0-.33.33v1.34a.33.33,0,0,0,.33.33H838v6.67a.33.33,0,0,0,.33.33Z"/></g><path class="cls-1" d="M839,776.2a5.8,5.8,0,1,1-5.8,5.8,5.8,5.8,0,0,1,5.8-5.8m0-2.2a8,8,0,1,0,8,8,8,8,0,0,0-8-8Z"/><path class="cls-1" d="M672.8,776.2A5.8,5.8,0,1,1,667,782a5.8,5.8,0,0,1,5.8-5.8m0-2.2a8,8,0,1,0,8,8,8,8,0,0,0-8-8Z"/><path class="cls-1" d="M506.6,776.2a5.8,5.8,0,1,1-5.8,5.8,5.8,5.8,0,0,1,5.8-5.8m0-2.2a8,8,0,1,0,8,8,8,8,0,0,0-8-8Z"/><path class="cls-1" d="M340.4,776.2a5.8,5.8,0,1,1-5.8,5.8,5.8,5.8,0,0,1,5.8-5.8m0-2.2a8,8,0,1,0,8,8,8,8,0,0,0-8-8Z"/><path class="cls-1" d="M174.2,776.2a5.8,5.8,0,1,1-5.8,5.8,5.8,5.8,0,0,1,5.8-5.8m0-2.2a8,8,0,1,0,8,8,8,8,0,0,0-8-8Z"/><path class="cls-1" d="M8,776.2A5.8,5.8,0,1,1,2.2,782,5.8,5.8,0,0,1,8,776.2M8,774a8,8,0,1,0,8,8,8,8,0,0,0-8-8Z"/><g id="Icon_Plus-51" data-name="Icon/Plus"><path id="Icon-Plus-51" data-name="Icon-Plus" class="cls-2" d="M91.77,790a.33.33,0,0,0,.33-.33V783h6.67a.33.33,0,0,0,.33-.33v-1.34a.33.33,0,0,0-.33-.33H92.1v-6.67a.33.33,0,0,0-.33-.33H90.43a.33.33,0,0,0-.33.33V781H83.43a.33.33,0,0,0-.33.33v1.34a.33.33,0,0,0,.33.33H90.1v6.67a.33.33,0,0,0,.33.33Z"/></g><g id="Icon_Plus-52" data-name="Icon/Plus"><path id="Icon-Plus-52" data-name="Icon-Plus" class="cls-2" d="M258,790a.33.33,0,0,0,.33-.33V783H265a.33.33,0,0,0,.33-.33v-1.34A.33.33,0,0,0,265,781H258.3v-6.67A.33.33,0,0,0,258,774h-1.34a.33.33,0,0,0-.33.33V781h-6.67a.33.33,0,0,0-.33.33v1.34a.33.33,0,0,0,.33.33h6.67v6.67a.33.33,0,0,0,.33.33Z"/></g><g id="Icon_Plus-53" data-name="Icon/Plus"><path id="Icon-Plus-53" data-name="Icon-Plus" class="cls-2" d="M424.17,790a.33.33,0,0,0,.33-.33V783h6.67a.33.33,0,0,0,.33-.33v-1.34a.33.33,0,0,0-.33-.33H424.5v-6.67a.33.33,0,0,0-.33-.33h-1.34a.33.33,0,0,0-.33.33V781h-6.67a.33.33,0,0,0-.33.33v1.34a.33.33,0,0,0,.33.33h6.67v6.67a.33.33,0,0,0,.33.33Z"/></g><g id="Icon_Plus-54" data-name="Icon/Plus"><path id="Icon-Plus-54" data-name="Icon-Plus" class="cls-2" d="M590.37,790a.33.33,0,0,0,.33-.33V783h6.67a.33.33,0,0,0,.33-.33v-1.34a.33.33,0,0,0-.33-.33H590.7v-6.67a.33.33,0,0,0-.33-.33H589a.33.33,0,0,0-.33.33V781H582a.33.33,0,0,0-.33.33v1.34a.33.33,0,0,0,.33.33h6.67v6.67a.33.33,0,0,0,.33.33Z"/></g><g id="Icon_Plus-55" data-name="Icon/Plus"><path id="Icon-Plus-55" data-name="Icon-Plus" class="cls-2" d="M756.57,790a.33.33,0,0,0,.33-.33V783h6.67a.33.33,0,0,0,.33-.33v-1.34a.33.33,0,0,0-.33-.33H756.9v-6.67a.33.33,0,0,0-.33-.33h-1.34a.33.33,0,0,0-.33.33V781h-6.67a.33.33,0,0,0-.33.33v1.34a.33.33,0,0,0,.33.33h6.67v6.67a.33.33,0,0,0,.33.33Z"/></g><path class="cls-1" d="M91.1,862.2a5.8,5.8,0,1,1-5.8,5.8,5.8,5.8,0,0,1,5.8-5.8m0-2.2a8,8,0,1,0,8,8,8,8,0,0,0-8-8Z"/><path class="cls-1" d="M257.3,862.2a5.8,5.8,0,1,1-5.8,5.8,5.8,5.8,0,0,1,5.8-5.8m0-2.2a8,8,0,1,0,8,8,8,8,0,0,0-8-8Z"/><path class="cls-1" d="M423.5,862.2a5.8,5.8,0,1,1-5.8,5.8,5.8,5.8,0,0,1,5.8-5.8m0-2.2a8,8,0,1,0,8,8,8,8,0,0,0-8-8Z"/><path class="cls-1" d="M589.7,862.2a5.8,5.8,0,1,1-5.8,5.8,5.8,5.8,0,0,1,5.8-5.8m0-2.2a8,8,0,1,0,8,8,8,8,0,0,0-8-8Z"/><path class="cls-1" d="M755.9,862.2a5.8,5.8,0,1,1-5.8,5.8,5.8,5.8,0,0,1,5.8-5.8m0-2.2a8,8,0,1,0,8,8,8,8,0,0,0-8-8Z"/><g id="Icon_Plus-56" data-name="Icon/Plus"><path id="Icon-Plus-56" data-name="Icon-Plus" class="cls-2" d="M8.67,876a.33.33,0,0,0,.33-.33V869h6.67a.33.33,0,0,0,.33-.33v-1.34a.33.33,0,0,0-.33-.33H9v-6.67a.33.33,0,0,0-.33-.33H7.33a.33.33,0,0,0-.33.33V867H.33a.33.33,0,0,0-.33.33v1.34a.33.33,0,0,0,.33.33H7v6.67a.33.33,0,0,0,.33.33Z"/></g><g id="Icon_Plus-57" data-name="Icon/Plus"><path id="Icon-Plus-57" data-name="Icon-Plus" class="cls-2" d="M174.87,876a.33.33,0,0,0,.33-.33V869h6.67a.33.33,0,0,0,.33-.33v-1.34a.33.33,0,0,0-.33-.33H175.2v-6.67a.33.33,0,0,0-.33-.33h-1.34a.33.33,0,0,0-.33.33V867h-6.67a.33.33,0,0,0-.33.33v1.34a.33.33,0,0,0,.33.33h6.67v6.67a.33.33,0,0,0,.33.33Z"/></g><g id="Icon_Plus-58" data-name="Icon/Plus"><path id="Icon-Plus-58" data-name="Icon-Plus" class="cls-2" d="M341.07,876a.33.33,0,0,0,.33-.33V869h6.67a.33.33,0,0,0,.33-.33v-1.34a.33.33,0,0,0-.33-.33H341.4v-6.67a.33.33,0,0,0-.33-.33h-1.34a.33.33,0,0,0-.33.33V867h-6.67a.33.33,0,0,0-.33.33v1.34a.33.33,0,0,0,.33.33h6.67v6.67a.33.33,0,0,0,.33.33Z"/></g><g id="Icon_Plus-59" data-name="Icon/Plus"><path id="Icon-Plus-59" data-name="Icon-Plus" class="cls-2" d="M507.27,876a.33.33,0,0,0,.33-.33V869h6.67a.33.33,0,0,0,.33-.33v-1.34a.33.33,0,0,0-.33-.33H507.6v-6.67a.33.33,0,0,0-.33-.33h-1.34a.33.33,0,0,0-.33.33V867h-6.67a.33.33,0,0,0-.33.33v1.34a.33.33,0,0,0,.33.33h6.67v6.67a.33.33,0,0,0,.33.33Z"/></g><g id="Icon_Plus-60" data-name="Icon/Plus"><path id="Icon-Plus-60" data-name="Icon-Plus" class="cls-2" d="M673.47,876a.33.33,0,0,0,.33-.33V869h6.67a.33.33,0,0,0,.33-.33v-1.34a.33.33,0,0,0-.33-.33H673.8v-6.67a.33.33,0,0,0-.33-.33h-1.34a.33.33,0,0,0-.33.33V867h-6.67a.33.33,0,0,0-.33.33v1.34a.33.33,0,0,0,.33.33h6.67v6.67a.33.33,0,0,0,.33.33Z"/></g><g id="Icon_Plus-61" data-name="Icon/Plus"><path id="Icon-Plus-61" data-name="Icon-Plus" class="cls-2" d="M839.67,876a.33.33,0,0,0,.33-.33V869h6.67a.33.33,0,0,0,.33-.33v-1.34a.33.33,0,0,0-.33-.33H840v-6.67a.33.33,0,0,0-.33-.33h-1.34a.33.33,0,0,0-.33.33V867h-6.67a.33.33,0,0,0-.33.33v1.34a.33.33,0,0,0,.33.33H838v6.67a.33.33,0,0,0,.33.33Z"/></g><path class="cls-1" d="M91.1,1034.2a5.8,5.8,0,1,1-5.8,5.8,5.8,5.8,0,0,1,5.8-5.8m0-2.2a8,8,0,1,0,8,8,8,8,0,0,0-8-8Z"/><path class="cls-1" d="M257.3,1034.2a5.8,5.8,0,1,1-5.8,5.8,5.8,5.8,0,0,1,5.8-5.8m0-2.2a8,8,0,1,0,8,8,8,8,0,0,0-8-8Z"/><path class="cls-1" d="M423.5,1034.2a5.8,5.8,0,1,1-5.8,5.8,5.8,5.8,0,0,1,5.8-5.8m0-2.2a8,8,0,1,0,8,8,8,8,0,0,0-8-8Z"/><path class="cls-1" d="M589.7,1034.2a5.8,5.8,0,1,1-5.8,5.8,5.8,5.8,0,0,1,5.8-5.8m0-2.2a8,8,0,1,0,8,8,8,8,0,0,0-8-8Z"/><path class="cls-1" d="M755.9,1034.2a5.8,5.8,0,1,1-5.8,5.8,5.8,5.8,0,0,1,5.8-5.8m0-2.2a8,8,0,1,0,8,8,8,8,0,0,0-8-8Z"/><g id="Icon_Plus-62" data-name="Icon/Plus"><path id="Icon-Plus-62" data-name="Icon-Plus" class="cls-2" d="M8.67,1048a.33.33,0,0,0,.33-.33V1041h6.67a.33.33,0,0,0,.33-.33v-1.34a.33.33,0,0,0-.33-.33H9v-6.67a.33.33,0,0,0-.33-.33H7.33a.33.33,0,0,0-.33.33V1039H.33a.33.33,0,0,0-.33.33v1.34a.33.33,0,0,0,.33.33H7v6.67a.33.33,0,0,0,.33.33Z"/></g><g id="Icon_Plus-63" data-name="Icon/Plus"><path id="Icon-Plus-63" data-name="Icon-Plus" class="cls-2" d="M174.87,1048a.33.33,0,0,0,.33-.33V1041h6.67a.33.33,0,0,0,.33-.33v-1.34a.33.33,0,0,0-.33-.33H175.2v-6.67a.33.33,0,0,0-.33-.33h-1.34a.33.33,0,0,0-.33.33V1039h-6.67a.33.33,0,0,0-.33.33v1.34a.33.33,0,0,0,.33.33h6.67v6.67a.33.33,0,0,0,.33.33Z"/></g><g id="Icon_Plus-64" data-name="Icon/Plus"><path id="Icon-Plus-64" data-name="Icon-Plus" class="cls-2" d="M341.07,1048a.33.33,0,0,0,.33-.33V1041h6.67a.33.33,0,0,0,.33-.33v-1.34a.33.33,0,0,0-.33-.33H341.4v-6.67a.33.33,0,0,0-.33-.33h-1.34a.33.33,0,0,0-.33.33V1039h-6.67a.33.33,0,0,0-.33.33v1.34a.33.33,0,0,0,.33.33h6.67v6.67a.33.33,0,0,0,.33.33Z"/></g><g id="Icon_Plus-65" data-name="Icon/Plus"><path id="Icon-Plus-65" data-name="Icon-Plus" class="cls-2" d="M507.27,1048a.33.33,0,0,0,.33-.33V1041h6.67a.33.33,0,0,0,.33-.33v-1.34a.33.33,0,0,0-.33-.33H507.6v-6.67a.33.33,0,0,0-.33-.33h-1.34a.33.33,0,0,0-.33.33V1039h-6.67a.33.33,0,0,0-.33.33v1.34a.33.33,0,0,0,.33.33h6.67v6.67a.33.33,0,0,0,.33.33Z"/></g><g id="Icon_Plus-66" data-name="Icon/Plus"><path id="Icon-Plus-66" data-name="Icon-Plus" class="cls-2" d="M673.47,1048a.33.33,0,0,0,.33-.33V1041h6.67a.33.33,0,0,0,.33-.33v-1.34a.33.33,0,0,0-.33-.33H673.8v-6.67a.33.33,0,0,0-.33-.33h-1.34a.33.33,0,0,0-.33.33V1039h-6.67a.33.33,0,0,0-.33.33v1.34a.33.33,0,0,0,.33.33h6.67v6.67a.33.33,0,0,0,.33.33Z"/></g><g id="Icon_Plus-67" data-name="Icon/Plus"><path id="Icon-Plus-67" data-name="Icon-Plus" class="cls-2" d="M839.67,1048a.33.33,0,0,0,.33-.33V1041h6.67a.33.33,0,0,0,.33-.33v-1.34a.33.33,0,0,0-.33-.33H840v-6.67a.33.33,0,0,0-.33-.33h-1.34a.33.33,0,0,0-.33.33V1039h-6.67a.33.33,0,0,0-.33.33v1.34a.33.33,0,0,0,.33.33H838v6.67a.33.33,0,0,0,.33.33Z"/></g><path class="cls-1" d="M839,948.2a5.8,5.8,0,1,1-5.8,5.8,5.8,5.8,0,0,1,5.8-5.8m0-2.2a8,8,0,1,0,8,8,8,8,0,0,0-8-8Z"/><path class="cls-1" d="M672.8,948.2A5.8,5.8,0,1,1,667,954a5.8,5.8,0,0,1,5.8-5.8m0-2.2a8,8,0,1,0,8,8,8,8,0,0,0-8-8Z"/><path class="cls-1" d="M506.6,948.2a5.8,5.8,0,1,1-5.8,5.8,5.8,5.8,0,0,1,5.8-5.8m0-2.2a8,8,0,1,0,8,8,8,8,0,0,0-8-8Z"/><path class="cls-1" d="M340.4,948.2a5.8,5.8,0,1,1-5.8,5.8,5.8,5.8,0,0,1,5.8-5.8m0-2.2a8,8,0,1,0,8,8,8,8,0,0,0-8-8Z"/><path class="cls-1" d="M174.2,948.2a5.8,5.8,0,1,1-5.8,5.8,5.8,5.8,0,0,1,5.8-5.8m0-2.2a8,8,0,1,0,8,8,8,8,0,0,0-8-8Z"/><path class="cls-1" d="M8,948.2A5.8,5.8,0,1,1,2.2,954,5.8,5.8,0,0,1,8,948.2M8,946a8,8,0,1,0,8,8,8,8,0,0,0-8-8Z"/><g id="Icon_Plus-68" data-name="Icon/Plus"><path id="Icon-Plus-68" data-name="Icon-Plus" class="cls-2" d="M91.77,962a.33.33,0,0,0,.33-.33V955h6.67a.33.33,0,0,0,.33-.33v-1.34a.33.33,0,0,0-.33-.33H92.1v-6.67a.33.33,0,0,0-.33-.33H90.43a.33.33,0,0,0-.33.33V953H83.43a.33.33,0,0,0-.33.33v1.34a.33.33,0,0,0,.33.33H90.1v6.67a.33.33,0,0,0,.33.33Z"/></g><g id="Icon_Plus-69" data-name="Icon/Plus"><path id="Icon-Plus-69" data-name="Icon-Plus" class="cls-2" d="M258,962a.33.33,0,0,0,.33-.33V955H265a.33.33,0,0,0,.33-.33v-1.34A.33.33,0,0,0,265,953H258.3v-6.67A.33.33,0,0,0,258,946h-1.34a.33.33,0,0,0-.33.33V953h-6.67a.33.33,0,0,0-.33.33v1.34a.33.33,0,0,0,.33.33h6.67v6.67a.33.33,0,0,0,.33.33Z"/></g><g id="Icon_Plus-70" data-name="Icon/Plus"><path id="Icon-Plus-70" data-name="Icon-Plus" class="cls-2" d="M424.17,962a.33.33,0,0,0,.33-.33V955h6.67a.33.33,0,0,0,.33-.33v-1.34a.33.33,0,0,0-.33-.33H424.5v-6.67a.33.33,0,0,0-.33-.33h-1.34a.33.33,0,0,0-.33.33V953h-6.67a.33.33,0,0,0-.33.33v1.34a.33.33,0,0,0,.33.33h6.67v6.67a.33.33,0,0,0,.33.33Z"/></g><g id="Icon_Plus-71" data-name="Icon/Plus"><path id="Icon-Plus-71" data-name="Icon-Plus" class="cls-2" d="M590.37,962a.33.33,0,0,0,.33-.33V955h6.67a.33.33,0,0,0,.33-.33v-1.34a.33.33,0,0,0-.33-.33H590.7v-6.67a.33.33,0,0,0-.33-.33H589a.33.33,0,0,0-.33.33V953H582a.33.33,0,0,0-.33.33v1.34a.33.33,0,0,0,.33.33h6.67v6.67a.33.33,0,0,0,.33.33Z"/></g><g id="Icon_Plus-72" data-name="Icon/Plus"><path id="Icon-Plus-72" data-name="Icon-Plus" class="cls-2" d="M756.57,962a.33.33,0,0,0,.33-.33V955h6.67a.33.33,0,0,0,.33-.33v-1.34a.33.33,0,0,0-.33-.33H756.9v-6.67a.33.33,0,0,0-.33-.33h-1.34a.33.33,0,0,0-.33.33V953h-6.67a.33.33,0,0,0-.33.33v1.34a.33.33,0,0,0,.33.33h6.67v6.67a.33.33,0,0,0,.33.33Z"/></g></svg>