<?xml version="1.0" encoding="UTF-8"?><svg xmlns="http://www.w3.org/2000/svg" viewBox="0 0 69.83 75"><defs><style>.d{fill:#fff;}.e{fill:#c3002f;}.f{fill:#dd0031;}</style></defs><g id="a"/><g id="b"><g id="c"><g><polygon class="f" points="34.91 0 34.91 0 34.91 0 0 12.45 5.32 58.61 34.91 75 34.91 75 34.91 75 64.5 58.61 69.83 12.45 34.91 0"/><polygon class="e" points="34.91 0 34.91 8.33 34.91 8.29 34.91 46.27 34.91 46.27 34.91 75 34.91 75 64.5 58.61 69.83 12.45 34.91 0"/><path class="d" d="M34.91,8.29L13.09,57.23h8.14l4.39-10.95h18.53l4.39,10.95h8.14L34.91,8.29h0Zm6.38,31.24h-12.75l6.38-15.34,6.38,15.34Z"/></g></g></g></svg>