<?xml version="1.0" encoding="UTF-8"?><svg xmlns="http://www.w3.org/2000/svg" viewBox="0 0 70 70"><defs><style>.d{fill:#fff;}.e{fill:#05930c;}.f{fill:#4b9b39;}</style></defs><g id="a"/><g id="b"><g id="c"><g><g><path class="f" d="M0,35c0,19.33,15.67,35,35,35,9.66,0,18.42-3.92,24.75-10.25L10.25,10.25C3.92,16.58,0,25.33,0,35Z"/><path class="e" d="M35,0C25.34,0,16.58,3.92,10.25,10.25L59.75,59.75c6.33-6.33,10.25-15.08,10.25-24.75C70,15.67,54.33,0,35,0Z"/></g><g><path class="d" d="M33.28,47.63c-2.38,1.16-5.01,1.71-7.66,1.62-3.54,.16-6.97-1.22-9.42-3.78-2.43-2.73-3.7-6.29-3.53-9.94-.17-3.95,1.26-7.81,3.98-10.69,2.66-2.72,6.33-4.19,10.13-4.06,2.22-.08,4.43,.29,6.5,1.09v3.45c-2.01-1.11-4.27-1.68-6.56-1.65-2.89-.1-5.68,1.06-7.66,3.17-2.05,2.33-3.11,5.37-2.95,8.48-.15,2.93,.84,5.81,2.76,8.03,1.86,2,4.51,3.09,7.24,2.99,2.52,.06,5.01-.58,7.19-1.85v3.15Z"/><path class="d" d="M57.71,28.94l-.44,2.03h-5.03l-1.2,5.77h5.4l-.51,2.03h-5.29l-1.7,7.66h-2.42l1.65-7.66h-4.81l-1.62,7.66h-2.36l1.62-7.66h-5.07l.38-2.03h5.1l1.17-5.76h-5.33l.4-2.03h5.33l1.62-7.73h2.44l-1.62,7.73h4.85l1.65-7.73h2.36l-1.62,7.73h5.05Zm-7.84,2.02h-4.86l-1.26,5.77h4.88l1.24-5.77Z"/></g></g></g></g></svg>