<?xml version="1.0" encoding="UTF-8"?><svg xmlns="http://www.w3.org/2000/svg" viewBox="0 0 70 70"><defs><style>.d{fill:#f7df1e;}</style></defs><g id="a"/><g id="b"><g id="c"><g><rect class="d" width="70" height="70"/><path d="M47.02,54.69c1.41,2.3,3.24,3.99,6.49,3.99,2.73,0,4.47-1.36,4.47-3.24,0-2.26-1.79-3.05-4.79-4.37l-1.64-.71c-4.75-2.02-7.9-4.56-7.9-9.91,0-4.93,3.76-8.69,9.63-8.69,4.18,0,7.19,1.46,9.36,5.27l-5.12,3.29c-1.13-2.02-2.34-2.82-4.23-2.82s-3.15,1.22-3.15,2.82c0,1.97,1.22,2.77,4.04,3.99l1.64,.7c5.59,2.4,8.74,4.84,8.74,10.33,0,5.92-4.65,9.17-10.9,9.17s-10.06-2.91-11.99-6.73l5.35-3.11Zm-23.24,.57c1.03,1.83,1.97,3.38,4.23,3.38s3.52-.85,3.52-4.13v-22.37h6.58v22.46c0,6.81-3.99,9.91-9.82,9.91-5.27,0-8.32-2.73-9.87-6.01l5.35-3.24Z"/></g></g></g></svg>