<?xml version="1.0" encoding="UTF-8"?><svg xmlns="http://www.w3.org/2000/svg" viewBox="0 0 70 70"><defs><style>.d{fill:#3178c6;}.e{fill:#fff;fill-rule:evenodd;}</style></defs><g id="a"/><g id="b"><g id="c"><g><rect class="d" width="70" height="70" rx="6.84" ry="6.84"/><path class="e" d="M43.34,55.64v6.84c1.11,.57,2.46,1,3.96,1.29s3.14,.42,4.79,.42,3.14-.15,4.65-.46,2.73-.83,3.83-1.5c1.11-.72,2.05-1.64,2.6-2.87s.97-2.6,.97-4.37c0-1.24-.19-2.32-.56-3.28s-.9-1.78-1.64-2.46c-.7-.72-1.5-1.37-2.46-1.91s-2.05-1.12-3.28-1.64c-.9-.37-1.64-.72-2.46-1.08-.71-.36-1.33-.71-1.78-1.07-.51-.37-.89-.75-1.16-1.15-.27-.41-.41-.86-.41-1.37,0-.46,.12-.89,.37-1.27s.59-.7,1.03-.97,.98-.48,1.64-.63c.64-.15,1.35-.22,2.19-.22,.57,0,1.18,.04,1.78,.13,.63,.09,1.27,.22,1.91,.4s1.27,.4,1.91,.67c.6,.27,1.16,.59,1.64,.94v-6.43c-1.04-.4-2.19-.7-3.42-.89s-2.6-.29-4.24-.29-3.14,.18-4.65,.52-2.73,.89-3.83,1.64c-1.11,.74-1.91,1.64-2.6,2.87-.64,1.15-.96,2.46-.96,4.1,0,2.05,.59,3.83,1.78,5.2,1.18,1.5,3.01,2.6,5.33,3.69,.94,.38,1.78,.77,2.6,1.13s1.5,.75,2.05,1.15c.59,.4,1.05,.83,1.37,1.3,.34,.46,.52,1.01,.52,1.64,0,.44-.11,.85-.31,1.23s-.53,.71-.97,.98-.97,.49-1.64,.66c-.64,.15-1.37,.23-2.32,.23-1.5,0-3.01-.26-4.38-.78-1.5-.52-2.87-1.3-4.1-2.32l.26-.06Zm-11.48-16.82h8.75v-5.61H16.13v5.61h8.75v25.02h6.97v-25.02Z"/></g></g></g></svg>