<svg xmlns="http://www.w3.org/2000/svg" id="Layer_1" x="0" y="0" version="1.1" viewBox="0 0 500 672.9" xml:space="preserve">
  <defs/>
  <style>
    .st0{fill:#c3d8d7}.st1{fill:#e4f5f5}.st2{fill:#294a5f}.st3{fill:#f8b091}.st4{fill:none;stroke:#cf6e6e;stroke-width:1.8201;stroke-linecap:round;stroke-linejoin:round}.st5{fill:#f59064}.st8{fill:#f8b091;stroke:#f8b091;stroke-width:3;stroke-miterlimit:10}
  </style>
  <path d="M370.9 497.2h-.7c-4.4-28.5-31.2-50.4-63.4-50.4-16.7 0-31.9 5.8-43.3 15.5l107.3 129.1c28.3 0 51.3-21.1 51.3-47.1.1-26-22.9-47.1-51.2-47.1z" class="st0"/>
  <path d="M416.9 547.9c0 26-23 47.1-51.3 47.1H175.2c-28.3 0-51.3-21.1-51.3-47.1 0-23.3 18.5-42.7 42.7-46.4-.4-2.4-.6-4.9-.6-7.4 0-26 23-47.1 51.3-47.1 16.8 0 31.6 7.4 41 18.8 11.4-9.6 26.6-15.5 43.3-15.5 32.3 0 59 21.9 63.4 50.4h.7c28.3.1 51.2 21.2 51.2 47.2" class="st1"/>
  <g xmlns:vectornator="http://vectornator.io" id="OBJECTS">
    <g id="Capa_2_1_" vectornator:layerName="Capa 2">
      <path d="M333.4 352.5c-5.1.2-10.1.6-15 1.4-7.7 1.3-15.2 2.7-22.6 5.2-7.9 2.8-15.8 6.1-24.2 6.9-5.4.5-10.9-.1-16.4-.7-16-1.7-32.5-4.7-48.5-4.3-8.3.2-16.4.2-24.6 1.3-7.3.9-16.6 1.8-23.3 5.2-10.2 3.3-19.9 8.5-27.3 16.1-5.7 5.8-10.2 14.2-7.7 22 2.5 7.5 10.6 11.6 18.3 13.6 38 9.6 75.3-12.2 112.3-17.6 22-3.2 42-.1 63.3 4.9 11.9 2.8 23.8 6 35.8 8 18.5 3 44.3 5.2 56.8-11.7 2-2.7 3.6-5.8 3.9-9.2.6-6-3.2-11.6-7.3-16-9.5-9.9-22-16.5-35.2-20.3-12.1-3.4-25.3-5.2-38.3-4.8z" class="st2"/>
      <path d="M421.6 228c2 .2 3.4 1.3 4 3.4.7 2.5.2 4.9-1.2 7.8.4-.5.8-.8 1.1-1.1 2.6-2.5 4.5-4.6 6.3-6.8 1.1-1.3 2.5-2.5 3.8-2.8.4-.1.9-.1 1.4-.1.5.1 1 .3 1.2.6.5.8.4 1.7-.2 2.8-.2.3-.4.7-.7 1-.2.3-.9 1.2-.9 1.2-1.2 1.6-2.2 2.9-4.6 5.6l-2.8 3.5c.7-.6 1.3-1.1 2.5-2.2l.2-.2c2.8-2.5 4.1-3.6 5.8-4.8 1.2-.8 2.1-1.4 3-1.9l.6-.3c.6-.2 1-.2 1.5.2 1 .8.8 2-.1 3.3-.4.7-1 1.3-1.5 1.9-2.1 2.2-3.9 4-7.5 7.6-.3.3-1.8 1.7-2.2 2.2-.2.2-.4.5-.7.7 1.4-1 2.7-1.9 5.1-3.6.2-.2 3.1-2.2 4.1-3 .4-.3 1.5-.8 2.3-1.1 1.6-.6 2.9-.5 3.1 1.1 0 .2 0 .4-.1.6-.1.5-.5.8-1 1.3-.1.1-.5.4-.5.5-.7.6-1.2 1.1-2.5 2.2l-2.8 2.4c-1.3 1.2-2.4 2.2-4.9 4.3 0 0-4 3.5-5.4 4.9-3.7 3.7-6.9 6.5-10.1 8.8-.5.4-.8.9-1.4 2-.3.5-.3.5-.4.7s-.1.3-.2.5c-.7 1.3-1.2 2.4-2.2 4.9-.1.2-1.1 2.6-1.4 3.4-.1.1-.2.2-.3.2 0 .4-.1.7-.5.9-.5.2-1.1 0-1.3-.5-.2-.4-.4-.7-.9-1.3 0 0-.6-.7-.8-1-1-1.5-2.1-2.7-4.2-5.1-.2-.2-.1-.2-.3-.4-1.9-2.1-2.9-3.3-3.9-4.7-.1-.1-.1-.3-.1-.4h-.2c-.5-.2-.7-.8-.5-1.3.4-1 .9-1.8 1.8-3.5 0 0 1.3-2.5 1.8-3.5l.4-.8c.1-.1.1-.2.2-.3.4-.7.5-1.2.5-1.7 0-.6-.1-1.1-.6-2.3-.1-.3-.2-.5-.2-.6-.1-.4-.3-.8-.3-1.1-.7-2.9-.6-5.9.3-8.3 1.1-3 2.7-5.5 4.8-7.5.1-.1.2-.3.5-.6.6-.7 1.1-1 1.8-1.2.4-.1.7-.1 1-.1 0-.3 0-.6.2-1 1.4-2.7 5.2-5.4 8-5.8.7.4 1.4.4 2.1.4zm-2.2 6.8c-.7.1-1.3.3-2.5.9 0 0-1.9.8-2.8 1-.5.1-1 0-1.4-.2 0 .1.1.2.1.3.2.2.2.5.2.8-.2.7-.4 1.1-1.3 2.6 0 .1-.1.3-.2.4l-.1.1c-.1.1-.2.3-.2.4-.5 1-.8 1.7-.7 2.1.2 1.1 2.1 1.2 3.6.4 2.4-1.4 4.3-3.7 5.6-6.4.4-1 .6-1.7.5-2.2-.1-.2-.4-.3-.8-.2z" class="st3"/>
      <path d="M424.4 253.5c-3.8-1.5-9.5 1.4-12.3 3.9" class="st4"/>
      <path d="M400.3 264.3s3.2 2.2 5 4.1 6.6 6.2 7.4 6.9c.8.7.9 1 .9 1l1.2-2.8-13.6-11c.1-.1-.9 1.8-.9 1.8z" class="st5"/>
      <path d="M119.1 239.9c-2-.1-3.6.6-4.5 2.6-1.1 2.4-1.1 4.8-.2 7.9-.3-.5-.6-.9-.9-1.3-2.1-3-3.7-5.3-5-7.8-.8-1.5-2-2.9-3.2-3.5-.4-.2-.9-.3-1.4-.3s-1 .1-1.3.4c-.7.7-.7 1.6-.3 2.8.1.4.3.7.5 1.1.2.4.7 1.3.7 1.4.9 1.8 1.7 3.2 3.5 6.3 0 0 1.3 2.2 2.2 3.9-.6-.7-1.1-1.3-2.1-2.6l-.2-.2c-2.3-2.9-3.4-4.3-4.8-5.7-1.1-1.1-1.9-1.8-2.7-2.4-.2-.1-.4-.3-.6-.4-.5-.3-1-.4-1.5-.1-1.1.6-1.1 1.8-.5 3.2.3.7.7 1.5 1.2 2.2 1.7 2.5 3.1 4.6 6.1 8.8.2.3 1.4 2 1.8 2.6.2.3.3.6.5.8-1.2-1.2-2.4-2.3-4.4-4.5-.2-.2-2.7-2.8-3.6-3.7-.4-.4-1.3-1.1-2-1.5-1.5-.8-2.8-1-3.2.5-.1.2-.1.4 0 .6.1.5.3.9.7 1.4.1.1.4.5.5.5.6.7 1 1.3 2.1 2.6 0 0 1.7 2.1 2.3 2.9 1.1 1.5 2 2.6 4 5.1 0 0 3.3 4.1 4.5 5.8 3 4.2 5.7 7.6 8.4 10.5.5.5.7 1 1 2.2.2.6.2.6.2.8 0 .2.1.3.1.5.5 1.4.8 2.6 1.3 5.2.1.2.6 2.7.8 3.6 0 .1.1.2.2.3-.1.4 0 .8.3 1 .4.3 1 .2 1.3-.3.2-.3.5-.6 1.1-1.1 0 0 .8-.6 1-.9 1.3-1.3 2.5-2.3 5.1-4.3.2-.1.2-.2.4-.3 2.3-1.8 3.4-2.7 4.6-3.9.1-.1.1-.2.2-.4h.1c.5-.1.8-.6.7-1.2-.3-1.1-.5-1.9-1.1-3.7 0 0-.9-2.7-1.1-3.7-.1-.3-.1-.5-.2-.8 0-.2-.1-.2-.1-.3-.2-.8-.3-1.3-.2-1.8.1-.6.3-1.1 1-2.1.2-.3.3-.4.3-.6.2-.4.4-.7.5-1 1.1-2.7 1.6-5.7 1.1-8.3-.6-3.1-1.7-5.9-3.5-8.2-.1-.1-.2-.3-.4-.7-.5-.8-.9-1.2-1.5-1.5-.3-.2-.7-.2-1-.2 0-.3.1-.6 0-1-1-2.9-4.2-6.3-6.9-7.1-.5.1-1.2 0-1.9-.1zm1 7.1c.7.2 1.2.5 2.3 1.3 0 0 1.8 1.2 2.6 1.5.4.2.9.1 1.4.1 0 .1-.1.2-.1.3-.2.2-.3.5-.3.8.1.7.2 1.2.8 2.8 0 .1.1.3.1.4v.1c0 .1.1.3.1.4.4 1.1.5 1.8.3 2.2-.4 1.1-2.2.9-3.6-.2-2.1-1.8-3.6-4.4-4.3-7.3-.3-1.1-.3-1.8-.1-2.3.1-.2.4-.3.8-.1z" class="st3"/>
      <path d="M111.9 264.5c4.1-.8 9.1 3 11.4 6" class="st4"/>
      <path d="M133.2 278.1l-13.5 15.8-.9-4 14-13.8.4 2z" class="st5"/>
      <path d="M283.7 169.8c1.2-4.9.8-7.9-.7-12.7-2-6.3-8.9-11.2-14-14.9-6.2-4.5-13.2-8-20.8-9.4-11.8-2.2-25.2 1.4-32.5 11-2.7 3.6-4.5 7.8-7.4 11.3-8.4 10.3-23.5 11.7-35 18.4-15.2 8.8-27.8 30.1-16.2 46.1 3.6 5 8.1 9.8 9.2 16 .5 2.8.2 5.6.8 8.4.5 2.8 2.1 5.6 4.8 6.4 3.3 1 6.8-1.5 10.3-1 3 .4 5.3 3 6.8 5.6s2.7 5.6 4.8 7.8c8 8.2 18.8-.8 26.1-5.1 3.4-2 6.4-1.9 10.1-.3 6.4 2.7 12.3 6.5 18.9 8.4 9.8 2.8 18.7-.2 24.3-8.7 2.4-3.7 4.1-7.8 4.9-12.1.4-2.2.7-4.5 1.6-6.5 1.6-3.3 4.9-5.5 7.8-7.7 6.5-5.1 8-13.6 6.1-21.5-1.7-7-5.3-13.3-8.5-19.6-.7-1.4-1-3.1-1.7-4.6-1.1-2.4-2.4-4.6-2.9-7.2-.5-4.4 2-3.1 3.2-8.1z" class="st2"/>
      <path d="M272.2 224c-2.2-.1-4.5.1-6.7.3-.8 0-1.6-.1-2.6 0-.3 0-.5.1-1.1.2-1.1.2-1.6.2-2.2.3-.5 0-3.9.3-4.7.3-2.2.2-5.9.7-6.1.8-1.1.2-2 .3-4 .5-3.2.3-19.5 5.8-20.2 6.1-10.5 4.5-18 10.7-22 19.2-2.7 5.8-7.7 21.7-7.8 21.9-4.5 14.7-7 21.2-11.5 28.5-.5.8-9.6 14.2-13.1 15.5-22.7 8.7-31.7-26.7-35.4-41.5-6 5.9-11.4 12.4-16.1 19.3-.5.8-1 1.5-1.2 2.4-.1 1 .2 2 .6 3 3.8 10.4 7.8 21 14.5 29.8s16.6 15.9 27.7 16.4c10.1.5 20-4.6 27.1-11.9 7.1-7.2 11.9-16.5 15.8-25.8 3.6-8.7 6.1-19.9 11.8-27.4 1.8 4 2.2 8.8 3.8 12.9 1.5 3.8 3.5 8.1 4.3 12 1 5.5 0 12.1-.4 17.6-.9 12.7-4.2 25.4-4.2 38.1 0 1.6 11.5 4.8 12.9 5.2 6.2 1.7 12.6 2.8 19 3.2 14 .9 26.7-2.2 40-6 .6-.2.9-.3 2.1-.6 6.2-1.8 14-4.7 13.8-5.2-7.4-22.6-10.7-50.8-5-74 .4-1.8 1.1-3.6 1.6-5.5 2 2.1 8.6 7.9 8.9 8.1 9.3 8 18.6 16.1 29.5 21.9 11.2 6 24.8 9.7 37.1 5.4 11.9-4.1 21.5-13.5 29.3-23.1 1.2-1.4 5.9-8.6 5.9-8.7 1.1-1.5 2.4-5.2 2.5-5.3.2-.2-5.5-4.9-5.8-5.2l-.5-.5c-.5-.5-1.1-1-1.7-1.7-3.6-3.7-7.1-7.1-11.9-9.2-3.5 8.3-8.7 15.8-15.1 22.1-2.3 2.2-4.7 4.2-7.6 5.5-6.1 2.7-13.2 1.3-19.4-1.1-17.3-6.9-29.5-21.4-41-35.4-1.5-1.8-2.7-3.6-4.8-7-.1-.1-.6-.9-.7-1.1-4.6-7.2-7.3-10.6-11.7-13.3-7.3-4.2-15.5-6.7-23.7-7z" class="st1"/>
      <path d="M265.4 157.9c0 .7-4.1 8.9-5.9 11.7-5.5 8.5-9.2 12.1-15 17.9-1.1-.8-2.1-1.2-3.4-1.2-2 0-3.7.5-4.9 1.7-3.3 3.3-2.9 8.9 1.4 10.4.1 6.4 3.2 11.9 8.4 15.4-.1.1 0 19.1.4 20.2.6 1.9 2.4 3 4.8 3.9 4.3 1.4 12.9-1.6 13-1.7 1.2-.4 2.1-.8 2.4-1.6.2-.8.5-15.3.5-16.2 3.2-.5 6.3-1.4 8.9-2.8 3.6-2 7.9-7.1 9-8.5 2.8-3.8 3.8-8.3 4.1-15.5.6-12.8-5.5-24-8.1-26.3-5.9-5.3-15.6-7.8-15.6-7.4z" class="st3"/>
      <path fill="none" stroke="#99e1e5" stroke-linecap="round" stroke-linejoin="round" stroke-width="1.8201" d="M275.2 382.4c5.5.2 13.7-.7 19.2-1.2 10.6-.8 21.9.1 32.5-1 9.2-1 18.6.1 27.6 1.7 7.9 1.4 15.4 2.9 23 5.7"/>
      <path fill="none" stroke="#99e1e5" stroke-linecap="round" stroke-linejoin="round" stroke-width="2.4116" d="M245.6 385.9c-14.3.5-28.7-.9-43-1.1-14.2-.3-29 .1-41.9 6.7"/>
      <path d="M280.7 385.1c-.8-2.2-3.8-3.1-6.1-3.7-5.9-1.4-11.5 3.7-16.2 6.4-4.6 2.7-9.1 5.5-14.1 7.4-3.2 1.3-6.9 2.9-9 5.7-1.2 1.5-1.8 3.6-.8 5.4 4.6 8.4 10.7 3.8 14.3 1.7 8.6-5.2 16.5-8.3 24.8-14 2.9-1.9 8.4-5.2 7.1-8.9z" class="st8"/>
      <path d="M272.7 393.7c.4 1.3 3.3 1.6 4.5 2.1 4.7 2 9.6 2.7 13.3 6.5 1.3 1.3 3.2 3.4 2.4 5.4-2.2 5.1-10 1.6-13.6.9-8.6-1.8-16.9-5.6-24.8-9.3-3.9-1.8-8.7-4.4-9.4-9.2-.8-5.2 3.7-7.9 8.5-7.2 4.4.6 8.7 4 12.4 6.1 1.6.9 3.1 1.8 4.6 2.9.9.7 1.7.7 2.1 1.8z" class="st8"/>
      <path d="M246.1 213.9c0-.4 8.7 5.5 21 4.5.1 0-.1 5.9-.1 5.9s-1.5.3-3.7.5c-4.8.4-13.1.6-17.1-2.8-.4-.4-.3-5.4-.1-8.1zm-8.5-15.5c0-.1 1.9 2 6.2.9.2-.1-5.2 3.3-5.8 2.7-.4-.4-.4-3.3-.4-3.6zM260.1 403c0-.1 3.9-2.3 7.8-4.5.2-.1-1.6-2.7-1.4-2.8 3.5-2 8.8-1.4 8.8-1.4l2.3.7s15.9 4 16.2 11.5c0 .7-22.4-7.1-24.1-6.6-3.7 1.2-6.4 4-6.5 4.2-.3.3-3.1-1-3.1-1.1zm1.1-18.1l-15.7 8.8-.4-.6 15-8.8 1.1.6z" class="st5"/>
      <path fill="none" stroke="#cf6e6e" stroke-linecap="round" stroke-linejoin="round" stroke-width="3.3763" d="M275.5 180.7c1.6-2 3.4-2.4 5.5-.7m-21.1 2c1.7-2.4 4-2.2 6.4-1.1"/>
      <path fill="none" stroke="#cf6e6e" stroke-linecap="round" stroke-linejoin="round" stroke-width="1.538" d="M278.2 200.9c-3.9 4.2-10.4 4.6-15.5 2.7m-20.2-13.4c-2.2.1-3.8 3.4-3.3 5.2"/>
      <path d="M303.4 279.6c-.8.8-.4-1.9-.5-3-.4-3.5-.4-7-1.1-10.4-.4-2.1-1-4.1-1.4-6.2-.2-.7-.3-1.4-.5-2.1-.1-.4-.7-1.3-.3-1.2.2 0 .7.9.8 1.1l2.1 4.2c2.3 5.3 5.7 13.3.9 17.6zm-88.8 1.8c.5-1.8 1.1-3.6 1.8-5.4 0-.1.6-2 .9-1.9.2.1.1 1.3.1 1.4.1 1.2.3 2.6.5 3.8.8 5 2.1 9.9.4 14.8" class="st0"/>
      <path fill="none" stroke="#329297" stroke-linecap="round" stroke-linejoin="round" stroke-width="1.8201" d="M228.2 358.5c4.6-1 9.3-.3 13.9.1 3.5.3 7 .5 10.5.8 10.3.9 20.2.5 30.3-1.7m10.3-10.8c-13.8 2.7-27.8 5.9-41.9 6.5"/>
    </g>
    <path d="M288.9 384.3s-9.7-3-13.7-1.9-8.7 10.6-8.9 12.7 11.2 5.5 15.8 5.6c5.2 0 31.2 4.9 31.2 4.9l-18.6-19.4-5.8-1.9z" class="st2"/>
    <path fill="none" stroke="#cf6e6e" stroke-linecap="round" stroke-linejoin="round" d="M233.6 406.2s4-.2 5.9-2.7m-4.4 5.1s3.8-.2 5.6-2.7m-3.9 4.6s3.8-.2 5.7-2.7m-1.8 4.1s3.2-.6 4.9-3.1"/>
    <path d="M372.5 207.7l-3-3 3-3c.9-.9.9-2.3 0-3.2s-2.3-.9-3.2 0l-3 3-3-3c-.9-.9-2.3-.9-3.2 0-.9.9-.9 2.3 0 3.2l3 3-3 3c-.9.9-.9 2.3 0 3.2s2.3.9 3.2 0l3-3 3 3c.9.9 2.3.9 3.2 0 .9-.9.9-2.3 0-3.2zM288.3 58.9H284v-4.2c0-1.2-1-2.3-2.3-2.3s-2.3 1-2.3 2.3v4.2h-4.2c-1.2 0-2.3 1-2.3 2.3 0 1.2 1 2.3 2.3 2.3h4.2v4.2c0 1.2 1 2.3 2.3 2.3s2.3-1 2.3-2.3v-4.2h4.2c1.2 0 2.3-1 2.3-2.3s-1-2.3-2.2-2.3zm-207 98.7l-3-3 3-3c.9-.9.9-2.3 0-3.2s-2.3-.9-3.2 0l-3 3-3-3c-.9-.9-2.3-.9-3.2 0-.9.9-.9 2.3 0 3.2l3 3-3 3c-.9.9-.9 2.3 0 3.2s2.3.9 3.2 0l3-3 3 3c.9.9 2.3.9 3.2 0 .9-.9.9-2.3 0-3.2zm-8.1-95.5L67 56c-1.1-1.1-1.1-2.9 0-4l6.2-6.2c1.1-1.1 2.9-1.1 4 0l6.2 6.2c1.1 1.1 1.1 2.9 0 4l-6.2 6.2c-1.1 1.1-2.9 1.1-4-.1zm257.2 73l-6.2-6.2c-1.1-1.1-1.1-2.9 0-4l6.2-6.2c1.1-1.1 2.9-1.1 4 0l6.2 6.2c1.1 1.1 1.1 2.9 0 4l-6.2 6.2c-1.1 1.1-2.9 1.1-4 0zM164.6 63.4c.1-1.1 1.4-1.7 2.3-1.1l5.6 3.9 5.6 3.9c.9.7.8 2.1-.2 2.5l-6.2 2.8-6.2 2.8c-1 .5-2.2-.3-2.1-1.5l.6-6.8.6-6.5zm266.5 94.3c-.5-1 .2-2.2 1.3-2.2l6.8.2 6.8.2c1.1 0 1.8 1.3 1.2 2.2l-3.6 5.8-3.6 5.8c-.6 1-2 .9-2.5-.1l-3.2-6-3.2-5.9zm-262.6-20.2c-.3 0-.7-.1-1-.2-5.2-2.4-5.7-7.5-5.6-11.1 0-2.4-3.5-4.8-4.5-5.3-1.2-.6-1.7-2.1-1.1-3.4.6-1.2 2.1-1.7 3.4-1.1.7.4 7.3 4 7.2 9.8-.1 4.3 1 5.7 2.7 6.5 1.3.6 1.8 2.1 1.2 3.3-.4 1-1.4 1.5-2.3 1.5zm265.2-61.7c.1.3.1.7 0 1.1-1.1 5.6-5.9 7.3-9.5 8-2.4.5-3.8 4.5-4.1 5.6-.3 1.3-1.7 2.1-3 1.8-1.3-.3-2.1-1.7-1.8-3 .2-.8 2.2-8 7.9-9.2 4.2-.9 5.3-2.3 5.7-4.1.3-1.4 1.6-2.2 2.9-2 .9.1 1.6.9 1.9 1.8zM53.5 263.7c.3 0 .7 0 1 .2 5.3 2.1 6.1 7.2 6.2 10.8.1 2.4 3.8 4.6 4.7 5.1 1.3.6 1.8 2.1 1.2 3.3-.6 1.3-2.1 1.8-3.3 1.2-.8-.4-7.5-3.6-7.6-9.5-.1-4.3-1.3-5.6-3-6.3-1.3-.5-1.9-2-1.4-3.2.4-1 1.3-1.5 2.2-1.6zm396.7 40.9c.2.3.4.6.5.9 1.7 5.5-1.8 9.2-4.6 11.6-1.8 1.6-1.3 5.8-1 6.9.3 1.3-.5 2.7-1.8 3s-2.7-.5-3-1.8c-.2-.8-1.8-8.1 2.6-11.9 3.3-2.8 3.6-4.5 3-6.3-.4-1.3.3-2.7 1.7-3.1 1-.3 2 0 2.6.7z" class="st3"/>
  </g>
  <g id="DESIGNED_BY_FREEPIK" opacity=".01">
    <path d="M206.3 588.4v-.2c-.2.2-.4.4-.6.5-.2.2-.4.3-.7.4-.2.1-.5.1-.8.1-.4 0-.7-.1-1.1-.2l-.9-.6c-.2-.3-.4-.6-.5-1-.1-.4-.2-.8-.2-1.1 0-.9.2-1.6.7-2.1s1.1-.7 1.9-.7c.5 0 .9.1 1.1.2l.9.6v-2.1c0-.3.1-.5.2-.7.1-.2.3-.3.6-.3.2 0 .4.1.6.2.1.2.2.4.2.6v6.2c0 .3-.1.4-.2.6-.1.2-.3.2-.6.2-.2 0-.4-.1-.5-.2 0 0-.1-.2-.1-.4zm-3.1-2.1c0 .4.1.7.2 1 .1.3.3.4.6.6.2.2.5.2.8.2s.5-.1.8-.2c.2-.1.4-.4.6-.6.1-.3.2-.6.2-1s-.1-.7-.2-1c-.1-.3-.3-.4-.6-.6-.2-.2-.5-.2-.8-.2s-.6.1-.8.3c-.2.2-.4.4-.5.6-.2.2-.3.5-.3.9zm9.8.3h-3c0 .4.1.6.2.9.1.3.3.4.6.5.2.1.5.2.8.2.2 0 .4 0 .5-.1.2 0 .3-.1.5-.2s.3-.2.4-.3l.5-.4c.1-.1.2-.1.4-.1s.3 0 .4.1c.1.1.2.2.2.4 0 .1-.1.3-.2.4-.1.2-.3.4-.5.5-.2.2-.5.3-.9.4-.3.1-.8.2-1.1.2-1 0-1.7-.3-2.3-.8-.6-.5-.9-1.2-.9-2.1 0-.4.1-.8.2-1.1.1-.4.4-.7.6-1 .3-.3.6-.4 1-.6.4-.2.8-.2 1.2-.2.6 0 1.1.1 1.5.4.5.3.8.5 1 .9.2.4.3.8.3 1.1s-.1.6-.4.7c-.2.1-.5.2-1 .2zm-2.9-.8h2.8c0-.5-.2-.9-.4-1.1-.3-.3-.6-.4-1-.4s-.7.1-1 .4c-.2.3-.4.6-.4 1.1zm10 1.5c0 .4-.1.7-.3 1-.2.3-.5.5-1 .6-.4.2-.9.2-1.5.2s-1.1-.1-1.4-.3-.7-.4-.9-.6c-.2-.3-.3-.4-.3-.7 0-.2.1-.3.2-.4.1-.1.3-.2.5-.2s.3 0 .4.1l.3.3c.2.3.4.4.6.5s.5.2.9.2c.3 0 .6-.1.8-.2.2-.1.3-.3.3-.4 0-.3-.1-.4-.3-.5-.2-.1-.6-.3-1.1-.4-.6-.1-1-.3-1.3-.4-.4-.2-.6-.4-.8-.5-.2-.2-.3-.5-.3-.8 0-.3.1-.5.3-.8.2-.3.5-.4.9-.6.4-.2.8-.3 1.3-.3.4 0 .8 0 1.1.1.3.1.6.2.8.4.2.1.4.3.5.4l.2.4c0 .2-.1.3-.2.4-.1.1-.3.2-.5.2s-.3 0-.4-.1c-.1-.1-.3-.2-.4-.4-.1-.2-.3-.3-.4-.4-.2-.1-.4-.1-.7-.1-.3 0-.5.1-.7.2s-.3.3-.3.4.1.3.2.4c.1.1.3.2.6.3.2.1.6.2 1 .3.5.1.9.3 1.1.4.3.2.6.4.7.5 0 .3.1.6.1.8zm1.6-4.5c-.2 0-.4-.1-.6-.2s-.2-.3-.2-.5.1-.4.2-.5c.2-.1.4-.2.6-.2.2 0 .4.1.6.2s.2.3.2.5-.1.4-.2.5c-.2.1-.4.2-.6.2zm.8 1.4v4.1c0 .3-.1.5-.2.6-.2.2-.3.2-.6.2-.2 0-.4-.1-.6-.3-.1-.2-.2-.4-.2-.6v-3.9c0-.3.1-.5.2-.6.1-.2.3-.2.6-.2.2 0 .4.1.6.2.1 0 .2.2.2.5zm6.8.2v4.1c0 .4-.1.9-.2 1.2-.1.4-.3.6-.6.9-.3.3-.6.4-1 .5-.4.1-.9.2-1.4.2s-1.1-.1-1.4-.2l-1-.5c-.2-.1-.4-.4-.4-.7 0-.2.1-.4.2-.4.1-.1.3-.2.5-.2s.4.1.6.3l.3.3.3.3c.1.1.2.1.4.2.2 0 .3.1.5.1.4 0 .7-.1 1-.2.2-.1.4-.3.5-.4.1-.2.1-.4.2-.6v-1.1c-.2.3-.5.5-.9.7-.3.2-.7.3-1.1.3-.5 0-1-.1-1.3-.4-.4-.3-.7-.6-.9-1.1-.2-.4-.3-1-.3-1.5 0-.4.1-.8.2-1.1.1-.4.3-.6.6-.9.2-.3.5-.4.8-.5.3-.1.7-.2 1.1-.2.5 0 .9.1 1.1.3.3.2.6.4.9.7v-.2c0-.3.1-.4.2-.6.1-.2.3-.2.5-.2.3 0 .5.1.6.3-.1 0 0 .3 0 .6zm-4.5 1.8c0 .6.1 1.1.4 1.3.3.3.7.4 1.1.4.3 0 .5-.1.8-.2.2-.1.4-.4.6-.6.1-.3.2-.5.2-1 0-.6-.1-1.1-.4-1.3-.3-.4-.7-.5-1.1-.5-.5 0-.8.2-1.1.4-.4.5-.5 1-.5 1.5zm7-2v.2c.3-.4.6-.6.9-.7.3-.2.7-.3 1.1-.3.4 0 .8.1 1.1.3.3.2.6.4.8.7.1.2.2.4.2.5v3.4c0 .3-.1.5-.2.6-.1.2-.3.2-.6.2-.2 0-.4-.1-.6-.3s-.2-.4-.2-.6v-2.4c0-.4-.1-.8-.2-1.1-.1-.3-.4-.4-.9-.4-.3 0-.6.1-.8.3-.2.2-.4.4-.5.6-.1.2-.1.6-.1 1.2v1.8c0 .3-.1.5-.2.6-.2.2-.3.2-.6.2-.2 0-.4-.1-.6-.3s-.2-.4-.2-.6V584c0-.3.1-.4.2-.6.1-.2.3-.2.6-.2.1 0 .3 0 .4.1l.3.3c0 .2.1.4.1.6zm9.3 2.4H238c0 .4.1.6.2.9.1.3.3.4.6.5.2.1.5.2.8.2.2 0 .4 0 .5-.1.2 0 .3-.1.5-.2.1-.1.3-.2.4-.3l.5-.4c.1-.1.2-.1.4-.1s.3 0 .4.1c.1.1.2.2.2.4 0 .1-.1.3-.2.4-.1.2-.3.4-.5.5-.2.2-.5.3-.9.4-.4.1-.8.2-1.1.2-1 0-1.8-.3-2.3-.8-.6-.5-.9-1.2-.9-2.1 0-.4.1-.8.2-1.1.1-.4.4-.7.6-1 .3-.3.6-.4 1-.6.4-.2.8-.2 1.2-.2.6 0 1.1.1 1.5.4.5.3.8.5 1 .9.2.4.3.8.3 1.1s-.1.6-.4.7c-.1.1-.5.2-.9.2zm-2.9-.8h2.8c0-.5-.2-.9-.4-1.1-.3-.3-.6-.4-1-.4s-.7.1-1 .4c-.2.3-.4.6-.4 1.1zm9.2 2.6v-.2c-.2.2-.4.4-.6.5-.2.2-.4.3-.7.4-.2.1-.5.1-.8.1-.4 0-.7-.1-1.1-.2l-.9-.6c-.2-.3-.4-.6-.5-1-.1-.4-.2-.8-.2-1.1 0-.9.2-1.6.7-2.1s1.1-.7 1.9-.7c.5 0 .9.1 1.1.2l.9.6v-2.1c0-.3.1-.5.2-.7.1-.2.3-.3.6-.3.2 0 .4.1.6.2.1.2.2.4.2.6v6.2c0 .3-.1.4-.2.6-.1.2-.3.2-.6.2-.2 0-.4-.1-.5-.2 0 0-.1-.2-.1-.4zm-3-2.1c0 .4.1.7.2 1 .1.3.3.4.6.6.2.2.5.2.8.2s.5-.1.8-.2c.2-.1.4-.4.6-.6.1-.3.2-.6.2-1s-.1-.7-.2-1c-.1-.3-.3-.4-.6-.6-.2-.2-.5-.2-.8-.2s-.6.1-.8.3c-.2.2-.4.4-.5.6-.2.2-.3.5-.3.9zm9.4-4.2v2.2c.3-.3.6-.5.9-.6.3-.2.7-.3 1.1-.3.5 0 1 .1 1.3.4.4.3.7.5.9 1 .2.4.3 1 .3 1.5 0 .4-.1.8-.2 1.2-.1.4-.3.7-.5 1s-.5.4-.9.6c-.3.2-.7.2-1.1.2-.2 0-.5 0-.7-.1s-.4-.1-.6-.2-.3-.2-.4-.3l-.4-.4v.2c0 .3-.1.4-.2.6-.1.2-.3.2-.6.2-.2 0-.4-.1-.5-.2-.1-.2-.2-.4-.2-.6v-6.2c0-.3.1-.5.2-.6.1-.2.3-.3.6-.3.2 0 .4.1.6.2.3 0 .4.2.4.5zm0 4.2c0 .5.1 1 .4 1.3.3.3.7.4 1.1.4.4 0 .8-.2 1.1-.4.3-.4.4-.8.4-1.3 0-.4-.1-.7-.2-1-.1-.3-.3-.4-.5-.6-.2-.2-.5-.3-.8-.3-.3 0-.6.1-.8.3l-.6.6c0 .3-.1.6-.1 1zm6.6 3l.1-.4-1.9-4.4c-.1-.3-.2-.4-.2-.5s0-.3.1-.4l.3-.3c.1-.1.3-.1.4-.1.2 0 .4.1.5.2s.2.4.3.5l1.3 3.5 1.2-3.2c.1-.3.2-.4.3-.6.1-.2.2-.3.3-.3.1-.1.2-.1.4-.1.1 0 .2 0 .4.1l.3.3c.1.1.1.2.1.3s0 .2-.1.3c0 .1-.1.3-.1.4l-2 4.8-.5 1c-.2.3-.4.4-.7.5s-.7.2-1.1.2c-.5 0-.8-.1-1.1-.2-.2-.1-.4-.3-.4-.5s.1-.3.2-.4c.1-.1.3-.2.5-.2h.6c.2 0 .3 0 .4-.1l.3-.3c-.1.4-.1.2.1-.1zM282.8 583.5h.4v-.5c0-.4.1-.8.2-1.1.1-.3.3-.4.7-.6.3-.1.7-.2 1.2-.2.9 0 1.3.2 1.3.6 0 .1 0 .3-.2.4-.1.1-.2.2-.3.2h-.7c-.3 0-.5.1-.6.3s-.1.4-.1.6v.4h.4c.6 0 .9.2.9.5s-.1.4-.2.4c-.2.1-.4.1-.7.1h-.4v3.8c0 .3-.1.5-.2.6-.2.2-.3.3-.6.3-.2 0-.4-.1-.6-.3-.2-.2-.2-.4-.2-.6v-3.8h-.4c-.2 0-.4-.1-.6-.2-.1-.1-.2-.2-.2-.4.1-.4.4-.5.9-.5m5.1 3.7v1.2c0 .3-.1.5-.2.6-.2.2-.3.2-.6.2-.2 0-.4-.1-.6-.3-.1-.2-.2-.4-.2-.6v-3.9c0-.6.3-1 .8-1 .3 0 .5.1.6.3.1.2.2.4.2.7.2-.3.4-.5.6-.7.2-.2.5-.3.8-.3.3 0 .7.1 1 .3.3.2.5.4.5.6 0 .2-.1.4-.2.4s-.3.2-.4.2-.2 0-.4-.1-.4-.1-.6-.1c-.2 0-.4.1-.6.2-.2.1-.3.3-.4.5-.1.2-.1.4-.2.8 0 .2-.1.5-.1 1m7.1-.6h-3c0 .4.1.6.2.9.1.3.3.4.6.5.2.1.5.2.8.2.2 0 .4 0 .5-.1.2 0 .3-.1.5-.2s.3-.2.4-.3c.1-.1.3-.3.5-.4.1-.1.2-.1.4-.1s.3 0 .4.1c.1.1.2.2.2.4 0 .1-.1.3-.2.4-.1.2-.3.4-.5.5s-.5.3-.9.4c-.3.1-.8.2-1.1.2-1 0-1.8-.3-2.3-.8-.6-.5-.9-1.2-.9-2.1 0-.4.1-.8.2-1.1.1-.4.3-.7.6-1 .3-.3.6-.4 1-.6.4-.2.8-.2 1.2-.2.6 0 1.1.1 1.5.4.5.3.8.5 1 .9.2.4.3.8.3 1.1s-.1.6-.4.7c-.3.1-.6.2-1 .2m-3-.8h2.8c0-.5-.2-.9-.4-1.1-.3-.3-.6-.4-1-.4s-.7.1-1 .4c-.2.3-.3.6-.4 1.1m9.4.8h-3.1c0 .4.1.6.2.9.1.3.3.4.6.5.2.1.5.2.8.2.2 0 .4 0 .5-.1.2 0 .3-.1.5-.2s.3-.2.4-.3c.1-.1.3-.3.5-.4.1-.1.2-.1.4-.1s.3 0 .4.1.2.2.2.4c0 .1-.1.3-.2.4s-.3.4-.5.5c-.2.2-.5.3-.9.4-.3.1-.8.2-1.1.2-1 0-1.7-.3-2.3-.8-.6-.5-.9-1.2-.9-2.1 0-.4.1-.8.2-1.1.1-.4.3-.7.6-1 .3-.3.6-.4 1-.6.4-.2.8-.2 1.2-.2.6 0 1.1.1 1.5.4.4.3.8.5 1 .9.2.4.3.8.3 1.1s-.1.6-.4.7c-.1.1-.4.2-.9.2m-2.9-.8h2.8c0-.5-.2-.9-.4-1.1-.3-.3-.6-.4-1-.4s-.7.1-1 .4c-.2.3-.4.6-.4 1.1m6.4-1.6v.2c.3-.4.6-.6 1-.7.3-.2.7-.3 1.1-.3.5 0 1 .1 1.3.4.4.3.7.5 1 1 .2.4.4 1 .4 1.6 0 .4-.1.9-.2 1.2-.1.4-.3.7-.6.9-.2.3-.5.4-.9.6-.3.2-.7.2-1.1.2-.5 0-.9-.1-1.1-.3-.3-.2-.6-.4-.9-.7v2.1c0 .6-.3 1-.8 1-.3 0-.5-.1-.6-.3-.1-.2-.1-.4-.1-.7v-6.1c0-.3.1-.4.2-.6.1-.1.3-.2.6-.2.2 0 .4.1.6.2 0 0 .1.2.1.5m3 2.1c0-.4-.1-.7-.2-1-.1-.3-.3-.4-.5-.6-.2-.2-.5-.2-.8-.2-.4 0-.8.2-1.1.4-.3.4-.5.8-.5 1.4 0 .5.2 1 .5 1.3.3.4.7.4 1.1.4.3 0 .5-.1.7-.2l.6-.6c.1-.2.2-.6.2-.9m3.1-3.6c-.2 0-.4-.1-.6-.2s-.2-.3-.2-.5.1-.4.2-.5c.2-.1.4-.2.6-.2.2 0 .4.1.6.2.2.1.2.3.2.5s-.1.4-.2.5c-.2.2-.4.2-.6.2m.7 1.5v4.1c0 .3-.1.5-.2.6-.2.2-.4.3-.6.3-.2 0-.4-.1-.6-.3-.1-.2-.2-.4-.2-.6v-4c0-.3.1-.5.2-.6.2-.2.3-.2.6-.2.2 0 .4.1.6.2.2 0 .2.2.2.5m5 4.4l-1.3-2.1-.9.7v1.1c0 .3-.1.5-.2.6-.2.2-.4.3-.6.3-.2 0-.4-.1-.6-.3-.1-.2-.2-.4-.2-.6v-6.1c0-.4.1-.5.2-.7.1-.2.3-.3.6-.3.2 0 .4.1.6.3.1.2.2.4.2.7v3.4l1.7-1.7.5-.4c.1-.1.3-.1.4-.1.2 0 .4.1.5.2s.2.3.2.4-.2.5-.7.9l-.9.7 1.6 2.3c.1.2.2.3.3.4.1.1.1.2.1.3 0 .3-.1.4-.2.5s-.3.2-.6.2c-.2 0-.4-.1-.5-.2.2-.2 0-.4-.2-.5m3.5.6c-.2 0-.5-.1-.6-.2-.2-.2-.3-.4-.3-.6 0-.2.1-.4.3-.5.2-.2.4-.3.6-.3.2 0 .5.1.6.3.2.2.3.4.3.5 0 .3-.1.4-.3.6-.3.1-.5.2-.6.2m7.6-1.8c0 .2-.1.4-.2.5s-.3.4-.6.6c-.2.2-.6.4-.9.4-.4.1-.8.2-1.2.2-1 0-1.7-.3-2.2-.8-.6-.5-.8-1.2-.8-2 0-.6.1-1.1.4-1.6.3-.4.6-.8 1.1-1.1.5-.3 1.1-.4 1.6-.4.4 0 .8.1 1.1.2.4.1.6.3.9.4l.6.5c.1.2.2.4.2.5s-.1.4-.2.4-.3.2-.5.2c-.1 0-.2 0-.3-.1l-.3-.3c-.2-.3-.4-.4-.6-.6-.2-.2-.5-.2-.8-.2-.5 0-.9.2-1.1.5s-.4.8-.4 1.3c0 .3 0 .5.1.7.1.3.2.4.3.6s.3.3.5.4c.2.1.4.1.7.1.3 0 .6-.1.8-.2l.6-.6c.1-.2.2-.3.3-.4s.3-.2.4-.2c.2 0 .4.1.5.2v.8m6.7-1.1c0 .4-.1.8-.2 1.1-.2.4-.4.7-.7.9-.3.3-.6.4-1 .6-.4.2-.8.2-1.2.2s-.9-.1-1.2-.2c-.4-.2-.7-.4-1-.6-.3-.3-.5-.5-.7-.9-.1-.4-.2-.7-.2-1.1s.1-.8.2-1.1c.2-.4.4-.7.6-.9.3-.3.6-.4 1-.6.4-.2.8-.2 1.2-.2.5 0 .9.1 1.2.2.4.2.7.4 1 .6.3.3.5.5.6.9.3.3.4.6.4 1.1m-1.5 0c0-.6-.1-1.1-.4-1.3-.3-.4-.7-.5-1.1-.5-.3 0-.6.1-.8.2l-.6.6c-.1.3-.2.6-.2 1s.1.7.2 1 .3.5.6.6c.2.2.5.3.8.3.5 0 .9-.2 1.1-.5.2-.4.4-.8.4-1.4m7.4.1v1.9c0 .3-.1.5-.2.7-.2.2-.4.3-.6.3-.2 0-.4-.1-.6-.3-.2-.2-.2-.4-.2-.7V585.1c0-.2-.1-.4-.2-.5-.1-.1-.3-.2-.6-.2-.5 0-.9.2-1 .5-.2.4-.3.8-.3 1.4v1.9c0 .3-.1.5-.2.7-.2.2-.4.3-.6.3-.2 0-.4-.1-.6-.3-.2-.2-.2-.4-.2-.7v-4c0-.3.1-.4.2-.6.1-.2.3-.2.6-.2.2 0 .4.1.6.2.1.1.2.4.2.5v.2c.3-.3.6-.5.9-.6.3-.2.7-.2 1.1-.2s.8.1 1 .2c.3.2.5.4.7.6.3-.3.6-.5.9-.6.3-.2.7-.2 1-.2.4 0 .8.1 1.1.3.3.2.6.4.7.6.1.3.2.7.2 1.2v2.8c0 .3-.1.5-.2.7-.2.2-.4.3-.6.3-.2 0-.4-.1-.6-.3-.2-.2-.2-.4-.2-.7V585.3c0-.2-.1-.4-.2-.4s-.3-.2-.6-.2c-.2 0-.4.1-.6.2-.2.1-.3.3-.5.4-.3 0-.4.5-.4 1.1M268.4 586.4c0-.1-.1-.3-.1-.4.1.1.1.3.1.4zm.2.5c.1.3.2.4.3.6l-.3-.6zm5.7-6.4c.3 0 .5 0 .8.1l.1-.4s-.7-.2-1.6-.1l-.1-.3c.3-.1.5-.3.5-.5 0-.4-.3-.6-.7-.6-.4 0-.7.3-.7.6s.2.5.5.5l.1.3c-1 .1-1.7.4-1.7.4l.1.4c.6-.2 1.1-.3 1.5-.4h1.2zm-5.4 2.1s0-.1 0 0l-.1-.2-.3-.2s-.5.4-.9 1.1c0 0 0-.1-.1-.1-.1-.1-.3-.2-.5-.2-.1 0-.2 0-.3-.1.1-.1.1-.2.1-.3 0-.2-.2-.4-.4-.4s-.4.2-.4.4.2.4.4.4h.1c.1.1.3.2.5.2.1 0 .2 0 .3.1.1.1.1.2.1.3-.3.6-.2 1.5-.2 1.5h.7c0-.3.1-.8.2-1.2.4-.8.8-1.3.8-1.3zm10.9-1.7c-.2 0-.4.2-.4.4v.1c-.1.1-.2.3-.2.4 0 .1 0 .2-.1.3-.1 0-.1.1-.2.1-.5-.6-1.1-1-1.1-1l-.5.4c.4.3.7.6 1.1 1.1.2.4.5.7.7 1.1l.6-.3s-.3-.6-.7-1.2c.1 0 .1-.1.2-.1.1-.1.2-.3.2-.4 0-.1 0-.2.1-.3.1.1.2.1.3.1.2 0 .4-.2.4-.4 0-.1-.2-.3-.4-.3zm-1.6 5.1c-.9.4-2.2.9-4 1.1-.7.1-1.4.1-2 .1-.9 0-1.5-.1-2.1-.1-.7-.1-1.1-.2-1.4-.3l.3.6v.2c.2.4.4.6.7.9.9.9 1.7 1 1.7 1s.8.3 2 .3c1.1 0 2.3-.2 3.3-.6.8-.4 1.5-1 1.9-1.5.3-.4.5-.8.7-1.2.1-.3.1-.6.1-1-.3.1-.6.3-1.2.5z" class="st2"/>
    <path d="M269.2 582.8s-.4.5-.7 1.2c-.2.5-.2 1.3-.2 1.3v.6c0 .1 0 .3.1.4.4.1 2.9.6 5.7.3 1.7-.3 3.1-.7 3.9-1.1.7-.3 1.1-.5 1.2-.7-.2-.5-.7-1.5-1.1-2-1.2-1.6-2.5-2-3.2-2.1-.3 0-.5-.1-.8-.1-.3 0-.6 0-1.1.1-.5 0-1 .2-1.5.4-.8.3-1.5.6-2.1 1.1.2.2 0 .3-.2.6zm7.3-.4c.6 0 1.1.4 1.1 1s-.5 1-1.1 1c-.6 0-1.1-.4-1.1-1s.5-1 1.1-1zm-4.9 0c1 0 1.7.7 1.7 1.6s-.8 1.6-1.7 1.6c-1 0-1.7-.7-1.7-1.6 0-1 .8-1.6 1.7-1.6z" class="st2"/>
  </g>
  <path d="M242.9 548.5c-2.7-2.9-4-6.8-4-11.8s1.3-9 4-11.8c2.7-2.9 6.6-4.3 11.8-4.3 5.2 0 9.1 1.4 11.8 4.3 2.7 2.9 4 6.8 4 11.8s-1.3 9-4 11.8-6.6 4.3-11.8 4.3c-5.2 0-9.1-1.4-11.8-4.3zm16.2-6c.9-1.4 1.4-3.4 1.4-5.9 0-2.5-.5-4.4-1.4-5.9s-2.4-2.1-4.4-2.1c-2 0-3.5.7-4.4 2.1s-1.4 3.4-1.4 5.9c0 2.5.5 4.4 1.4 5.9s2.4 2.1 4.4 2.1c2 .1 3.4-.6 4.4-2.1z" class="st0"/>
  <path d="M283 528.7c-4.1 0-6.2 2.7-6.2 8s2.1 8 6.3 8c3.4 0 6.3-1.1 8.8-3.2 1.2 1.4 1.9 3.2 1.9 5.5 0 1.6-.8 2.9-2.3 3.8-.9.6-2.2 1.1-3.7 1.5-1.6.4-3.1.6-4.7.6-5.4 0-9.4-1.4-12.1-4.3-2.7-2.8-4.1-6.8-4.1-11.9 0-5 1.3-9 4-11.8 2.7-2.9 6.7-4.3 12-4.3 3.3 0 6 .6 8.1 1.9 1.5.9 2.3 2.2 2.3 3.8 0 2.3-.6 4.1-1.9 5.5-2.3-2.1-5.1-3.1-8.4-3.1z" class="st0"/>
</svg>
