<svg xmlns="http://www.w3.org/2000/svg" viewBox="0 0 298.2 149.1">
  <defs/>
  <defs>
    <style>
      .cls-1{fill:#c3d8d7}.cls-4{fill:#294a5f}
    </style>
  </defs>
  <g id="cloud">
    <path d="M247 51.75h-.7c-4.4-28.5-31.2-50.4-63.4-50.4a66.57 66.57 0 00-43.3 15.5L246.9 146c28.3 0 51.3-21.1 51.3-47.1S275.3 51.8 247 51.8z" class="cls-1"/>
    <path fill="#e4f5f5" d="M293 102.45c0 26-23 47.1-51.3 47.1H51.3c-28.3 0-51.3-21.1-51.3-47.1 0-23.3 18.5-42.7 42.7-46.4a45.24 45.24 0 01-.6-7.4c0-26 23-47.1 51.3-47.1a52.9 52.9 0 0141 18.8 67.11 67.11 0 0143.3-15.5c32.3 0 59 21.9 63.4 50.4h.7c28.3.1 51.2 21.2 51.2 47.2"/>
    <g opacity=".01">
      <path d="M82.4 143v-.2a2.65 2.65 0 01-.6.5 1.61 1.61 0 01-.7.4 2 2 0 01-.8.1 4.25 4.25 0 01-1.1-.2l-.9-.6a3.13 3.13 0 01-.5-1 5.16 5.16 0 01-.2-1.1 2.82 2.82 0 01.7-2.1 2.49 2.49 0 011.9-.7 2.68 2.68 0 011.1.2l.9.6v-2.1a1.45 1.45 0 01.2-.7.6.6 0 01.6-.3.71.71 0 01.8.8v6.2a1.07 1.07 0 01-.2.6c-.1.2-.3.2-.6.2a.76.76 0 01-.5-.2 1 1 0 01-.1-.4zm-3.1-2.1a3 3 0 00.2 1c.1.3.3.4.6.6a1.08 1.08 0 00.8.2 2.35 2.35 0 00.8-.2c.2-.1.4-.4.6-.6a2.6 2.6 0 000-2c-.1-.3-.3-.4-.6-.6a1.08 1.08 0 00-.8-.2 1.14 1.14 0 00-.8.3 2.65 2.65 0 00-.5.6 1.22 1.22 0 00-.3.85zm9.8.3h-3a2.39 2.39 0 00.2.9c.1.3.3.4.6.5a1.88 1.88 0 00.8.2.75.75 0 00.5-.1c.2 0 .3-.1.5-.2a1.38 1.38 0 00.4-.3l.5-.4c.1-.1.2-.1.4-.1s.3 0 .4.1a.52.52 0 01.2.4.76.76 0 01-.2.4 1.21 1.21 0 01-.5.5 1.88 1.88 0 01-.9.4 4.25 4.25 0 01-1.1.2 3.37 3.37 0 01-2.3-.8 2.58 2.58 0 01-.9-2.1 3.59 3.59 0 01.2-1.1 2.4 2.4 0 011.6-1.6 2.54 2.54 0 011.2-.2 2.41 2.41 0 011.5.4 2.23 2.23 0 011 .9 2.61 2.61 0 01.3 1.1.67.67 0 01-.4.7 2.15 2.15 0 01-1 .2zm-2.9-.8H89a1.6 1.6 0 00-.4-1.1 1.45 1.45 0 00-2 0 1.82 1.82 0 00-.4 1.1zm10 1.5a1.69 1.69 0 01-.3 1 1.44 1.44 0 01-1 .6 3.42 3.42 0 01-1.5.2 2.65 2.65 0 01-1.4-.3 7 7 0 01-.9-.6c-.2-.3-.3-.4-.3-.7a.52.52 0 01.2-.4.76.76 0 01.5-.2c.2 0 .3 0 .4.1l.3.3a1.33 1.33 0 00.6.5 2 2 0 00.9.2 1.88 1.88 0 00.8-.2.54.54 0 00.3-.4.46.46 0 00-.3-.5 4.33 4.33 0 00-1.1-.4 6.83 6.83 0 01-1.3-.4c-.4-.2-.6-.4-.8-.5a1.14 1.14 0 01-.3-.8 1.33 1.33 0 01.3-.8 2 2 0 01.9-.6 2.77 2.77 0 011.3-.3 3.75 3.75 0 011.1.1 2 2 0 01.8.4 2.18 2.18 0 01.5.4l.2.4a.52.52 0 01-.2.4.76.76 0 01-.5.2c-.2 0-.3 0-.4-.1s-.3-.2-.4-.4-.3-.3-.4-.4a1.48 1.48 0 00-.7-.1 1.45 1.45 0 00-.7.2.54.54 0 00-.3.4.76.76 0 00.2.4 1.63 1.63 0 00.6.3 6.21 6.21 0 001 .3 4.33 4.33 0 011.1.4 6.82 6.82 0 01.7.5c0 .3.1.6.1.8zm1.6-4.5a1.42 1.42 0 01-.6-.2c-.2-.1-.2-.3-.2-.5a.76.76 0 01.2-.5 1 1 0 011.2 0c.2.1.2.3.2.5a.76.76 0 01-.2.5 1.42 1.42 0 01-.6.15zm.8 1.4v4.1a.85.85 0 01-.2.6c-.2.2-.3.2-.6.2a.86.86 0 01-.6-.3 1.42 1.42 0 01-.2-.6v-3.9a.85.85 0 01.2-.6c.1-.2.3-.2.6-.2a1.42 1.42 0 01.6.2c.1-.05.2.15.2.45zm6.8.2v4.1a4.3 4.3 0 01-.2 1.2 1.8 1.8 0 01-.6.9 1.91 1.91 0 01-1 .5 5.9 5.9 0 01-1.4.2 5.21 5.21 0 01-1.4-.2l-1-.5a.84.84 0 01-.4-.7c0-.2.1-.4.2-.4a.76.76 0 01.5-.2.86.86 0 01.6.3l.3.3.3.3c.1.1.2.1.4.2s.3.1.5.1a3 3 0 001-.2 2.18 2.18 0 00.5-.4c.1-.2.1-.4.2-.6v-1.1a2.18 2.18 0 01-.9.7 2 2 0 01-1.1.3 1.84 1.84 0 01-1.3-.4 2.44 2.44 0 01-.9-1.1 3.65 3.65 0 01-.3-1.5 3.59 3.59 0 01.2-1.1 1.8 1.8 0 01.6-.9 1.37 1.37 0 01.8-.5 3.59 3.59 0 011.1-.2 1.61 1.61 0 011.1.3 5.5 5.5 0 01.9.7v-.2a1.07 1.07 0 01.2-.6c.1-.2.3-.2.5-.2a.6.6 0 01.6.3c-.1 0 0 .3 0 .6zm-4.5 1.8c0 .6.1 1.1.4 1.3a1.5 1.5 0 001.1.4 2.35 2.35 0 00.8-.2c.2-.1.4-.4.6-.6a2.51 2.51 0 00.2-1c0-.6-.1-1.1-.4-1.3a1.27 1.27 0 00-1.1-.5 1.82 1.82 0 00-1.1.4 2.26 2.26 0 00-.5 1.5zm7-2v.2a1.85 1.85 0 01.9-.7 2.17 2.17 0 012.2 0 2.7 2.7 0 01.8.7 1.69 1.69 0 01.2.5v3.4a.85.85 0 01-.2.6c-.1.2-.3.2-.6.2a.86.86 0 01-.6-.3.73.73 0 01-.2-.6v-2.4a3.59 3.59 0 00-.2-1.1c-.1-.3-.4-.4-.9-.4a1.14 1.14 0 00-.8.3 2.65 2.65 0 00-.5.6 3.45 3.45 0 00-.1 1.2v1.8a.85.85 0 01-.2.6c-.2.2-.3.2-.6.2a.86.86 0 01-.6-.3.73.73 0 01-.2-.6v-4.1a1.07 1.07 0 01.2-.6c.1-.2.3-.2.6-.2a.6.6 0 01.4.1l.3.3c0 .2.1.4.1.6zm9.3 2.4h-3.1a2.39 2.39 0 00.2.9c.1.3.3.4.6.5a1.88 1.88 0 00.8.2.75.75 0 00.5-.1c.2 0 .3-.1.5-.2s.3-.2.4-.3l.5-.4c.1-.1.2-.1.4-.1s.3 0 .4.1a.52.52 0 01.2.4.76.76 0 01-.2.4 1.21 1.21 0 01-.5.5 1.88 1.88 0 01-.9.4 5.16 5.16 0 01-1.1.2 3.2 3.2 0 01-2.3-.8 2.58 2.58 0 01-.9-2.1 3.59 3.59 0 01.2-1.1 2.4 2.4 0 011.6-1.6 2.54 2.54 0 011.2-.2 2.41 2.41 0 011.5.4 2.23 2.23 0 011 .9 2.61 2.61 0 01.3 1.1.67.67 0 01-.4.7 1.69 1.69 0 01-.9.2zm-2.9-.8h2.8a1.6 1.6 0 00-.4-1.1 1.45 1.45 0 00-2 0 1.82 1.82 0 00-.4 1.1zm9.2 2.6v-.2a2.65 2.65 0 01-.6.5 1.61 1.61 0 01-.7.4 2 2 0 01-.8.1 4.25 4.25 0 01-1.1-.2l-.9-.6a3.13 3.13 0 01-.5-1 5.16 5.16 0 01-.2-1.1 2.82 2.82 0 01.7-2.1 2.49 2.49 0 011.9-.7 2.68 2.68 0 011.1.2l.9.6v-2.1a1.45 1.45 0 01.2-.7.6.6 0 01.6-.3.71.71 0 01.8.8v6.2a1.07 1.07 0 01-.2.6c-.1.2-.3.2-.6.2a.76.76 0 01-.5-.2 1 1 0 01-.1-.4zm-3-2.1a3 3 0 00.2 1c.1.3.3.4.6.6a1.08 1.08 0 00.8.2 2.35 2.35 0 00.8-.2c.2-.1.4-.4.6-.6a2.6 2.6 0 000-2c-.1-.3-.3-.4-.6-.6a1.08 1.08 0 00-.8-.2 1.14 1.14 0 00-.8.3 2.65 2.65 0 00-.5.6 1.22 1.22 0 00-.3.85zm9.4-4.2v2.2a2.36 2.36 0 01.9-.6 2 2 0 011.1-.3 1.84 1.84 0 011.3.4 2.19 2.19 0 01.9 1 3.65 3.65 0 01.3 1.5 5 5 0 01-.2 1.2 3.13 3.13 0 01-.5 1 2 2 0 01-.9.6 2 2 0 01-1.1.2 1.7 1.7 0 01-.7-.1c-.2-.1-.4-.1-.6-.2a1.38 1.38 0 01-.4-.3l-.4-.4v.2a1.07 1.07 0 01-.2.6c-.1.2-.3.2-.6.2a.76.76 0 01-.5-.2 1.42 1.42 0 01-.2-.6v-6.2a.85.85 0 01.2-.6.6.6 0 01.6-.3 1.42 1.42 0 01.6.2c.3 0 .4.2.4.5zm0 4.2a1.84 1.84 0 00.4 1.3 1.5 1.5 0 001.1.4 2.1 2.1 0 001.1-.4 2 2 0 00.4-1.3 3 3 0 00-.2-1c-.1-.3-.3-.4-.5-.6a1.22 1.22 0 00-1.6 0l-.6.6c0 .3-.1.6-.1 1zm6.6 3l.1-.4-1.9-4.4c-.1-.3-.2-.4-.2-.5a.6.6 0 01.1-.4l.3-.3a.6.6 0 01.4-.1.76.76 0 01.5.2c.1.1.2.4.3.5l1.3 3.5 1.2-3.2a3.33 3.33 0 01.3-.6q.15-.3.3-.3c.1-.1.2-.1.4-.1a.76.76 0 01.4.1l.3.3a.5.5 0 010 .6c0 .1-.1.3-.1.4l-2 4.8-.5 1a1.16 1.16 0 01-.7.5 3.59 3.59 0 01-1.1.2 3.09 3.09 0 01-1.1-.2.66.66 0 01-.4-.5.52.52 0 01.2-.4.76.76 0 01.5-.2h.6c.2 0 .3 0 .4-.1l.3-.3c-.1.4-.1.2.1-.1zm22.4-5.8h.4v-.5a3.59 3.59 0 01.2-1.1c.1-.3.3-.4.7-.6a3.73 3.73 0 011.2-.2c.9 0 1.3.2 1.3.6a.4.4 0 01-.2.4c-.1.1-.2.2-.3.2h-.7a.6.6 0 00-.6.3 1.27 1.27 0 00-.1.6v.4h.4c.6 0 .9.2.9.5s-.1.4-.2.4a1.48 1.48 0 01-.7.1h-.4v3.8a.85.85 0 01-.2.6.71.71 0 01-.6.3.86.86 0 01-.6-.3.73.73 0 01-.2-.6v-3.8h-.4a1.42 1.42 0 01-.6-.2.52.52 0 01-.2-.4c.1-.4.4-.5.9-.5m5.1 3.7v1.2a.85.85 0 01-.2.6c-.2.2-.3.2-.6.2a.86.86 0 01-.6-.3 1.42 1.42 0 01-.2-.6V139c0-.6.3-1 .8-1a.6.6 0 01.6.3 1.45 1.45 0 01.2.7 4.35 4.35 0 01.6-.7 1.14 1.14 0 01.8-.3 1.93 1.93 0 011 .3c.3.2.5.4.5.6s-.1.4-.2.4-.3.2-.4.2a.76.76 0 01-.4-.1 1.27 1.27 0 00-.6-.1 1.42 1.42 0 00-.6.2 1 1 0 00-.4.5 4.54 4.54 0 00-.2.8c0 .2-.1.5-.1 1m7.1-.6h-3a2.39 2.39 0 00.2.9c.1.3.3.4.6.5a1.88 1.88 0 00.8.2.75.75 0 00.5-.1c.2 0 .3-.1.5-.2a1.38 1.38 0 00.4-.3 2.18 2.18 0 01.5-.4c.1-.1.2-.1.4-.1s.3 0 .4.1a.52.52 0 01.2.4.76.76 0 01-.2.4 1.21 1.21 0 01-.5.5 3.92 3.92 0 01-.9.4 4.25 4.25 0 01-1.1.2 3.2 3.2 0 01-2.3-.8 2.58 2.58 0 01-.9-2.1 3.59 3.59 0 01.2-1.1 2.07 2.07 0 01.6-1 3.33 3.33 0 011-.6 2.54 2.54 0 011.2-.2 2.41 2.41 0 011.5.4 2.23 2.23 0 011 .9 2.61 2.61 0 01.3 1.1.67.67 0 01-.4.7 3 3 0 01-1 .2m-3-.8h2.8a1.6 1.6 0 00-.4-1.1 1.45 1.45 0 00-2 0 2.82 2.82 0 00-.4 1.1m9.4.8h-3.1a2.39 2.39 0 00.2.9c.1.3.3.4.6.5a1.88 1.88 0 00.8.2.75.75 0 00.5-.1c.2 0 .3-.1.5-.2a1.38 1.38 0 00.4-.3 2.18 2.18 0 01.5-.4c.1-.1.2-.1.4-.1s.3 0 .4.1a.52.52 0 01.2.4.76.76 0 01-.2.4c-.1.1-.3.4-.5.5a1.88 1.88 0 01-.9.4 4.25 4.25 0 01-1.1.2 3.37 3.37 0 01-2.3-.8 2.58 2.58 0 01-.9-2.1 3.59 3.59 0 01.2-1.1 2.07 2.07 0 01.6-1 3.33 3.33 0 011-.6 2.54 2.54 0 011.2-.2 2.41 2.41 0 011.5.4c.4.3.8.5 1 .9a2.61 2.61 0 01.3 1.1.67.67 0 01-.4.7 1.44 1.44 0 01-.9.2m-2.9-.8h2.8a1.6 1.6 0 00-.4-1.1 1.45 1.45 0 00-2 0 1.82 1.82 0 00-.4 1.1m6.4-1.6v.2a1.69 1.69 0 011-.7 2 2 0 011.1-.3 1.84 1.84 0 011.3.4 3.18 3.18 0 011 1 3.77 3.77 0 01.4 1.6 4.3 4.3 0 01-.2 1.2 1.46 1.46 0 01-.6.9 2 2 0 01-.9.6 2 2 0 01-1.1.2 1.61 1.61 0 01-1.1-.3 5.5 5.5 0 01-.9-.7v2.1c0 .6-.3 1-.8 1a.6.6 0 01-.6-.3 1.48 1.48 0 01-.1-.7v-6.1a1.07 1.07 0 01.2-.6.85.85 0 01.6-.2 1.42 1.42 0 01.6.2 1.21 1.21 0 01.1.5m3 2.1a3 3 0 00-.2-1c-.1-.3-.3-.4-.5-.6a1.08 1.08 0 00-.8-.2 2.1 2.1 0 00-1.1.4 2.17 2.17 0 00-.5 1.4 1.9 1.9 0 00.5 1.3 1.19 1.19 0 001.1.4 1.45 1.45 0 00.7-.2l.6-.6a2.39 2.39 0 00.2-.9m3.1-3.6a1.42 1.42 0 01-.6-.2c-.2-.1-.2-.3-.2-.5a.76.76 0 01.2-.5 1 1 0 011.2 0c.2.1.2.3.2.5a.76.76 0 01-.2.5.73.73 0 01-.6.2m.7 1.5v4.1a.85.85 0 01-.2.6.75.75 0 01-1.2 0 1.42 1.42 0 01-.2-.6v-4a.85.85 0 01.2-.6c.2-.2.3-.2.6-.2a1.42 1.42 0 01.6.2c.2 0 .2.2.2.5m5 4.4l-1.3-2.1-.9.7v1.1a.85.85 0 01-.2.6.75.75 0 01-1.2 0 1.42 1.42 0 01-.2-.6v-6.1a1.17 1.17 0 01.2-.7.6.6 0 01.6-.3.86.86 0 01.6.3 1.45 1.45 0 01.2.7v3.4l1.7-1.7.5-.4a.6.6 0 01.4-.1.69.69 0 01.7.6 1.85 1.85 0 01-.7.9l-.9.7 1.6 2.3a1.38 1.38 0 00.3.4.37.37 0 01.1.3.59.59 0 01-.2.5.85.85 0 01-.6.2.76.76 0 01-.5-.2c.2-.2 0-.4-.2-.5m3.5.6a1.07 1.07 0 01-.6-.2.86.86 0 01-.3-.6.55.55 0 01.3-.5.86.86 0 01.6-.3.71.71 0 01.6.3.91.91 0 01.3.5.71.71 0 01-.3.6 3.93 3.93 0 01-.6.2m7.6-1.8a.76.76 0 01-.2.5 3.29 3.29 0 01-.6.6 1.49 1.49 0 01-.9.4 5 5 0 01-1.2.2 3 3 0 01-2.2-.8 2.44 2.44 0 01-.8-2 2.93 2.93 0 01.4-1.6 3.84 3.84 0 011.1-1.1 3.17 3.17 0 011.6-.4 3.59 3.59 0 011.1.2 7.93 7.93 0 01.9.4l.6.5a1.69 1.69 0 01.2.5c0 .1-.1.4-.2.4s-.3.2-.5.2a.37.37 0 01-.3-.1l-.3-.3a3.39 3.39 0 00-.6-.6 1.08 1.08 0 00-.8-.2 1.29 1.29 0 00-1.1.5 2.5 2.5 0 00-.4 1.3 1.48 1.48 0 00.1.7 3.33 3.33 0 00.3.6 1 1 0 00.5.4 1.48 1.48 0 00.7.1 1.88 1.88 0 00.8-.2l.6-.6a1.38 1.38 0 01.3-.4.6.6 0 01.9 0v.8m6.7-1.1a3.59 3.59 0 01-.2 1.1 2.18 2.18 0 01-.7.9 3.33 3.33 0 01-1 .6 2.54 2.54 0 01-1.2.2 4.3 4.3 0 01-1.2-.2 8.79 8.79 0 01-1-.6 3.11 3.11 0 01-.7-.9 4.25 4.25 0 01-.2-1.1 3.59 3.59 0 01.2-1.1 3.49 3.49 0 01.6-.9 3.33 3.33 0 011-.6 2.54 2.54 0 011.2-.2 3.73 3.73 0 011.2.2 8.79 8.79 0 011 .6 1.8 1.8 0 01.6.9 1.37 1.37 0 01.4 1.1m-1.5 0c0-.6-.1-1.1-.4-1.3a1.27 1.27 0 00-1.1-.5 1.88 1.88 0 00-.8.2l-.6.6a2.6 2.6 0 000 2 .9.9 0 00.6.6 1.14 1.14 0 00.8.3 1.29 1.29 0 001.1-.5 2.89 2.89 0 00.4-1.4m7.4.1v1.9a1.45 1.45 0 01-.2.7.75.75 0 01-1.2 0 .84.84 0 01-.2-.7v-3.2a.76.76 0 00-.2-.5.85.85 0 00-.6-.2 1 1 0 00-1 .5 2.9 2.9 0 00-.3 1.4v1.9a1.45 1.45 0 01-.2.7.75.75 0 01-1.2 0 .84.84 0 01-.2-.7v-4a1.07 1.07 0 01.2-.6c.1-.2.3-.2.6-.2a1.42 1.42 0 01.6.2 1.06 1.06 0 01.2.5v.2a2.36 2.36 0 01.9-.6 2 2 0 011.1-.2 2.51 2.51 0 011 .2 4.35 4.35 0 01.7.6 2.36 2.36 0 01.9-.6 1.8 1.8 0 011-.2 2 2 0 011.1.3 2.17 2.17 0 01.7.6 3.73 3.73 0 01.2 1.2v2.8a1.45 1.45 0 01-.2.7.75.75 0 01-1.2 0 .84.84 0 01-.2-.7v-3.1c0-.2-.1-.4-.2-.4s-.3-.2-.6-.2a1.42 1.42 0 00-.6.2c-.2.1-.3.3-.5.4s-.4.5-.4 1.1m-72 0c0-.1-.1-.3-.1-.4a.6.6 0 01.1.4zm.2.5a3.33 3.33 0 00.3.6zm5.7-6.4a2.2 2.2 0 01.8.1l.1-.4a4.58 4.58 0 00-1.6-.1l-.1-.3c.3-.1.5-.3.5-.5 0-.4-.3-.6-.7-.6a.67.67 0 00-.7.6.47.47 0 00.5.5l.1.3a6.34 6.34 0 00-1.7.4l.1.4c.6-.2 1.1-.3 1.5-.4zm-5.4 2.1l-.1-.2-.3-.2a4.19 4.19 0 00-.9 1.1.1.1 0 00-.1-.1.76.76 0 00-.5-.2.37.37 0 01-.3-.1.37.37 0 00.1-.3.4.4 0 10-.4.4h.1a.76.76 0 00.5.2.35.35 0 01.4.4 3.2 3.2 0 00-.2 1.5h.7a6 6 0 01.2-1.2 8 8 0 01.8-1.3zm10.9-1.7a.43.43 0 00-.4.4v.1a.76.76 0 00-.2.4.37.37 0 01-.1.3c-.1 0-.1.1-.2.1a5.83 5.83 0 00-1.1-1l-.5.4a5.7 5.7 0 011.1 1.1c.2.4.5.7.7 1.1l.6-.3a12.66 12.66 0 00-.7-1.2c.1 0 .1-.1.2-.1a.76.76 0 00.2-.4.37.37 0 01.1-.3.37.37 0 00.3.1.43.43 0 00.4-.4.45.45 0 00-.4-.3zm-1.6 5.1a13.09 13.09 0 01-4 1.1 14.08 14.08 0 01-2 .1c-.9 0-1.5-.1-2.1-.1a7.83 7.83 0 01-1.4-.3l.3.6v.2a3.11 3.11 0 00.7.9 3.26 3.26 0 001.7 1 6.22 6.22 0 002 .3 9.19 9.19 0 003.3-.6 6 6 0 001.9-1.5 7.46 7.46 0 00.7-1.2 3.08 3.08 0 00.1-1c-.3.05-.6.25-1.2.45z" class="cls-4"/>
      <path d="M145.3 137.35a5.75 5.75 0 00-.7 1.2 4.34 4.34 0 00-.2 1.3v.6a.6.6 0 00.1.4 18.77 18.77 0 005.7.3 15.75 15.75 0 003.9-1.1c.7-.3 1.1-.5 1.2-.7a9.93 9.93 0 00-1.1-2 4.9 4.9 0 00-3.2-2.1c-.3 0-.5-.1-.8-.1a4.91 4.91 0 00-1.1.1 4.19 4.19 0 00-1.5.4 7 7 0 00-2.1 1.1c.2.2 0 .3-.2.6zm7.3-.4a1 1 0 11-1.1 1 1 1 0 011.1-.95zm-4.9 0a1.61 1.61 0 011.7 1.6 1.67 1.67 0 01-1.7 1.6 1.6 1.6 0 110-3.2z" class="cls-4"/>
    </g>
    <path d="M119 103.05c-2.7-2.9-4-6.8-4-11.8s1.3-9 4-11.8 6.6-4.3 11.8-4.3 9.1 1.4 11.8 4.3 4 6.8 4 11.8-1.3 9-4 11.8-6.6 4.3-11.8 4.3-9.1-1.35-11.8-4.3zm16.2-6a10.94 10.94 0 001.4-5.9 11.19 11.19 0 00-1.4-5.9c-.9-1.5-2.4-2.1-4.4-2.1a4.87 4.87 0 00-4.4 2.1 10.94 10.94 0 00-1.4 5.9 11.19 11.19 0 001.4 5.9c.9 1.5 2.4 2.1 4.4 2.1a4.57 4.57 0 004.4-2.1z" class="cls-1"/>
    <path d="M159.1 83.25c-4.1 0-6.2 2.7-6.2 8s2.1 8 6.3 8a13.24 13.24 0 008.8-3.2 8.15 8.15 0 011.9 5.5 4.3 4.3 0 01-2.3 3.8 12.91 12.91 0 01-3.7 1.5 18.93 18.93 0 01-4.7.6c-5.4 0-9.4-1.4-12.1-4.3s-4.1-6.8-4.1-11.9 1.3-9 4-11.8 6.7-4.3 12-4.3a15.19 15.19 0 018.1 1.9 4.3 4.3 0 012.3 3.8 7.68 7.68 0 01-1.9 5.5 12 12 0 00-8.4-3.1z" class="cls-1"/>
  </g>
</svg>
