<svg xmlns="http://www.w3.org/2000/svg" viewBox="0 0 132.44 101.01">
  <defs>
    <style>
      .d{fill:#fff}.e{fill:#90d5d6}
    </style>
  </defs>
  <g id="b">
    <g id="c">
      <path d="M49.54 36.58c-7.83.03-14.16 6.38-14.18 14.21v33.84c.02 7.83 6.35 14.18 14.18 14.21h33.87c7.84-.01 14.2-6.37 14.21-14.21V50.79c-.01-7.84-6.37-14.2-14.21-14.21H49.54Zm33.87 64.43H49.54c-9.03-.03-16.35-7.35-16.38-16.38V50.79c.01-9.05 7.33-16.39 16.38-16.42h33.87c9.06.01 16.41 7.36 16.42 16.42v33.84c-.03 9.05-7.37 16.37-16.42 16.38" class="e"/>
      <path d="m54.52 81.44-7.51-26.92h-4.15v-2.21h5.82l7.96 28.54-2.12.59zm6.68 1.95h11.83v2.21H61.2z" class="e"/>
      <path d="M76.83 81.47c-1.47.03-2.64 1.24-2.61 2.71.03 1.47 1.24 2.64 2.71 2.61 1.45-.03 2.61-1.21 2.61-2.66 0-1.47-1.19-2.65-2.66-2.66m0 7.53c-2.69 0-4.87-2.18-4.87-4.87s2.18-4.87 4.87-4.87 4.87 2.18 4.87 4.87-2.17 4.87-4.86 4.88h-.06M57.4 81.47c-1.47 0-2.66 1.19-2.66 2.66s1.19 2.66 2.66 2.66 2.66-1.19 2.66-2.66-1.19-2.66-2.66-2.66m0 7.53c-2.69 0-4.87-2.18-4.87-4.87s2.18-4.87 4.87-4.87 4.87 2.18 4.87 4.87-2.18 4.87-4.87 4.88m23.79-12.19H54.54v-2.21h25.01l4.2-14.08h-5.66v-2.2h8.62l-5.52 18.49zM50.22 58.33h7.18v2.21h-7.18z" class="e"/>
      <path d="M67.68 51.66c-5.14 0-9.31 4.17-9.31 9.31s4.17 9.31 9.31 9.31c5.13 0 9.29-4.14 9.31-9.27 0-5.14-4.17-9.3-9.31-9.31m0 20.82c-6.36 0-11.52-5.16-11.52-11.52 0-6.36 5.16-11.52 11.52-11.52S79.2 54.64 79.2 61c-.03 6.35-5.18 11.48-11.52 11.48" class="e"/>
      <path d="M65.98 65.74c-.3 0-.59-.13-.8-.35l-2.64-2.74c-.43-.43-.42-1.13 0-1.56.43-.43 1.13-.42 1.56 0l.03.03 1.74 1.82 5.18-6.63c.38-.48 1.07-.57 1.55-.19.48.38.57 1.07.19 1.55l-6 7.63c-.19.25-.49.41-.81.42h-.06" class="e"/>
      <path d="M102.61 76.74v-2.21c14.71 0 27.62-13 27.62-27.79-.03-14.86-12.08-26.91-26.94-26.94-2.32-.11-4.64.19-6.85.88l-1 .32-.36-1c-.26-.73-6.63-17.78-28.71-17.78h-.74c-11.87.13-22.76 6.62-28.51 17l-.38.69-.78-.12c-1.82-.31-3.66-.52-5.5-.61-15.3-.29-27.93 11.87-28.22 27.17-.29 15.3 11.87 27.93 27.17 28.22h1.05v2.21C13.94 77.08.31 63.93 0 47.42-.3 30.9 12.85 17.27 29.36 16.97h1.09c1.71.07 3.41.24 5.1.52C41.78 6.8 53.17.16 65.54 0c21.2-.36 29.38 14.34 31.2 18.28 2.14-.55 4.34-.79 6.55-.7 16.09.02 29.13 13.06 29.15 29.15 0 16.26-13.66 30-29.83 30" class="d"/>
      <path d="M85.8 23.01c-.42 0-.8-.22-1-.59-6.9-13-26.69-8.32-26.89-8.28-.59.15-1.19-.2-1.34-.79-.13-.6.24-1.19.83-1.34 3.82-.84 7.74-1.13 11.64-.85 8.39.64 14.52 4.17 17.73 10.24.29.54.08 1.2-.46 1.49-.16.08-.33.13-.51.13" class="d"/>
    </g>
  </g>
</svg>