<?xml version="1.0" encoding="UTF-8"?>
<svg width="1440px" height="563px" viewBox="0 0 1440 563" version="1.1" xmlns="http://www.w3.org/2000/svg" xmlns:xlink="http://www.w3.org/1999/xlink">
    <!-- Generator: Sketch 57.1 (83088) - https://sketch.com -->
    <title>Four51_Icon_Outline + Four51_Icon_Outline Copy Mask</title>
    <desc>Created with Sketch.</desc>
    <defs>
        <rect id="path-1" x="0" y="0" width="1440" height="563"></rect>
    </defs>
    <g id="Page-1" stroke="none" stroke-width="1" fill="none" fill-rule="evenodd">
        <g id="What-We-Do" transform="translate(0.000000, -113.000000)">
            <g id="Hero" transform="translate(0.000000, 113.000000)">
                <g id="Four51_Icon_Outline-+-Four51_Icon_Outline-Copy-Mask">
                    <mask id="mask-2" fill="white">
                        <use xlink:href="#path-1"></use>
                    </mask>
                    <g id="Mask"></g>
                    <g id="Group-17" mask="url(#mask-2)" stroke="#FEFEFE" stroke-width="2">
                        <g transform="translate(-375.000000, -648.000000)">
                            <path d="M1142.0167,1676.9019 C1146.1047,1676.9019 1148.8927,1672.6669 1147.1717,1668.9589 C1147.1507,1668.9119 1147.1377,1668.8879 1147.1347,1668.8879 L1023.2267,1368.2569 L1010.0667,1336.3269 C1008.5507,1332.6509 1003.8147,1331.6529 1000.9487,1334.4079 C988.2337,1346.6269 974.8057,1358.2209 964.8657,1372.7279 C958.0557,1382.6649 953.1467,1394.6009 951.9717,1406.4999 C951.3737,1412.5509 942.8617,1413.5069 941.0047,1407.7169 C936.5017,1393.6729 936.3897,1377.8019 939.6927,1363.2979 C945.2517,1338.8719 958.8907,1317.2009 971.7097,1295.6799 L971.8387,1295.4619 C979.8207,1282.0549 980.9337,1265.6439 974.9877,1251.2179 L967.2487,1232.4429 L917.3907,1111.4739 C915.8587,1107.7539 911.0587,1106.8079 908.1937,1109.6319 C878.3667,1139.0269 845.6677,1165.9379 822.0357,1200.4249 C801.4737,1230.4319 788.8737,1268.8239 794.9237,1303.7389 C795.9797,1309.8349 787.9367,1313.0309 784.6217,1307.8079 C761.4887,1271.3609 757.4967,1222.8789 767.2787,1179.9109 C779.3747,1126.7789 809.0427,1079.6409 836.9267,1032.8249 C839.6037,1028.3309 842.2707,1023.8149 844.9127,1019.2729 C857.6197,997.4299 859.4617,970.9209 849.8327,947.5579 L802.5137,832.7489 C800.6177,828.1499 794.1687,828.0899 792.1377,832.6309 C750.2747,926.1939 671.4107,994.3959 614.0587,1077.5959 C595.7927,1104.0929 576.9457,1133.1389 567.2457,1163.9939 C556.5607,1197.9799 550.4207,1232.4039 549.2527,1268.0589 C547.4377,1323.4989 558.9257,1375.8519 568.1717,1430.0769 C568.5567,1432.3349 568.9267,1434.5809 569.2817,1436.8149 C574.3627,1468.8809 576.1127,1498.6299 566.9687,1529.4419 C565.3877,1534.7729 571.6487,1538.9299 575.9597,1535.4179 C620.5307,1499.1139 652.8297,1447.8859 666.2877,1391.9929 C667.4987,1386.9649 674.2817,1386.0979 676.7247,1390.6559 C682.8517,1402.0839 688.7987,1413.6129 693.5987,1425.6669 C716.6367,1483.5139 707.7367,1553.3559 684.6357,1609.7979 C680.3907,1620.1689 675.5187,1630.2839 670.0307,1640.0539 C665.2907,1648.4919 659.6627,1658.4049 653.2997,1668.1339 C650.8337,1671.9049 653.4877,1676.9019 657.9927,1676.9019 L901.7697,1676.9019 C903.9587,1676.9019 905.9777,1675.6489 906.8837,1673.6549 C907.4557,1672.3949 908.0087,1671.1269 908.5407,1669.8559 C925.9297,1628.2949 927.2187,1580.3249 912.6147,1537.7519 C910.8027,1532.4729 916.9497,1528.1309 921.4047,1531.4929 C945.5197,1549.6919 964.6617,1574.4859 975.9487,1602.5229 C984.6747,1624.2049 988.6517,1647.7419 987.7987,1671.0959 C987.6827,1674.2739 990.2477,1676.9019 993.4297,1676.9019 L1142.0167,1676.9019 Z" id="Stroke-1"></path>
                            <path d="M2146.2725,1856.7151 C2150.3605,1856.7151 2153.1485,1852.4801 2151.4275,1848.7721 C2151.4065,1848.7251 2151.3935,1848.7011 2151.3905,1848.7011 L2027.4825,1548.0701 L2014.3225,1516.1401 C2012.8075,1512.4641 2008.0715,1511.4661 2005.2045,1514.2211 C1992.4895,1526.4401 1979.0615,1538.0341 1969.1215,1552.5411 C1962.3115,1562.4781 1957.4025,1574.4141 1956.2275,1586.3131 C1955.6315,1592.3641 1947.1175,1593.3201 1945.2605,1587.5301 C1940.7575,1573.4861 1940.6455,1557.6151 1943.9485,1543.1111 C1949.5085,1518.6851 1963.1475,1497.0141 1975.9655,1475.4931 C1976.0085,1475.4201 1976.0525,1475.3481 1976.0955,1475.2751 C1984.0775,1461.8681 1985.1895,1445.4571 1979.2445,1431.0311 L1971.5065,1412.2561 L1921.6475,1291.2871 C1920.1145,1287.5671 1915.3155,1286.6211 1912.4495,1289.4451 C1882.6235,1318.8401 1849.9235,1345.7511 1826.2915,1380.2381 C1805.7295,1410.2451 1793.1305,1448.6371 1799.1795,1483.5521 C1800.2355,1489.6481 1792.1925,1492.8441 1788.8785,1487.6211 C1765.7455,1451.1741 1761.7535,1402.6921 1771.5345,1359.7241 C1783.6315,1306.5921 1813.2995,1259.4541 1841.1825,1212.6381 C1843.8595,1208.1441 1846.5275,1203.6281 1849.1695,1199.0861 C1861.8755,1177.2431 1863.7175,1150.7341 1854.0895,1127.3711 L1806.7695,1012.5621 C1804.8745,1007.9631 1798.4245,1007.9031 1796.3935,1012.4441 C1754.5315,1106.0071 1675.6665,1174.2091 1618.3145,1257.4091 C1600.0485,1283.9061 1581.2025,1312.9521 1571.5025,1343.8071 C1560.8175,1377.7931 1554.6765,1412.2171 1553.5085,1447.8721 C1551.6945,1503.3121 1563.1815,1555.6651 1572.4275,1609.8901 C1572.8125,1612.1481 1573.1825,1614.3941 1573.5385,1616.6281 C1578.6195,1648.6941 1580.3695,1678.4431 1571.2255,1709.2551 C1569.6435,1714.5861 1575.9045,1718.7431 1580.2155,1715.2311 C1624.7865,1678.9271 1657.0875,1627.6991 1670.5455,1571.8061 C1671.7555,1566.7781 1678.5385,1565.9111 1680.9815,1570.4691 C1687.1075,1581.8971 1693.0545,1593.4261 1697.8545,1605.4801 C1720.8925,1663.3271 1711.9925,1733.1691 1688.8915,1789.6111 C1684.6465,1799.9821 1679.7745,1810.0971 1674.2875,1819.8671 C1669.5475,1828.3051 1663.9195,1838.2181 1657.5555,1847.9471 C1655.0905,1851.7181 1657.7445,1856.7151 1662.2495,1856.7151 L1906.0255,1856.7151 C1908.2155,1856.7151 1910.2345,1855.4621 1911.1395,1853.4681 C1911.7125,1852.2081 1912.2655,1850.9401 1912.7975,1849.6691 C1930.1855,1808.1081 1931.4755,1760.1381 1916.8705,1717.5651 C1915.0585,1712.2861 1921.2065,1707.9441 1925.6605,1711.3061 C1949.7755,1729.5051 1968.9185,1754.2981 1980.2045,1782.3361 C1988.9305,1804.0181 1992.9075,1827.5551 1992.0555,1850.9091 C1991.9395,1854.0871 1994.5055,1856.7151 1997.6855,1856.7151 L2146.2725,1856.7151 Z" id="Stroke-3"></path>
                            <path d="M5.6725,537.6421 C1.5855,537.6421 -1.2025,541.8771 0.5175,545.5851 C0.5395,545.6321 0.5515,545.6561 0.5545,545.6561 L124.4635,846.2871 L137.6235,878.2181 C139.1375,881.8931 143.8745,882.8911 146.7405,880.1361 C159.4555,867.9171 172.8835,856.3231 182.8245,841.8161 C189.6335,831.8791 194.5435,819.9431 195.7175,808.0441 C196.3155,801.9931 204.8275,801.0371 206.6845,806.8271 C211.1875,820.8711 211.2995,836.7421 207.9975,851.2461 C202.4375,875.6721 188.7975,897.3431 175.9795,918.8651 C175.9365,918.9371 175.8935,919.0091 175.8495,919.0821 C167.8685,932.4891 166.7555,948.9001 172.7015,963.3261 L180.4395,982.1011 L230.2975,1103.0701 C231.8315,1106.7901 236.6305,1107.7361 239.4955,1104.9121 C269.3225,1075.5171 302.0215,1048.6061 325.6535,1014.1191 C346.2155,984.1121 358.8155,945.7201 352.7655,910.8051 C351.7095,904.7091 359.7525,901.5131 363.0675,906.7361 C386.2005,943.1841 390.1925,991.6651 380.4105,1034.6331 C368.3145,1087.7651 338.6465,1134.9031 310.7625,1181.7191 C308.0855,1186.2131 305.4185,1190.7291 302.7765,1195.2711 C290.0695,1217.1141 288.2275,1243.6231 297.8565,1266.9861 L345.1755,1381.7951 C347.0715,1386.3951 353.5205,1386.4541 355.5515,1381.9131 C397.4145,1288.3501 476.2785,1220.1481 533.6305,1136.9481 C551.8965,1110.4511 570.7435,1081.4051 580.4435,1050.5501 C591.1285,1016.5641 597.2685,982.1401 598.4365,946.4851 C600.2515,891.0451 588.7635,838.6921 579.5175,784.4671 C579.1325,782.2091 578.7625,779.9631 578.4075,777.7291 C573.3265,745.6631 571.5765,715.9141 580.7205,685.1021 C582.3015,679.7711 576.0405,675.6141 571.7295,679.1261 C527.1585,715.4301 494.8595,766.6581 481.4015,822.5511 C480.1905,827.5791 473.4075,828.4461 470.9645,823.8881 C464.8375,812.4601 458.8905,800.9311 454.0905,788.8771 C431.0525,731.0301 439.9525,661.1881 463.0535,604.7461 C467.2985,594.3751 472.1705,584.2601 477.6585,574.4901 C482.3985,566.0521 488.0265,556.1391 494.3895,546.4101 C496.8555,542.6391 494.2015,537.6421 489.6965,537.6421 L245.9195,537.6421 C243.7305,537.6421 241.7115,538.8951 240.8055,540.8891 C240.2335,542.1491 239.6805,543.4171 239.1485,544.6881 C221.7595,586.2491 220.4705,634.2191 235.0755,676.7921 C236.8865,682.0711 230.7395,686.4131 226.2845,683.0511 C202.1695,664.8521 183.0275,640.0591 171.7415,612.0211 C163.0145,590.3391 159.0375,566.8021 159.8905,543.4481 C160.0055,540.2701 157.4405,537.6421 154.2595,537.6421 L5.6725,537.6421 Z" id="Stroke-5"></path>
                            <path d="M312.8004,1.1911 C306.7204,-2.1369 299.1244,1.8931 298.6654,8.8091 C298.6594,8.8961 298.6584,8.9431 298.6624,8.9451 L238.2124,557.0131 L231.7914,615.2241 C231.0514,621.9251 237.2844,627.2651 243.7914,625.5011 C272.6534,617.6781 302.0674,611.3641 328.6644,597.8781 C346.8834,588.6411 363.9044,574.8831 375.3394,558.1401 C381.1544,549.6251 394.5954,555.1341 392.6434,565.2591 C387.9074,589.8151 375.1524,613.5141 358.4304,632.4011 C330.2734,664.2071 292.3424,685.3381 255.7524,706.9141 C255.6294,706.9871 255.5064,707.0601 255.3834,707.1321 C232.5954,720.5771 217.5784,744.0821 214.6774,770.3811 L210.9034,804.6091 L186.5774,1025.1431 C185.8294,1031.9241 192.1974,1037.2391 198.7594,1035.3711 C267.0584,1015.9311 337.6084,1002.5221 400.8394,970.4641 C455.8564,942.5701 505.8554,895.7211 525.2834,838.8591 C528.6754,828.9321 543.2404,830.7261 543.9194,841.1941 C548.6554,914.2431 515.1214,989.6091 465.5884,1045.5601 C404.3374,1114.7441 321.8264,1160.7081 242.2344,1207.6441 C234.5944,1212.1491 226.9484,1216.6961 219.3214,1221.3011 C182.6364,1243.4481 158.3144,1281.3781 153.6154,1323.9711 L130.5294,1533.2731 C129.6044,1541.6591 139.1484,1546.9981 145.8674,1541.8971 C284.3134,1436.8051 457.1524,1399.5651 610.2014,1322.4991 C658.9424,1297.9561 710.6264,1270.0961 750.1764,1232.0961 C793.7394,1190.2421 830.9014,1144.0351 861.6654,1091.9491 C909.5034,1010.9601 935.0394,923.7331 965.4334,835.5461 C966.6994,831.8741 967.9774,828.2311 969.2684,824.6191 C987.8174,772.7841 1009.4344,727.1081 1048.1234,688.7201 C1054.8154,682.0791 1048.8864,670.7971 1039.6154,672.5111 C943.7584,690.2251 854.0044,740.1291 788.4794,812.3131 C782.5854,818.8061 771.7904,814.5731 771.8664,805.8041 C772.0574,783.8171 772.5984,761.8261 775.2724,739.9871 C788.0994,635.1841 858.2024,538.5411 938.5174,473.3921 C953.2754,461.4201 968.7584,450.3421 984.8764,440.2761 C998.7964,431.5831 1015.2384,421.4201 1032.6254,412.1291 C1039.3624,408.5281 1039.4834,398.9341 1032.7824,395.2661 L670.1664,196.7921 C666.9094,195.0091 662.8854,195.2301 659.9164,197.4571 C658.0374,198.8661 656.1834,200.3021 654.3564,201.7601 C594.6554,249.4241 553.6804,319.7291 540.7444,394.9471 C539.1404,404.2741 526.4624,405.7281 522.5724,397.1011 C501.5184,350.3961 493.2314,297.9311 499.2694,247.0371 C503.9414,207.6801 517.1894,169.4301 537.4704,135.3861 C540.2314,130.7521 538.5544,124.7551 533.8224,122.1651 L312.8004,1.1911 Z" id="Stroke-7"></path>
                            <path d="M1788.0079,684.3484 C1748.0309,773.1344 1728.9909,871.3774 1733.4339,968.6574 C1733.8199,977.1224 1744.2629,980.7954 1750.0299,974.5874 C1773.6159,949.1984 1799.4829,925.9334 1827.1389,905.0544 C1877.8059,866.8034 1939.5109,831.8604 2004.6479,809.5864 C2012.5629,806.8804 2013.5709,796.1274 2006.2339,792.1114 L1801.3129,679.9494 C1796.4429,677.2844 1790.2869,679.2864 1788.0079,684.3484 Z" id="Stroke-9"></path>
                            <path d="M897.7804,185.4105 C891.7004,182.0825 884.1044,186.1125 883.6454,193.0285 C883.6394,193.1155 883.6384,193.1625 883.6424,193.1645 L823.1924,741.2325 L816.7714,799.4435 C816.0314,806.1445 822.2644,811.4845 828.7714,809.7205 C857.6334,801.8975 887.0474,795.5835 913.6444,782.0975 C931.8634,772.8605 948.8844,759.1025 960.3184,742.3595 C966.1344,733.8445 979.5764,739.3535 977.6234,749.4785 C972.8864,774.0345 960.1324,797.7335 943.4114,816.6205 C915.2544,848.4265 877.3224,869.5575 840.7324,891.1345 C840.6094,891.2065 840.4864,891.2795 840.3634,891.3525 C817.5744,904.7965 802.5584,928.3025 799.6574,954.6005 L795.8834,988.8285 L771.5574,1209.3625 C770.8094,1216.1435 777.1774,1221.4585 783.7394,1219.5905 C852.0384,1200.1505 922.5884,1186.7415 985.8194,1154.6835 C1040.8364,1126.7895 1090.8354,1079.9405 1110.2624,1023.0785 C1113.6544,1013.1515 1128.2204,1014.9455 1128.8994,1025.4135 C1133.6344,1098.4635 1100.1004,1173.8285 1050.5684,1229.7795 C989.3164,1298.9635 906.8064,1344.9285 827.2144,1391.8645 C819.5744,1396.3685 811.9284,1400.9155 804.3014,1405.5205 C767.6164,1427.6675 743.2944,1465.5975 738.5954,1508.1905 L715.5094,1717.4925 C714.5844,1725.8785 724.1284,1731.2175 730.8474,1726.1165 C869.2934,1621.0255 1042.1324,1583.7845 1195.1804,1506.7185 C1243.9234,1482.1765 1295.6064,1454.3155 1335.1564,1416.3155 C1378.7194,1374.4615 1415.8814,1328.2545 1446.6454,1276.1695 C1494.4824,1195.1805 1520.0194,1107.9525 1550.4144,1019.7655 C1551.6794,1016.0935 1552.9584,1012.4505 1554.2484,1008.8385 C1572.7974,957.0035 1594.4144,911.3275 1633.1024,872.9395 C1639.7964,866.2985 1633.8664,855.0175 1624.5944,856.7305 C1528.7394,874.4445 1438.9844,924.3485 1373.4594,996.5325 C1367.5644,1003.0255 1356.7694,998.7925 1356.8454,990.0235 C1357.0374,968.0365 1357.5784,946.0455 1360.2524,924.2065 C1373.0794,819.4035 1443.1824,722.7605 1523.4984,657.6115 C1538.2564,645.6395 1553.7374,634.5615 1569.8554,624.4955 C1583.7754,615.8035 1600.2184,605.6395 1617.6044,596.3485 C1624.3424,592.7475 1624.4634,583.1535 1617.7614,579.4855 L1255.1454,381.0115 C1251.8894,379.2285 1247.8654,379.4495 1244.8954,381.6765 C1243.0174,383.0855 1241.1634,384.5215 1239.3364,385.9795 C1179.6344,433.6435 1138.6604,503.9485 1125.7234,579.1665 C1124.1204,588.4935 1111.4414,589.9475 1107.5524,581.3205 C1086.4984,534.6155 1078.2114,482.1505 1084.2494,431.2565 C1088.9214,391.8995 1102.1694,353.6495 1122.4504,319.6055 C1125.2114,314.9725 1123.5344,308.9745 1118.8024,306.3845 L897.7804,185.4105 Z" id="Stroke-11"></path>
                            <path d="M1571.0255,2175.0504 C1576.7085,2175.6804 1581.2365,2170.2224 1579.4155,2164.8034 C1579.3925,2164.7354 1579.3795,2164.6984 1579.3755,2164.6984 L1453.4515,1727.7064 L1440.0775,1681.2934 C1438.5385,1675.9504 1432.1075,1673.8334 1427.6985,1677.2214 C1408.1405,1692.2474 1387.6885,1706.2954 1371.6355,1724.9304 C1360.6395,1737.6934 1351.9755,1753.5294 1348.5095,1769.8884 C1346.7475,1778.2084 1334.7655,1778.2264 1333.0775,1769.8904 C1328.9815,1749.6744 1331.2705,1727.5954 1338.0965,1707.9424 C1349.5885,1674.8454 1371.8865,1646.8224 1393.0215,1618.8804 C1393.0925,1618.7864 1393.1645,1618.6924 1393.2355,1618.5984 C1406.3955,1601.1914 1410.4705,1578.5504 1404.4285,1557.5814 L1396.5645,1530.2904 L1345.8955,1354.4514 C1344.3385,1349.0444 1337.8115,1346.9904 1333.3935,1350.4744 C1287.4035,1386.7384 1237.8025,1419.1104 1199.6375,1463.4084 C1166.4315,1501.9524 1143.0025,1553.3784 1146.0325,1602.8464 C1146.5615,1611.4824 1134.8885,1614.6864 1131.0855,1606.9154 C1104.5445,1552.6854 1106.4645,1484.6784 1126.6815,1426.4564 C1151.6835,1354.4624 1200.1875,1293.5064 1246.1615,1232.7254 C1250.5745,1226.8914 1254.9785,1221.0234 1259.3505,1215.1174 C1280.3795,1186.7114 1287.0245,1150.1464 1277.2385,1116.1864 L1229.1505,949.3024 C1227.2235,942.6164 1218.2685,941.5394 1214.7445,947.5394 C1142.1365,1071.1494 1022.0005,1153.8044 929.4585,1260.6234 C899.9855,1294.6414 869.3115,1332.1134 851.0725,1373.5104 C830.9835,1419.1074 817.1445,1466.0134 810.0285,1515.3964 C798.9635,1592.1834 806.8665,1666.7284 811.3645,1743.5294 C811.5515,1746.7274 811.7195,1749.9064 811.8695,1753.0674 C813.9925,1798.4244 811.8415,1840.0474 794.3825,1881.4704 C791.3625,1888.6364 799.4255,1895.3794 805.9595,1891.1624 C873.5095,1847.5644 926.3025,1781.3294 953.6225,1705.7064 C956.0795,1698.9034 965.6415,1698.7434 968.3365,1705.4564 C975.0915,1722.2864 981.5825,1739.2284 986.3975,1756.7254 C1009.5095,1840.6854 986.3765,1936.4004 945.5675,2011.3004 C938.0695,2025.0634 929.7385,2038.3724 920.6045,2051.1084 C912.7155,2062.1074 903.3655,2075.0204 893.0205,2087.5644 C889.0115,2092.4254 891.9315,2099.7814 898.1935,2100.4754 L1237.0635,2138.0344 C1240.1065,2138.3724 1243.1065,2136.9404 1244.6715,2134.3094 C1245.6625,2132.6454 1246.6265,2130.9684 1247.5615,2129.2824 C1278.1355,2074.1894 1287.3195,2007.7064 1273.5775,1946.2764 C1271.8735,1938.6584 1281.0865,1933.5704 1286.7605,1938.9294 C1317.4785,1967.9434 1340.2675,2005.3574 1351.6365,2046.0704 C1360.4265,2077.5544 1362.3285,2110.8864 1357.5465,2143.2184 C1356.8945,2147.6194 1360.0555,2151.6664 1364.4775,2152.1574 L1571.0255,2175.0504 Z" id="Stroke-13"></path>
                            <path d="M2185.7451,1542.6217 C2190.5391,1540.3797 2191.4871,1533.8827 2187.4341,1530.4767 C2187.3841,1530.4337 2187.3551,1530.4127 2187.3521,1530.4137 L1877.1051,1245.7417 L1844.1541,1215.5057 C1840.3611,1212.0257 1834.2591,1213.4527 1832.4071,1218.2567 C1824.1941,1239.5637 1814.8041,1260.5297 1811.1011,1282.9987 C1808.5641,1298.3897 1809.3531,1315.0837 1814.5011,1329.6847 C1817.1201,1337.1107 1807.6591,1342.9017 1802.3051,1337.1277 C1789.3191,1323.1247 1780.4821,1304.5697 1776.4001,1285.7447 C1769.5241,1254.0437 1773.6361,1221.1427 1776.8671,1188.8667 C1776.8781,1188.7577 1776.8891,1188.6487 1776.8991,1188.5397 C1778.9081,1168.4357 1771.2111,1148.5757 1756.3241,1134.9157 L1736.9481,1117.1377 L1612.1101,1002.5887 C1608.2721,999.0667 1602.1241,1000.5897 1600.3121,1005.4737 C1581.4481,1056.3137 1557.8541,1105.8167 1549.0511,1159.2327 C1541.3911,1205.7097 1547.6701,1257.6537 1573.9181,1295.2917 C1578.5001,1301.8617 1570.8191,1310.0227 1564.0661,1305.7157 C1516.9391,1275.6517 1485.6641,1220.9727 1473.5681,1165.2057 C1458.6131,1096.2477 1467.5581,1024.6797 1474.5861,954.4707 C1475.2611,947.7317 1475.9121,940.9697 1476.5211,934.1927 C1479.4421,901.6017 1467.0631,869.4967 1442.9531,847.3737 L1324.4741,738.6597 C1319.7271,734.3037 1312.1301,737.7707 1312.2371,744.2127 C1314.4541,876.9237 1259.3561,1000.1837 1237.7201,1129.2357 C1230.8291,1170.3347 1224.6531,1214.7437 1230.2001,1256.2577 C1236.3091,1301.9827 1247.9881,1345.7317 1266.1771,1388.1937 C1294.4581,1454.2207 1336.6491,1509.3297 1377.2381,1567.8627 C1378.9291,1570.3007 1380.5951,1572.7327 1382.2371,1575.1577 C1405.7861,1609.9837 1424.1561,1643.9197 1430.3321,1685.0787 C1431.4001,1692.1987 1441.0241,1693.6397 1444.1551,1687.1567 C1476.5231,1620.1237 1486.3121,1542.3157 1471.4381,1469.3717 C1470.1011,1462.8097 1477.5821,1458.0727 1482.9481,1462.0787 C1496.4031,1472.1227 1509.7021,1482.3847 1521.9451,1493.8917 C1580.6991,1549.1077 1608.5681,1635.9147 1612.4311,1714.7917 C1613.1411,1729.2867 1612.9741,1743.8227 1611.8961,1758.2937 C1610.9651,1770.7917 1609.8011,1785.5067 1607.6731,1800.4087 C1606.8491,1806.1847 1612.7031,1810.5897 1617.9871,1808.1187 L1903.9371,1674.4017 C1906.5041,1673.2017 1908.1851,1670.6237 1908.1541,1667.7887 C1908.1341,1665.9957 1908.0881,1664.2057 1908.0141,1662.4227 C1905.6131,1604.1347 1880.8131,1547.1587 1840.3301,1505.2317 C1835.3101,1500.0327 1840.1381,1491.5687 1847.2081,1493.0677 C1885.4771,1501.1877 1921.5301,1519.7707 1950.1481,1546.4667 C1972.2781,1567.1137 1989.8541,1592.5417 2001.6631,1620.4027 C2003.2711,1624.1947 2007.7221,1625.8697 2011.4531,1624.1247 L2185.7451,1542.6217 Z" id="Stroke-15"></path>
                        </g>
                    </g>
                </g>
            </g>
        </g>
    </g>
</svg>