<svg xmlns="http://www.w3.org/2000/svg" id="lady" viewBox="0 0 400.02 376.64">
  <defs/>
  <defs>
    <style>
      .cls-1{fill:#294a5f}.cls-2,.cls-8{fill:#f8b091}.cls-3{fill:none;stroke-linecap:round;stroke-linejoin:round;stroke:#cf6e6e;stroke-width:1.82px}.cls-4{fill:#f59064}.cls-8{stroke:#f8b091;stroke-miterlimit:10;stroke-width:3px}
    </style>
  </defs>
    <g>
      <path d="M282.28 307.52a127 127 0 00-15 1.4 145.21 145.21 0 00-22.6 5.21c-7.9 2.79-15.8 6.1-24.2 6.89-5.4.5-10.9-.1-16.4-.7-16-1.7-32.5-4.7-48.5-4.3-8.3.21-16.4.21-24.6 1.3-7.3.9-16.6 1.8-23.3 5.2-10.2 3.3-19.9 8.5-27.3 16.11-5.7 5.79-10.2 14.2-7.7 22 2.5 7.5 10.6 11.6 18.3 13.6 38 9.6 75.3-12.21 112.3-17.6 22-3.21 42-.11 63.3 4.89 11.9 2.8 23.8 6 35.8 8 18.5 3 44.3 5.21 56.8-11.7a18.45 18.45 0 003.9-9.2c.6-6-3.2-11.6-7.3-16-9.5-9.9-22-16.5-35.2-20.3a128.64 128.64 0 00-38.3-4.8z" class="cls-1"/>
      <path d="M370.48 183a4.35 4.35 0 014 3.4c.7 2.5.2 4.9-1.2 7.8a11.3 11.3 0 011.1-1.1 74.58 74.58 0 006.3-6.8 8.18 8.18 0 013.8-2.8 6.15 6.15 0 011.4-.1 2 2 0 011.2.6 2.62 2.62 0 01-.2 2.8 6.07 6.07 0 01-.7 1c-.2.3-.9 1.2-.9 1.2-1.2 1.6-2.2 2.9-4.6 5.6l-2.8 3.5c.7-.6 1.3-1.1 2.5-2.2l.2-.2a61.24 61.24 0 015.8-4.8c1.2-.8 2.1-1.4 3-1.9l.6-.3a1.37 1.37 0 011.5.2c1 .8.8 2-.1 3.3a13.93 13.93 0 01-1.5 1.9c-2.1 2.2-3.9 4-7.5 7.6-.3.3-1.8 1.7-2.2 2.2a4.62 4.62 0 01-.7.7c1.4-1 2.7-1.9 5.1-3.6.2-.2 3.1-2.2 4.1-3a12.45 12.45 0 012.3-1.1c1.6-.6 2.9-.5 3.1 1.1a1.27 1.27 0 01-.1.6c-.1.5-.5.8-1 1.3-.1.1-.5.4-.5.5-.7.6-1.2 1.1-2.5 2.2l-2.8 2.4c-1.3 1.2-2.4 2.2-4.9 4.3 0 0-4 3.5-5.4 4.9a82 82 0 01-10.1 8.8 6 6 0 00-1.4 2 7.76 7.76 0 00-.4.7c-.1.2-.1.3-.2.5a42.92 42.92 0 00-2.2 4.9c-.1.2-1.1 2.6-1.4 3.4-.1.1-.2.2-.3.2a.87.87 0 01-.5.9 1 1 0 01-1.3-.5 6.14 6.14 0 00-.9-1.3s-.6-.7-.8-1a51.27 51.27 0 00-4.2-5.1c-.2-.2-.1-.2-.3-.4a49.72 49.72 0 01-3.9-4.7.6.6 0 01-.1-.4h-.2a1 1 0 01-.5-1.3c.4-1 .9-1.79 1.8-3.5 0 0 1.3-2.5 1.8-3.5l.4-.79c.1-.11.1-.21.2-.3a3.21 3.21 0 00.5-1.7 5.39 5.39 0 00-.6-2.3 3.93 3.93 0 01-.2-.61 5.93 5.93 0 01-.3-1.1 14.5 14.5 0 01.3-8.3 19.38 19.38 0 014.8-7.5 7.37 7.37 0 01.5-.6 3.38 3.38 0 011.8-1.2 3.75 3.75 0 011-.1 2 2 0 01.2-1 12.63 12.63 0 018-5.8 4 4 0 002.1.4zm-2.2 6.81a7.79 7.79 0 00-2.5.89 24.42 24.42 0 01-2.8 1 2.14 2.14 0 01-1.4-.2c0 .11.1.2.1.31a1.07 1.07 0 01.2.8 9.82 9.82 0 01-1.3 2.6.76.76 0 01-.2.4l-.1.1a.76.76 0 00-.2.4 4.1 4.1 0 00-.7 2.1c.2 1.1 2.1 1.2 3.6.4a14.62 14.62 0 005.6-6.4 4.4 4.4 0 00.5-2.2c-.1-.2-.4-.3-.8-.2z" class="cls-2"/>
      <path d="M373.28 208.52c-3.8-1.5-9.5 1.4-12.3 3.9" class="cls-3"/>
      <path d="M349.18 219.32a38.73 38.73 0 015 4.1c1.8 1.9 6.6 6.21 7.4 6.9s.9 1 .9 1l1.2-2.8-13.6-11c.1-.1-.9 1.8-.9 1.8z" class="cls-4"/>
      <path d="M68 194.92a4.24 4.24 0 00-4.5 2.6c-1.1 2.4-1.1 4.81-.2 7.9a14.63 14.63 0 00-.9-1.3 70.62 70.62 0 01-5-7.8 8.44 8.44 0 00-3.2-3.5 3.19 3.19 0 00-1.4-.3 1.84 1.84 0 00-1.3.4c-.7.7-.7 1.6-.3 2.8a5.36 5.36 0 00.5 1.1c.2.4.7 1.3.7 1.4.9 1.8 1.7 3.2 3.5 6.3 0 0 1.3 2.2 2.2 3.9-.6-.7-1.1-1.3-2.1-2.6l-.2-.2a64.68 64.68 0 00-4.8-5.7 24.64 24.64 0 00-2.7-2.4c-.2-.1-.4-.3-.6-.4a1.37 1.37 0 00-1.5-.1c-1.1.6-1.1 1.8-.5 3.2a12 12 0 001.2 2.2c1.7 2.5 3.1 4.6 6.1 8.8.2.3 1.4 2 1.8 2.6a5.58 5.58 0 00.5.8c-1.2-1.2-2.4-2.3-4.4-4.5-.2-.2-2.7-2.8-3.6-3.7a11.55 11.55 0 00-2-1.5c-1.5-.8-2.8-1-3.2.5a.64.64 0 000 .6 3.08 3.08 0 00.7 1.4c.1.1.4.5.5.5.6.7 1 1.3 2.1 2.6 0 0 1.7 2.1 2.3 2.9 1.1 1.5 2 2.6 4 5.1 0 0 3.3 4.11 4.5 5.8a103.94 103.94 0 008.4 10.5 4.1 4.1 0 011 2.2c.2.61.2.61.2.8s.1.3.1.5a32.09 32.09 0 011.3 5.2c.1.21.6 2.71.8 3.61 0 .1.1.2.2.29a.91.91 0 00.3 1 .89.89 0 001.3-.29 5.47 5.47 0 011.1-1.11 6.89 6.89 0 001-.89 47.75 47.75 0 015.1-4.3c.2-.1.2-.2.4-.3a46.72 46.72 0 004.6-3.9c.1-.1.1-.2.2-.4h.1A1 1 0 0083 236c-.3-1.1-.5-1.9-1.1-3.7 0 0-.9-2.7-1.1-3.7-.1-.3-.1-.5-.2-.8s-.1-.2-.1-.3a4.1 4.1 0 01-.2-1.8 4.76 4.76 0 011-2.1c.2-.3.3-.4.3-.6a9.25 9.25 0 00.5-1 15.14 15.14 0 001.1-8.3 19 19 0 00-3.5-8.2 3.22 3.22 0 01-.4-.7 3.58 3.58 0 00-1.5-1.5 1.8 1.8 0 00-1-.2 3.33 3.33 0 000-1c-1-2.9-4.2-6.3-6.9-7.1a6.37 6.37 0 01-1.9-.1zm1 7.1a6.86 6.86 0 012.3 1.31 21.88 21.88 0 002.6 1.5 3.37 3.37 0 001.4.1c0 .1-.1.2-.1.3a1.14 1.14 0 00-.3.8 11.35 11.35 0 00.8 2.8c0 .1.1.3.1.4v.1c0 .1.1.3.1.4.4 1.1.5 1.79.3 2.2-.4 1.1-2.2.9-3.6-.2a13.88 13.88 0 01-4.3-7.3 3.67 3.67 0 01-.1-2.3c.08-.2.38-.3.8-.13z" class="cls-2"/>
      <path d="M60.78 219.52c4.1-.79 9.1 3 11.4 6" class="cls-3"/>
      <path d="M82.08 233.13l-13.5 15.79-.9-4 14-13.79.4 2z" class="cls-4"/>
      <path d="M232.58 124.83c1.2-4.9.8-7.9-.7-12.7-2-6.3-8.9-11.2-14-14.9a51.69 51.69 0 00-20.8-9.4c-11.8-2.2-25.2 1.4-32.5 11-2.7 3.6-4.5 7.8-7.4 11.3-8.4 10.3-23.5 11.7-35 18.4-15.2 8.8-27.8 30.1-16.2 46.1 3.6 5 8.1 9.8 9.2 16 .5 2.8.2 5.6.8 8.39s2.1 5.61 4.8 6.4c3.3 1 6.8-1.5 10.3-1 3 .4 5.3 3 6.8 5.6s2.7 5.61 4.8 7.8c8 8.2 18.8-.8 26.1-5.1 3.4-2 6.4-1.9 10.1-.3 6.4 2.71 12.3 6.5 18.9 8.4 9.8 2.8 18.7-.2 24.3-8.7A33.57 33.57 0 00227 200a28.11 28.11 0 011.6-6.5c1.6-3.3 4.9-5.5 7.8-7.7 6.5-5.1 8-13.6 6.1-21.5-1.7-7-5.3-13.3-8.5-19.6-.7-1.4-1-3.1-1.7-4.6-1.1-2.4-2.4-4.6-2.9-7.2-.5-4.4 2-3.1 3.2-8.1z" class="cls-1"/>
      <path fill="#e4f5f5" d="M221.08 179a50.09 50.09 0 00-6.7.31 20.44 20.44 0 00-2.6 0 10.57 10.57 0 00-1.1.19c-1.1.2-1.6.2-2.2.31s-3.9.3-4.7.3c-2.2.2-5.9.7-6.1.8-1.1.2-2 .3-4 .5-3.2.3-19.5 5.8-20.2 6.1-10.5 4.5-18 10.7-22 19.2-2.7 5.79-7.7 21.7-7.8 21.9-4.5 14.7-7 21.2-11.5 28.5-.5.79-9.6 14.2-13.1 15.5-22.7 8.7-31.7-26.71-35.4-41.5a128.22 128.22 0 00-16.1 19.29 7.72 7.72 0 00-1.2 2.4 6.45 6.45 0 00.6 3c3.8 10.4 7.8 21 14.5 29.8s16.6 15.9 27.7 16.4c10.1.5 20-4.6 27.1-11.9s11.9-16.5 15.8-25.8c3.6-8.7 6.1-19.9 11.8-27.4 1.8 4 2.2 8.8 3.8 12.9 1.5 3.8 3.5 8.1 4.3 12 1 5.5 0 12.1-.4 17.6-.9 12.71-4.2 25.4-4.2 38.1 0 1.61 11.5 4.8 12.9 5.21a95 95 0 0019 3.2c14 .9 26.7-2.2 40-6 .6-.2.9-.3 2.1-.6 6.2-1.8 14-4.7 13.8-5.2-7.4-22.61-10.7-50.8-5-74 .4-1.8 1.1-3.61 1.6-5.5 2 2.1 8.6 7.89 8.9 8.1 9.3 8 18.6 16.1 29.5 21.9 11.2 6 24.8 9.7 37.1 5.39 11.9-4.1 21.5-13.5 29.3-23.1 1.2-1.4 5.9-8.6 5.9-8.7a35.58 35.58 0 002.5-5.3c.2-.2-5.5-4.9-5.8-5.2l-.5-.5c-.5-.5-1.1-1-1.7-1.7-3.6-3.7-7.1-7.1-11.9-9.2a68.45 68.45 0 01-15.1 22.1 27.34 27.34 0 01-7.6 5.5c-6.1 2.7-13.2 1.3-19.4-1.1-17.3-6.9-29.5-21.4-41-35.4a57.39 57.39 0 01-4.8-7 10.54 10.54 0 01-.7-1.1c-4.6-7.2-7.3-10.6-11.7-13.3a51.7 51.7 0 00-23.7-7z"/>
      <path d="M214.28 112.92c0 .7-4.1 8.9-5.9 11.7-5.5 8.5-9.2 12.1-15 17.9a5.43 5.43 0 00-3.4-1.2 6.67 6.67 0 00-4.9 1.7c-3.3 3.3-2.9 8.9 1.4 10.4a18.59 18.59 0 008.4 15.4c-.1.1 0 19.1.4 20.2.6 1.9 2.4 3 4.8 3.9 4.3 1.4 12.9-1.6 13-1.7 1.2-.4 2.1-.8 2.4-1.6s.5-15.3.5-16.2a28.12 28.12 0 008.9-2.8c3.6-2 7.9-7.1 9-8.5 2.8-3.8 3.8-8.3 4.1-15.5.6-12.8-5.5-24-8.1-26.3-5.9-5.3-15.6-7.8-15.6-7.4z" class="cls-2"/>
      <path fill="none" stroke="#99e1e5" stroke-linecap="round" stroke-linejoin="round" stroke-width="1.82" d="M224.08 337.42c5.5.21 13.7-.7 19.2-1.2 10.6-.8 21.9.1 32.5-1 9.2-1 18.6.1 27.6 1.7 7.9 1.4 15.4 2.9 23 5.71"/>
      <path fill="none" stroke="#99e1e5" stroke-linecap="round" stroke-linejoin="round" stroke-width="2.41" d="M194.48 340.92c-14.3.5-28.7-.9-43-1.1s-29 .1-41.9 6.7"/>
      <path d="M229.58 340.13c-.8-2.21-3.8-3.11-6.1-3.71-5.9-1.4-11.5 3.71-16.2 6.4s-9.1 5.5-14.1 7.4c-3.2 1.3-6.9 2.9-9 5.7a4.89 4.89 0 00-.8 5.4c4.6 8.4 10.7 3.8 14.3 1.7 8.6-5.2 16.5-8.29 24.8-14 2.9-1.89 8.4-5.2 7.1-8.89z" class="cls-8"/>
      <path d="M221.58 348.73c.4 1.29 3.3 1.6 4.5 2.1 4.7 2 9.6 2.7 13.3 6.5 1.3 1.3 3.2 3.4 2.4 5.4-2.2 5.1-10 1.6-13.6.9-8.6-1.8-16.9-5.61-24.8-9.3-3.9-1.8-8.7-4.4-9.4-9.2-.8-5.21 3.7-7.9 8.5-7.21 4.4.6 8.7 4 12.4 6.1a44.34 44.34 0 014.6 2.9c.9.71 1.7.71 2.1 1.8z" class="cls-8"/>
      <path d="M195 168.92c0-.4 8.7 5.5 21 4.5.1 0-.1 5.9-.1 5.9s-1.5.3-3.7.5c-4.8.4-13.1.6-17.1-2.8-.4-.4-.3-5.4-.1-8.1zm-8.5-15.5c0-.1 1.9 2 6.2.9.2-.1-5.2 3.3-5.8 2.7-.4-.4-.4-3.3-.4-3.6zM209 358c0-.1 3.9-2.29 7.8-4.5.2-.1-1.6-2.7-1.4-2.79 3.5-2 8.8-1.4 8.8-1.4l2.3.7s15.9 4 16.2 11.5c0 .7-22.4-7.1-24.1-6.6a16 16 0 00-6.5 4.2c-.3.3-3.1-1-3.1-1.1zm1.1-18.1l-15.7 8.8-.4-.6 15-8.8 1.1.6z" class="cls-4"/>
      <path fill="none" stroke="#cf6e6e" stroke-linecap="round" stroke-linejoin="round" stroke-width="3.38" d="M224.38 135.72c1.6-2 3.4-2.39 5.5-.7m-21.1 2c1.7-2.39 4-2.19 6.4-1.1"/>
      <path fill="none" stroke="#cf6e6e" stroke-linecap="round" stroke-linejoin="round" stroke-width="1.54" d="M227.08 155.92c-3.9 4.2-10.4 4.6-15.5 2.7m-20.2-13.4c-2.2.11-3.8 3.4-3.3 5.2"/>
      <path fill="#c3d8d7" d="M252.28 234.63c-.8.79-.4-1.9-.5-3-.4-3.5-.4-7-1.1-10.4-.4-2.1-1-4.1-1.4-6.21-.2-.7-.3-1.39-.5-2.1-.1-.4-.7-1.29-.3-1.2.2 0 .7.9.8 1.1l2.1 4.2c2.3 5.3 5.7 13.3.9 17.61zm-88.8 1.79c.5-1.79 1.1-3.6 1.8-5.4 0-.1.6-2 .9-1.89s.1 1.29.1 1.39c.1 1.21.3 2.61.5 3.8.8 5 2.1 9.9.4 14.8"/>
      <path fill="none" stroke="#329297" stroke-linecap="round" stroke-linejoin="round" stroke-width="1.82" d="M177.08 313.52c4.6-1 9.3-.29 13.9.11 3.5.29 7 .5 10.5.79a99.41 99.41 0 0030.3-1.7m10.3-10.8c-13.8 2.71-27.8 5.9-41.9 6.5"/>
    </g>
    <path d="M237.78 339.32s-9.7-3-13.7-1.9-8.7 10.6-8.9 12.71 11.2 5.5 15.8 5.6c5.2 0 31.2 4.9 31.2 4.9l-18.6-19.4-5.8-1.9z" class="cls-1"/>
    <path fill="none" stroke="#cf6e6e" stroke-linecap="round" stroke-linejoin="round" d="M182.48 361.23s4-.21 5.9-2.71m-4.4 5.11s3.8-.21 5.6-2.71m-3.9 4.6s3.8-.2 5.7-2.7m-1.8 4.1a8.4 8.4 0 004.9-3.1"/>
    <path d="M321.38 162.72l-3-3 3-3a2.26 2.26 0 00-3.2-3.2l-3 3-3-3a2.26 2.26 0 00-3.2 3.2l3 3-3 3a2.26 2.26 0 003.2 3.2l3-3 3 3a2.26 2.26 0 003.2-3.2zm-84.2-148.79h-4.3v-4.2a2.32 2.32 0 00-2.3-2.3 2.26 2.26 0 00-2.3 2.3v4.2h-4.2a2.3 2.3 0 100 4.59h4.2v4.2a2.33 2.33 0 002.3 2.3 2.26 2.26 0 002.3-2.3v-4.2h4.2a2.33 2.33 0 002.3-2.3 2.23 2.23 0 00-2.2-2.29zm-207 98.7l-3-3 3-3a2.26 2.26 0 00-3.2-3.2l-3 3-3-3a2.26 2.26 0 00-3.2 3.2l3 3-3 3a2.26 2.26 0 003.2 3.2l3-3 3 3a2.26 2.26 0 003.2-3.2zm-8.1-95.5L15.88 11a2.84 2.84 0 010-4l6.2-6.2a2.86 2.86 0 014 0l6.2 6.2a2.84 2.84 0 010 4l-6.2 6.21a2.77 2.77 0 01-4-.08zm257.2 73l-6.2-6.2a2.84 2.84 0 010-4l6.2-6.2a2.84 2.84 0 014 0l6.2 6.2a2.84 2.84 0 010 4l-6.2 6.2a2.84 2.84 0 01-4 0zm-165.8-71.7a1.51 1.51 0 012.3-1.1l5.6 3.9 5.6 3.9a1.45 1.45 0 01-.2 2.5l-6.2 2.8-6.2 2.8a1.48 1.48 0 01-2.1-1.5l.6-6.8.6-6.5zM380 112.73a1.51 1.51 0 011.3-2.2l6.8.2 6.8.2a1.45 1.45 0 011.2 2.2l-3.6 5.8-3.6 5.8a1.42 1.42 0 01-2.5-.1l-3.2-6-3.2-5.9zm-262.6-20.2a3.55 3.55 0 01-1-.2c-5.2-2.4-5.7-7.5-5.6-11.1 0-2.4-3.5-4.8-4.5-5.3a2.53 2.53 0 112.3-4.5c.7.4 7.3 4 7.2 9.8-.1 4.3 1 5.7 2.7 6.5a2.44 2.44 0 011.2 3.3 2.47 2.47 0 01-2.3 1.5zm265.2-61.7a2 2 0 010 1.1c-1.1 5.6-5.9 7.3-9.5 8-2.4.5-3.8 4.5-4.1 5.6a2.47 2.47 0 01-4.8-1.2c.2-.8 2.2-8 7.9-9.2 4.2-.9 5.3-2.3 5.7-4.1a2.55 2.55 0 012.9-2 2.48 2.48 0 011.88 1.8zM2.38 218.73a1.8 1.8 0 011 .2c5.3 2.1 6.1 7.2 6.2 10.8.1 2.4 3.8 4.6 4.7 5.1a2.48 2.48 0 01-2.1 4.5c-.8-.4-7.5-3.6-7.6-9.5-.1-4.3-1.3-5.6-3-6.3a2.47 2.47 0 01-1.4-3.2 2.6 2.6 0 012.2-1.6zm396.7 40.9a4 4 0 01.5.89c1.7 5.5-1.8 9.21-4.6 11.61-1.8 1.6-1.3 5.79-1 6.89a2.48 2.48 0 01-4.8 1.21c-.2-.8-1.8-8.1 2.6-11.9 3.3-2.8 3.6-4.5 3-6.3a2.53 2.53 0 014.3-2.4z" class="cls-2"/>
</svg>
