<svg xmlns="http://www.w3.org/2000/svg" xml:space="preserve" id="lady" x="0" y="0" style="enable-background:new 0 0 400 453.9" version="1.1" viewBox="0 0 400 453.9">
  <style>
    .st0{fill:#616161}.st1{fill:#f8b091}.st2{fill:none;stroke:#cf6e6e;stroke-width:1.82;stroke-linecap:round;stroke-linejoin:round}.st3{fill:#f59064}.st7{fill:#f8b091;stroke:#f8b091;stroke-width:3;stroke-miterlimit:10}.st14{fill:#90d5d6;fill-rule:evenodd;clip-rule:evenodd}
  </style>
  <path d="M282.3 384.8c-5 .2-10 .6-15 1.4-7.7 1.1-15.2 2.9-22.6 5.2-7.9 2.8-15.8 6.1-24.2 6.9-5.4.5-10.9-.1-16.4-.7-16-1.7-32.5-4.7-48.5-4.3-8.3.2-16.4.2-24.6 1.3-7.3.9-16.6 1.8-23.3 5.2-10.2 3.3-19.9 8.5-27.3 16.1-5.7 5.8-10.2 14.2-7.7 22 2.5 7.5 10.6 11.6 18.3 13.6 38 9.6 75.3-12.2 112.3-17.6 22-3.2 42-.1 63.3 4.9 11.9 2.8 23.8 6 35.8 8 18.5 3 44.3 5.2 56.8-11.7 2.1-2.6 3.5-5.8 3.9-9.2.6-6-3.2-11.6-7.3-16-9.5-9.9-22-16.5-35.2-20.3-12.5-3.5-25.4-5.1-38.3-4.8z" class="st0 burst"/>
  <path d="M370.5 260.3c1.9.1 3.6 1.5 4 3.4.7 2.5.2 4.9-1.2 7.8.3-.4.7-.8 1.1-1.1 2.2-2.1 4.3-4.4 6.3-6.8 1-1.3 2.3-2.3 3.8-2.8.5-.1.9-.1 1.4-.1.5.1.9.3 1.2.6.5.9.4 2-.2 2.8-.2.4-.4.7-.7 1-.2.3-.9 1.2-.9 1.2-1.2 1.6-2.2 2.9-4.6 5.6l-2.8 3.5c.7-.6 1.3-1.1 2.5-2.2l.2-.2c1.8-1.7 3.8-3.3 5.8-4.8 1.2-.8 2.1-1.4 3-1.9l.6-.3c.5-.2 1.1-.2 1.5.2 1 .8.8 2-.1 3.3-.4.7-.9 1.3-1.5 1.9-2.1 2.2-3.9 4-7.5 7.6-.3.3-1.8 1.7-2.2 2.2-.2.3-.4.5-.7.7 1.4-1 2.7-1.9 5.1-3.6.2-.2 3.1-2.2 4.1-3 .7-.4 1.5-.8 2.3-1.1 1.6-.6 2.9-.5 3.1 1.1 0 .2 0 .4-.1.6-.1.5-.5.8-1 1.3-.1.1-.5.4-.5.5-.7.6-1.2 1.1-2.5 2.2l-2.8 2.4c-1.3 1.2-2.4 2.2-4.9 4.3 0 0-4 3.5-5.4 4.9-3.1 3.2-6.5 6.1-10.1 8.8-.6.6-1.1 1.2-1.4 2-.1.2-.3.5-.4.7-.1.2-.1.3-.2.5-.8 1.6-1.6 3.2-2.2 4.9-.1.2-1.1 2.6-1.4 3.4-.1.1-.2.2-.3.2 0 .4-.2.7-.5.9-.5.2-1.1 0-1.3-.5-.2-.5-.5-.9-.9-1.3 0 0-.6-.7-.8-1-1.3-1.8-2.7-3.5-4.2-5.1-.2-.2-.1-.2-.3-.4-1.4-1.5-2.7-3.1-3.9-4.7-.1-.1-.1-.3-.1-.4h-.2c-.5-.2-.7-.8-.5-1.3.4-1 .9-1.8 1.8-3.5 0 0 1.3-2.5 1.8-3.5l.4-.8c.1-.1.1-.2.2-.3.3-.5.5-1.1.5-1.7 0-.8-.2-1.6-.6-2.3-.1-.2-.2-.4-.2-.6-.1-.4-.2-.7-.3-1.1-.7-2.7-.6-5.6.3-8.3 1-2.8 2.6-5.4 4.8-7.5.2-.2.3-.4.5-.6.5-.6 1.1-1 1.8-1.2.3-.1.7-.1 1-.1 0-.3 0-.7.2-1 1.8-2.9 4.7-5 8-5.8.6.3 1.4.5 2.1.4zm-2.2 6.8c-.9.2-1.7.5-2.5.9-.9.4-1.8.7-2.8 1-.5.1-1 0-1.4-.2 0 .1.1.2.1.3.2.2.2.5.2.8-.3.9-.7 1.8-1.3 2.6 0 .2-.1.3-.2.4l-.1.1c-.1.1-.2.2-.2.4-.4.6-.7 1.3-.7 2.1.2 1.1 2.1 1.2 3.6.4 2.5-1.5 4.4-3.8 5.6-6.4.4-.7.5-1.4.5-2.2-.1-.2-.4-.3-.8-.2z" class="st1"/>
  <path d="M373.3 285.8c-3.8-1.5-9.5 1.4-12.3 3.9" class="st2"/>
  <path d="M349.2 296.6c1.8 1.2 3.5 2.6 5 4.1 1.8 1.9 6.6 6.2 7.4 6.9.8.7.9 1 .9 1l1.2-2.8-13.6-11c.1-.1-.9 1.8-.9 1.8z" class="st3"/>
  <path d="M68 272.2c-1.9-.3-3.8.8-4.5 2.6-1.1 2.4-1.1 4.8-.2 7.9-.3-.4-.6-.9-.9-1.3-1.8-2.5-3.5-5.1-5-7.8-.7-1.4-1.8-2.7-3.2-3.5-.4-.2-.9-.3-1.4-.3-.5 0-.9.1-1.3.4-.7.7-.7 1.6-.3 2.8.1.4.3.8.5 1.1.2.4.7 1.3.7 1.4.9 1.8 1.7 3.2 3.5 6.3 0 0 1.3 2.2 2.2 3.9-.6-.7-1.1-1.3-2.1-2.6l-.2-.2c-1.5-2-3.1-3.9-4.8-5.7-.8-.9-1.7-1.7-2.7-2.4-.2-.1-.4-.3-.6-.4-.4-.3-1-.4-1.5-.1-1.1.6-1.1 1.8-.5 3.2.3.8.7 1.5 1.2 2.2 1.7 2.5 3.1 4.6 6.1 8.8.2.3 1.4 2 1.8 2.6.1.3.3.5.5.8-1.2-1.2-2.4-2.3-4.4-4.5-.2-.2-2.7-2.8-3.6-3.7-.6-.6-1.3-1.1-2-1.5-1.5-.8-2.8-1-3.2.5-.1.2-.1.4 0 .6.1.5.4 1 .7 1.4.1.1.4.5.5.5.6.7 1 1.3 2.1 2.6 0 0 1.7 2.1 2.3 2.9 1.1 1.5 2 2.6 4 5.1 0 0 3.3 4.1 4.5 5.8 2.6 3.7 5.4 7.2 8.4 10.5.5.6.9 1.4 1 2.2.2.6.2.6.2.8s.1.3.1.5c.6 1.7 1 3.4 1.3 5.2.1.2.6 2.7.8 3.6 0 .1.1.2.2.3-.1.4 0 .8.3 1 .4.3 1 .2 1.2-.2 0 0 0-.1.1-.1.3-.4.7-.8 1.1-1.1.4-.3.7-.6 1-.9 1.6-1.6 3.3-3 5.1-4.3.2-.1.2-.2.4-.3 1.6-1.2 3.2-2.5 4.6-3.9.1-.1.1-.2.2-.4h.1c.5-.1.8-.7.7-1.2-.3-1.1-.5-1.9-1.1-3.7 0 0-.9-2.7-1.1-3.7-.1-.3-.1-.5-.2-.8-.1-.3-.1-.2-.1-.3-.2-.6-.3-1.2-.2-1.8.2-.8.5-1.5 1-2.1.2-.3.3-.4.3-.6.2-.3.4-.7.5-1 1.1-2.6 1.5-5.5 1.1-8.3-.5-3-1.7-5.8-3.5-8.2-.2-.2-.3-.5-.4-.7-.3-.6-.9-1.2-1.5-1.5-.3-.2-.7-.2-1-.2.1-.3.1-.7 0-1-1-2.9-4.2-6.3-6.9-7.1-.6.1-1.3 0-1.9-.1zm1 7.1c.8.3 1.6.7 2.3 1.3.8.6 1.7 1.1 2.6 1.5.5.1.9.2 1.4.1 0 .1-.1.2-.1.3-.2.2-.3.5-.3.8.1 1 .4 1.9.8 2.8 0 .1.1.3.1.4v.1c0 .1.1.3.1.4.4 1.1.5 1.8.3 2.2-.4 1.1-2.2.9-3.6-.2-2.2-1.9-3.7-4.5-4.3-7.3-.3-.7-.3-1.5-.1-2.3.1-.2.4-.3.8-.1z" class="st1"/>
  <path d="M60.8 296.8c4.1-.8 9.1 3 11.4 6" class="st2"/>
  <path d="m82.1 310.4-13.5 15.8-.9-4 14-13.8.4 2z" class="st3"/>
  <path d="M232.6 202.1c1.2-4.9.8-7.9-.7-12.7-2-6.3-8.9-11.2-14-14.9-6.1-4.6-13.3-7.9-20.8-9.4-11.8-2.2-25.2 1.4-32.5 11-2.7 3.6-4.5 7.8-7.4 11.3-8.4 10.3-23.5 11.7-35 18.4-15.2 8.8-27.8 30.1-16.2 46.1 3.6 5 8.1 9.8 9.2 16 .5 2.8.2 5.6.8 8.4.6 2.8 2.1 5.6 4.8 6.4 3.3 1 6.8-1.5 10.3-1 3 .4 5.3 3 6.8 5.6s2.7 5.6 4.8 7.8c8 8.2 18.8-.8 26.1-5.1 3.4-2 6.4-1.9 10.1-.3 6.4 2.7 12.3 6.5 18.9 8.4 9.8 2.8 18.7-.2 24.3-8.7 2.4-3.7 4.1-7.8 4.9-12.1.3-2.2.8-4.4 1.6-6.5 1.6-3.3 4.9-5.5 7.8-7.7 6.5-5.1 8-13.6 6.1-21.5-1.7-7-5.3-13.3-8.5-19.6-.7-1.4-1-3.1-1.7-4.6-1.1-2.4-2.4-4.6-2.9-7.2-.5-4.4 2-3.1 3.2-8.1z" class="st0"/>
  <path d="M221.1 256.3c-2.2 0-4.5.1-6.7.3-.9-.1-1.7-.1-2.6 0-.4 0-.7.1-1.1.2-1.1.2-1.6.2-2.2.3-.6.1-3.9.3-4.7.3-2.2.2-5.9.7-6.1.8-1.1.2-2 .3-4 .5-3.2.3-19.5 5.8-20.2 6.1-10.5 4.5-18 10.7-22 19.2-2.7 5.8-7.7 21.7-7.8 21.9-4.5 14.7-7 21.2-11.5 28.5-.5.8-9.6 14.2-13.1 15.5-22.7 8.7-31.7-26.7-35.4-41.5-6 5.9-11.4 12.3-16.1 19.3-.5.7-.9 1.5-1.2 2.4 0 1 .2 2.1.6 3 3.8 10.4 7.8 21 14.5 29.8s16.6 15.9 27.7 16.4c10.1.5 20-4.6 27.1-11.9s11.9-16.5 15.8-25.8c3.6-8.7 6.1-19.9 11.8-27.4 1.8 4 2.2 8.8 3.8 12.9 1.5 3.8 3.5 8.1 4.3 12 1 5.5 0 12.1-.4 17.6-.9 12.7-4.2 25.4-4.2 38.1 0 1.6 11.5 4.8 12.9 5.2 6.2 1.7 12.6 2.8 19 3.2 14 .9 26.7-2.2 40-6 .6-.2.9-.3 2.1-.6 6.2-1.8 14-4.7 13.8-5.2-7.4-22.6-10.7-50.8-5-74 .4-1.8 1.1-3.6 1.6-5.5 2 2.1 8.6 7.9 8.9 8.1 9.3 8 18.6 16.1 29.5 21.9 11.2 6 24.8 9.7 37.1 5.4 11.9-4.1 21.5-13.5 29.3-23.1 1.2-1.4 5.9-8.6 5.9-8.7 1-1.7 1.8-3.5 2.5-5.3.2-.2-5.5-4.9-5.8-5.2l-.5-.5c-.5-.5-1.1-1-1.7-1.7-3.6-3.7-7.1-7.1-11.9-9.2-3.5 8.3-8.7 15.8-15.1 22.1-2.2 2.3-4.8 4.1-7.6 5.5-6.1 2.7-13.2 1.3-19.4-1.1-17.3-6.9-29.5-21.4-41-35.4-1.8-2.2-3.4-4.6-4.8-7-.3-.4-.5-.7-.7-1.1-4.6-7.2-7.3-10.6-11.7-13.3-7.2-4.2-15.4-6.6-23.7-7z" style="fill:#e4f5f5"/>
  <path d="M214.3 190.2c0 .7-4.1 8.9-5.9 11.7-5.5 8.5-9.2 12.1-15 17.9-1-.8-2.2-1.2-3.4-1.2-1.8-.1-3.6.5-4.9 1.7-3.3 3.3-2.9 8.9 1.4 10.4 0 6.2 3.2 12 8.4 15.4-.1.1 0 19.1.4 20.2.6 1.9 2.4 3 4.8 3.9 4.3 1.4 12.9-1.6 13-1.7 1.2-.4 2.1-.8 2.4-1.6.3-.8.5-15.3.5-16.2 3.1-.4 6.1-1.4 8.9-2.8 3.6-2 7.9-7.1 9-8.5 2.8-3.8 3.8-8.3 4.1-15.5.6-12.8-5.5-24-8.1-26.3-5.9-5.3-15.6-7.8-15.6-7.4z" class="st1"/>
  <path d="M224.1 414.7c5.5.2 13.7-.7 19.2-1.2 10.6-.8 21.9.1 32.5-1 9.2-1 18.6.1 27.6 1.7 7.9 1.4 15.4 2.9 23 5.7" style="fill:none;stroke:#99e1e5;stroke-width:1.82;stroke-linecap:round;stroke-linejoin:round"/>
  <path d="M194.5 418.2c-14.3.5-28.7-.9-43-1.1s-29 .1-41.9 6.7" style="fill:none;stroke:#99e1e5;stroke-width:2.41;stroke-linecap:round;stroke-linejoin:round"/>
  <path d="M229.6 417.4c-.8-2.2-3.8-3.1-6.1-3.7-5.9-1.4-11.5 3.7-16.2 6.4s-9.1 5.5-14.1 7.4c-3.2 1.3-6.9 2.9-9 5.7-1.3 1.5-1.7 3.6-.8 5.4 4.6 8.4 10.7 3.8 14.3 1.7 8.6-5.2 16.5-8.3 24.8-14 2.9-1.9 8.4-5.2 7.1-8.9z" class="st7"/>
  <path d="M221.6 426c.4 1.3 3.3 1.6 4.5 2.1 4.7 2 9.6 2.7 13.3 6.5 1.3 1.3 3.2 3.4 2.4 5.4-2.2 5.1-10 1.6-13.6.9-8.6-1.8-16.9-5.6-24.8-9.3-3.9-1.8-8.7-4.4-9.4-9.2-.8-5.2 3.7-7.9 8.5-7.2 4.4.6 8.7 4 12.4 6.1 1.6.9 3.1 1.8 4.6 2.9.9.7 1.7.7 2.1 1.8z" class="st7"/>
  <path d="M195 246.2c0-.4 8.7 5.5 21 4.5.1 0-.1 5.9-.1 5.9s-1.5.3-3.7.5c-4.8.4-13.1.6-17.1-2.8-.4-.4-.3-5.4-.1-8.1zm-8.5-15.5c0-.1 1.9 2 6.2.9.2-.1-5.2 3.3-5.8 2.7-.4-.4-.4-3.3-.4-3.6zM209 435.3c0-.1 3.9-2.3 7.8-4.5.2-.1-1.6-2.7-1.4-2.8 3.5-2 8.8-1.4 8.8-1.4l2.3.7s15.9 4 16.2 11.5c0 .7-22.4-7.1-24.1-6.6-2.5.8-4.7 2.3-6.5 4.2-.3.3-3.1-1-3.1-1.1zm1.1-18.1-15.7 8.8-.4-.6 15-8.8 1.1.6z" class="st3"/>
  <path d="M224.4 213c1.6-2 3.4-2.4 5.5-.7m-21.1 2c1.7-2.4 4-2.2 6.4-1.1" style="fill:none;stroke:#cf6e6e;stroke-width:3.38;stroke-linecap:round;stroke-linejoin:round"/>
  <path d="M227.1 233.2c-3.9 4.2-10.4 4.6-15.5 2.7m-20.2-13.4c-2.2.1-3.8 3.4-3.3 5.2" style="fill:none;stroke:#cf6e6e;stroke-width:1.54;stroke-linecap:round;stroke-linejoin:round"/>
  <path d="M252.3 311.9c-.8.8-.4-1.9-.5-3-.4-3.5-.4-7-1.1-10.4-.4-2.1-1-4.1-1.4-6.2-.2-.7-.3-1.4-.5-2.1-.1-.4-.7-1.3-.3-1.2.2 0 .7.9.8 1.1l2.1 4.2c2.3 5.3 5.7 13.3.9 17.6zm-88.8 1.8c.5-1.8 1.1-3.6 1.8-5.4 0-.1.6-2 .9-1.9.3.1.1 1.3.1 1.4.1 1.2.3 2.6.5 3.8.8 5 2.1 9.9.4 14.8" style="fill:#c3d8d7"/>
  <path d="M177.1 390.8c4.6-1 9.3-.3 13.9.1 3.5.3 7 .5 10.5.8 10.1 1 20.3.4 30.3-1.7m10.3-10.8c-13.8 2.7-27.8 5.9-41.9 6.5" style="fill:none;stroke:#329297;stroke-width:1.82;stroke-linecap:round;stroke-linejoin:round"/>
  <path d="M237.8 416.6s-9.7-3-13.7-1.9-8.7 10.6-8.9 12.7 11.2 5.5 15.8 5.6c5.2 0 31.2 4.9 31.2 4.9l-18.6-19.4-5.8-1.9z" class="st0"/>
  <path d="M182.5 438.5s4-.2 5.9-2.7m-4.4 5.1s3.8-.2 5.6-2.7m-3.9 4.6s3.8-.2 5.7-2.7m-1.8 4.1c1.9-.4 3.7-1.5 4.9-3.1" style="fill:none;stroke:#cf6e6e;stroke-linecap:round;stroke-linejoin:round"/>
  <path d="M35.1 93.9c6.7 0 12.1 5.4 12.1 12.1 0 6.7-5.4 12.1-12.1 12.1-6.7 0-12.1-5.4-12.1-12.1 0-6.7 5.4-12.1 12.1-12.1m0-4.6c-9.3 0-16.8 7.5-16.8 16.8s7.5 16.8 16.8 16.8 16.8-7.5 16.8-16.8-7.5-16.8-16.8-16.8zm83.5-16.8c6.7 0 12.1 5.4 12.1 12.1 0 6.7-5.4 12.1-12.1 12.1-6.7 0-12.1-5.4-12.1-12.1-.1-6.7 5.4-12.1 12.1-12.1m0-4.6c-9.3 0-16.8 7.5-16.8 16.8s7.5 16.8 16.8 16.8 16.8-7.5 16.8-16.8-7.6-16.8-16.8-16.8zM21.9 290.7c6.7 0 12.1 5.4 12.1 12.1 0 6.7-5.4 12.1-12.1 12.1-6.7 0-12.1-5.4-12.1-12.1-.1-6.7 5.4-12.1 12.1-12.1m0-4.6c-9.3 0-16.8 7.5-16.8 16.8s7.5 16.8 16.8 16.8 16.8-7.5 16.8-16.8c-.1-9.3-7.6-16.8-16.8-16.8zm255.8-124.2c6.7 0 12.1 5.4 12.1 12.1s-5.4 12.1-12.1 12.1c-6.7 0-12.1-5.4-12.1-12.1-.1-6.6 5.4-12.1 12.1-12.1m0-4.6c-9.3 0-16.8 7.5-16.8 16.8s7.5 16.8 16.8 16.8 16.8-7.5 16.8-16.8c-.1-9.3-7.6-16.8-16.8-16.8zM80.2 6.1c6.7 0 12.1 5.4 12.1 12.1 0 6.7-5.4 12.1-12.1 12.1-6.7 0-12.1-5.4-12.1-12.1 0-6.7 5.4-12.1 12.1-12.1m0-4.7c-9.3 0-16.8 7.5-16.8 16.8S71 34.9 80.2 34.9c9.3 0 16.8-7.5 16.8-16.8S89.5 1.4 80.2 1.4zM356.4 106c6.7 0 12.1 5.4 12.1 12.1 0 6.7-5.4 12.1-12.1 12.1-6.7 0-12.1-5.4-12.1-12.1 0-6.7 5.4-12.1 12.1-12.1m0-4.6c-9.3 0-16.8 7.5-16.8 16.8s7.5 16.8 16.8 16.8 16.8-7.5 16.8-16.8-7.5-16.8-16.8-16.8zm-54.5-57c0-6.7 5.4-12.1 12.1-12.1 6.7 0 12.1 5.4 12.1 12.1s-5.4 12.1-12.1 12.1c-6.7.1-12.1-5.4-12.1-12.1m-4.7 0c0 9.3 7.5 16.8 16.8 16.8s16.8-7.5 16.8-16.8-7.5-16.8-16.8-16.8-16.8 7.6-16.8 16.8z" style="fill:#90d5d6"/>
  <g id="Icon_Plus_00000039121932749547419340000011783721150270757516_">
    <path id="Icon-Plus_00000118366782076391333490000013230430562412419762_" d="M189.1 40.8c0-.4-.3-.7-.7-.7h-14v-14c0-.4-.3-.7-.7-.7H171c-.4 0-.7.3-.7.7v14h-14c-.4 0-.7.3-.7.7v2.8c0 .4.3.7.7.7h14v14c0 .4.3.7.7.7h2.8c.4 0 .7-.3.7-.7v-14h14c.4 0 .7-.3.7-.7v-2.8z" class="st14"/>
  </g>
  <g id="Icon_Plus-7_00000158746011501969645410000001118425641812667583_">
    <path id="Icon-Plus-7_00000093153762661428216550000001157919472298147722_" d="M34.3 226.1c.4 0 .7-.3.7-.7v-14h14c.4 0 .7-.3.7-.7v-2.8c0-.4-.3-.7-.7-.7H35v-14c0-.4-.3-.7-.7-.7h-2.8c-.4 0-.7.3-.7.7v14h-14c-.4 0-.7.3-.7.7v2.8c0 .4.3.7.7.7h14v14c0 .4.3.7.7.7h2.8z" class="st14"/>
  </g>
  <g id="Icon_Plus-7_00000151518466654489848310000016288924442238689213_">
    <path id="Icon-Plus-7_00000026843447254195579940000011627883525704904064_" d="M115.1 173.2c.4 0 .7-.3.7-.7v-14h14c.4 0 .7-.3.7-.7V155c0-.4-.3-.7-.7-.7h-14v-14c0-.4-.3-.7-.7-.7h-2.8c-.4 0-.7.3-.7.7v14h-14c-.4 0-.7.3-.7.7v2.8c0 .4.3.7.7.7h14v14c0 .4.3.7.7.7h2.8z" class="st14"/>
  </g>
  <g id="Icon_Plus-7_00000035513275429026974910000010294490827428889273_">
    <path id="Icon-Plus-7_00000124154748067542235000000008228443072925993608_" d="M231.8 110.5c.4 0 .7-.3.7-.7v-14h14c.4 0 .7-.3.7-.7v-2.8c0-.4-.3-.7-.7-.7h-14v-14c0-.4-.3-.7-.7-.7H229c-.4 0-.7.3-.7.7v14h-14c-.4 0-.7.3-.7.7v2.8c0 .4.3.7.7.7h14v14c0 .4.3.7.7.7h2.8z" class="st14"/>
  </g>
  <g id="Icon_Plus-7_00000092422926028446069190000001061465376189539716_">
    <path id="Icon-Plus-7_00000127035997728309734050000007298560965222584495_" d="M381.2 34.9c.4 0 .7-.3.7-.7v-14h14c.4 0 .7-.3.7-.7v-2.8c0-.4-.3-.7-.7-.7h-14V2c0-.4-.3-.7-.7-.7h-2.8c-.4 0-.7.3-.7.7v14h-14c-.4 0-.7.3-.7.7v2.8c0 .4.3.7.7.7h14v14c0 .4.3.7.7.7h2.8z" class="st14"/>
  </g>
  <g id="Icon_Plus-7_00000075879329091816419550000004658505920172160641_">
    <path id="Icon-Plus-7_00000021797919687299050240000002395799689811856818_" d="M315.1 271.3c.4 0 .7-.3.7-.7v-14h14c.4 0 .7-.3.7-.7v-2.8c0-.4-.3-.7-.7-.7h-14v-14c0-.4-.3-.7-.7-.7h-2.8c-.4 0-.7.3-.7.7v14h-14c-.4 0-.7.3-.7.7v2.8c0 .4.3.7.7.7h14v14c0 .4.3.7.7.7h2.8z" class="st14"/>
  </g>
  <g id="Icon_Plus-7_00000095334560108007225670000000299354011920326530_">
    <path id="Icon-Plus-7_00000104706141237082040690000012487342139500128933_" d="M381.2 210.5c.4 0 .7-.3.7-.7v-14h14c.4 0 .7-.3.7-.7v-2.8c0-.4-.3-.7-.7-.7h-14v-14c0-.4-.3-.7-.7-.7h-2.8c-.4 0-.7.3-.7.7v14h-14c-.4 0-.7.3-.7.7v2.8c0 .4.3.7.7.7h14v14c0 .4.3.7.7.7h2.8z" class="st14"/>
  </g>
  <g id="Icon_Plus-7_00000152230404746878473980000006931918534814391188_">
    <path id="Icon-Plus-7_00000178199852505949070100000008821894956140264071_" d="M381.2 364.4c.4 0 .7-.3.7-.7v-14h14c.4 0 .7-.3.7-.7v-2.8c0-.4-.3-.7-.7-.7h-14v-14c0-.4-.3-.7-.7-.7h-2.8c-.4 0-.7.3-.7.7v14h-14c-.4 0-.7.3-.7.7v2.8c0 .4.3.7.7.7h14v14c0 .4.3.7.7.7h2.8z" class="st14"/>
  </g>
</svg>
