<svg xmlns="http://www.w3.org/2000/svg" xmlns:xlink="http://www.w3.org/1999/xlink" viewBox="0 0 483.04 101.04"><defs><style>.cls-1{fill:none;}.cls-2{clip-path:url(#clip-path);}.cls-3{fill:#232323;}.cls-4{fill:#1ca6a3;}</style><clipPath id="clip-path" transform="translate(0 0)"><rect class="cls-1" width="483.04" height="101.04"/></clipPath></defs><g id="Layer_2" data-name="Layer 2"><g id="Layer_1-2" data-name="Layer 1"><g class="cls-2"><path class="cls-3" d="M302.75,32.87V29.11h-8.49V25.32h7.58V21.78h-7.58V18.33h8V14.62H290V32.87Zm-23-11.52A2,2,0,0,1,279,22a3.82,3.82,0,0,1-1,.32,7.11,7.11,0,0,1-1.11.09h-2.1V18.18h2.35a7.43,7.43,0,0,1,1,.07,3,3,0,0,1,1,.3,2,2,0,0,1,.7.62,1.8,1.8,0,0,1,.27,1,2,2,0,0,1-.3,1.14m5.63,11.52-4.76-7.81a5.45,5.45,0,0,0,2.78-1.81,4.85,4.85,0,0,0,1-3.12,5.23,5.23,0,0,0-.6-2.62,4.73,4.73,0,0,0-1.58-1.71,6.7,6.7,0,0,0-2.25-.91,12.09,12.09,0,0,0-2.56-.27h-7V32.87h4.3V25.63h1.51l4,7.24ZM260.52,26a5.31,5.31,0,0,1-1.09,1.79,4.86,4.86,0,0,1-1.65,1.17,5,5,0,0,1-2.11.43,5.09,5.09,0,0,1-2.12-.43,4.78,4.78,0,0,1-1.63-1.17A5.43,5.43,0,0,1,250.85,26a6.5,6.5,0,0,1-.39-2.28,6.71,6.71,0,0,1,.37-2.22,5.09,5.09,0,0,1,1.07-1.77,5.35,5.35,0,0,1,1.65-1.16,5.24,5.24,0,0,1,2.12-.42,5.33,5.33,0,0,1,2.13.42,5.13,5.13,0,0,1,1.65,1.16,5.41,5.41,0,0,1,1.07,1.77,6.47,6.47,0,0,1,.38,2.22,6.73,6.73,0,0,1-.38,2.28m4.35-6.24a8.66,8.66,0,0,0-2.07-3,9.25,9.25,0,0,0-3.16-1.91,12.07,12.07,0,0,0-7.93,0,9.17,9.17,0,0,0-3.14,1.91,8.55,8.55,0,0,0-2.08,3,10.06,10.06,0,0,0-.75,4,10.11,10.11,0,0,0,.75,3.95,8.92,8.92,0,0,0,2.08,3.07,9.15,9.15,0,0,0,3.14,2,11.58,11.58,0,0,0,7.93,0,9.24,9.24,0,0,0,3.16-2,9,9,0,0,0,2.07-3.07,10.11,10.11,0,0,0,.75-3.95,10.06,10.06,0,0,0-.75-4M243.09,30.34,240,27.46a4.57,4.57,0,0,1-1.57,1.34,4.94,4.94,0,0,1-2.3.51,5.16,5.16,0,0,1-2.09-.41,4.73,4.73,0,0,1-1.63-1.15A5.13,5.13,0,0,1,231.36,26a6.4,6.4,0,0,1-.39-2.27,6.18,6.18,0,0,1,.39-2.23,5.3,5.3,0,0,1,1.08-1.77,4.9,4.9,0,0,1,1.66-1.17,5.38,5.38,0,0,1,4.19,0,3.7,3.7,0,0,1,1.63,1.26l3-3a7.38,7.38,0,0,0-3-2,11.18,11.18,0,0,0-3.81-.68,11,11,0,0,0-3.89.67A9.38,9.38,0,0,0,229,16.72a8.58,8.58,0,0,0-2.1,3,9.93,9.93,0,0,0-.77,4,10,10,0,0,0,.75,3.92,9,9,0,0,0,5.17,5,10.61,10.61,0,0,0,3.91.7,9.84,9.84,0,0,0,4.1-.81,8.74,8.74,0,0,0,3-2.21m-21,2.53V29.11h-8.48V25.32h7.58V21.78h-7.58V18.33h8V14.62H209.31V32.87ZM204.47,18.38V14.62H189.75v3.76h5.15V32.87h4.41V18.38ZM184.9,14.62h-4.43V32.87h4.43Zm-9.8,1.78a8.2,8.2,0,0,0-2.82-1.68,9.43,9.43,0,0,0-3.16-.57,10,10,0,0,0-2.55.33,7,7,0,0,0-2.27,1,5.42,5.42,0,0,0-1.62,1.78,5.09,5.09,0,0,0-.62,2.61,5,5,0,0,0,.4,2.1,4.74,4.74,0,0,0,1,1.47,5.92,5.92,0,0,0,1.5,1,15.53,15.53,0,0,0,1.71.67l1.61.53a5.54,5.54,0,0,1,1.19.54,2.68,2.68,0,0,1,.74.66,1.46,1.46,0,0,1,.25.87,2,2,0,0,1-.2.93,1.68,1.68,0,0,1-.56.62,2.28,2.28,0,0,1-.81.34,4.32,4.32,0,0,1-.95.1,4.76,4.76,0,0,1-2.18-.55A5.4,5.4,0,0,1,164,27.77l-2.89,2.94a8,8,0,0,0,3,1.94,10.63,10.63,0,0,0,3.79.68,9.43,9.43,0,0,0,2.6-.36,6.79,6.79,0,0,0,2.24-1.1,5.27,5.27,0,0,0,1.56-1.9,5.9,5.9,0,0,0,.58-2.72,4.42,4.42,0,0,0-.54-2.28,5.3,5.3,0,0,0-1.36-1.54,7.33,7.33,0,0,0-1.83-1c-.68-.25-1.32-.47-1.94-.68l-1.16-.4a4.92,4.92,0,0,1-.89-.43,1.65,1.65,0,0,1-.57-.54,1.49,1.49,0,0,1-.19-.77,1.46,1.46,0,0,1,.25-.89,2,2,0,0,1,.6-.57,2.37,2.37,0,0,1,.81-.29,4.53,4.53,0,0,1,.89-.08,4.23,4.23,0,0,1,1.77.42,4.07,4.07,0,0,1,1.48,1.15Z" transform="translate(0 0)"/><path class="cls-3" d="M307.48,16.34v-.58h.34a.65.65,0,0,1,.27.05.21.21,0,0,1,.13.22.24.24,0,0,1-.14.25.8.8,0,0,1-.3.06Zm-.36,1.14h.36v-.85h.27l.47.85h.45l-.55-.89a.58.58,0,0,0,.34-.19.53.53,0,0,0,.13-.36.51.51,0,0,0-.07-.28.58.58,0,0,0-.17-.18.64.64,0,0,0-.24-.1,1.27,1.27,0,0,0-.28,0h-.71Zm-.7-1.6a1.51,1.51,0,0,1,.33-.49,1.44,1.44,0,0,1,.48-.32,1.5,1.5,0,0,1,.6-.12,1.45,1.45,0,0,1,.59.12,1.35,1.35,0,0,1,.48.32,1.51,1.51,0,0,1,.33.49,1.45,1.45,0,0,1,.12.59,1.48,1.48,0,0,1-.12.59,1.63,1.63,0,0,1-.33.49,1.23,1.23,0,0,1-.48.32,1.45,1.45,0,0,1-.59.12,1.5,1.5,0,0,1-.6-.12,1.31,1.31,0,0,1-.48-.32,1.63,1.63,0,0,1-.33-.49,1.48,1.48,0,0,1-.12-.59,1.45,1.45,0,0,1,.12-.59m-.26,1.29a1.7,1.7,0,0,0,.39.57,1.9,1.9,0,0,0,.57.38,1.85,1.85,0,0,0,1.41,0,1.9,1.9,0,0,0,.57-.38,1.7,1.7,0,0,0,.39-.57,1.82,1.82,0,0,0,0-1.4,1.61,1.61,0,0,0-.39-.57,1.92,1.92,0,0,0-.57-.39,1.85,1.85,0,0,0-1.41,0,1.92,1.92,0,0,0-.57.39,1.61,1.61,0,0,0-.39.57,1.82,1.82,0,0,0,0,1.4" transform="translate(0 0)"/><path class="cls-4" d="M49,36.57A14.24,14.24,0,0,0,34.82,50.78V84.62A14.24,14.24,0,0,0,49,98.83H82.87A14.23,14.23,0,0,0,97.08,84.62V50.78A14.23,14.23,0,0,0,82.87,36.57ZM82.87,101H49A16.44,16.44,0,0,1,32.62,84.62V50.78A16.44,16.44,0,0,1,49,34.36H82.87A16.44,16.44,0,0,1,99.29,50.78V84.62A16.44,16.44,0,0,1,82.87,101" transform="translate(0 0)"/></g><polygon class="cls-4" points="53.98 81.43 46.47 54.51 42.32 54.51 42.32 52.3 48.14 52.3 56.1 80.84 53.98 81.43"/><rect class="cls-4" x="60.66" y="83.38" width="11.83" height="2.21"/><g class="cls-2"><path class="cls-4" d="M76.29,81.46A2.66,2.66,0,1,0,79,84.12a2.66,2.66,0,0,0-2.66-2.66m0,7.53a4.87,4.87,0,1,1,4.87-4.87A4.88,4.88,0,0,1,76.29,89" transform="translate(0 0)"/><path class="cls-4" d="M56.86,81.46a2.66,2.66,0,1,0,2.66,2.66,2.66,2.66,0,0,0-2.66-2.66m0,7.53a4.87,4.87,0,1,1,4.87-4.87A4.88,4.88,0,0,1,56.86,89" transform="translate(0 0)"/></g><polygon class="cls-4" points="80.65 76.81 54 76.81 54 74.6 79.01 74.6 83.21 60.52 77.55 60.52 77.55 58.32 86.17 58.32 80.65 76.81"/><rect class="cls-4" x="49.68" y="58.32" width="7.18" height="2.21"/><g class="cls-2"><path class="cls-4" d="M67.14,51.65A9.31,9.31,0,1,0,76.45,61a9.32,9.32,0,0,0-9.31-9.31m0,20.82A11.52,11.52,0,1,1,78.66,61,11.52,11.52,0,0,1,67.14,72.47" transform="translate(0 0)"/><path class="cls-4" d="M65.44,65.73a1.11,1.11,0,0,1-.8-.35L62,62.64a1.1,1.1,0,1,1,1.6-1.52l1.74,1.82,5.18-6.63a1.1,1.1,0,1,1,1.74,1.36l-6,7.63a1.08,1.08,0,0,1-.81.42h-.06" transform="translate(0 0)"/><path d="M102.07,76.73V74.52c14.71,0,27.62-13,27.62-27.79a27,27,0,0,0-26.94-26.94,19.86,19.86,0,0,0-6.85.88l-1,.32-.36-1c-.26-.73-6.63-17.78-28.71-17.78h-.74a33,33,0,0,0-28.52,17l-.37.69-.78-.12a46.16,46.16,0,0,0-5.5-.61,27.7,27.7,0,1,0,0,55.39v2.21a29.91,29.91,0,1,1,0-59.81,40.86,40.86,0,0,1,5.1.52A35.2,35.2,0,0,1,65,0C86.2-.36,94.38,14.34,96.2,18.28a22.67,22.67,0,0,1,6.55-.7A29.18,29.18,0,0,1,131.9,46.73c0,16.26-13.66,30-29.83,30" transform="translate(0 0)"/><path d="M85.26,23a1.12,1.12,0,0,1-1-.59c-6.9-13-26.69-8.32-26.89-8.28a1.1,1.1,0,0,1-1.34-.8A1.12,1.12,0,0,1,56.86,12a40.82,40.82,0,0,1,11.64-.85c8.39.64,14.52,4.17,17.73,10.24a1.1,1.1,0,0,1-.46,1.49,1.17,1.17,0,0,1-.51.13" transform="translate(0 0)"/><path class="cls-3" d="M460.57,89V48.88h-8.71V65.4h-.1A11.06,11.06,0,0,0,448.62,63a10.11,10.11,0,0,0-4.94-1.11A11.61,11.61,0,0,0,434.57,66a13.63,13.63,0,0,0-2.49,4.43,15.92,15.92,0,0,0-.88,5.29,16.59,16.59,0,0,0,.85,5.31,13.7,13.7,0,0,0,2.47,4.49,12.25,12.25,0,0,0,4,3.11,11.65,11.65,0,0,0,5.31,1.17,12,12,0,0,0,5-1.09,8.31,8.31,0,0,0,3.64-3.11h.1V89Zm-8.79-10.78a7.09,7.09,0,0,1-1.27,2.18,6.57,6.57,0,0,1-2,1.54,5.88,5.88,0,0,1-2.66.58,6,6,0,0,1-2.71-.58,6.1,6.1,0,0,1-2-1.54,6.4,6.4,0,0,1-1.2-2.21,8.09,8.09,0,0,1-.4-2.52,7.93,7.93,0,0,1,.4-2.5,6.13,6.13,0,0,1,3.16-3.66,6,6,0,0,1,2.71-.59,5.88,5.88,0,0,1,2.66.59,6.41,6.41,0,0,1,2,1.54,7,7,0,0,1,1.27,2.18,7.14,7.14,0,0,1,0,5M426.79,89V62.58h-8.71V76.87a6.72,6.72,0,0,1-1.2,4,4,4,0,0,1-3.47,1.7,3.78,3.78,0,0,1-2-.45,3.43,3.43,0,0,1-1.2-1.25,5.39,5.39,0,0,1-.61-1.8,14.5,14.5,0,0,1-.16-2.13V62.58h-8.76V78.94a15.92,15.92,0,0,0,.5,4,9.85,9.85,0,0,0,1.65,3.45,8.64,8.64,0,0,0,3,2.47,9.54,9.54,0,0,0,4.48,1A9.09,9.09,0,0,0,413,89.4a10.48,10.48,0,0,0,2.29-1,7.81,7.81,0,0,0,1.8-1.38,7.36,7.36,0,0,0,1.25-1.7h.11V89ZM395.35,69.86a13,13,0,0,0-3.19-4.41,14.1,14.1,0,0,0-4.68-2.76,17.22,17.22,0,0,0-11.34,0,13.76,13.76,0,0,0-4.67,2.76,13,13,0,0,0-3.16,4.41,14.07,14.07,0,0,0-1.17,5.84,14.28,14.28,0,0,0,1.17,5.87A13.33,13.33,0,0,0,371.47,86a14.28,14.28,0,0,0,4.67,2.84,16.42,16.42,0,0,0,11.34,0A14.65,14.65,0,0,0,392.16,86a13.26,13.26,0,0,0,3.19-4.46,14.44,14.44,0,0,0,1.16-5.87,14.23,14.23,0,0,0-1.16-5.84m-7.63,8.34a6.71,6.71,0,0,1-1.19,2.2,5.83,5.83,0,0,1-2,1.57,6.6,6.6,0,0,1-5.41,0,5.83,5.83,0,0,1-2-1.57,6.92,6.92,0,0,1-1.2-2.2,8.21,8.21,0,0,1,0-5,6.68,6.68,0,0,1,1.17-2.15,6.3,6.3,0,0,1,7.36-1.51,6.31,6.31,0,0,1,2,1.51,6.79,6.79,0,0,1,1.22,2.15,7.67,7.67,0,0,1,.42,2.5,7.93,7.93,0,0,1-.4,2.5M361.56,48.88h-8.81V89h8.81ZM348.18,83.83l-6.32-6a9.31,9.31,0,0,1-3.24,2.76,10,10,0,0,1-4.73,1.06,10.65,10.65,0,0,1-4.3-.85,9.86,9.86,0,0,1-3.38-2.36,11,11,0,0,1-2.2-3.64,13.23,13.23,0,0,1-.8-4.67,12.88,12.88,0,0,1,.8-4.6,11.12,11.12,0,0,1,2.23-3.64,10.33,10.33,0,0,1,3.43-2.41,10.68,10.68,0,0,1,4.38-.88,11,11,0,0,1,4.25.85,7.65,7.65,0,0,1,3.35,2.6l6.16-6.16a15.07,15.07,0,0,0-6.24-4.12,23.31,23.31,0,0,0-15.86,0,19.24,19.24,0,0,0-6.48,4A18.15,18.15,0,0,0,314.9,62a22,22,0,0,0,0,16.25,18.63,18.63,0,0,0,10.65,10.36A22.19,22.19,0,0,0,333.57,90,20.26,20.26,0,0,0,342,88.37a18.06,18.06,0,0,0,6.16-4.54M307.92,62.05a4.53,4.53,0,0,0-.83-.16,8.67,8.67,0,0,0-1,0,7.44,7.44,0,0,0-4.31,1.27,8.57,8.57,0,0,0-2.86,3.29h-.11V62.58h-8.39V89h8.71V75.43a6.25,6.25,0,0,1,.32-1.85,5.73,5.73,0,0,1,1-2,6,6,0,0,1,1.92-1.54,6.09,6.09,0,0,1,2.94-.64,10.09,10.09,0,0,1,1.09.06,6,6,0,0,1,1.14.21ZM265.74,72.78a4.81,4.81,0,0,1,.53-1.94,5.43,5.43,0,0,1,1.28-1.62,6.12,6.12,0,0,1,1.86-1.09,6.66,6.66,0,0,1,2.33-.4,4.93,4.93,0,0,1,3.91,1.49,5.21,5.21,0,0,1,1.3,3.56ZM284,70.07a13.22,13.22,0,0,0-2.74-4.52,11.93,11.93,0,0,0-4.19-2.84,14.37,14.37,0,0,0-5.37-1,15.47,15.47,0,0,0-5.63,1,13.36,13.36,0,0,0-4.51,2.84,13.15,13.15,0,0,0-3,4.46,16,16,0,0,0,0,11.82,12.53,12.53,0,0,0,3.14,4.38A13.56,13.56,0,0,0,266.33,89a16.88,16.88,0,0,0,5.63.93,16.18,16.18,0,0,0,7.09-1.46A12.23,12.23,0,0,0,284,84.25l-6-3.82a7.09,7.09,0,0,1-2.34,2,7.4,7.4,0,0,1-3.51.77,6.91,6.91,0,0,1-2.26-.37,6.82,6.82,0,0,1-2-1,5.73,5.73,0,0,1-1.43-1.56,4.57,4.57,0,0,1-.67-2h19.18c0-.32.05-.66.05-1V76.12a17.49,17.49,0,0,0-1-6.05m-31.1,19V48.88h-8.71V65.4h-.11A11,11,0,0,0,240.94,63,10.16,10.16,0,0,0,236,61.84,11.61,11.61,0,0,0,226.89,66a13.66,13.66,0,0,0-2.5,4.43,16.17,16.17,0,0,0-.88,5.29,16.87,16.87,0,0,0,.85,5.31,13.7,13.7,0,0,0,2.47,4.49,12.25,12.25,0,0,0,4,3.11,11.71,11.71,0,0,0,5.31,1.17,11.93,11.93,0,0,0,5-1.09,8.25,8.25,0,0,0,3.64-3.11h.11V89ZM244.1,78.25a7.12,7.12,0,0,1-1.28,2.18,6.45,6.45,0,0,1-2,1.54,5.85,5.85,0,0,1-2.66.58,5.93,5.93,0,0,1-2.7-.58,6.14,6.14,0,0,1-2-1.54,6.57,6.57,0,0,1-1.2-2.21,8.39,8.39,0,0,1-.39-2.52,8.21,8.21,0,0,1,.39-2.5,6.38,6.38,0,0,1,1.2-2.15,6.2,6.2,0,0,1,2-1.51,5.93,5.93,0,0,1,2.7-.59,5.85,5.85,0,0,1,2.66.59,6.3,6.3,0,0,1,2,1.54,7,7,0,0,1,1.28,2.18,7.14,7.14,0,0,1,0,5m-22.87-16.2a4.4,4.4,0,0,0-.82-.16,8.94,8.94,0,0,0-1,0,7.41,7.41,0,0,0-4.3,1.27,8.59,8.59,0,0,0-2.87,3.29h-.11V62.58H203.7V89h8.71V75.43a6.59,6.59,0,0,1,.32-1.85,5.76,5.76,0,0,1,1-2,5.83,5.83,0,0,1,1.91-1.54,6.16,6.16,0,0,1,2.95-.64,10.38,10.38,0,0,1,1.09.06,6,6,0,0,1,1.14.21Zm-24.59-.13a17.92,17.92,0,0,0-4.28-6.19,18.91,18.91,0,0,0-6.51-3.93,24.84,24.84,0,0,0-16.33,0A19,19,0,0,0,163,55.73a17.92,17.92,0,0,0-4.28,6.19,20.81,20.81,0,0,0-1.54,8.15,21.09,21.09,0,0,0,1.54,8.15A18.65,18.65,0,0,0,163,84.54a19,19,0,0,0,6.48,4.07,24,24,0,0,0,16.33,0,18.91,18.91,0,0,0,6.51-4.07,18.65,18.65,0,0,0,4.28-6.32,21.09,21.09,0,0,0,1.54-8.15,20.81,20.81,0,0,0-1.54-8.15m-9,12.85a10.94,10.94,0,0,1-2.23,3.69,10.45,10.45,0,0,1-3.4,2.42,11.22,11.22,0,0,1-8.71,0,10.16,10.16,0,0,1-3.38-2.42,11.21,11.21,0,0,1-2.2-3.69,14.08,14.08,0,0,1,0-9.27,10.27,10.27,0,0,1,5.61-6,10.63,10.63,0,0,1,4.35-.87,10.85,10.85,0,0,1,4.39.87,10.35,10.35,0,0,1,3.4,2.39,11.08,11.08,0,0,1,2.2,3.64,13,13,0,0,1,.8,4.57,13.44,13.44,0,0,1-.8,4.7" transform="translate(0 0)"/></g><path class="cls-3" d="M464.57,48.88V50h2.93v7.73h1.3V50h2.87V48.88Zm16.53,0-2.79,6.81-2.78-6.81h-2v8.89h1.3V50.3h0l3,7.47h.84l3-7.47h0v7.47H483V48.88Z" transform="translate(0 0)"/></g></g></svg>