<svg xmlns="http://www.w3.org/2000/svg" viewBox="0 0 131.9 101.04"><defs><style>.cls-1{fill:#1ca6a3;}</style></defs><g id="Layer_2" data-name="Layer 2"><g id="Layer_1-2" data-name="Layer 1"><rect class="cls-1" x="60.66" y="83.38" width="11.83" height="2.21"/><polygon class="cls-1" points="80.65 76.81 54 76.81 54 74.6 79.01 74.6 83.21 60.52 77.55 60.52 77.55 58.32 86.17 58.32 80.65 76.81"/><rect class="cls-1" x="49.68" y="58.32" width="7.18" height="2.21"/><path class="cls-1" d="M67.14,51.65A9.31,9.31,0,1,0,76.45,61a9.32,9.32,0,0,0-9.31-9.31m0,20.82A11.52,11.52,0,1,1,78.66,61,11.52,11.52,0,0,1,67.14,72.47"/><path class="cls-1" d="M65.44,65.73a1.11,1.11,0,0,1-.8-.35L62,62.64a1.1,1.1,0,1,1,1.59-1.52l1.74,1.82,5.18-6.63a1.1,1.1,0,1,1,1.74,1.36l-6,7.63a1.08,1.08,0,0,1-.81.42h-.06"/><path d="M102.07,76.73V74.52c14.71,0,27.62-13,27.62-27.79a27,27,0,0,0-26.94-26.94,19.86,19.86,0,0,0-6.85.88l-1,.32-.36-1c-.26-.73-6.63-17.78-28.71-17.78h-.74a33,33,0,0,0-28.51,17l-.38.69-.78-.12a46.16,46.16,0,0,0-5.5-.61,27.7,27.7,0,1,0,0,55.39v2.21a29.91,29.91,0,1,1,0-59.81,40.86,40.86,0,0,1,5.1.52A35.2,35.2,0,0,1,65,0C86.2-.36,94.38,14.34,96.2,18.28a22.71,22.71,0,0,1,6.55-.7A29.18,29.18,0,0,1,131.9,46.73c0,16.26-13.66,30-29.83,30"/><path d="M85.26,23a1.12,1.12,0,0,1-1-.59c-6.9-13-26.69-8.32-26.89-8.28a1.1,1.1,0,0,1-1.34-.8A1.12,1.12,0,0,1,56.86,12a40.82,40.82,0,0,1,11.64-.85c8.39.64,14.52,4.17,17.73,10.24a1.1,1.1,0,0,1-.46,1.49,1.17,1.17,0,0,1-.51.13"/><polygon class="cls-1" points="53.98 81.43 46.47 54.51 42.32 54.51 42.32 52.3 48.14 52.3 56.1 80.84 53.98 81.43"/><path class="cls-1" d="M49,36.57A14.24,14.24,0,0,0,34.82,50.78V84.62A14.24,14.24,0,0,0,49,98.83H82.87A14.23,14.23,0,0,0,97.08,84.62V50.78A14.23,14.23,0,0,0,82.87,36.57ZM82.87,101H49A16.44,16.44,0,0,1,32.62,84.62V50.78A16.44,16.44,0,0,1,49,34.36H82.87A16.44,16.44,0,0,1,99.29,50.78V84.62A16.44,16.44,0,0,1,82.87,101"/><path class="cls-1" d="M76.29,81.46A2.66,2.66,0,1,0,79,84.12a2.67,2.67,0,0,0-2.66-2.66m0,7.53a4.87,4.87,0,1,1,4.87-4.87A4.87,4.87,0,0,1,76.29,89"/><path class="cls-1" d="M56.86,81.46a2.66,2.66,0,1,0,2.66,2.66,2.66,2.66,0,0,0-2.66-2.66m0,7.53a4.87,4.87,0,1,1,4.87-4.87A4.88,4.88,0,0,1,56.86,89"/></g></g></svg>