<svg xmlns="http://www.w3.org/2000/svg" viewBox="0 0 119.52 91.55"><defs><style>.cls-1{fill:#171d52;}</style></defs><g id="Layer_2" data-name="Layer 2"><g id="Layer_1-2" data-name="Layer 1"><path class="cls-1" d="M92.48,69.53v-2c13.34,0,25-11.77,25-25.19A24.44,24.44,0,0,0,93.11,17.93a17.92,17.92,0,0,0-6.22.8L86,19l-.33-.91c-.24-.66-6-16.11-26-16.11H59A29.88,29.88,0,0,0,33.13,17.37l-.34.63-.7-.12a44.63,44.63,0,0,0-5-.55,25.1,25.1,0,0,0,0,50.2v2a27.1,27.1,0,0,1,0-54.2,37.35,37.35,0,0,1,4.62.47A31.9,31.9,0,0,1,58.93,0C78.1-.32,85.52,13,87.17,16.57a20.36,20.36,0,0,1,5.94-.64,26.44,26.44,0,0,1,26.41,26.41C119.52,57.08,107.14,69.53,92.48,69.53Z"/><path class="cls-1" d="M75.09,91.55H44.43A14.9,14.9,0,0,1,29.55,76.67V46A14.9,14.9,0,0,1,44.43,31.14H75.09A14.89,14.89,0,0,1,90,46V76.67A14.89,14.89,0,0,1,75.09,91.55ZM44.43,33.14A12.89,12.89,0,0,0,31.55,46V76.67A12.9,12.9,0,0,0,44.43,89.55H75.09A12.89,12.89,0,0,0,88,76.67V46A12.88,12.88,0,0,0,75.09,33.14Z"/><polygon class="cls-1" points="48.91 73.78 42.1 49.39 38.34 49.39 38.34 47.39 43.62 47.39 50.83 73.25 48.91 73.78"/><rect class="cls-1" x="54.96" y="75.55" width="10.72" height="2"/><path class="cls-1" d="M69.13,80.63a4.41,4.41,0,1,1,4.41-4.41A4.42,4.42,0,0,1,69.13,80.63Zm0-6.82a2.41,2.41,0,1,0,2.41,2.41A2.41,2.41,0,0,0,69.13,73.81Z"/><path class="cls-1" d="M51.52,80.63a4.41,4.41,0,1,1,4.41-4.41A4.42,4.42,0,0,1,51.52,80.63Zm0-6.82a2.41,2.41,0,1,0,2.41,2.41A2.41,2.41,0,0,0,51.52,73.81Z"/><polygon class="cls-1" points="73.08 69.6 48.93 69.6 48.93 67.6 71.59 67.6 75.39 54.84 70.27 54.84 70.27 52.84 78.08 52.84 73.08 69.6"/><rect class="cls-1" x="45.01" y="52.84" width="6.51" height="2"/><path class="cls-1" d="M60.84,65.67A10.44,10.44,0,1,1,71.27,55.23,10.45,10.45,0,0,1,60.84,65.67Zm0-18.87a8.44,8.44,0,1,0,8.43,8.43A8.45,8.45,0,0,0,60.84,46.8Z"/><path class="cls-1" d="M59.3,59.55a1,1,0,0,1-.73-.31L56.2,56.76a1,1,0,0,1,0-1.41,1,1,0,0,1,1.42,0L59.22,57l4.69-6a1,1,0,1,1,1.58,1.23l-5.41,6.91a1,1,0,0,1-.73.38Z"/><path class="cls-1" d="M77.25,20.81a1,1,0,0,1-.88-.53C70.11,8.47,52.18,12.74,52,12.78a1,1,0,1,1-.48-1.94,36.68,36.68,0,0,1,10.55-.77c7.6.57,13.16,3.78,16.06,9.27a1,1,0,0,1-.88,1.47Z"/></g></g></svg>