<svg xmlns="http://www.w3.org/2000/svg" id="Layer_1" x="0" y="0" version="1.1" viewBox="0 0 1442 1171" xml:space="preserve">
  <defs/>
  <style>
    .st0{fill:#032a43}.st1{fill:#00aaad}
  </style>
  <path d="M1116.6 803.2v-6.1H346.4c-12.4 0-23.6-5-31.7-13.1-8.1-8.1-13.1-19.3-13.1-31.7V333.1c0-12.4 5-23.6 13.1-31.7 8.1-8.1 19.3-13.1 31.7-13.1h770.3c12.4 0 23.6 5 31.7 13.1 8.1 8.1 13.1 19.3 13.1 31.7v419.2c0 12.4-5 23.6-13.1 31.7-8.1 8.1-19.3 13.1-31.7 13.1v12.2c15.7 0 30.1-6.4 40.4-16.7 10.3-10.3 16.7-24.6 16.7-40.4V333.1c0-15.7-6.4-30.1-16.7-40.4-10.3-10.3-24.6-16.7-40.4-16.7H346.4c-15.7 0-30.1 6.4-40.4 16.7-10.3 10.3-16.7 24.6-16.7 40.4v419.2c0 15.7 6.4 30.1 16.7 40.4 10.3 10.3 24.6 16.7 40.4 16.7h770.3v-6.2z" class="st0"/>
  <path d="M295.4 376.1h872.2c3.4 0 6.1-2.7 6.1-6.1s-2.7-6.1-6.1-6.1H295.4c-3.4 0-6.1 2.7-6.1 6.1s2.7 6.1 6.1 6.1M335.6 329.5c0 9.5 7.7 17.2 17.2 17.2S370 339 370 329.5s-7.7-17.2-17.2-17.2-17.2 7.7-17.2 17.2M395.3 329.5c0 9.5 7.7 17.2 17.2 17.2s17.2-7.7 17.2-17.2-7.7-17.2-17.2-17.2-17.2 7.7-17.2 17.2M455 329.5c0 9.5 7.7 17.2 17.2 17.2s17.2-7.7 17.2-17.2-7.7-17.2-17.2-17.2c-9.4 0-17.2 7.7-17.2 17.2M516.9 524.3H357.3c-.6 0-1.2-.1-1.8-.4-.8-.3-1.5-.9-2-1.6-.5-.7-.8-1.6-.8-2.5V439c0-.6.1-1.2.4-1.8.3-.8.9-1.5 1.6-2 .7-.5 1.6-.8 2.5-.8h159.6c.6 0 1.2.1 1.8.4.8.3 1.5.9 2 1.6.5.7.8 1.6.8 2.5v80.8c0 .6-.1 1.2-.4 1.8-.3.8-.9 1.5-1.6 2-.7.5-1.5.8-2.5.8v14c2.5 0 5-.5 7.2-1.5 3.3-1.4 6.1-3.7 8.1-6.7 2-2.9 3.2-6.5 3.2-10.4V439c0-2.5-.5-5-1.5-7.2-1.4-3.3-3.7-6.1-6.7-8.1-2.9-2-6.5-3.2-10.4-3.2H357.3c-2.5 0-5 .5-7.2 1.5-3.3 1.4-6.1 3.7-8.1 6.7-2 2.9-3.2 6.5-3.2 10.4v80.8c0 2.5.5 5 1.5 7.2 1.4 3.3 3.7 6.1 6.7 8.1 2.9 2 6.5 3.2 10.4 3.2H517v-14.1h-.1zM523.7 660.8H355.2c-5.2 0-9.5-4.2-9.5-9.5 0-5.2 4.2-9.5 9.5-9.5h168.5c5.2 0 9.5 4.2 9.5 9.5 0 5.2-4.3 9.5-9.5 9.5M523.7 711H355.2c-5.2 0-9.5-4.2-9.5-9.5 0-5.2 4.2-9.5 9.5-9.5h168.5c5.2 0 9.5 4.2 9.5 9.5s-4.3 9.5-9.5 9.5M523.7 761.3H355.2c-5.2 0-9.5-4.2-9.5-9.5 0-5.2 4.2-9.5 9.5-9.5h168.5c5.2 0 9.5 4.2 9.5 9.5s-4.3 9.5-9.5 9.5M945.1 657.5h159.6c.6 0 1.2.1 1.8.4.8.3 1.5.9 2 1.6.5.7.8 1.6.8 2.5v80.8c0 .6-.1 1.2-.4 1.7-.3.8-.9 1.5-1.6 2-.7.5-1.6.8-2.5.8H945.1c-.6 0-1.2-.1-1.8-.4-.8-.3-1.5-.9-2-1.6-.5-.7-.8-1.6-.8-2.5V662c0-.6.1-1.2.4-1.8.3-.8.9-1.5 1.6-2 .8-.4 1.6-.7 2.6-.7v-14c-2.5 0-5 .5-7.2 1.5-3.3 1.4-6.1 3.7-8.1 6.7-2 2.9-3.2 6.5-3.2 10.4v80.8c0 2.5.5 5 1.5 7.2 1.4 3.3 3.7 6.1 6.7 8.1 2.9 2 6.5 3.2 10.4 3.2h159.6c2.5 0 5-.5 7.2-1.5 3.3-1.4 6.1-3.7 8.1-6.7 2-2.9 3.2-6.5 3.2-10.3V662c0-2.5-.5-5-1.5-7.2-1.4-3.3-3.7-6.1-6.7-8.1-2.9-2-6.5-3.2-10.4-3.2H945.1v14zM938.3 528h168.5c5.2 0 9.5 4.2 9.5 9.5 0 5.2-4.2 9.5-9.5 9.5H938.3c-5.2 0-9.5-4.2-9.5-9.5.1-5.2 4.3-9.5 9.5-9.5M938.3 477.8h168.5c5.2 0 9.5 4.2 9.5 9.5 0 5.2-4.2 9.5-9.5 9.5H938.3c-5.2 0-9.5-4.2-9.5-9.5.1-5.3 4.3-9.5 9.5-9.5M938.3 427.5h168.5c5.2 0 9.5 4.2 9.5 9.5 0 5.2-4.2 9.5-9.5 9.5H938.3c-5.2 0-9.5-4.2-9.5-9.5.1-5.3 4.3-9.5 9.5-9.5" class="st0"/>
  <path d="M806 394.2l-4.9 9.5c-1.5 3-.3 6.7 2.7 8.2 3 1.5 6.7.3 8.2-2.7l4.9-9.5c1.5-3 .3-6.7-2.7-8.2-3-1.5-6.7-.3-8.2 2.7zm19.5-38.2l-4.9 9.5c-1.5 3-.3 6.7 2.7 8.2 3 1.5 6.7.3 8.2-2.7l4.9-9.5c1.5-3 .3-6.7-2.7-8.2-3-1.5-6.7-.3-8.2 2.7zm19.5-38.1l-4.9 9.5c-1.5 3-.3 6.7 2.7 8.2 3 1.5 6.7.3 8.2-2.7l4.9-9.5c1.5-3 .3-6.7-2.7-8.2-3-1.5-6.7-.3-8.2 2.7zm19.5-38.2l-4.9 9.5c-1.5 3-.3 6.7 2.7 8.2 3 1.5 6.7.3 8.2-2.7l4.9-9.5c1.5-3 .3-6.7-2.7-8.2-3-1.5-6.7-.3-8.2 2.7zm19.5-38.1l-4.9 9.5c-1.5 3-.3 6.7 2.7 8.2 3 1.5 6.7.3 8.2-2.7l4.9-9.5c1.5-3 .3-6.7-2.7-8.2-3-1.5-6.6-.3-8.2 2.7zm19.5-38.2l-4.9 9.5c-1.5 3-.3 6.7 2.7 8.2 3 1.5 6.7.3 8.2-2.7l4.9-9.5c1.5-3 .3-6.7-2.7-8.2-2.9-1.5-6.6-.3-8.2 2.7zm19.6-38.1l-4.9 9.5c-1.5 3-.3 6.7 2.7 8.2 3 1.5 6.7.3 8.2-2.7l4.9-9.5c1.5-3 .3-6.7-2.7-8.2-3-1.5-6.7-.3-8.2 2.7zm36.4-22.7h-10.7c-3.4 0-6.1 2.7-6.1 6.1 0 3.4 2.7 6.1 6.1 6.1h10.7c3.4 0 6.1-2.7 6.1-6.1 0-3.4-2.7-6.1-6.1-6.1zm42.9 0h-10.7c-3.4 0-6.1 2.7-6.1 6.1 0 3.4 2.7 6.1 6.1 6.1h10.7c3.4 0 6.1-2.7 6.1-6.1 0-3.4-2.7-6.1-6.1-6.1zM657.8 398.7l5 9.5c1.6 3 5.3 4.2 8.3 2.6 3-1.6 4.2-5.3 2.6-8.3l-5-9.5c-1.6-3-5.3-4.2-8.3-2.6-3 1.6-4.1 5.3-2.6 8.3zm-19.8-38l5 9.5c1.6 3 5.3 4.2 8.3 2.6 3-1.6 4.2-5.3 2.6-8.3l-5-9.5c-1.6-3-5.3-4.2-8.3-2.6-3 1.6-4.2 5.3-2.6 8.3zm-19.8-37.9l5 9.5c1.6 3 5.3 4.2 8.3 2.6s4.2-5.3 2.6-8.3l-5-9.5c-1.6-3-5.3-4.2-8.3-2.6-3 1.6-4.2 5.3-2.6 8.3zm-19.9-38l5 9.5c1.6 3 5.3 4.2 8.3 2.6 3-1.6 4.2-5.3 2.6-8.3l-5-9.5c-1.6-3-5.3-4.2-8.3-2.6-3 1.6-4.1 5.3-2.6 8.3zm-19.8-38l5 9.5c1.6 3 5.3 4.2 8.3 2.6 3-1.6 4.2-5.3 2.6-8.3l-5-9.5c-1.6-3-5.3-4.2-8.3-2.6-3 1.6-4.2 5.3-2.6 8.3zm-19.8-38l5 9.5c1.6 3 5.3 4.2 8.3 2.6 3-1.6 4.2-5.3 2.6-8.3l-5-9.5c-1.6-3-5.3-4.2-8.3-2.6-3 1.6-4.2 5.3-2.6 8.3zm-19.9-38l5 9.5c1.6 3 5.3 4.2 8.3 2.6 3-1.6 4.2-5.3 2.6-8.3l-5-9.5c-1.6-3-5.3-4.2-8.3-2.6-3 1.6-4.1 5.3-2.6 8.3zm-25.7-16h10.7c3.4 0 6.1-2.7 6.1-6.1 0-3.4-2.7-6.1-6.1-6.1h-10.7c-3.4 0-6.1 2.7-6.1 6.1 0 3.4 2.7 6.1 6.1 6.1zm-42.9 0h10.7c3.4 0 6.1-2.7 6.1-6.1 0-3.4-2.7-6.1-6.1-6.1h-10.7c-3.4 0-6.1 2.7-6.1 6.1 0 3.4 2.8 6.1 6.1 6.1zM806.5 760.1l-4.3-8.3c-1.5-3-5.2-4.2-8.2-2.7-3 1.5-4.2 5.2-2.7 8.2l4.2 8.3c1.5 3 5.2 4.2 8.2 2.7 3.1-1.5 4.3-5.2 2.8-8.2zm19.5 38.2l-4.9-9.5c-1.5-3-5.2-4.2-8.2-2.7-3 1.5-4.2 5.2-2.7 8.2l4.9 9.5c1.5 3 5.2 4.2 8.2 2.7 3.1-1.5 4.2-5.2 2.7-8.2zm19.5 38.1l-4.9-9.5c-1.5-3-5.2-4.2-8.2-2.7-3 1.5-4.2 5.2-2.7 8.2l4.9 9.5c1.5 3 5.2 4.2 8.2 2.7 3.1-1.5 4.3-5.2 2.7-8.2zm19.5 38.2l-4.9-9.5c-1.5-3-5.2-4.2-8.2-2.7-3 1.5-4.2 5.2-2.7 8.2l4.9 9.5c1.5 3 5.2 4.2 8.2 2.7s4.3-5.2 2.7-8.2zm19.6 38.1l-4.9-9.5c-1.5-3-5.2-4.2-8.2-2.7-3 1.5-4.2 5.2-2.7 8.2l4.9 9.5c1.5 3 5.2 4.2 8.2 2.7 3-1.5 4.2-5.2 2.7-8.2zm19.5 38.2l-4.9-9.5c-1.5-3-5.2-4.2-8.2-2.7s-4.2 5.2-2.7 8.2l4.9 9.5c1.5 3 5.2 4.2 8.2 2.7 3-1.5 4.2-5.2 2.7-8.2zm19.5 38.1l-4.9-9.5c-1.5-3-5.2-4.2-8.2-2.7-3 1.5-4.2 5.2-2.7 8.2l4.9 9.5c1.5 3 5.2 4.2 8.2 2.7 3-1.5 4.2-5.2 2.7-8.2zm19.5 38.2l-4.9-9.5c-1.5-3-5.2-4.2-8.2-2.7-3 1.5-4.2 5.2-2.7 8.2l4.9 9.5c1.5 3 5.2 4.2 8.2 2.7s4.2-5.2 2.7-8.2zm36.5-1.9h-10.7c-3.4 0-6.1 2.7-6.1 6.1s2.7 6.1 6.1 6.1h10.7c3.4 0 6.1-2.7 6.1-6.1s-2.7-6.1-6.1-6.1zm42.9 0h-10.7c-3.4 0-6.1 2.7-6.1 6.1s2.7 6.1 6.1 6.1h10.7c3.4 0 6.1-2.7 6.1-6.1s-2.8-6.1-6.1-6.1zm42.8 0h-10.7c-3.4 0-6.1 2.7-6.1 6.1s2.7 6.1 6.1 6.1h10.7c3.4 0 6.1-2.7 6.1-6.1s-2.7-6.1-6.1-6.1zM1118.6 1030.5c.5-12.7 11.1-22.5 23.8-22.1 12.7.5 22.5 11.1 22.1 23.8-.5 12.7-11.1 22.5-23.8 22.1-12.7-.4-22.5-11.1-22.1-23.8" class="st1"/>
  <path d="M1084.2 1031.4h6.1c0-14.2 5.7-27 15-36.3 9.3-9.3 22.1-15 36.3-15 14.2 0 27 5.7 36.3 15 9.3 9.3 15 22.1 15 36.3 0 14.2-5.7 27-15 36.3-9.3 9.3-22.1 15-36.3 15-14.2 0-27-5.7-36.3-15-9.3-9.3-15-22.1-15-36.3h-12.2c0 17.5 7.1 33.4 18.6 44.9 11.5 11.5 27.4 18.6 44.9 18.6s33.4-7.1 44.9-18.6c11.5-11.5 18.6-27.4 18.6-44.9s-7.1-33.4-18.6-44.9c-11.5-11.5-27.4-18.6-44.9-18.6s-33.5 7.1-44.9 18.6c-11.5 11.5-18.6 27.4-18.6 44.9h6.1z" class="st0"/>
  <path d="M667 784.8l4.9-9.5c1.6-3 .4-6.7-2.6-8.2-3-1.6-6.7-.4-8.2 2.6l-4.9 9.5c-1.6 3-.4 6.7 2.6 8.2 3 1.6 6.7.4 8.2-2.6zm-19.6 38.1l4.9-9.5c1.6-3 .4-6.7-2.6-8.2-3-1.6-6.7-.4-8.2 2.6l-4.9 9.5c-1.6 3-.4 6.7 2.6 8.2 2.9 1.6 6.6.4 8.2-2.6zM627.7 861l4.9-9.5c1.6-3 .4-6.7-2.6-8.2-3-1.6-6.7-.4-8.2 2.6l-4.9 9.5c-1.6 3-.4 6.7 2.6 8.2 3 1.5 6.7.4 8.2-2.6zm-19.6 38l4.9-9.5c1.6-3 .4-6.7-2.6-8.2-3-1.6-6.7-.4-8.2 2.6l-4.9 9.5c-1.6 3-.4 6.7 2.6 8.2 2.9 1.6 6.6.4 8.2-2.6zm-19.7 38.1l4.9-9.5c1.6-3 .4-6.7-2.6-8.2-3-1.6-6.7-.4-8.2 2.6l-4.9 9.5c-1.6 3-.4 6.7 2.6 8.2 3 1.6 6.7.4 8.2-2.6zm-42.3 13.1h10.7c3.4 0 6.1-2.7 6.1-6.1s-2.7-6.1-6.1-6.1h-10.7c-3.4 0-6.1 2.7-6.1 6.1s2.7 6.1 6.1 6.1zm-42.9 0h10.7c3.4 0 6.1-2.7 6.1-6.1s-2.7-6.1-6.1-6.1h-10.7c-3.4 0-6.1 2.7-6.1 6.1s2.7 6.1 6.1 6.1zM451.8 944.5c-.4-10.4-9.2-18.5-19.6-18.2-10.4.4-18.5 9.2-18.2 19.6.4 10.4 9.2 18.5 19.6 18.2 10.5-.4 18.6-9.2 18.2-19.6" class="st1"/>
  <path d="M480.2 945.2h6.1c0-14.7-6-28.1-15.6-37.7-9.6-9.6-23-15.6-37.7-15.6-14.7 0-28.1 6-37.7 15.6-9.6 9.6-15.6 23-15.6 37.7 0 14.7 6 28.1 15.6 37.7 9.6 9.6 23 15.6 37.7 15.6 14.7 0 28.1-6 37.7-15.6 9.6-9.6 15.6-23 15.6-37.7h-12.2c0 11.4-4.6 21.6-12 29.1-7.5 7.5-17.7 12-29.1 12-11.4 0-21.6-4.6-29.1-12-7.5-7.5-12-17.7-12-29.1 0-11.4 4.6-21.6 12-29.1 7.5-7.5 17.7-12 29.1-12 11.4 0 21.6 4.6 29.1 12 7.5 7.5 12 17.7 12 29.1h6.1z" class="st0"/>
  <path d="M428.7 149.7c-.6 14.7-12.9 26.1-27.6 25.6-14.7-.6-26.1-12.9-25.6-27.6.6-14.7 12.9-26.1 27.6-25.6 14.7.6 26.1 12.9 25.6 27.6" class="st1"/>
  <path d="M468.6 148.7h-6.1c0 16.7-6.8 31.8-17.7 42.7-10.9 10.9-26 17.7-42.7 17.7-16.7 0-31.8-6.8-42.7-17.7-10.9-10.9-17.7-26-17.7-42.7 0-16.7 6.8-31.8 17.7-42.7 10.9-10.9 26-17.7 42.7-17.7 16.7 0 31.8 6.8 42.7 17.7 10.9 10.9 17.7 26 17.7 42.7h12.2c0-20-8.1-38.2-21.3-51.4C440.3 84.2 422.1 76 402 76c-20 0-38.2 8.1-51.4 21.3-13.1 13.1-21.3 31.3-21.3 51.4 0 20 8.1 38.2 21.3 51.4 13.1 13.1 31.3 21.3 51.4 21.3 20 0 38.2-8.1 51.4-21.3 13.1-13.1 21.3-31.3 21.3-51.4h-6.1z" class="st0"/>
  <path d="M255.6 582.5h-10.7c-3.4 0-6.1 2.7-6.1 6.1s2.7 6.1 6.1 6.1h10.7c3.4 0 6.1-2.7 6.1-6.1s-2.7-6.1-6.1-6.1zm42.9 0h-10.7c-3.4 0-6.1 2.7-6.1 6.1s2.7 6.1 6.1 6.1h10.7c3.4 0 6.1-2.7 6.1-6.1s-2.8-6.1-6.1-6.1zm42.8 0h-10.7c-3.4 0-6.1 2.7-6.1 6.1s2.7 6.1 6.1 6.1h10.7c3.4 0 6.1-2.7 6.1-6.1s-2.7-6.1-6.1-6.1zm42.9 0h-10.7c-3.4 0-6.1 2.7-6.1 6.1s2.7 6.1 6.1 6.1h10.7c3.4 0 6.1-2.7 6.1-6.1s-2.7-6.1-6.1-6.1zm42.8 0h-10.7c-3.4 0-6.1 2.7-6.1 6.1s2.7 6.1 6.1 6.1H427c3.4 0 6.1-2.7 6.1-6.1s-2.7-6.1-6.1-6.1zm42.9 0h-10.7c-3.4 0-6.1 2.7-6.1 6.1s2.7 6.1 6.1 6.1h10.7c3.4 0 6.1-2.7 6.1-6.1s-2.7-6.1-6.1-6.1zm42.8 0H502c-3.4 0-6.1 2.7-6.1 6.1s2.7 6.1 6.1 6.1h10.7c3.4 0 6.1-2.7 6.1-6.1s-2.7-6.1-6.1-6.1zm42.9 0h-10.7c-3.4 0-6.1 2.7-6.1 6.1s2.7 6.1 6.1 6.1h10.7c3.4 0 6.1-2.7 6.1-6.1s-2.7-6.1-6.1-6.1zM179.6 589.6c-.6 14.7-12.9 26.1-27.6 25.6-14.7-.6-26.1-12.9-25.6-27.6.6-14.7 12.9-26.1 27.6-25.6 14.8.6 26.2 12.9 25.6 27.6" class="st1"/>
  <path d="M219.6 588.6h-6.1c0 16.7-6.8 31.8-17.7 42.7-10.9 10.9-26 17.7-42.7 17.7-16.7 0-31.8-6.8-42.7-17.7-10.9-11-17.7-26-17.7-42.7 0-16.7 6.8-31.8 17.7-42.7 10.9-10.9 26-17.7 42.7-17.7 16.7 0 31.8 6.8 42.7 17.7 10.9 10.9 17.7 26 17.7 42.7h12.2c0-20-8.1-38.2-21.3-51.4-13.1-13.1-31.3-21.3-51.4-21.3-20 0-38.2 8.1-51.4 21.3-13.1 13.1-21.3 31.3-21.3 51.4 0 20 8.1 38.2 21.3 51.4 13.1 13.1 31.3 21.3 51.4 21.3 20 0 38.2-8.1 51.4-21.3 13.1-13.1 21.3-31.3 21.3-51.4h-6.1z" class="st0"/>
  <path d="M1048.6 149.3c.3 9.3 8.1 16.5 17.4 16.1 9.3-.3 16.5-8.1 16.1-17.4-.4-9.3-8.1-16.5-17.4-16.1-9.3.4-16.5 8.2-16.1 17.4" class="st1"/>
  <path d="M1023.4 148.7h-6.1c0 13.3 5.4 25.3 14.1 34s20.7 14.1 34 14.1 25.3-5.4 34-14.1 14.1-20.7 14.1-34-5.4-25.3-14.1-34-20.7-14.1-34-14.1-25.3 5.4-34 14.1-14.1 20.7-14.1 34h12.2c0-9.9 4-18.8 10.5-25.3s15.4-10.5 25.3-10.5 18.8 4 25.3 10.5 10.5 15.4 10.5 25.3-4 18.8-10.5 25.3-15.4 10.5-25.3 10.5-18.8-4-25.3-10.5-10.5-15.4-10.5-25.3h-6.1z" class="st0"/>
  <path d="M1315.5 589.6c-.6 14.7-12.9 26.1-27.6 25.6-14.7-.6-26.1-12.9-25.6-27.6.6-14.7 12.9-26.1 27.6-25.6 14.7.6 26.1 12.9 25.6 27.6" class="st1"/>
  <path fill="none" d="M1288.9 528.2c-16.7 0-31.8 6.8-42.7 17.7-9.5 9.5-15.9 22.2-17.4 36.4.6.9.9 2 .9 3.2 0 1.4-.5 2.7-1.2 3.7.2 16.5 6.9 31.3 17.7 42.1 11 10.9 26 17.7 42.7 17.7 16.7 0 31.8-6.8 42.7-17.7 10.9-11 17.7-26 17.7-42.7 0-16.7-6.8-31.8-17.7-42.7-10.9-10.9-26-17.7-42.7-17.7z"/>
  <path d="M923.7 579.4H913c-3.4 0-6.1 2.7-6.1 6.1s2.7 6.1 6.1 6.1h10.7c3.4 0 6.1-2.7 6.1-6.1s-2.7-6.1-6.1-6.1zM1095.1 579.4h-10.7c-3.4 0-6.1 2.7-6.1 6.1s2.7 6.1 6.1 6.1h10.7c3.4 0 6.1-2.7 6.1-6.1s-2.7-6.1-6.1-6.1zM1138 579.4h-10.7c-3.4 0-6.1 2.7-6.1 6.1s2.7 6.1 6.1 6.1h10.7c3.4 0 6.1-2.7 6.1-6.1s-2.8-6.1-6.1-6.1zM966.5 579.4h-10.7c-3.4 0-6.1 2.7-6.1 6.1s2.7 6.1 6.1 6.1h10.7c3.4 0 6.1-2.7 6.1-6.1s-2.7-6.1-6.1-6.1zM1009.4 579.4h-10.7c-3.4 0-6.1 2.7-6.1 6.1s2.7 6.1 6.1 6.1h10.7c3.4 0 6.1-2.7 6.1-6.1s-2.7-6.1-6.1-6.1zM1052.3 579.4h-10.7c-3.4 0-6.1 2.7-6.1 6.1s2.7 6.1 6.1 6.1h10.7c3.4 0 6.1-2.7 6.1-6.1s-2.8-6.1-6.1-6.1zM1180.8 579.4h-10.7c-3.4 0-6.1 2.7-6.1 6.1s2.7 6.1 6.1 6.1h10.7c3.4 0 6.1-2.7 6.1-6.1s-2.7-6.1-6.1-6.1zM1216.9 579.4h-3.9c-3.4 0-6.1 2.7-6.1 6.1s2.7 6.1 6.1 6.1h3.4c0-1-.1-2-.1-3 0-3.1.2-6.2.6-9.2z" class="st1"/>
  <path d="M1228.9 582.3c1.5-14.2 7.8-26.8 17.4-36.4 11-10.9 26-17.7 42.7-17.7 16.7 0 31.8 6.8 42.7 17.7 10.9 10.9 17.7 26 17.7 42.7h12.2c0-20-8.1-38.2-21.3-51.4-13.1-13.1-31.3-21.3-51.4-21.3-20 0-38.2 8.1-51.4 21.3-11.1 11.1-18.6 25.8-20.7 42.1h6.8c2.3.1 4.2 1.2 5.3 3zM1355.4 588.6h-6.1c0 16.7-6.8 31.8-17.7 42.7-10.9 10.9-26 17.7-42.7 17.7-16.7 0-31.8-6.8-42.7-17.7-10.8-10.8-17.5-25.7-17.7-42.1-1.1 1.5-2.9 2.4-4.9 2.4h-7.3c.8 18.8 8.7 35.9 21.2 48.4 13.1 13.1 31.3 21.3 51.4 21.3 20 0 38.2-8.1 51.4-21.3 13.1-13.1 21.3-31.3 21.3-51.4h-6.2z" class="st0"/>
  <path d="M1228.5 589.2v-.6c0-2.1.1-4.3.3-6.3-1.1-1.7-3-2.9-5.2-2.9h-6.8c-.4 3-.6 6.1-.6 9.2 0 1 0 2 .1 3h7.3c2.1 0 3.8-.9 4.9-2.4zM573.1 588.6H567c0 45.4 18.4 86.6 48.2 116.3 29.8 29.8 70.9 48.2 116.3 48.2 45.4 0 86.6-18.4 116.3-48.2C877.6 675.2 896 634 896 588.6c0-45.4-18.4-86.6-48.2-116.3-29.8-29.8-70.9-48.2-116.3-48.2-45.4 0-86.6 18.4-116.3 48.2C585.4 502 567 543.2 567 588.6h12.2c0-42.1 17-80.1 44.6-107.7 27.6-27.6 65.6-44.6 107.7-44.6 42.1 0 80.1 17 107.7 44.6 27.6 27.6 44.6 65.6 44.6 107.7 0 42.1-17 80.1-44.6 107.7-27.6 27.6-65.6 44.6-107.7 44.6-42.1 0-80.1-17-107.7-44.6-27.6-27.6-44.6-65.6-44.6-107.7h-6.1z" class="st0"/>
  <path d="M836.7 577.4c-8.1-8.2-19.4-13.3-31.8-13.6-.8-8.2-4.4-15.5-9.9-21-6.2-6.2-14.7-10-24.2-10-4.4 0-8.6.8-12.4 2.3-4.4-6.3-10.1-11.6-16.8-15.6-8.1-4.8-17.7-7.6-27.8-7.6-15.1 0-28.8 6.1-38.7 16-9.3 9.3-15.2 21.9-15.9 35.8-12 .5-22.9 5.6-30.9 13.5-8.4 8.4-13.6 20-13.6 32.8 0 9.3 2.8 18.4 8 26.1 5.1 7.5 12.3 13.4 20.7 16.8 6.5 2.7 13.3 3.5 19.7 3.5h140.6c1.6 0 3.1-.1 4.7-.2 11.7-1.2 22.1-6.7 29.6-14.9s12.1-19.2 12.1-31.2c.2-12.7-5-24.4-13.4-32.7z" class="st1"/>
</svg>
