<?xml version="1.0" encoding="utf-8"?>
<!-- Generator: Adobe Illustrator 23.0.2, SVG Export Plug-In . SVG Version: 6.00 Build 0)  -->
<svg version="1.1" id="Layer_1" xmlns="http://www.w3.org/2000/svg" xmlns:xlink="http://www.w3.org/1999/xlink" x="0px" y="0px"
	 viewBox="0 0 37.9 37.9" style="enable-background:new 0 0 37.9 37.9;" xml:space="preserve">
<style type="text/css">
	.st0{fill:#FE2911;}
</style>
<path class="st0" d="M18.1,27.7c3.3-1.2,6.2-3.7,7.5-6.5c1-2.4,0.9-4.8-0.5-7l4.5-2.9c1.3,1.7,2.1,3.8,2.4,6.1h-4.4l0,0.3
	c-0.2,3.8-2,6.9-5.2,8.6C21,27,19.6,27.5,18.1,27.7 M32,18h-3.9c-0.3,3.8-2.3,7.1-5.6,8.9c-1.9,1-4,1.6-6.2,1.6
	c-1.7,0-3.4-0.3-5-0.9c2,1.2,4.2,1.9,6.5,1.9h0c4.1,0,7.9-2.2,10-5.9l0.2-0.3l2.6,1.6c0.9-1.8,1.4-3.8,1.4-5.9
	C32.1,18.7,32.1,18.3,32,18 M17.9,30.1L17.9,30.1c-4.2,0-8.1-2.1-10.8-5.6c2.1,4.4,6.6,7.5,11.9,7.5c4.9,0,9.1-2.7,11.4-6.6l-2-1.3
	C26.1,27.9,22.2,30.1,17.9,30.1 M19,0c10.5,0,19,8.5,19,19s-8.5,19-19,19S0,29.4,0,19S8.5,0,19,0 M19,32.8c7.6,0,13.8-6.2,13.8-13.8
	S26.6,5.2,19,5.2S5.2,11.4,5.2,19C5.2,26.6,11.4,32.8,19,32.8"/>
</svg>
