<svg xmlns="http://www.w3.org/2000/svg" id="Layer_1" viewBox="0 0 847 1048">
  <defs>
    <style>
      .cls-1,.cls-2{fill:#fff}.cls-2{fill-rule:evenodd}
    </style>
  </defs>
  <path d="M257.3 2.2c3.2 0 5.8 2.6 5.8 5.8s-2.6 5.8-5.8 5.8c-3.2 0-5.8-2.6-5.8-5.8 0-3.2 2.6-5.8 5.8-5.8m0-2.2c-4.42 0-8 3.58-8 8s3.58 8 8 8 8-3.58 8-8-3.58-8-8-8Zm166.2 2.2c3.2 0 5.8 2.6 5.8 5.8s-2.6 5.8-5.8 5.8c-3.2 0-5.8-2.6-5.8-5.8 0-3.2 2.6-5.8 5.8-5.8m0-2.2c-4.42 0-8 3.58-8 8s3.58 8 8 8 8-3.58 8-8-3.58-8-8-8Zm166.2 2.2c3.2 0 5.8 2.6 5.8 5.8 0 3.2-2.6 5.8-5.8 5.8-3.2 0-5.8-2.6-5.8-5.8 0-3.2 2.6-5.8 5.8-5.8m0-2.2c-4.42 0-8 3.58-8 8s3.58 8 8 8 8-3.58 8-8-3.58-8-8-8Zm166.2 2.2c3.2 0 5.8 2.6 5.8 5.8 0 3.2-2.6 5.8-5.8 5.8-3.2 0-5.8-2.6-5.8-5.8s2.6-5.8 5.8-5.8m0-2.2c-4.42 0-8 3.58-8 8s3.58 8 8 8 8-3.58 8-8-3.58-8-8-8ZM839 88.2c3.2 0 5.8 2.6 5.8 5.8 0 3.2-2.6 5.8-5.8 5.8s-5.8-2.6-5.8-5.8c0-3.2 2.6-5.8 5.8-5.8m0-2.2c-4.42 0-8 3.58-8 8s3.58 8 8 8 8-3.58 8-8-3.58-8-8-8Zm-166.2 2.2c3.2 0 5.8 2.6 5.8 5.8 0 3.2-2.6 5.8-5.8 5.8S667 97.2 667 94c0-3.2 2.6-5.8 5.8-5.8m0-2.2c-4.42 0-8 3.58-8 8s3.58 8 8 8 8-3.58 8-8-3.58-8-8-8Zm-166.2 2.2c3.2 0 5.8 2.6 5.8 5.8s-2.6 5.8-5.8 5.8-5.8-2.6-5.8-5.8c0-3.2 2.6-5.8 5.8-5.8m0-2.2c-4.42 0-8 3.58-8 8s3.58 8 8 8 8-3.58 8-8-3.58-8-8-8Zm-166.2 2.2c3.2 0 5.8 2.6 5.8 5.8s-2.6 5.8-5.8 5.8-5.8-2.6-5.8-5.8c0-3.2 2.6-5.8 5.8-5.8m0-2.2c-4.42 0-8 3.58-8 8s3.58 8 8 8 8-3.58 8-8-3.58-8-8-8Zm-166.2 2.2c3.2 0 5.8 2.6 5.8 5.8s-2.6 5.8-5.8 5.8-5.8-2.6-5.8-5.8 2.6-5.8 5.8-5.8m0-2.2c-4.42 0-8 3.58-8 8s3.58 8 8 8 8-3.58 8-8-3.58-8-8-8Z" class="cls-1"/>
  <g id="Icon_Plus-2">
    <path id="Icon-Plus-2" d="M174.87 16c.18 0 .33-.15.33-.33V9h6.67c.18 0 .33-.15.33-.33V7.33c0-.18-.15-.33-.33-.33h-6.67V.33c0-.18-.15-.33-.33-.33h-1.34c-.18 0-.33.15-.33.33V7h-6.67c-.18 0-.33.15-.33.33v1.34c0 .18.15.33.33.33h6.67v6.67c0 .18.15.33.33.33h1.34Z" class="cls-2"/>
  </g>
  <g id="Icon_Plus-3">
    <path id="Icon-Plus-3" d="M341.07 16c.18 0 .33-.15.33-.33V9h6.67c.18 0 .33-.15.33-.33V7.33c0-.18-.15-.33-.33-.33h-6.67V.33c0-.18-.15-.33-.33-.33h-1.34c-.18 0-.33.15-.33.33V7h-6.67c-.18 0-.33.15-.33.33v1.34c0 .18.15.33.33.33h6.67v6.67c0 .18.15.33.33.33h1.34Z" class="cls-2"/>
  </g>
  <g id="Icon_Plus-4">
    <path id="Icon-Plus-4" d="M507.27 16c.18 0 .33-.15.33-.33V9h6.67c.18 0 .33-.15.33-.33V7.33c0-.18-.15-.33-.33-.33h-6.67V.33c0-.18-.15-.33-.33-.33h-1.34c-.18 0-.33.15-.33.33V7h-6.67c-.18 0-.33.15-.33.33v1.34c0 .18.15.33.33.33h6.67v6.67c0 .18.15.33.33.33h1.34Z" class="cls-2"/>
  </g>
  <g id="Icon_Plus-5">
    <path id="Icon-Plus-5" d="M673.47 16c.18 0 .33-.15.33-.33V9h6.67c.18 0 .33-.15.33-.33V7.33c0-.18-.15-.33-.33-.33h-6.67V.33c0-.18-.15-.33-.33-.33h-1.34c-.18 0-.33.15-.33.33V7h-6.67c-.18 0-.33.15-.33.33v1.34c0 .18.15.33.33.33h6.67v6.67c0 .18.15.33.33.33h1.34Z" class="cls-2"/>
  </g>
  <g id="Icon_Plus-6">
    <path id="Icon-Plus-6" d="M839.67 16c.18 0 .33-.15.33-.33V9h6.67c.18 0 .33-.15.33-.33V7.33c0-.18-.15-.33-.33-.33H840V.33c0-.18-.15-.33-.33-.33h-1.34c-.18 0-.33.15-.33.33V7h-6.67c-.18 0-.33.15-.33.33v1.34c0 .18.15.33.33.33H838v6.67c0 .18.15.33.33.33h1.34Z" class="cls-2"/>
  </g>
  <path d="M91.1 2.2c3.2 0 5.8 2.6 5.8 5.8 0 3.2-2.6 5.8-5.8 5.8-3.2 0-5.8-2.6-5.8-5.8 0-3.2 2.6-5.8 5.8-5.8m0-2.2c-4.42 0-8 3.58-8 8s3.58 8 8 8 8-3.58 8-8-3.58-8-8-8ZM8 88.2c3.2 0 5.8 2.6 5.8 5.8s-2.6 5.8-5.8 5.8-5.8-2.6-5.8-5.8c0-3.2 2.6-5.8 5.8-5.8M8 86c-4.42 0-8 3.58-8 8s3.58 8 8 8 8-3.58 8-8-3.58-8-8-8Z" class="cls-1"/>
  <g id="Icon_Plus">
    <path id="Icon-Plus" d="M8.67 16c.18 0 .33-.15.33-.33V9h6.67c.18 0 .33-.15.33-.33V7.33c0-.18-.15-.33-.33-.33H9V.33C9 .15 8.85 0 8.67 0H7.33C7.15 0 7 .15 7 .33V7H.33C.15 7 0 7.15 0 7.33v1.34c0 .18.15.33.33.33H7v6.67c0 .18.15.33.33.33h1.34Z" class="cls-2"/>
  </g>
  <g id="Icon_Plus-7">
    <path id="Icon-Plus-7" d="M91.77 102c.18 0 .33-.15.33-.33V95h6.67c.18 0 .33-.15.33-.33v-1.34c0-.18-.15-.33-.33-.33H92.1v-6.67c0-.18-.15-.33-.33-.33h-1.34c-.18 0-.33.15-.33.33V93h-6.67c-.18 0-.33.15-.33.33v1.34c0 .18.15.33.33.33h6.67v6.67c0 .18.15.33.33.33h1.34Z" class="cls-2"/>
  </g>
  <g id="Icon_Plus-8">
    <path id="Icon-Plus-8" d="M258 102c.18 0 .33-.15.33-.33V95H265c.18 0 .33-.15.33-.33v-1.34c0-.18-.15-.33-.33-.33h-6.7v-6.67c0-.17-.13-.31-.3-.33h-1.34c-.18 0-.33.15-.33.33V93h-6.67c-.18 0-.33.15-.33.33v1.34c0 .18.15.33.33.33h6.67v6.67c0 .18.15.33.33.33H258Z" class="cls-2"/>
  </g>
  <g id="Icon_Plus-9">
    <path id="Icon-Plus-9" d="M424.17 102c.18 0 .33-.15.33-.33V95h6.67c.18 0 .33-.15.33-.33v-1.34c0-.18-.15-.33-.33-.33h-6.67v-6.67c0-.18-.15-.33-.33-.33h-1.34c-.18 0-.33.15-.33.33V93h-6.67c-.18 0-.33.15-.33.33v1.34c0 .18.15.33.33.33h6.67v6.67c0 .18.15.33.33.33h1.34Z" class="cls-2"/>
  </g>
  <g id="Icon_Plus-10">
    <path id="Icon-Plus-10" d="M590.37 102c.18 0 .33-.15.33-.33V95h6.67c.18 0 .33-.15.33-.33v-1.34c0-.18-.15-.33-.33-.33h-6.67v-6.67c0-.18-.15-.33-.33-.33H589c-.18 0-.33.15-.33.33V93H582c-.18 0-.33.15-.33.33v1.34c0 .18.15.33.33.33h6.67v6.67c0 .18.15.33.33.33h1.37Z" class="cls-2"/>
  </g>
  <g id="Icon_Plus-11">
    <path id="Icon-Plus-11" d="M756.57 102c.18 0 .33-.15.33-.33V95h6.67c.18 0 .33-.15.33-.33v-1.34c0-.18-.15-.33-.33-.33h-6.67v-6.67c0-.18-.15-.33-.33-.33h-1.34c-.18 0-.33.15-.33.33V93h-6.67c-.18 0-.33.15-.33.33v1.34c0 .18.15.33.33.33h6.67v6.67c0 .18.15.33.33.33h1.34Z" class="cls-2"/>
  </g>
  <path d="M91.1 174.2c3.2 0 5.8 2.6 5.8 5.8s-2.6 5.8-5.8 5.8-5.8-2.6-5.8-5.8 2.6-5.8 5.8-5.8m0-2.2c-4.42 0-8 3.58-8 8s3.58 8 8 8 8-3.58 8-8-3.58-8-8-8Zm166.2 2.2c3.2 0 5.8 2.6 5.8 5.8s-2.6 5.8-5.8 5.8-5.8-2.6-5.8-5.8 2.6-5.8 5.8-5.8m0-2.2c-4.42 0-8 3.58-8 8s3.58 8 8 8 8-3.58 8-8-3.58-8-8-8Zm166.2 2.2c3.2 0 5.8 2.6 5.8 5.8s-2.6 5.8-5.8 5.8c-3.2 0-5.8-2.6-5.8-5.8 0-3.2 2.6-5.8 5.8-5.8m0-2.2c-4.42 0-8 3.58-8 8s3.58 8 8 8 8-3.58 8-8-3.58-8-8-8Zm166.2 2.2c3.2 0 5.8 2.6 5.8 5.8 0 3.2-2.6 5.8-5.8 5.8-3.2 0-5.8-2.6-5.8-5.8 0-3.2 2.6-5.8 5.8-5.8m0-2.2c-4.42 0-8 3.58-8 8s3.58 8 8 8 8-3.58 8-8-3.58-8-8-8Zm166.2 2.2c3.2 0 5.8 2.6 5.8 5.8 0 3.2-2.6 5.8-5.8 5.8-3.2 0-5.8-2.6-5.8-5.8 0-3.2 2.6-5.8 5.8-5.8m0-2.2c-4.42 0-8 3.58-8 8s3.58 8 8 8 8-3.58 8-8-3.58-8-8-8Zm83.1 88.2c3.2 0 5.8 2.6 5.8 5.8 0 3.2-2.6 5.8-5.8 5.8s-5.8-2.6-5.8-5.8c0-3.2 2.6-5.8 5.8-5.8m0-2.2c-4.42 0-8 3.58-8 8s3.58 8 8 8 8-3.58 8-8-3.58-8-8-8Zm-166.2 2.2c3.2 0 5.8 2.6 5.8 5.8 0 3.2-2.6 5.8-5.8 5.8s-5.8-2.6-5.8-5.8c0-3.2 2.6-5.8 5.8-5.8m0-2.2c-4.42 0-8 3.58-8 8s3.58 8 8 8 8-3.58 8-8-3.58-8-8-8Zm-166.2 2.2c3.2 0 5.8 2.6 5.8 5.8s-2.6 5.8-5.8 5.8-5.8-2.6-5.8-5.8c0-3.2 2.6-5.8 5.8-5.8m0-2.2c-4.42 0-8 3.58-8 8s3.58 8 8 8 8-3.58 8-8-3.58-8-8-8Zm-166.2 2.2c3.2 0 5.8 2.6 5.8 5.8s-2.6 5.8-5.8 5.8-5.8-2.6-5.8-5.8c0-3.2 2.6-5.8 5.8-5.8m0-2.2c-4.42 0-8 3.58-8 8s3.58 8 8 8 8-3.58 8-8-3.58-8-8-8Zm-166.2 2.2c3.2 0 5.8 2.6 5.8 5.8s-2.6 5.8-5.8 5.8-5.8-2.6-5.8-5.8c0-3.2 2.6-5.8 5.8-5.8m0-2.2c-4.42 0-8 3.58-8 8s3.58 8 8 8 8-3.58 8-8-3.58-8-8-8ZM8 260.2c3.2 0 5.8 2.6 5.8 5.8s-2.6 5.8-5.8 5.8-5.8-2.6-5.8-5.8c0-3.2 2.6-5.8 5.8-5.8m0-2.2c-4.42 0-8 3.58-8 8s3.58 8 8 8 8-3.58 8-8-3.58-8-8-8Z" class="cls-1"/>
  <g id="Icon_Plus-12">
    <path id="Icon-Plus-12" d="M8.67 188c.18 0 .33-.15.33-.33V181h6.67c.18 0 .33-.15.33-.33v-1.34c0-.18-.15-.33-.33-.33H9v-6.67c0-.18-.15-.33-.33-.33H7.33c-.18 0-.33.15-.33.33V179H.33c-.18 0-.33.15-.33.33v1.34c0 .18.15.33.33.33H7v6.67c0 .18.15.33.33.33h1.34Z" class="cls-2"/>
  </g>
  <g id="Icon_Plus-13">
    <path id="Icon-Plus-13" d="M174.87 188c.18 0 .33-.15.33-.33V181h6.67c.18 0 .33-.15.33-.33v-1.34c0-.18-.15-.33-.33-.33h-6.67v-6.67c0-.18-.15-.33-.33-.33h-1.34c-.18 0-.33.15-.33.33V179h-6.67c-.18 0-.33.15-.33.33v1.34c0 .18.15.33.33.33h6.67v6.67c0 .18.15.33.33.33h1.34Z" class="cls-2"/>
  </g>
  <g id="Icon_Plus-14">
    <path id="Icon-Plus-14" d="M341.07 188c.18 0 .33-.15.33-.33V181h6.67c.18 0 .33-.15.33-.33v-1.34c0-.18-.15-.33-.33-.33h-6.67v-6.67c0-.18-.15-.33-.33-.33h-1.34c-.18 0-.33.15-.33.33V179h-6.67c-.18 0-.33.15-.33.33v1.34c0 .18.15.33.33.33h6.67v6.67c0 .18.15.33.33.33h1.34Z" class="cls-2"/>
  </g>
  <g id="Icon_Plus-15">
    <path id="Icon-Plus-15" d="M507.27 188c.18 0 .33-.15.33-.33V181h6.67c.18 0 .33-.15.33-.33v-1.34c0-.18-.15-.33-.33-.33h-6.67v-6.67c0-.18-.15-.33-.33-.33h-1.34c-.18 0-.33.15-.33.33V179h-6.67c-.18 0-.33.15-.33.33v1.34c0 .18.15.33.33.33h6.67v6.67c0 .18.15.33.33.33h1.34Z" class="cls-2"/>
  </g>
  <g id="Icon_Plus-16">
    <path id="Icon-Plus-16" d="M673.47 188c.18 0 .33-.15.33-.33V181h6.67c.18 0 .33-.15.33-.33v-1.34c0-.18-.15-.33-.33-.33h-6.67v-6.67c0-.18-.15-.33-.33-.33h-1.34c-.18 0-.33.15-.33.33V179h-6.67c-.18 0-.33.15-.33.33v1.34c0 .18.15.33.33.33h6.67v6.67c0 .18.15.33.33.33h1.34Z" class="cls-2"/>
  </g>
  <g id="Icon_Plus-17">
    <path id="Icon-Plus-17" d="M839.67 188c.18 0 .33-.15.33-.33V181h6.67c.18 0 .33-.15.33-.33v-1.34c0-.18-.15-.33-.33-.33H840v-6.67c0-.18-.15-.33-.33-.33h-1.34c-.18 0-.33.15-.33.33V179h-6.67c-.18 0-.33.15-.33.33v1.34c0 .18.15.33.33.33H838v6.67c0 .18.15.33.33.33h1.34Z" class="cls-2"/>
  </g>
  <g id="Icon_Plus-18">
    <path id="Icon-Plus-18" d="M91.77 274c.18 0 .33-.15.33-.33V267h6.67c.18 0 .33-.15.33-.33v-1.34c0-.18-.15-.33-.33-.33H92.1v-6.67c0-.18-.15-.33-.33-.33h-1.34c-.18 0-.33.15-.33.33V265h-6.67c-.18 0-.33.15-.33.33v1.34c0 .18.15.33.33.33h6.67v6.67c0 .18.15.33.33.33h1.34Z" class="cls-2"/>
  </g>
  <g id="Icon_Plus-19">
    <path id="Icon-Plus-19" d="M258 274c.18 0 .33-.15.33-.33V267H265c.18 0 .33-.15.33-.33v-1.34c0-.18-.15-.33-.33-.33h-6.7v-6.67c0-.17-.13-.31-.3-.33h-1.34c-.18 0-.33.15-.33.33V265h-6.67c-.18 0-.33.15-.33.33v1.34c0 .18.15.33.33.33h6.67v6.67c0 .18.15.33.33.33H258Z" class="cls-2"/>
  </g>
  <g id="Icon_Plus-20">
    <path id="Icon-Plus-20" d="M424.17 274c.18 0 .33-.15.33-.33V267h6.67c.18 0 .33-.15.33-.33v-1.34c0-.18-.15-.33-.33-.33h-6.67v-6.67c0-.18-.15-.33-.33-.33h-1.34c-.18 0-.33.15-.33.33V265h-6.67c-.18 0-.33.15-.33.33v1.34c0 .18.15.33.33.33h6.67v6.67c0 .18.15.33.33.33h1.34Z" class="cls-2"/>
  </g>
  <g id="Icon_Plus-21">
    <path id="Icon-Plus-21" d="M590.37 274c.18 0 .33-.15.33-.33V267h6.67c.18 0 .33-.15.33-.33v-1.34c0-.18-.15-.33-.33-.33h-6.67v-6.67c0-.18-.15-.33-.33-.33H589c-.18 0-.33.15-.33.33V265H582c-.18 0-.33.15-.33.33v1.34c0 .18.15.33.33.33h6.67v6.67c0 .18.15.33.33.33h1.37Z" class="cls-2"/>
  </g>
  <g id="Icon_Plus-22">
    <path id="Icon-Plus-22" d="M756.57 274c.18 0 .33-.15.33-.33V267h6.67c.18 0 .33-.15.33-.33v-1.34c0-.18-.15-.33-.33-.33h-6.67v-6.67c0-.18-.15-.33-.33-.33h-1.34c-.18 0-.33.15-.33.33V265h-6.67c-.18 0-.33.15-.33.33v1.34c0 .18.15.33.33.33h6.67v6.67c0 .18.15.33.33.33h1.34Z" class="cls-2"/>
  </g>
  <path d="M91.1 346.2c3.2 0 5.8 2.6 5.8 5.8s-2.6 5.8-5.8 5.8-5.8-2.6-5.8-5.8c0-3.2 2.6-5.8 5.8-5.8m0-2.2c-4.42 0-8 3.58-8 8s3.58 8 8 8 8-3.58 8-8-3.58-8-8-8Zm166.2 2.2c3.2 0 5.8 2.6 5.8 5.8s-2.6 5.8-5.8 5.8-5.8-2.6-5.8-5.8c0-3.2 2.6-5.8 5.8-5.8m0-2.2c-4.42 0-8 3.58-8 8s3.58 8 8 8 8-3.58 8-8-3.58-8-8-8Zm166.2 2.2c3.2 0 5.8 2.6 5.8 5.8s-2.6 5.8-5.8 5.8-5.8-2.6-5.8-5.8c0-3.2 2.6-5.8 5.8-5.8m0-2.2c-4.42 0-8 3.58-8 8s3.58 8 8 8 8-3.58 8-8-3.58-8-8-8Zm166.2 2.2c3.2 0 5.8 2.6 5.8 5.8 0 3.2-2.6 5.8-5.8 5.8s-5.8-2.6-5.8-5.8c0-3.2 2.6-5.8 5.8-5.8m0-2.2c-4.42 0-8 3.58-8 8s3.58 8 8 8 8-3.58 8-8-3.58-8-8-8Zm166.2 2.2c3.2 0 5.8 2.6 5.8 5.8 0 3.2-2.6 5.8-5.8 5.8s-5.8-2.6-5.8-5.8c0-3.2 2.6-5.8 5.8-5.8m0-2.2c-4.42 0-8 3.58-8 8s3.58 8 8 8 8-3.58 8-8-3.58-8-8-8Zm83.1 88.2c3.2 0 5.8 2.6 5.8 5.8 0 3.2-2.6 5.8-5.8 5.8s-5.8-2.6-5.8-5.8c0-3.2 2.6-5.8 5.8-5.8m0-2.2c-4.42 0-8 3.58-8 8s3.58 8 8 8 8-3.58 8-8-3.58-8-8-8Zm-166.2 2.2c3.2 0 5.8 2.6 5.8 5.8 0 3.2-2.6 5.8-5.8 5.8s-5.8-2.6-5.8-5.8c0-3.2 2.6-5.8 5.8-5.8m0-2.2c-4.42 0-8 3.58-8 8s3.58 8 8 8 8-3.58 8-8-3.58-8-8-8Zm-166.2 2.2c3.2 0 5.8 2.6 5.8 5.8s-2.6 5.8-5.8 5.8-5.8-2.6-5.8-5.8c0-3.2 2.6-5.8 5.8-5.8m0-2.2c-4.42 0-8 3.58-8 8s3.58 8 8 8 8-3.58 8-8-3.58-8-8-8Zm-166.2 2.2c3.2 0 5.8 2.6 5.8 5.8s-2.6 5.8-5.8 5.8-5.8-2.6-5.8-5.8c0-3.2 2.6-5.8 5.8-5.8m0-2.2c-4.42 0-8 3.58-8 8s3.58 8 8 8 8-3.58 8-8-3.58-8-8-8Zm-166.2 2.2c3.2 0 5.8 2.6 5.8 5.8s-2.6 5.8-5.8 5.8-5.8-2.6-5.8-5.8c0-3.2 2.6-5.8 5.8-5.8m0-2.2c-4.42 0-8 3.58-8 8s3.58 8 8 8 8-3.58 8-8-3.58-8-8-8ZM8 432.2c3.2 0 5.8 2.6 5.8 5.8s-2.6 5.8-5.8 5.8-5.8-2.6-5.8-5.8c0-3.2 2.6-5.8 5.8-5.8m0-2.2c-4.42 0-8 3.58-8 8s3.58 8 8 8 8-3.58 8-8-3.58-8-8-8Z" class="cls-1"/>
  <g id="Icon_Plus-23">
    <path id="Icon-Plus-23" d="M8.67 360c.18 0 .33-.15.33-.33V353h6.67c.18 0 .33-.15.33-.33v-1.34c0-.18-.15-.33-.33-.33H9v-6.67c0-.18-.15-.33-.33-.33H7.33c-.18 0-.33.15-.33.33V351H.33c-.18 0-.33.15-.33.33v1.34c0 .18.15.33.33.33H7v6.67c0 .18.15.33.33.33h1.34Z" class="cls-2"/>
  </g>
  <g id="Icon_Plus-24">
    <path id="Icon-Plus-24" d="M174.87 360c.18 0 .33-.15.33-.33V353h6.67c.18 0 .33-.15.33-.33v-1.34c0-.18-.15-.33-.33-.33h-6.67v-6.67c0-.18-.15-.33-.33-.33h-1.34c-.18 0-.33.15-.33.33V351h-6.67c-.18 0-.33.15-.33.33v1.34c0 .18.15.33.33.33h6.67v6.67c0 .18.15.33.33.33h1.34Z" class="cls-2"/>
  </g>
  <g id="Icon_Plus-25">
    <path id="Icon-Plus-25" d="M341.07 360c.18 0 .33-.15.33-.33V353h6.67c.18 0 .33-.15.33-.33v-1.34c0-.18-.15-.33-.33-.33h-6.67v-6.67c0-.18-.15-.33-.33-.33h-1.34c-.18 0-.33.15-.33.33V351h-6.67c-.18 0-.33.15-.33.33v1.34c0 .18.15.33.33.33h6.67v6.67c0 .18.15.33.33.33h1.34Z" class="cls-2"/>
  </g>
  <g id="Icon_Plus-26">
    <path id="Icon-Plus-26" d="M507.27 360c.18 0 .33-.15.33-.33V353h6.67c.18 0 .33-.15.33-.33v-1.34c0-.18-.15-.33-.33-.33h-6.67v-6.67c0-.18-.15-.33-.33-.33h-1.34c-.18 0-.33.15-.33.33V351h-6.67c-.18 0-.33.15-.33.33v1.34c0 .18.15.33.33.33h6.67v6.67c0 .18.15.33.33.33h1.34Z" class="cls-2"/>
  </g>
  <g id="Icon_Plus-27">
    <path id="Icon-Plus-27" d="M673.47 360c.18 0 .33-.15.33-.33V353h6.67c.18 0 .33-.15.33-.33v-1.34c0-.18-.15-.33-.33-.33h-6.67v-6.67c0-.18-.15-.33-.33-.33h-1.34c-.18 0-.33.15-.33.33V351h-6.67c-.18 0-.33.15-.33.33v1.34c0 .18.15.33.33.33h6.67v6.67c0 .18.15.33.33.33h1.34Z" class="cls-2"/>
  </g>
  <g id="Icon_Plus-28">
    <path id="Icon-Plus-28" d="M839.67 360c.18 0 .33-.15.33-.33V353h6.67c.18 0 .33-.15.33-.33v-1.34c0-.18-.15-.33-.33-.33H840v-6.67c0-.18-.15-.33-.33-.33h-1.34c-.18 0-.33.15-.33.33V351h-6.67c-.18 0-.33.15-.33.33v1.34c0 .18.15.33.33.33H838v6.67c0 .18.15.33.33.33h1.34Z" class="cls-2"/>
  </g>
  <g id="Icon_Plus-29">
    <path id="Icon-Plus-29" d="M91.77 446c.18 0 .33-.15.33-.33V439h6.67c.18 0 .33-.15.33-.33v-1.34c0-.18-.15-.33-.33-.33H92.1v-6.67c0-.18-.15-.33-.33-.33h-1.34c-.18 0-.33.15-.33.33V437h-6.67c-.18 0-.33.15-.33.33v1.34c0 .18.15.33.33.33h6.67v6.67c0 .18.15.33.33.33h1.34Z" class="cls-2"/>
  </g>
  <g id="Icon_Plus-30">
    <path id="Icon-Plus-30" d="M258 446c.18 0 .33-.15.33-.33V439H265c.18 0 .33-.15.33-.33v-1.34c0-.18-.15-.33-.33-.33h-6.7v-6.67c0-.17-.13-.31-.3-.33h-1.34c-.18 0-.33.15-.33.33V437h-6.67c-.18 0-.33.15-.33.33v1.34c0 .18.15.33.33.33h6.67v6.67c0 .18.15.33.33.33H258Z" class="cls-2"/>
  </g>
  <g id="Icon_Plus-31">
    <path id="Icon-Plus-31" d="M424.17 446c.18 0 .33-.15.33-.33V439h6.67c.18 0 .33-.15.33-.33v-1.34c0-.18-.15-.33-.33-.33h-6.67v-6.67c0-.18-.15-.33-.33-.33h-1.34c-.18 0-.33.15-.33.33V437h-6.67c-.18 0-.33.15-.33.33v1.34c0 .18.15.33.33.33h6.67v6.67c0 .18.15.33.33.33h1.34Z" class="cls-2"/>
  </g>
  <g id="Icon_Plus-32">
    <path id="Icon-Plus-32" d="M590.37 446c.18 0 .33-.15.33-.33V439h6.67c.18 0 .33-.15.33-.33v-1.34c0-.18-.15-.33-.33-.33h-6.67v-6.67c0-.18-.15-.33-.33-.33H589c-.18 0-.33.15-.33.33V437H582c-.18 0-.33.15-.33.33v1.34c0 .18.15.33.33.33h6.67v6.67c0 .18.15.33.33.33h1.37Z" class="cls-2"/>
  </g>
  <g id="Icon_Plus-33">
    <path id="Icon-Plus-33" d="M756.57 446c.18 0 .33-.15.33-.33V439h6.67c.18 0 .33-.15.33-.33v-1.34c0-.18-.15-.33-.33-.33h-6.67v-6.67c0-.18-.15-.33-.33-.33h-1.34c-.18 0-.33.15-.33.33V437h-6.67c-.18 0-.33.15-.33.33v1.34c0 .18.15.33.33.33h6.67v6.67c0 .18.15.33.33.33h1.34Z" class="cls-2"/>
  </g>
  <path d="M91.1 518.2c3.2 0 5.8 2.6 5.8 5.8s-2.6 5.8-5.8 5.8-5.8-2.6-5.8-5.8c0-3.2 2.6-5.8 5.8-5.8m0-2.2c-4.42 0-8 3.58-8 8s3.58 8 8 8 8-3.58 8-8-3.58-8-8-8Zm166.2 2.2c3.2 0 5.8 2.6 5.8 5.8s-2.6 5.8-5.8 5.8-5.8-2.6-5.8-5.8c0-3.2 2.6-5.8 5.8-5.8m0-2.2c-4.42 0-8 3.58-8 8s3.58 8 8 8 8-3.58 8-8-3.58-8-8-8Zm166.2 2.2c3.2 0 5.8 2.6 5.8 5.8s-2.6 5.8-5.8 5.8c-3.2 0-5.8-2.6-5.8-5.8 0-3.2 2.6-5.8 5.8-5.8m0-2.2c-4.42 0-8 3.58-8 8s3.58 8 8 8 8-3.58 8-8-3.58-8-8-8Zm166.2 2.2c3.2 0 5.8 2.6 5.8 5.8 0 3.2-2.6 5.8-5.8 5.8-3.2 0-5.8-2.6-5.8-5.8 0-3.2 2.6-5.8 5.8-5.8m0-2.2c-4.42 0-8 3.58-8 8s3.58 8 8 8 8-3.58 8-8-3.58-8-8-8Zm166.2 2.2c3.2 0 5.8 2.6 5.8 5.8 0 3.2-2.6 5.8-5.8 5.8-3.2 0-5.8-2.6-5.8-5.8 0-3.2 2.6-5.8 5.8-5.8m0-2.2c-4.42 0-8 3.58-8 8s3.58 8 8 8 8-3.58 8-8-3.58-8-8-8Z" class="cls-1"/>
  <g id="Icon_Plus-34">
    <path id="Icon-Plus-34" d="M8.67 532c.18 0 .33-.15.33-.33V525h6.67c.18 0 .33-.15.33-.33v-1.34c0-.18-.15-.33-.33-.33H9v-6.67c0-.18-.15-.33-.33-.33H7.33c-.18 0-.33.15-.33.33V523H.33c-.18 0-.33.15-.33.33v1.34c0 .18.15.33.33.33H7v6.67c0 .18.15.33.33.33h1.34Z" class="cls-2"/>
  </g>
  <g id="Icon_Plus-35">
    <path id="Icon-Plus-35" d="M174.87 532c.18 0 .33-.15.33-.33V525h6.67c.18 0 .33-.15.33-.33v-1.34c0-.18-.15-.33-.33-.33h-6.67v-6.67c0-.18-.15-.33-.33-.33h-1.34c-.18 0-.33.15-.33.33V523h-6.67c-.18 0-.33.15-.33.33v1.34c0 .18.15.33.33.33h6.67v6.67c0 .18.15.33.33.33h1.34Z" class="cls-2"/>
  </g>
  <g id="Icon_Plus-36">
    <path id="Icon-Plus-36" d="M341.07 532c.18 0 .33-.15.33-.33V525h6.67c.18 0 .33-.15.33-.33v-1.34c0-.18-.15-.33-.33-.33h-6.67v-6.67c0-.18-.15-.33-.33-.33h-1.34c-.18 0-.33.15-.33.33V523h-6.67c-.18 0-.33.15-.33.33v1.34c0 .18.15.33.33.33h6.67v6.67c0 .18.15.33.33.33h1.34Z" class="cls-2"/>
  </g>
  <g id="Icon_Plus-37">
    <path id="Icon-Plus-37" d="M507.27 532c.18 0 .33-.15.33-.33V525h6.67c.18 0 .33-.15.33-.33v-1.34c0-.18-.15-.33-.33-.33h-6.67v-6.67c0-.18-.15-.33-.33-.33h-1.34c-.18 0-.33.15-.33.33V523h-6.67c-.18 0-.33.15-.33.33v1.34c0 .18.15.33.33.33h6.67v6.67c0 .18.15.33.33.33h1.34Z" class="cls-2"/>
  </g>
  <g id="Icon_Plus-38">
    <path id="Icon-Plus-38" d="M673.47 532c.18 0 .33-.15.33-.33V525h6.67c.18 0 .33-.15.33-.33v-1.34c0-.18-.15-.33-.33-.33h-6.67v-6.67c0-.18-.15-.33-.33-.33h-1.34c-.18 0-.33.15-.33.33V523h-6.67c-.18 0-.33.15-.33.33v1.34c0 .18.15.33.33.33h6.67v6.67c0 .18.15.33.33.33h1.34Z" class="cls-2"/>
  </g>
  <g id="Icon_Plus-39">
    <path id="Icon-Plus-39" d="M839.67 532c.18 0 .33-.15.33-.33V525h6.67c.18 0 .33-.15.33-.33v-1.34c0-.18-.15-.33-.33-.33H840v-6.67c0-.18-.15-.33-.33-.33h-1.34c-.18 0-.33.15-.33.33V523h-6.67c-.18 0-.33.15-.33.33v1.34c0 .18.15.33.33.33H838v6.67c0 .18.15.33.33.33h1.34Z" class="cls-2"/>
  </g>
  <path d="M839 604.2c3.2 0 5.8 2.6 5.8 5.8 0 3.2-2.6 5.8-5.8 5.8-3.2 0-5.8-2.6-5.8-5.8 0-3.2 2.6-5.8 5.8-5.8m0-2.2c-4.42 0-8 3.58-8 8s3.58 8 8 8 8-3.58 8-8-3.58-8-8-8Zm-166.2 2.2c3.2 0 5.8 2.6 5.8 5.8 0 3.2-2.6 5.8-5.8 5.8-3.2 0-5.8-2.6-5.8-5.8 0-3.2 2.6-5.8 5.8-5.8m0-2.2c-4.42 0-8 3.58-8 8s3.58 8 8 8 8-3.58 8-8-3.58-8-8-8Zm-166.2 2.2c3.2 0 5.8 2.6 5.8 5.8s-2.6 5.8-5.8 5.8c-3.2 0-5.8-2.6-5.8-5.8 0-3.2 2.6-5.8 5.8-5.8m0-2.2c-4.42 0-8 3.58-8 8s3.58 8 8 8 8-3.58 8-8-3.58-8-8-8Zm-166.2 2.2c3.2 0 5.8 2.6 5.8 5.8s-2.6 5.8-5.8 5.8c-3.2 0-5.8-2.6-5.8-5.8 0-3.2 2.6-5.8 5.8-5.8m0-2.2c-4.42 0-8 3.58-8 8s3.58 8 8 8 8-3.58 8-8-3.58-8-8-8Zm-166.2 2.2c3.2 0 5.8 2.6 5.8 5.8s-2.6 5.8-5.8 5.8-5.8-2.6-5.8-5.8c0-3.2 2.6-5.8 5.8-5.8m0-2.2c-4.42 0-8 3.58-8 8s3.58 8 8 8 8-3.58 8-8-3.58-8-8-8ZM8 604.2c3.2 0 5.8 2.6 5.8 5.8s-2.6 5.8-5.8 5.8-5.8-2.6-5.8-5.8c0-3.2 2.6-5.8 5.8-5.8m0-2.2c-4.42 0-8 3.58-8 8s3.58 8 8 8 8-3.58 8-8-3.58-8-8-8Z" class="cls-1"/>
  <g id="Icon_Plus-40">
    <path id="Icon-Plus-40" d="M91.77 618c.18 0 .33-.15.33-.33V611h6.67c.18 0 .33-.15.33-.33v-1.34c0-.18-.15-.33-.33-.33H92.1v-6.67c0-.18-.15-.33-.33-.33h-1.34c-.18 0-.33.15-.33.33V609h-6.67c-.18 0-.33.15-.33.33v1.34c0 .18.15.33.33.33h6.67v6.67c0 .18.15.33.33.33h1.34Z" class="cls-2"/>
  </g>
  <g id="Icon_Plus-41">
    <path id="Icon-Plus-41" d="M258 618c.18 0 .33-.15.33-.33V611H265c.18 0 .33-.15.33-.33v-1.34c0-.18-.15-.33-.33-.33h-6.7v-6.67c0-.17-.13-.31-.3-.33h-1.34c-.18 0-.33.15-.33.33V609h-6.67c-.18 0-.33.15-.33.33v1.34c0 .18.15.33.33.33h6.67v6.67c0 .18.15.33.33.33H258Z" class="cls-2"/>
  </g>
  <g id="Icon_Plus-42">
    <path id="Icon-Plus-42" d="M424.17 618c.18 0 .33-.15.33-.33V611h6.67c.18 0 .33-.15.33-.33v-1.34c0-.18-.15-.33-.33-.33h-6.67v-6.67c0-.18-.15-.33-.33-.33h-1.34c-.18 0-.33.15-.33.33V609h-6.67c-.18 0-.33.15-.33.33v1.34c0 .18.15.33.33.33h6.67v6.67c0 .18.15.33.33.33h1.34Z" class="cls-2"/>
  </g>
  <g id="Icon_Plus-43">
    <path id="Icon-Plus-43" d="M590.37 618c.18 0 .33-.15.33-.33V611h6.67c.18 0 .33-.15.33-.33v-1.34c0-.18-.15-.33-.33-.33h-6.67v-6.67c0-.18-.15-.33-.33-.33H589c-.18 0-.33.15-.33.33V609H582c-.18 0-.33.15-.33.33v1.34c0 .18.15.33.33.33h6.67v6.67c0 .18.15.33.33.33h1.37Z" class="cls-2"/>
  </g>
  <g id="Icon_Plus-44">
    <path id="Icon-Plus-44" d="M756.57 618c.18 0 .33-.15.33-.33V611h6.67c.18 0 .33-.15.33-.33v-1.34c0-.18-.15-.33-.33-.33h-6.67v-6.67c0-.18-.15-.33-.33-.33h-1.34c-.18 0-.33.15-.33.33V609h-6.67c-.18 0-.33.15-.33.33v1.34c0 .18.15.33.33.33h6.67v6.67c0 .18.15.33.33.33h1.34Z" class="cls-2"/>
  </g>
  <path d="M91.1 690.2c3.2 0 5.8 2.6 5.8 5.8s-2.6 5.8-5.8 5.8-5.8-2.6-5.8-5.8c0-3.2 2.6-5.8 5.8-5.8m0-2.2c-4.42 0-8 3.58-8 8s3.58 8 8 8 8-3.58 8-8-3.58-8-8-8Zm166.2 2.2c3.2 0 5.8 2.6 5.8 5.8s-2.6 5.8-5.8 5.8-5.8-2.6-5.8-5.8c0-3.2 2.6-5.8 5.8-5.8m0-2.2c-4.42 0-8 3.58-8 8s3.58 8 8 8 8-3.58 8-8-3.58-8-8-8Zm166.2 2.2c3.2 0 5.8 2.6 5.8 5.8s-2.6 5.8-5.8 5.8c-3.2 0-5.8-2.6-5.8-5.8 0-3.2 2.6-5.8 5.8-5.8m0-2.2c-4.42 0-8 3.58-8 8s3.58 8 8 8 8-3.58 8-8-3.58-8-8-8Zm166.2 2.2c3.2 0 5.8 2.6 5.8 5.8 0 3.2-2.6 5.8-5.8 5.8-3.2 0-5.8-2.6-5.8-5.8 0-3.2 2.6-5.8 5.8-5.8m0-2.2c-4.42 0-8 3.58-8 8s3.58 8 8 8 8-3.58 8-8-3.58-8-8-8Zm166.2 2.2c3.2 0 5.8 2.6 5.8 5.8 0 3.2-2.6 5.8-5.8 5.8-3.2 0-5.8-2.6-5.8-5.8 0-3.2 2.6-5.8 5.8-5.8m0-2.2c-4.42 0-8 3.58-8 8s3.58 8 8 8 8-3.58 8-8-3.58-8-8-8Z" class="cls-1"/>
  <g id="Icon_Plus-45">
    <path id="Icon-Plus-45" d="M8.67 704c.18 0 .33-.15.33-.33V697h6.67c.18 0 .33-.15.33-.33v-1.34c0-.18-.15-.33-.33-.33H9v-6.67c0-.18-.15-.33-.33-.33H7.33c-.18 0-.33.15-.33.33V695H.33c-.18 0-.33.15-.33.33v1.34c0 .18.15.33.33.33H7v6.67c0 .18.15.33.33.33h1.34Z" class="cls-2"/>
  </g>
  <g id="Icon_Plus-46">
    <path id="Icon-Plus-46" d="M174.87 704c.18 0 .33-.15.33-.33V697h6.67c.18 0 .33-.15.33-.33v-1.34c0-.18-.15-.33-.33-.33h-6.67v-6.67c0-.18-.15-.33-.33-.33h-1.34c-.18 0-.33.15-.33.33V695h-6.67c-.18 0-.33.15-.33.33v1.34c0 .18.15.33.33.33h6.67v6.67c0 .18.15.33.33.33h1.34Z" class="cls-2"/>
  </g>
  <g id="Icon_Plus-47">
    <path id="Icon-Plus-47" d="M341.07 704c.18 0 .33-.15.33-.33V697h6.67c.18 0 .33-.15.33-.33v-1.34c0-.18-.15-.33-.33-.33h-6.67v-6.67c0-.18-.15-.33-.33-.33h-1.34c-.18 0-.33.15-.33.33V695h-6.67c-.18 0-.33.15-.33.33v1.34c0 .18.15.33.33.33h6.67v6.67c0 .18.15.33.33.33h1.34Z" class="cls-2"/>
  </g>
  <g id="Icon_Plus-48">
    <path id="Icon-Plus-48" d="M507.27 704c.18 0 .33-.15.33-.33V697h6.67c.18 0 .33-.15.33-.33v-1.34c0-.18-.15-.33-.33-.33h-6.67v-6.67c0-.18-.15-.33-.33-.33h-1.34c-.18 0-.33.15-.33.33V695h-6.67c-.18 0-.33.15-.33.33v1.34c0 .18.15.33.33.33h6.67v6.67c0 .18.15.33.33.33h1.34Z" class="cls-2"/>
  </g>
  <g id="Icon_Plus-49">
    <path id="Icon-Plus-49" d="M673.47 704c.18 0 .33-.15.33-.33V697h6.67c.18 0 .33-.15.33-.33v-1.34c0-.18-.15-.33-.33-.33h-6.67v-6.67c0-.18-.15-.33-.33-.33h-1.34c-.18 0-.33.15-.33.33V695h-6.67c-.18 0-.33.15-.33.33v1.34c0 .18.15.33.33.33h6.67v6.67c0 .18.15.33.33.33h1.34Z" class="cls-2"/>
  </g>
  <g id="Icon_Plus-50">
    <path id="Icon-Plus-50" d="M839.67 704c.18 0 .33-.15.33-.33V697h6.67c.18 0 .33-.15.33-.33v-1.34c0-.18-.15-.33-.33-.33H840v-6.67c0-.18-.15-.33-.33-.33h-1.34c-.18 0-.33.15-.33.33V695h-6.67c-.18 0-.33.15-.33.33v1.34c0 .18.15.33.33.33H838v6.67c0 .18.15.33.33.33h1.34Z" class="cls-2"/>
  </g>
  <path d="M839 776.2c3.2 0 5.8 2.6 5.8 5.8 0 3.2-2.6 5.8-5.8 5.8-3.2 0-5.8-2.6-5.8-5.8 0-3.2 2.6-5.8 5.8-5.8m0-2.2c-4.42 0-8 3.58-8 8s3.58 8 8 8 8-3.58 8-8-3.58-8-8-8Zm-166.2 2.2c3.2 0 5.8 2.6 5.8 5.8 0 3.2-2.6 5.8-5.8 5.8-3.2 0-5.8-2.6-5.8-5.8 0-3.2 2.6-5.8 5.8-5.8m0-2.2c-4.42 0-8 3.58-8 8s3.58 8 8 8 8-3.58 8-8-3.58-8-8-8Zm-166.2 2.2c3.2 0 5.8 2.6 5.8 5.8s-2.6 5.8-5.8 5.8c-3.2 0-5.8-2.6-5.8-5.8 0-3.2 2.6-5.8 5.8-5.8m0-2.2c-4.42 0-8 3.58-8 8s3.58 8 8 8 8-3.58 8-8-3.58-8-8-8Zm-166.2 2.2c3.2 0 5.8 2.6 5.8 5.8s-2.6 5.8-5.8 5.8c-3.2 0-5.8-2.6-5.8-5.8 0-3.2 2.6-5.8 5.8-5.8m0-2.2c-4.42 0-8 3.58-8 8s3.58 8 8 8 8-3.58 8-8-3.58-8-8-8Zm-166.2 2.2c3.2 0 5.8 2.6 5.8 5.8s-2.6 5.8-5.8 5.8-5.8-2.6-5.8-5.8c0-3.2 2.6-5.8 5.8-5.8m0-2.2c-4.42 0-8 3.58-8 8s3.58 8 8 8 8-3.58 8-8-3.58-8-8-8ZM8 776.2c3.2 0 5.8 2.6 5.8 5.8s-2.6 5.8-5.8 5.8-5.8-2.6-5.8-5.8c0-3.2 2.6-5.8 5.8-5.8m0-2.2c-4.42 0-8 3.58-8 8s3.58 8 8 8 8-3.58 8-8-3.58-8-8-8Z" class="cls-1"/>
  <g id="Icon_Plus-51">
    <path id="Icon-Plus-51" d="M91.77 790c.18 0 .33-.15.33-.33V783h6.67c.18 0 .33-.15.33-.33v-1.34c0-.18-.15-.33-.33-.33H92.1v-6.67c0-.18-.15-.33-.33-.33h-1.34c-.18 0-.33.15-.33.33V781h-6.67c-.18 0-.33.15-.33.33v1.34c0 .18.15.33.33.33h6.67v6.67c0 .18.15.33.33.33h1.34Z" class="cls-2"/>
  </g>
  <g id="Icon_Plus-52">
    <path id="Icon-Plus-52" d="M258 790c.18 0 .33-.15.33-.33V783H265c.18 0 .33-.15.33-.33v-1.34c0-.18-.15-.33-.33-.33h-6.7v-6.67c0-.17-.13-.31-.3-.33h-1.34c-.18 0-.33.15-.33.33V781h-6.67c-.18 0-.33.15-.33.33v1.34c0 .18.15.33.33.33h6.67v6.67c0 .18.15.33.33.33H258Z" class="cls-2"/>
  </g>
  <g id="Icon_Plus-53">
    <path id="Icon-Plus-53" d="M424.17 790c.18 0 .33-.15.33-.33V783h6.67c.18 0 .33-.15.33-.33v-1.34c0-.18-.15-.33-.33-.33h-6.67v-6.67c0-.18-.15-.33-.33-.33h-1.34c-.18 0-.33.15-.33.33V781h-6.67c-.18 0-.33.15-.33.33v1.34c0 .18.15.33.33.33h6.67v6.67c0 .18.15.33.33.33h1.34Z" class="cls-2"/>
  </g>
  <g id="Icon_Plus-54">
    <path id="Icon-Plus-54" d="M590.37 790c.18 0 .33-.15.33-.33V783h6.67c.18 0 .33-.15.33-.33v-1.34c0-.18-.15-.33-.33-.33h-6.67v-6.67c0-.18-.15-.33-.33-.33H589c-.18 0-.33.15-.33.33V781H582c-.18 0-.33.15-.33.33v1.34c0 .18.15.33.33.33h6.67v6.67c0 .18.15.33.33.33h1.37Z" class="cls-2"/>
  </g>
  <g id="Icon_Plus-55">
    <path id="Icon-Plus-55" d="M756.57 790c.18 0 .33-.15.33-.33V783h6.67c.18 0 .33-.15.33-.33v-1.34c0-.18-.15-.33-.33-.33h-6.67v-6.67c0-.18-.15-.33-.33-.33h-1.34c-.18 0-.33.15-.33.33V781h-6.67c-.18 0-.33.15-.33.33v1.34c0 .18.15.33.33.33h6.67v6.67c0 .18.15.33.33.33h1.34Z" class="cls-2"/>
  </g>
  <path d="M91.1 862.2c3.2 0 5.8 2.6 5.8 5.8s-2.6 5.8-5.8 5.8-5.8-2.6-5.8-5.8c0-3.2 2.6-5.8 5.8-5.8m0-2.2c-4.42 0-8 3.58-8 8s3.58 8 8 8 8-3.58 8-8-3.58-8-8-8Zm166.2 2.2c3.2 0 5.8 2.6 5.8 5.8s-2.6 5.8-5.8 5.8-5.8-2.6-5.8-5.8c0-3.2 2.6-5.8 5.8-5.8m0-2.2c-4.42 0-8 3.58-8 8s3.58 8 8 8 8-3.58 8-8-3.58-8-8-8Zm166.2 2.2c3.2 0 5.8 2.6 5.8 5.8s-2.6 5.8-5.8 5.8c-3.2 0-5.8-2.6-5.8-5.8 0-3.2 2.6-5.8 5.8-5.8m0-2.2c-4.42 0-8 3.58-8 8s3.58 8 8 8 8-3.58 8-8-3.58-8-8-8Zm166.2 2.2c3.2 0 5.8 2.6 5.8 5.8 0 3.2-2.6 5.8-5.8 5.8-3.2 0-5.8-2.6-5.8-5.8 0-3.2 2.6-5.8 5.8-5.8m0-2.2c-4.42 0-8 3.58-8 8s3.58 8 8 8 8-3.58 8-8-3.58-8-8-8Zm166.2 2.2c3.2 0 5.8 2.6 5.8 5.8 0 3.2-2.6 5.8-5.8 5.8-3.2 0-5.8-2.6-5.8-5.8 0-3.2 2.6-5.8 5.8-5.8m0-2.2c-4.42 0-8 3.58-8 8s3.58 8 8 8 8-3.58 8-8-3.58-8-8-8Z" class="cls-1"/>
  <g id="Icon_Plus-56">
    <path id="Icon-Plus-56" d="M8.67 876c.18 0 .33-.15.33-.33V869h6.67c.18 0 .33-.15.33-.33v-1.34c0-.18-.15-.33-.33-.33H9v-6.67c0-.18-.15-.33-.33-.33H7.33c-.18 0-.33.15-.33.33V867H.33c-.18 0-.33.15-.33.33v1.34c0 .18.15.33.33.33H7v6.67c0 .18.15.33.33.33h1.34Z" class="cls-2"/>
  </g>
  <g id="Icon_Plus-57">
    <path id="Icon-Plus-57" d="M174.87 876c.18 0 .33-.15.33-.33V869h6.67c.18 0 .33-.15.33-.33v-1.34c0-.18-.15-.33-.33-.33h-6.67v-6.67c0-.18-.15-.33-.33-.33h-1.34c-.18 0-.33.15-.33.33V867h-6.67c-.18 0-.33.15-.33.33v1.34c0 .18.15.33.33.33h6.67v6.67c0 .18.15.33.33.33h1.34Z" class="cls-2"/>
  </g>
  <g id="Icon_Plus-58">
    <path id="Icon-Plus-58" d="M341.07 876c.18 0 .33-.15.33-.33V869h6.67c.18 0 .33-.15.33-.33v-1.34c0-.18-.15-.33-.33-.33h-6.67v-6.67c0-.18-.15-.33-.33-.33h-1.34c-.18 0-.33.15-.33.33V867h-6.67c-.18 0-.33.15-.33.33v1.34c0 .18.15.33.33.33h6.67v6.67c0 .18.15.33.33.33h1.34Z" class="cls-2"/>
  </g>
  <g id="Icon_Plus-59">
    <path id="Icon-Plus-59" d="M507.27 876c.18 0 .33-.15.33-.33V869h6.67c.18 0 .33-.15.33-.33v-1.34c0-.18-.15-.33-.33-.33h-6.67v-6.67c0-.18-.15-.33-.33-.33h-1.34c-.18 0-.33.15-.33.33V867h-6.67c-.18 0-.33.15-.33.33v1.34c0 .18.15.33.33.33h6.67v6.67c0 .18.15.33.33.33h1.34Z" class="cls-2"/>
  </g>
  <g id="Icon_Plus-60">
    <path id="Icon-Plus-60" d="M673.47 876c.18 0 .33-.15.33-.33V869h6.67c.18 0 .33-.15.33-.33v-1.34c0-.18-.15-.33-.33-.33h-6.67v-6.67c0-.18-.15-.33-.33-.33h-1.34c-.18 0-.33.15-.33.33V867h-6.67c-.18 0-.33.15-.33.33v1.34c0 .18.15.33.33.33h6.67v6.67c0 .18.15.33.33.33h1.34Z" class="cls-2"/>
  </g>
  <g id="Icon_Plus-61">
    <path id="Icon-Plus-61" d="M839.67 876c.18 0 .33-.15.33-.33V869h6.67c.18 0 .33-.15.33-.33v-1.34c0-.18-.15-.33-.33-.33H840v-6.67c0-.18-.15-.33-.33-.33h-1.34c-.18 0-.33.15-.33.33V867h-6.67c-.18 0-.33.15-.33.33v1.34c0 .18.15.33.33.33H838v6.67c0 .18.15.33.33.33h1.34Z" class="cls-2"/>
  </g>
  <path d="M91.1 1034.2c3.2 0 5.8 2.6 5.8 5.8s-2.6 5.8-5.8 5.8-5.8-2.6-5.8-5.8 2.6-5.8 5.8-5.8m0-2.2c-4.42 0-8 3.58-8 8s3.58 8 8 8 8-3.58 8-8-3.58-8-8-8Zm166.2 2.2c3.2 0 5.8 2.6 5.8 5.8s-2.6 5.8-5.8 5.8-5.8-2.6-5.8-5.8 2.6-5.8 5.8-5.8m0-2.2c-4.42 0-8 3.58-8 8s3.58 8 8 8 8-3.58 8-8-3.58-8-8-8Zm166.2 2.2c3.2 0 5.8 2.6 5.8 5.8s-2.6 5.8-5.8 5.8-5.8-2.6-5.8-5.8 2.6-5.8 5.8-5.8m0-2.2c-4.42 0-8 3.58-8 8s3.58 8 8 8 8-3.58 8-8-3.58-8-8-8Zm166.2 2.2c3.2 0 5.8 2.6 5.8 5.8 0 3.2-2.6 5.8-5.8 5.8s-5.8-2.6-5.8-5.8 2.6-5.8 5.8-5.8m0-2.2c-4.42 0-8 3.58-8 8s3.58 8 8 8 8-3.58 8-8-3.58-8-8-8Zm166.2 2.2c3.2 0 5.8 2.6 5.8 5.8 0 3.2-2.6 5.8-5.8 5.8s-5.8-2.6-5.8-5.8 2.6-5.8 5.8-5.8m0-2.2c-4.42 0-8 3.58-8 8s3.58 8 8 8 8-3.58 8-8-3.58-8-8-8Z" class="cls-1"/>
  <g id="Icon_Plus-62">
    <path id="Icon-Plus-62" d="M8.67 1048c.18 0 .33-.15.33-.33V1041h6.67c.18 0 .33-.15.33-.33v-1.34c0-.18-.15-.33-.33-.33H9v-6.67c0-.18-.15-.33-.33-.33H7.33c-.18 0-.33.15-.33.33v6.67H.33c-.18 0-.33.15-.33.33v1.34c0 .18.15.33.33.33H7v6.67c0 .18.15.33.33.33h1.34Z" class="cls-2"/>
  </g>
  <g id="Icon_Plus-63">
    <path id="Icon-Plus-63" d="M174.87 1048c.18 0 .33-.15.33-.33V1041h6.67c.18 0 .33-.15.33-.33v-1.34c0-.18-.15-.33-.33-.33h-6.67v-6.67c0-.18-.15-.33-.33-.33h-1.34c-.18 0-.33.15-.33.33v6.67h-6.67c-.18 0-.33.15-.33.33v1.34c0 .18.15.33.33.33h6.67v6.67c0 .18.15.33.33.33h1.34Z" class="cls-2"/>
  </g>
  <g id="Icon_Plus-64">
    <path id="Icon-Plus-64" d="M341.07 1048c.18 0 .33-.15.33-.33V1041h6.67c.18 0 .33-.15.33-.33v-1.34c0-.18-.15-.33-.33-.33h-6.67v-6.67c0-.18-.15-.33-.33-.33h-1.34c-.18 0-.33.15-.33.33v6.67h-6.67c-.18 0-.33.15-.33.33v1.34c0 .18.15.33.33.33h6.67v6.67c0 .18.15.33.33.33h1.34Z" class="cls-2"/>
  </g>
  <g id="Icon_Plus-65">
    <path id="Icon-Plus-65" d="M507.27 1048c.18 0 .33-.15.33-.33V1041h6.67c.18 0 .33-.15.33-.33v-1.34c0-.18-.15-.33-.33-.33h-6.67v-6.67c0-.18-.15-.33-.33-.33h-1.34c-.18 0-.33.15-.33.33v6.67h-6.67c-.18 0-.33.15-.33.33v1.34c0 .18.15.33.33.33h6.67v6.67c0 .18.15.33.33.33h1.34Z" class="cls-2"/>
  </g>
  <g id="Icon_Plus-66">
    <path id="Icon-Plus-66" d="M673.47 1048c.18 0 .33-.15.33-.33V1041h6.67c.18 0 .33-.15.33-.33v-1.34c0-.18-.15-.33-.33-.33h-6.67v-6.67c0-.18-.15-.33-.33-.33h-1.34c-.18 0-.33.15-.33.33v6.67h-6.67c-.18 0-.33.15-.33.33v1.34c0 .18.15.33.33.33h6.67v6.67c0 .18.15.33.33.33h1.34Z" class="cls-2"/>
  </g>
  <g id="Icon_Plus-67">
    <path id="Icon-Plus-67" d="M839.67 1048c.18 0 .33-.15.33-.33V1041h6.67c.18 0 .33-.15.33-.33v-1.34c0-.18-.15-.33-.33-.33H840v-6.67c0-.18-.15-.33-.33-.33h-1.34c-.18 0-.33.15-.33.33v6.67h-6.67c-.18 0-.33.15-.33.33v1.34c0 .18.15.33.33.33H838v6.67c0 .18.15.33.33.33h1.34Z" class="cls-2"/>
  </g>
  <path d="M839 948.2c3.2 0 5.8 2.6 5.8 5.8 0 3.2-2.6 5.8-5.8 5.8-3.2 0-5.8-2.6-5.8-5.8 0-3.2 2.6-5.8 5.8-5.8m0-2.2c-4.42 0-8 3.58-8 8s3.58 8 8 8 8-3.58 8-8-3.58-8-8-8Zm-166.2 2.2c3.2 0 5.8 2.6 5.8 5.8 0 3.2-2.6 5.8-5.8 5.8-3.2 0-5.8-2.6-5.8-5.8 0-3.2 2.6-5.8 5.8-5.8m0-2.2c-4.42 0-8 3.58-8 8s3.58 8 8 8 8-3.58 8-8-3.58-8-8-8Zm-166.2 2.2c3.2 0 5.8 2.6 5.8 5.8s-2.6 5.8-5.8 5.8c-3.2 0-5.8-2.6-5.8-5.8 0-3.2 2.6-5.8 5.8-5.8m0-2.2c-4.42 0-8 3.58-8 8s3.58 8 8 8 8-3.58 8-8-3.58-8-8-8Zm-166.2 2.2c3.2 0 5.8 2.6 5.8 5.8s-2.6 5.8-5.8 5.8c-3.2 0-5.8-2.6-5.8-5.8 0-3.2 2.6-5.8 5.8-5.8m0-2.2c-4.42 0-8 3.58-8 8s3.58 8 8 8 8-3.58 8-8-3.58-8-8-8Zm-166.2 2.2c3.2 0 5.8 2.6 5.8 5.8s-2.6 5.8-5.8 5.8-5.8-2.6-5.8-5.8c0-3.2 2.6-5.8 5.8-5.8m0-2.2c-4.42 0-8 3.58-8 8s3.58 8 8 8 8-3.58 8-8-3.58-8-8-8ZM8 948.2c3.2 0 5.8 2.6 5.8 5.8s-2.6 5.8-5.8 5.8-5.8-2.6-5.8-5.8c0-3.2 2.6-5.8 5.8-5.8m0-2.2c-4.42 0-8 3.58-8 8s3.58 8 8 8 8-3.58 8-8-3.58-8-8-8Z" class="cls-1"/>
  <g id="Icon_Plus-68">
    <path id="Icon-Plus-68" d="M91.77 962c.18 0 .33-.15.33-.33V955h6.67c.18 0 .33-.15.33-.33v-1.34c0-.18-.15-.33-.33-.33H92.1v-6.67c0-.18-.15-.33-.33-.33h-1.34c-.18 0-.33.15-.33.33V953h-6.67c-.18 0-.33.15-.33.33v1.34c0 .18.15.33.33.33h6.67v6.67c0 .18.15.33.33.33h1.34Z" class="cls-2"/>
  </g>
  <g id="Icon_Plus-69">
    <path id="Icon-Plus-69" d="M258 962c.18 0 .33-.15.33-.33V955H265c.18 0 .33-.15.33-.33v-1.34c0-.18-.15-.33-.33-.33h-6.7v-6.67c0-.17-.13-.31-.3-.33h-1.34c-.18 0-.33.15-.33.33V953h-6.67c-.18 0-.33.15-.33.33v1.34c0 .18.15.33.33.33h6.67v6.67c0 .18.15.33.33.33H258Z" class="cls-2"/>
  </g>
  <g id="Icon_Plus-70">
    <path id="Icon-Plus-70" d="M424.17 962c.18 0 .33-.15.33-.33V955h6.67c.18 0 .33-.15.33-.33v-1.34c0-.18-.15-.33-.33-.33h-6.67v-6.67c0-.18-.15-.33-.33-.33h-1.34c-.18 0-.33.15-.33.33V953h-6.67c-.18 0-.33.15-.33.33v1.34c0 .18.15.33.33.33h6.67v6.67c0 .18.15.33.33.33h1.34Z" class="cls-2"/>
  </g>
  <g id="Icon_Plus-71">
    <path id="Icon-Plus-71" d="M590.37 962c.18 0 .33-.15.33-.33V955h6.67c.18 0 .33-.15.33-.33v-1.34c0-.18-.15-.33-.33-.33h-6.67v-6.67c0-.18-.15-.33-.33-.33H589c-.18 0-.33.15-.33.33V953H582c-.18 0-.33.15-.33.33v1.34c0 .18.15.33.33.33h6.67v6.67c0 .18.15.33.33.33h1.37Z" class="cls-2"/>
  </g>
  <g id="Icon_Plus-72">
    <path id="Icon-Plus-72" d="M756.57 962c.18 0 .33-.15.33-.33V955h6.67c.18 0 .33-.15.33-.33v-1.34c0-.18-.15-.33-.33-.33h-6.67v-6.67c0-.18-.15-.33-.33-.33h-1.34c-.18 0-.33.15-.33.33V953h-6.67c-.18 0-.33.15-.33.33v1.34c0 .18.15.33.33.33h6.67v6.67c0 .18.15.33.33.33h1.34Z" class="cls-2"/>
  </g>
</svg>
