<svg id="Layer_1" data-name="Layer 1" xmlns="http://www.w3.org/2000/svg" viewBox="0 0 14 14"><defs><style>.cls-1{fill:#dc291e;}</style></defs><path class="cls-1" d="M8.72,9A3.15,3.15,0,0,0,9.83,6.65V6.41h1.62a4.41,4.41,0,0,0-.56-1.62,3.82,3.82,0,0,0-.31-.47L9,5.24C10,7,8.88,8.55,7.54,9.32a4.66,4.66,0,0,1-1.93.61,4.46,4.46,0,0,0,.63.05A3.82,3.82,0,0,0,8.73,9Z"/><path class="cls-1" d="M9.86,8.5,10,8.29l1,.58a4.55,4.55,0,0,0,.44-1.95c0-.13,0-.26,0-.38H10a3.83,3.83,0,0,1-3.83,3.57,4.23,4.23,0,0,1-2.39-.72,3.58,3.58,0,0,0,.73.55A3.93,3.93,0,0,0,9.86,8.5Z"/><path class="cls-1" d="M10.17,8.69a4.16,4.16,0,0,1-5.68,1.52A4.12,4.12,0,0,1,2.65,8a4.34,4.34,0,0,0,.49,1.23A4.49,4.49,0,0,0,11,9.15Z"/><path class="cls-1" d="M12.69,3.71a6.57,6.57,0,1,0-2.4,9,6.59,6.59,0,0,0,2.4-9ZM2.86,9.41A4.79,4.79,0,1,1,9.4,11.15,4.81,4.81,0,0,1,2.86,9.41Z"/></svg>