<?xml version="1.0" encoding="utf-8"?>
<!-- Generator: Adobe Illustrator 23.0.1, SVG Export Plug-In . SVG Version: 6.00 Build 0)  -->
<svg version="1.1" id="Layer_1" xmlns="http://www.w3.org/2000/svg" xmlns:xlink="http://www.w3.org/1999/xlink" x="0px" y="0px"
	 viewBox="0 0 672 148" style="enable-background:new 0 0 672 148;" xml:space="preserve">
<style type="text/css">
	.st0{fill:#FFFFFF;}
</style>
<path class="st0" d="M647.75,100.46V88.22h-27.59V75.9h24.65V64.41h-24.65V53.17h26.08V41.1h-39.91v59.36H647.75z M573,62.98
	c-0.65,0.95-1.47,1.68-2.49,2.18c-1.01,0.5-2.13,0.85-3.37,1.05c-1.24,0.2-2.45,0.29-3.62,0.29h-6.82V52.67h7.67
	c1.07,0,2.18,0.08,3.33,0.25c1.15,0.17,2.19,0.49,3.12,0.96c0.93,0.48,1.69,1.15,2.27,2.01c0.59,0.87,0.89,2,0.89,3.4
	C573.97,60.8,573.64,62.03,573,62.98 M591.33,100.46l-15.51-25.41c3.86-1.17,6.88-3.13,9.06-5.87c2.18-2.74,3.27-6.12,3.27-10.15
	c0-3.41-0.64-6.26-1.93-8.55c-1.29-2.29-3-4.14-5.16-5.53c-2.15-1.4-4.58-2.39-7.29-2.98c-2.71-0.59-5.49-0.88-8.34-0.88h-22.64
	v59.36h14V76.9h4.89l12.89,23.56H591.33z M510.41,77.95c-0.84,2.26-2.01,4.21-3.52,5.83c-1.51,1.62-3.3,2.89-5.37,3.81
	c-2.07,0.92-4.36,1.38-6.88,1.38c-2.52,0-4.81-0.46-6.88-1.38c-2.07-0.92-3.84-2.19-5.32-3.81c-1.48-1.62-2.64-3.56-3.48-5.83
	c-0.84-2.26-1.26-4.74-1.26-7.42c0-2.57,0.41-4.97,1.22-7.21s1.97-4.15,3.48-5.74c1.51-1.59,3.3-2.85,5.37-3.77
	c2.07-0.92,4.36-1.38,6.88-1.38c2.51,0,4.82,0.46,6.92,1.38c2.1,0.92,3.88,2.18,5.37,3.77c1.48,1.59,2.64,3.51,3.48,5.74
	c0.84,2.24,1.26,4.64,1.26,7.21C511.67,73.21,511.25,75.69,510.41,77.95 M524.58,57.66c-1.62-3.83-3.87-7.09-6.75-9.77
	c-2.88-2.68-6.3-4.75-10.27-6.2c-3.97-1.45-8.27-2.18-12.91-2.18c-4.64,0-8.93,0.73-12.87,2.18c-3.94,1.45-7.35,3.52-10.23,6.2
	c-2.88,2.68-5.13,5.94-6.75,9.77c-1.62,3.83-2.43,8.12-2.43,12.87c0,4.7,0.81,8.99,2.43,12.87c1.62,3.89,3.87,7.21,6.75,9.98
	c2.88,2.77,6.29,4.91,10.23,6.42c3.94,1.51,8.23,2.26,12.87,2.26c4.64,0,8.94-0.76,12.91-2.26c3.97-1.51,7.39-3.65,10.27-6.42
	c2.88-2.77,5.13-6.09,6.75-9.98c1.62-3.88,2.43-8.18,2.43-12.87C527.01,65.78,526.2,61.49,524.58,57.66 M453.73,92.25l-9.98-9.39
	c-1.29,1.79-2.99,3.24-5.11,4.36c-2.12,1.12-4.61,1.68-7.46,1.68c-2.46,0-4.72-0.45-6.79-1.34c-2.07-0.89-3.84-2.14-5.32-3.73
	c-1.48-1.59-2.64-3.51-3.48-5.74c-0.84-2.23-1.26-4.7-1.26-7.38c0-2.63,0.42-5.04,1.26-7.25c0.84-2.21,2.01-4.12,3.52-5.74
	c1.51-1.62,3.31-2.89,5.41-3.82c2.1-0.92,4.4-1.38,6.92-1.38c2.29,0,4.53,0.45,6.71,1.34c2.18,0.9,3.94,2.26,5.28,4.11l9.73-9.73
	c-2.52-2.85-5.8-5.02-9.85-6.5c-4.05-1.48-8.18-2.22-12.37-2.22c-4.53,0-8.75,0.73-12.66,2.18c-3.91,1.45-7.32,3.54-10.23,6.25
	c-2.91,2.71-5.19,6-6.83,9.85c-1.65,3.86-2.47,8.16-2.47,12.91c0,4.64,0.81,8.89,2.43,12.74c1.62,3.86,3.86,7.17,6.71,9.94
	c2.85,2.77,6.22,4.91,10.1,6.42c3.89,1.51,8.12,2.26,12.7,2.26c5.03,0,9.47-0.88,13.33-2.64C447.86,97.65,451.1,95.27,453.73,92.25
	 M385.31,100.46V88.22h-27.59V75.9h24.65V64.41h-24.65V53.17h26.08V41.1h-39.91v59.36H385.31z M328.13,53.34V41.1h-47.88v12.24
	h16.77v47.12h14.34V53.34H328.13z M264.49,41.1h-14.42v59.36h14.42V41.1z M232.63,46.88c-2.63-2.4-5.69-4.22-9.18-5.45
	c-3.49-1.23-6.92-1.85-10.27-1.85c-2.8,0-5.56,0.35-8.3,1.05c-2.74,0.7-5.2,1.8-7.38,3.31c-2.18,1.51-3.94,3.44-5.28,5.79
	c-1.34,2.35-2.01,5.17-2.01,8.47c0,2.68,0.43,4.96,1.3,6.83c0.87,1.87,2.01,3.47,3.44,4.78c1.42,1.31,3.05,2.39,4.86,3.23
	c1.82,0.84,3.67,1.57,5.58,2.18c1.95,0.62,3.7,1.19,5.24,1.72c1.54,0.53,2.82,1.12,3.86,1.76c1.03,0.64,1.83,1.36,2.39,2.14
	c0.56,0.78,0.84,1.73,0.84,2.85c0,1.17-0.22,2.18-0.67,3.02c-0.45,0.84-1.05,1.51-1.8,2.01c-0.76,0.5-1.64,0.87-2.64,1.09
	c-1.01,0.22-2.04,0.34-3.1,0.34c-2.35,0-4.71-0.6-7.09-1.8c-2.38-1.2-4.29-2.7-5.74-4.49l-9.39,9.56c2.63,2.74,5.92,4.85,9.89,6.33
	c3.97,1.48,8.08,2.22,12.33,2.22c2.9,0,5.73-0.39,8.47-1.17c2.74-0.78,5.17-1.98,7.29-3.61c2.12-1.62,3.81-3.67,5.07-6.16
	c1.26-2.49,1.89-5.44,1.89-8.85c0-2.96-0.59-5.44-1.76-7.42c-1.17-1.98-2.66-3.65-4.44-4.99c-1.79-1.34-3.77-2.42-5.95-3.23
	c-2.18-0.81-4.28-1.55-6.29-2.22c-1.4-0.45-2.66-0.88-3.77-1.3c-1.12-0.42-2.08-0.88-2.89-1.38c-0.81-0.5-1.43-1.09-1.85-1.76
	c-0.42-0.67-0.63-1.51-0.63-2.52c0-1.17,0.27-2.14,0.8-2.89c0.53-0.76,1.19-1.37,1.97-1.85c0.78-0.47,1.66-0.8,2.64-0.96
	c0.98-0.17,1.94-0.25,2.89-0.25c1.85,0,3.76,0.46,5.74,1.38c1.98,0.92,3.59,2.17,4.82,3.73L232.63,46.88z"/>
<path class="st0" d="M70.86,107.15c5.62-0.73,11.05-2.43,15.97-5.17c12.15-6.76,19.17-18.38,19.76-32.72l0.05-1.24h16.81
	c-1.06-8.5-4.28-16.35-9.09-22.96L97.15,56.1c5.23,8.2,5.91,17.3,1.93,26.38C94.38,93.23,83.29,102.66,70.86,107.15"/>
<path class="st0" d="M123.7,70.61h-14.6c-0.98,14.51-8.6,26.72-21.02,33.64c-7.09,3.95-15.16,5.91-23.41,5.91
	c-6.39,0-12.88-1.18-19.09-3.53c7.47,4.66,15.87,7.21,24.57,7.24h0.13c15.71,0,29.81-8.31,37.74-22.24l0.67-1.18l9.77,6.19
	c3.44-6.74,5.38-14.37,5.38-22.44C123.85,72.98,123.79,71.79,123.7,70.61"/>
<path class="st0" d="M70.28,116.45h-0.14c-15.65-0.05-30.35-7.79-40.82-21.13c7.95,16.83,25.08,28.5,44.89,28.5
	c18.37,0,34.42-10.04,43-24.91l-7.64-4.84C101.07,108.11,86.49,116.45,70.28,116.45"/>
<path class="st0" d="M74.22,126.4C45.38,126.4,22,103.03,22,74.19c0-28.84,23.38-52.22,52.22-52.22s52.22,23.38,52.22,52.22
	C126.44,103.03,103.06,126.4,74.22,126.4 M74.22,2.37c-39.66,0-71.81,32.15-71.81,71.81c0,39.66,32.15,71.81,71.81,71.81
	s71.81-32.15,71.81-71.81C146.03,34.53,113.88,2.37,74.22,2.37"/>
<path class="st0" d="M663.17,46.69V44.8h1.08c0.31,0,0.61,0.06,0.89,0.18c0.28,0.12,0.43,0.36,0.43,0.72c0,0.4-0.16,0.66-0.46,0.79
	c-0.31,0.13-0.64,0.19-0.98,0.19H663.17z M661.98,50.4h1.19v-2.76h0.85l1.55,2.76h1.44l-1.78-2.89c0.46-0.1,0.83-0.3,1.11-0.61
	c0.28-0.3,0.41-0.69,0.41-1.17c0-0.36-0.07-0.66-0.21-0.9c-0.14-0.24-0.32-0.44-0.56-0.59c-0.23-0.15-0.49-0.27-0.79-0.34
	c-0.29-0.07-0.59-0.1-0.9-0.1h-2.32V50.4z M659.71,45.19c0.26-0.6,0.61-1.13,1.06-1.57c0.45-0.45,0.97-0.8,1.57-1.06
	c0.6-0.26,1.25-0.39,1.94-0.39c0.69,0,1.33,0.13,1.93,0.39c0.6,0.26,1.13,0.61,1.57,1.06c0.45,0.45,0.8,0.97,1.06,1.57
	c0.26,0.6,0.39,1.25,0.39,1.94c0,0.67-0.13,1.31-0.39,1.91c-0.26,0.6-0.61,1.13-1.06,1.59c-0.45,0.46-0.97,0.81-1.57,1.07
	c-0.6,0.26-1.25,0.39-1.93,0.39c-0.69,0-1.33-0.13-1.94-0.39c-0.6-0.26-1.13-0.61-1.57-1.07c-0.45-0.46-0.8-0.98-1.06-1.59
	c-0.26-0.6-0.39-1.24-0.39-1.91C659.32,46.44,659.45,45.79,659.71,45.19 M658.86,49.4c0.31,0.7,0.73,1.32,1.26,1.85
	c0.53,0.52,1.16,0.94,1.87,1.24c0.71,0.3,1.47,0.45,2.28,0.45s1.57-0.15,2.28-0.45c0.71-0.3,1.34-0.71,1.87-1.24
	c0.53-0.52,0.95-1.14,1.26-1.85c0.31-0.7,0.46-1.46,0.46-2.27c0-0.81-0.16-1.57-0.46-2.28c-0.31-0.71-0.73-1.33-1.26-1.86
	c-0.53-0.52-1.16-0.94-1.87-1.25c-0.71-0.31-1.47-0.46-2.28-0.46s-1.57,0.15-2.28,0.46c-0.72,0.31-1.34,0.73-1.87,1.25
	c-0.53,0.52-0.95,1.14-1.26,1.86c-0.31,0.71-0.46,1.47-0.46,2.28C658.39,47.93,658.55,48.69,658.86,49.4"/>
</svg>
